<svg xmlns="http://www.w3.org/2000/svg" fill="none" viewBox="0 0 312 803">
  <g id="Hauptgebaeude_3_Obergeschoss" class="Hauptgebaeude_3_Obergeschoss">
    <g id="rooms" class="rooms">
      <g id="room_308" class="room">
        <path id="area" fill="#D9D9D9" d="M157.89 48.38H98.66v107.64h59.23V48.38Z" class="area"/>
        <g id="number" class="number">
          <path id="Vector" fill="#000" d="M121.48 97.04c.53 0 .92-.12 1.18-.35.26-.23.39-.53.39-.9v-.08c0-.4-.13-.7-.38-.9-.26-.2-.59-.3-1-.3-.41 0-.73.09-.98.26-.25.18-.45.41-.61.7l-.68-.52c.09-.15.21-.3.34-.45.14-.15.3-.28.48-.39.18-.11.4-.21.64-.28.24-.07.52-.11.83-.11.31 0 .63.04.91.12.28.08.53.21.73.37.2.16.37.36.49.6s.18.51.18.81c0 .24-.04.46-.11.66-.08.19-.18.36-.31.51-.13.14-.29.27-.47.37-.18.1-.37.18-.57.23v.04c.21.04.41.11.6.21.19.1.37.22.52.38.15.16.27.34.36.56.09.22.13.47.13.75 0 .32-.06.62-.19.89s-.3.5-.53.69c-.23.19-.5.34-.82.45-.32.11-.68.16-1.06.16-.33 0-.62-.04-.88-.11a2.63 2.63 0 0 1-1.2-.7c-.15-.15-.28-.31-.39-.48l.68-.52c.1.15.21.29.31.41.11.12.23.23.37.32.14.09.3.16.48.21.18.05.39.08.63.08.53 0 .94-.12 1.23-.37.29-.24.43-.59.43-1.05v-.09c0-.45-.14-.79-.42-1.04-.28-.24-.69-.37-1.25-.37h-.9v-.79h.83l.01.02Z" class="Vector"/>
          <path id="Vector_2" fill="#000" d="M128.28 101.52c-.46 0-.86-.09-1.19-.26-.33-.18-.6-.43-.82-.76-.22-.33-.38-.74-.48-1.22-.1-.48-.15-1.03-.15-1.65 0-.62.05-1.16.15-1.65.1-.49.26-.89.48-1.23.22-.34.49-.58.82-.76.33-.18.73-.26 1.19-.26.46 0 .86.09 1.19.26.33.18.6.43.82.76.22.33.37.74.47 1.23.1.49.15 1.04.15 1.65 0 .61-.05 1.17-.15 1.65-.1.48-.26.89-.47 1.22-.22.33-.49.58-.82.76-.33.18-.73.26-1.19.26Zm0-.79c.3 0 .56-.06.78-.18.22-.12.39-.29.52-.5.13-.22.23-.48.3-.78.07-.31.1-.65.1-1.03v-1.23c0-.37-.03-.72-.1-1.03-.06-.31-.16-.57-.3-.79-.13-.22-.31-.38-.52-.5-.21-.12-.48-.18-.78-.18-.3 0-.56.06-.78.18-.22.12-.39.29-.52.5-.13.22-.23.48-.3.79-.07.31-.1.65-.1 1.03v1.23c0 .38.03.73.1 1.03.07.3.16.57.3.78.13.22.31.38.52.5.22.12.48.18.78.18Zm0-2.47c-.25 0-.43-.05-.52-.15-.1-.1-.15-.22-.15-.37v-.24c0-.14.05-.27.15-.37.1-.1.27-.15.52-.15s.43.05.52.15c.1.1.15.22.15.37v.24c0 .14-.05.27-.15.37-.1.1-.27.15-.52.15Z" class="Vector"/>
          <path id="Vector_3" fill="#000" d="M134.76 101.52c-.44 0-.83-.06-1.16-.17-.33-.11-.61-.26-.83-.46-.22-.19-.38-.42-.5-.69-.11-.27-.17-.55-.17-.86 0-.52.14-.93.42-1.23.28-.3.65-.51 1.11-.64v-.09c-.4-.14-.72-.36-.96-.66-.23-.31-.35-.67-.35-1.11 0-.58.21-1.03.64-1.38.42-.34 1.02-.51 1.78-.51s1.36.17 1.78.51c.42.34.64.8.64 1.38 0 .43-.12.8-.35 1.11-.23.31-.55.53-.96.66v.09c.46.12.83.33 1.11.64.28.3.42.71.42 1.23 0 .31-.06.6-.17.86-.11.27-.28.5-.5.69-.22.19-.5.35-.83.46-.33.11-.71.17-1.15.17h.03Zm0-.77c.53 0 .95-.12 1.25-.36.3-.24.45-.57.45-1v-.24c0-.43-.15-.77-.45-1-.3-.24-.72-.36-1.26-.36s-.96.12-1.26.36c-.3.24-.45.57-.45 1v.24c0 .43.15.77.45 1 .3.24.72.36 1.25.36h.02Zm0-3.69c.49 0 .86-.1 1.12-.31.26-.21.38-.51.38-.9v-.15c0-.39-.13-.69-.39-.9-.26-.21-.63-.31-1.11-.31-.48 0-.84.1-1.11.31-.26.21-.39.51-.39.9v.15c0 .39.13.69.38.9.26.21.63.31 1.12.31Z" class="Vector"/>
        </g>
        <g id="text" class="text">
          <path id="Vector_4" fill="#000" d="m108.62 109.05-.67.94v2.2h-1.62v-7.54h1.62v3.15h.09l.82-1.25 1.33-1.9H112l-2.26 3.19 2.36 4.35h-1.83l-1.66-3.14h.01Z" class="Vector"/>
          <path id="Vector_5" fill="#000" d="M116.26 111.17h-.07c-.12.32-.31.59-.58.81-.27.22-.62.33-1.06.33-.27 0-.51-.04-.73-.13-.22-.09-.41-.23-.57-.4-.16-.18-.28-.4-.37-.66-.09-.26-.13-.56-.13-.9v-3.61h1.6V110c0 .72.31 1.08.94 1.08.12 0 .24-.02.36-.05.12-.03.22-.08.31-.15.09-.07.16-.15.22-.25s.09-.22.09-.36v-3.66h1.6v5.57h-1.6v-1.02l-.01.01Z" class="Vector"/>
          <path id="Vector_6" fill="#000" d="M119.26 112.19v-5.57h1.6v1.02h.07a1.935 1.935 0 0 1 .58-.8c.13-.1.29-.19.46-.25.17-.06.38-.09.6-.09a1.73 1.73 0 0 1 1.3.54c.16.18.28.4.37.66.09.26.14.56.14.9v3.61h-1.6v-3.39c0-.72-.31-1.08-.94-1.08-.12 0-.24.02-.36.05a.94.94 0 0 0-.32.15c-.1.07-.17.15-.22.25-.05.1-.08.22-.08.36v3.66h-1.6v-.02Z" class="Vector"/>
          <path id="Vector_7" fill="#000" d="M128.21 112.32c-.62 0-1.16-.09-1.61-.28-.46-.19-.8-.44-1.03-.77l.9-.83c.22.24.47.42.76.56.29.13.62.2 1 .2.32 0 .57-.05.75-.15.18-.1.27-.25.27-.45 0-.16-.06-.27-.18-.33s-.29-.11-.51-.15l-.9-.14c-.25-.04-.49-.09-.7-.17-.22-.08-.4-.18-.56-.31-.16-.13-.28-.29-.38-.48-.09-.19-.14-.41-.14-.68 0-.58.22-1.04.67-1.37.45-.33 1.07-.5 1.88-.5.55 0 1.01.07 1.4.22.39.15.69.36.92.63l-.8.91a2.04 2.04 0 0 0-.64-.45c-.26-.12-.57-.18-.94-.18-.62 0-.93.19-.93.56 0 .17.06.28.18.34s.29.11.51.15l.89.14c.25.04.49.09.7.17.22.08.41.18.57.31.16.13.29.29.38.48.09.19.14.41.14.68 0 .58-.22 1.04-.67 1.38-.45.34-1.09.51-1.92.51h-.01Z" class="Vector"/>
          <path id="Vector_8" fill="#000" d="M135.19 112.19c-.58 0-1-.15-1.29-.45-.28-.3-.42-.69-.42-1.15v-2.71h-1.51v-1.25h.98c.24 0 .41-.05.51-.14.1-.09.15-.27.15-.52v-1.31h1.47v1.97h2.17v1.25h-2.17v3.07h2.17v1.25h-2.06v-.01Z" class="Vector"/>
          <path id="Vector_9" fill="#000" d="M150.47 112.19h-5.42v-1.48l2.38-1.98c.41-.35.71-.66.89-.92.18-.26.27-.53.27-.82v-.11c0-.32-.09-.56-.28-.72-.19-.16-.44-.24-.76-.24-.36 0-.64.1-.83.31-.19.21-.33.46-.41.75l-1.42-.54c.09-.26.21-.51.36-.74.15-.23.34-.44.58-.61.23-.17.51-.31.82-.42.31-.1.67-.16 1.07-.16s.78.06 1.1.17c.32.12.6.27.82.48.22.2.39.44.51.72.12.28.17.58.17.9 0 .32-.05.61-.16.87s-.25.51-.43.74c-.18.23-.4.45-.65.67-.25.22-.51.43-.79.65l-1.44 1.11h3.63v1.36l-.01.01Z" class="Vector"/>
        </g>
      </g>
      <g id="room_306" class="room">
        <path id="area_2" fill="#D9D9D9" d="M157.89 21H98.66v27.38h59.23V21Z" class="area"/>
        <g id="number_2" class="number">
          <path id="Vector_10" fill="#000" d="M124.88 32.11c.26 0 .46-.06.59-.17.13-.12.2-.27.2-.45v-.04c0-.2-.06-.35-.19-.45a.784.784 0 0 0-.5-.15c-.21 0-.36.04-.49.13-.12.09-.23.2-.3.35l-.34-.26c.05-.08.1-.15.17-.22s.15-.14.24-.2.2-.1.32-.14c.12-.04.26-.05.41-.05.15 0 .31.02.45.06.14.04.26.1.37.18.1.08.19.18.25.3s.09.25.09.4c0 .12-.02.23-.06.33-.04.1-.09.18-.16.25a1.018 1.018 0 0 1-.52.29v.02a1.153 1.153 0 0 1 .56.3c.08.08.14.17.18.28a1.118 1.118 0 0 1-.02.83c-.06.14-.15.25-.26.35-.11.1-.25.17-.41.22-.16.05-.34.08-.53.08-.17 0-.31-.02-.44-.05a1.17 1.17 0 0 1-.34-.15c-.1-.06-.19-.13-.26-.21-.07-.08-.14-.15-.2-.24l.34-.26c.05.08.1.14.16.21.05.06.12.11.19.16s.15.08.24.11.19.04.31.04c.27 0 .47-.06.61-.18s.21-.3.21-.52v-.04c0-.22-.07-.4-.21-.52-.14-.12-.35-.18-.62-.18h-.45v-.39h.42l-.01-.02Z" class="Vector"/>
          <path id="Vector_11" fill="#000" d="M128.28 34.35c-.23 0-.43-.04-.59-.13-.17-.09-.3-.22-.41-.38a1.77 1.77 0 0 1-.24-.61 4.1 4.1 0 0 1-.08-.83c0-.31.02-.58.08-.82s.13-.45.24-.61c.11-.17.25-.29.41-.38.17-.09.36-.13.59-.13.23 0 .43.04.59.13.17.09.3.22.41.38.11.17.19.37.24.61a4.25 4.25 0 0 1 0 1.65c-.05.24-.13.44-.24.61-.11.17-.24.29-.41.38-.17.09-.36.13-.59.13Zm0-.39c.15 0 .28-.03.39-.09.11-.06.2-.14.26-.25.06-.11.12-.24.15-.39.03-.15.05-.32.05-.52v-.62c0-.19-.02-.36-.05-.51a1.06 1.06 0 0 0-.15-.39.777.777 0 0 0-.26-.25.803.803 0 0 0-.39-.09c-.15 0-.28.03-.39.09-.11.06-.2.14-.26.25-.07.11-.12.24-.15.39-.03.15-.05.33-.05.51v.62c0 .19.02.36.05.52.03.15.08.28.15.39.07.11.15.19.26.25.11.06.24.09.39.09Zm0-1.24c-.13 0-.21-.03-.26-.08a.241.241 0 0 1-.07-.18v-.12c0-.07.02-.13.07-.18.05-.05.14-.08.26-.08s.21.03.26.08c.05.05.07.11.07.18v.12c0 .07-.02.13-.07.18-.05.05-.14.08-.26.08Z" class="Vector"/>
          <path id="Vector_12" fill="#000" d="M131.52 34.35c-.2 0-.38-.03-.53-.1-.15-.07-.29-.16-.4-.29a1.36 1.36 0 0 1-.25-.46 1.89 1.89 0 0 1-.09-.6c0-.28.04-.54.13-.79.08-.25.19-.47.32-.67.13-.2.28-.38.44-.54.16-.16.32-.28.48-.38h.58c-.21.15-.39.29-.55.43-.16.14-.3.29-.42.44-.12.15-.23.32-.31.49-.08.17-.15.37-.21.59h.03c.09-.14.21-.27.36-.38.15-.11.34-.15.57-.15.17 0 .32.03.45.08.14.05.25.13.36.23.1.1.18.22.24.37s.08.3.08.48-.03.35-.09.5a1.16 1.16 0 0 1-.66.65c-.16.06-.33.09-.52.09l-.01.01Zm0-.38c.26 0 .46-.07.6-.21.14-.14.21-.34.21-.59v-.04c0-.26-.07-.45-.21-.59-.14-.14-.34-.21-.6-.21-.26 0-.46.07-.6.21-.14.14-.21.34-.21.59v.04c0 .26.07.45.21.59.14.14.34.21.6.21Z" class="Vector"/>
        </g>
        <g id="text_2" class="text">
          <path id="Vector_13" fill="#000" d="M105.53 35.92h1.32c.37 0 .65.09.85.27.2.18.29.42.29.73 0 .22-.05.39-.16.52s-.26.22-.46.28v.03c.23.06.42.16.54.3.12.14.19.34.19.6 0 .32-.1.57-.3.76-.2.19-.48.28-.84.28h-1.45v-3.77h.02Zm1.1 1.59c.19 0 .33-.03.42-.09.09-.06.13-.18.13-.34v-.16c0-.17-.04-.28-.13-.34s-.22-.09-.42-.09h-.31v1.03h.31v-.01Zm.1 1.61c.19 0 .34-.03.43-.1.09-.06.13-.18.13-.36v-.16c0-.17-.04-.29-.13-.36-.09-.06-.23-.1-.43-.1h-.41v1.06h.41v.02Z" class="Vector"/>
          <path id="Vector_14" fill="#000" d="M108.59 39.06h.64v-1.53h-.64v-.63h1.44v.79h.04c.03-.1.06-.2.11-.29.04-.1.1-.18.17-.25a1 1 0 0 1 .26-.18c.1-.04.22-.06.36-.06h.26v.73h-.59c-.2 0-.35.06-.45.17-.1.11-.15.26-.15.43v.82h.92v.63h-2.36v-.63h-.01Z" class="Vector"/>
          <path id="Vector_15" fill="#000" d="M112.97 39.75c-.47 0-.82-.13-1.06-.39-.24-.26-.36-.61-.36-1.06 0-.23.03-.43.09-.61s.15-.34.27-.46c.12-.13.26-.23.43-.29.17-.07.36-.1.56-.1.2 0 .4.03.56.1.17.07.31.16.42.28.12.12.2.27.27.45.06.17.09.37.09.59v.24h-1.91v.05c0 .18.06.33.17.44.11.11.28.16.49.16.17 0 .31-.03.43-.09s.22-.15.31-.25l.43.47c-.11.13-.26.25-.45.35-.19.1-.44.15-.74.15v-.03Zm-.07-2.34c-.17 0-.31.05-.41.16-.1.11-.15.25-.15.43v.04h1.12V38c0-.18-.05-.33-.15-.43a.55.55 0 0 0-.41-.16Z" class="Vector"/>
          <path id="Vector_16" fill="#000" d="M114.7 39.69V36.9h.8v.51h.03a.94.94 0 0 1 .12-.22c.05-.07.1-.13.17-.18.07-.05.14-.09.23-.12s.19-.05.3-.05c.13 0 .26.02.37.07.11.05.21.11.29.2.08.09.14.2.19.33.04.13.07.28.07.45v1.8h-.8v-1.7c0-.36-.16-.54-.47-.54-.06 0-.12 0-.18.02s-.11.04-.16.08c-.05.03-.08.08-.11.13s-.04.11-.04.18v1.83h-.81Z" class="Vector"/>
          <path id="Vector_17" fill="#000" d="M117.78 39.69V36.9h.8v.51h.03a.94.94 0 0 1 .12-.22c.05-.07.1-.13.17-.18.07-.05.14-.09.23-.12s.19-.05.3-.05c.13 0 .26.02.37.07.11.05.21.11.29.2.08.09.14.2.19.33.04.13.07.28.07.45v1.8h-.8v-1.7c0-.36-.16-.54-.47-.54-.06 0-.12 0-.18.02s-.11.04-.16.08c-.05.03-.08.08-.11.13s-.04.11-.04.18v1.83h-.81Z" class="Vector"/>
          <path id="Vector_18" fill="#000" d="M120.91 39.06h.64v-1.53h-.64v-.63h1.44v.79h.04c.03-.1.06-.2.11-.29.04-.1.1-.18.17-.25a1 1 0 0 1 .26-.18c.1-.04.22-.06.36-.06h.26v.73h-.59c-.2 0-.35.06-.45.17-.1.11-.15.26-.15.43v.82h.92v.63h-2.36v-.63h-.01Z" class="Vector"/>
          <path id="Vector_19" fill="#000" d="M126.21 39.69c-.17 0-.3-.04-.4-.13a.543.543 0 0 1-.18-.36h-.03c-.05.18-.15.32-.3.42-.15.09-.33.14-.55.14-.27 0-.49-.07-.65-.22a.797.797 0 0 1-.25-.61c0-.29.11-.51.32-.65.21-.14.52-.21.93-.21h.45v-.14c0-.17-.04-.29-.12-.38-.08-.08-.21-.13-.39-.13-.17 0-.31.03-.41.1-.1.06-.19.15-.27.25l-.44-.39c.09-.16.24-.29.44-.39.2-.1.46-.15.77-.15.38 0 .68.09.89.26.21.17.32.44.32.79v1.22h.31v.58h-.46.02Zm-1.15-.46c.14 0 .26-.03.36-.1.1-.07.15-.17.15-.3v-.33h-.43c-.33 0-.49.11-.49.33v.11c0 .1.04.17.11.22.08.05.18.08.3.08v-.01Z" class="Vector"/>
          <path id="Vector_20" fill="#000" d="M128.75 39.18h-.03c-.06.16-.16.29-.29.41-.13.11-.31.17-.53.17-.13 0-.26-.02-.37-.07a.722.722 0 0 1-.29-.2c-.08-.09-.14-.2-.19-.33-.04-.13-.07-.28-.07-.45v-1.8h.8v1.7c0 .36.16.54.47.54.06 0 .12 0 .18-.02s.11-.04.16-.08c.04-.03.08-.08.11-.13s.04-.11.04-.18v-1.83h.8v2.79h-.8v-.51l.01-.01Z" class="Vector"/>
          <path id="Vector_21" fill="#000" d="M129.9 39.69V36.9h.64v.41h.04c.04-.13.1-.24.19-.33.08-.09.2-.14.34-.14.27 0 .44.16.5.48h.03c.02-.06.05-.13.08-.18.03-.05.07-.11.12-.15.05-.04.1-.08.17-.1.07-.02.14-.04.23-.04.39 0 .58.29.58.86v1.99h-.64v-1.91c0-.13-.02-.22-.07-.27a.234.234 0 0 0-.18-.08c-.07 0-.13.02-.18.07-.05.05-.07.11-.07.21v1.99h-.65V37.8c0-.13-.02-.22-.06-.27a.214.214 0 0 0-.17-.08c-.07 0-.13.02-.18.07-.05.04-.08.11-.08.21v1.99h-.64v-.03Z" class="Vector"/>
          <path id="Vector_22" fill="#000" d="m137.41 38.11-.33.47v1.1h-.81v-3.77h.81v1.58h.04l.41-.63.66-.95h.91l-1.13 1.59 1.18 2.18h-.91l-.83-1.57Z" class="Vector"/>
          <path id="Vector_23" fill="#000" d="M141.06 39.18h-.03c-.06.16-.16.29-.29.41-.13.11-.31.17-.53.17-.13 0-.26-.02-.37-.07a.722.722 0 0 1-.29-.2c-.08-.09-.14-.2-.19-.33-.04-.13-.07-.28-.07-.45v-1.8h.8v1.7c0 .36.16.54.47.54.06 0 .12 0 .18-.02s.11-.04.16-.08c.04-.03.08-.08.11-.13s.04-.11.04-.18v-1.83h.8v2.79h-.8v-.51l.01-.01Z" class="Vector"/>
          <path id="Vector_24" fill="#000" d="M142.4 39.69V36.9h.8v.51h.03a.94.94 0 0 1 .12-.22c.05-.07.1-.13.17-.18.07-.05.14-.09.23-.12s.19-.05.3-.05c.13 0 .26.02.37.07.11.05.21.11.29.2.08.09.14.2.19.33.04.13.07.28.07.45v1.8h-.8v-1.7c0-.36-.16-.54-.47-.54-.06 0-.12 0-.18.02s-.11.04-.16.08c-.05.03-.08.08-.11.13s-.04.11-.04.18v1.83h-.81Z" class="Vector"/>
          <path id="Vector_25" fill="#000" d="M146.72 39.75c-.31 0-.58-.05-.81-.14-.23-.09-.4-.22-.52-.38l.45-.42c.11.12.23.21.38.28.15.07.31.1.5.1.16 0 .28-.02.37-.07a.23.23 0 0 0 .13-.22c0-.08-.03-.13-.09-.16s-.15-.05-.25-.07l-.45-.07c-.13-.02-.24-.05-.35-.08-.11-.04-.2-.09-.28-.15a.654.654 0 0 1-.19-.24.74.74 0 0 1-.07-.34c0-.29.11-.52.33-.69.22-.17.54-.25.94-.25.27 0 .51.04.7.11.19.07.35.18.46.32l-.4.45a.975.975 0 0 0-.32-.23c-.13-.06-.29-.09-.47-.09-.31 0-.46.09-.46.28 0 .08.03.14.09.17s.15.05.25.07l.44.07c.13.02.24.05.35.08.11.04.2.09.28.15.08.06.15.14.19.24.04.1.07.21.07.34 0 .29-.11.52-.34.69-.23.17-.54.25-.96.25h.03Z" class="Vector"/>
          <path id="Vector_26" fill="#000" d="M150.05 39.69c-.29 0-.5-.08-.64-.23a.81.81 0 0 1-.21-.58v-1.36h-.76v-.63h.49c.12 0 .2-.02.25-.07.05-.05.08-.13.08-.26v-.65h.73v.98h1.08v.63h-1.08v1.53h1.08v.63h-1.03l.01.01Z" class="Vector"/>
        </g>
      </g>
      <g id="room_304b" class="room_304b">
        <path id="area_3" fill="#D9D9D9" d="M60.24 147.6H1.01v21.01h59.23V147.6Z" class="area"/>
        <g id="number_3" class="number">
          <path id="Vector_27" fill="#000" d="M20.59 158.33c.53 0 .92-.12 1.18-.35.26-.23.39-.53.39-.9V157c0-.4-.13-.7-.38-.9-.26-.2-.59-.3-1-.3-.41 0-.73.09-.98.26-.25.18-.45.41-.61.7l-.68-.52c.09-.15.21-.3.34-.45.14-.15.3-.28.48-.39.18-.11.4-.21.64-.28.24-.07.52-.11.83-.11.31 0 .63.04.91.12.28.08.53.21.73.37.2.16.37.36.49.6s.18.51.18.81c0 .24-.04.46-.11.66-.08.19-.18.36-.31.51-.13.14-.29.27-.47.37-.18.1-.37.18-.57.23v.04c.21.04.41.11.6.21.19.1.37.22.52.38.15.16.27.34.36.56.09.22.13.47.13.75 0 .32-.06.62-.19.89s-.3.5-.53.69c-.23.19-.5.34-.82.45-.32.11-.68.16-1.06.16-.33 0-.62-.04-.88-.11a2.63 2.63 0 0 1-1.2-.7c-.15-.15-.28-.31-.39-.48l.68-.52c.1.15.21.29.31.41.11.12.23.23.37.32.14.09.3.16.48.21.18.05.39.08.63.08.53 0 .94-.12 1.23-.37.29-.24.43-.59.43-1.05v-.09c0-.45-.14-.79-.42-1.04-.28-.24-.69-.37-1.25-.37h-.9v-.79h.83l.01.02Z" class="Vector"/>
          <path id="Vector_28" fill="#000" d="M27.39 162.82c-.46 0-.86-.09-1.19-.26-.33-.18-.6-.43-.82-.76-.22-.33-.38-.74-.48-1.22-.1-.48-.15-1.03-.15-1.65 0-.62.05-1.16.15-1.65.1-.49.26-.89.48-1.23.22-.34.49-.58.82-.76.33-.18.73-.26 1.19-.26.46 0 .86.09 1.19.26.33.18.6.43.82.76.22.33.37.74.47 1.23.1.49.15 1.04.15 1.65 0 .61-.05 1.17-.15 1.65-.1.48-.26.89-.47 1.22-.22.33-.49.58-.82.76-.33.18-.73.26-1.19.26Zm0-.79c.3 0 .56-.06.78-.18.22-.12.39-.29.52-.5.13-.22.23-.48.3-.78.07-.31.1-.65.1-1.03v-1.23c0-.37-.03-.72-.1-1.03-.06-.31-.16-.57-.3-.79-.13-.22-.31-.38-.52-.5-.21-.12-.48-.18-.78-.18-.3 0-.56.06-.78.18-.22.12-.39.29-.52.5-.13.22-.23.48-.3.79-.07.31-.1.65-.1 1.03v1.23c0 .38.03.73.1 1.03.07.3.16.57.3.78.13.22.31.38.52.5.22.12.48.18.78.18Zm0-2.48c-.25 0-.43-.05-.52-.15-.1-.1-.15-.22-.15-.37v-.24c0-.14.05-.27.15-.37.1-.1.27-.15.52-.15s.43.05.52.15c.1.1.15.22.15.37v.24c0 .14-.05.27-.15.37-.1.1-.27.15-.52.15Z" class="Vector"/>
          <path id="Vector_29" fill="#000" d="M34.71 162.69v-1.48H31v-.8l3.26-5.26h1.32v5.31h1.12v.75h-1.12v1.48h-.87Zm-2.9-2.23h2.91v-4.61h-.04l-2.86 4.61h-.01Z" class="Vector"/>
          <path id="Vector_30" fill="#000" d="M38.13 154.7h.86v3.33h.04c.36-.69.93-1.04 1.72-1.04.68 0 1.22.26 1.6.77.38.51.58 1.23.58 2.15 0 .92-.19 1.64-.58 2.15-.39.51-.92.77-1.6.77-.79 0-1.36-.35-1.72-1.04h-.04v.91h-.86v-8Zm2.29 7.35c.5 0 .89-.15 1.17-.46.28-.31.42-.71.42-1.21v-.95c0-.5-.14-.91-.42-1.22-.28-.31-.67-.46-1.17-.46-.19 0-.38.03-.55.08-.17.05-.32.12-.45.22s-.23.22-.31.36a.96.96 0 0 0-.11.49v2.01c0 .19.04.35.11.49.08.14.18.26.31.36.13.1.28.17.45.22.17.05.36.08.55.08v-.01Z" class="Vector"/>
        </g>
      </g>
      <g id="room_302" class="room">
        <path id="area_4" fill="#D9D9D9" d="M60.26 117.87H1v30.12h59.26v-30.12Z" class="area"/>
        <g id="number_4" class="number">
          <path id="Vector_31" fill="#000" d="M23.83 133.16c.53 0 .92-.12 1.18-.35.26-.23.39-.53.39-.9v-.08c0-.4-.13-.7-.38-.9-.26-.2-.59-.3-1-.3-.41 0-.73.09-.98.26-.25.18-.45.41-.61.7l-.68-.52c.09-.15.21-.3.34-.45.14-.15.3-.28.48-.39.18-.11.4-.21.64-.28.24-.07.52-.11.83-.11.31 0 .63.04.91.12.28.08.53.21.73.37.2.16.37.36.49.6s.18.51.18.81c0 .24-.04.46-.11.66-.08.19-.18.36-.31.51-.13.14-.29.27-.47.37-.18.1-.37.18-.57.23v.04c.21.04.41.11.6.21.19.1.37.22.52.38.15.16.27.34.36.56.09.22.13.47.13.75 0 .32-.06.62-.19.89s-.3.5-.53.69c-.23.19-.5.34-.82.45-.32.11-.68.16-1.06.16-.33 0-.62-.04-.88-.11a2.63 2.63 0 0 1-1.2-.7c-.15-.15-.28-.31-.39-.48l.68-.52c.1.15.21.29.31.41.11.12.23.23.37.32.14.09.3.16.48.21.18.05.39.08.63.08.53 0 .94-.12 1.23-.37.29-.24.43-.59.43-1.05v-.09c0-.45-.14-.79-.42-1.04-.28-.24-.69-.37-1.25-.37h-.9v-.79h.83l.01.02Z" class="Vector"/>
          <path id="Vector_32" fill="#000" d="M30.63 137.64c-.46 0-.86-.09-1.19-.26-.33-.18-.6-.43-.82-.76-.22-.33-.38-.74-.48-1.22-.1-.48-.15-1.03-.15-1.65 0-.62.05-1.16.15-1.65.1-.49.26-.89.48-1.23.22-.34.49-.58.82-.76.33-.18.73-.26 1.19-.26.46 0 .86.09 1.19.26.33.18.6.43.82.76.22.33.37.74.47 1.23.1.49.15 1.04.15 1.65 0 .61-.05 1.17-.15 1.65-.1.48-.26.89-.47 1.22-.22.33-.49.58-.82.76-.33.18-.73.26-1.19.26Zm0-.79c.3 0 .56-.06.78-.18.22-.12.39-.29.52-.5.13-.22.23-.48.3-.78.07-.31.1-.65.1-1.03v-1.23c0-.37-.03-.72-.1-1.03-.06-.31-.16-.57-.3-.79-.13-.22-.31-.38-.52-.5-.21-.12-.48-.18-.78-.18-.3 0-.56.06-.78.18-.22.12-.39.29-.52.5-.13.22-.23.48-.3.79-.07.31-.1.65-.1 1.03v1.23c0 .38.03.73.1 1.03.07.3.16.57.3.78.13.22.31.38.52.5.22.12.48.18.78.18Zm0-2.47c-.25 0-.43-.05-.52-.15-.1-.1-.15-.22-.15-.37v-.24c0-.14.05-.27.15-.37.1-.1.27-.15.52-.15s.43.05.52.15c.1.1.15.22.15.37v.24c0 .14-.05.27-.15.37-.1.1-.27.15-.52.15Z" class="Vector"/>
          <path id="Vector_33" fill="#000" d="M39.67 137.51h-5.03v-.93l2.52-2.27c.37-.33.67-.67.91-1.02s.36-.72.36-1.11v-.13c0-.45-.12-.8-.36-1.05s-.59-.37-1.06-.37c-.47 0-.82.12-1.06.35-.25.23-.43.55-.56.93l-.81-.3c.07-.22.17-.44.3-.65.13-.21.29-.4.48-.57.19-.17.43-.3.71-.4.28-.1.6-.15.97-.15s.71.05 1 .16c.29.11.54.26.73.45.19.19.35.43.45.69.1.27.16.56.16.87 0 .29-.04.56-.12.81-.08.25-.2.49-.35.72a4.1 4.1 0 0 1-.53.67c-.21.22-.43.44-.69.65l-2.11 1.84h4.09v.81Z" class="Vector"/>
        </g>
      </g>
      <g id="room_304" class="room">
        <path id="area_5" fill="#D9D9D9" d="M60.24 73.82H1.01v44.04h59.23V73.82Z" class="area"/>
        <g id="number_5" class="number">
          <path id="Vector_34" fill="#000" d="M27.23 87.86c.26 0 .46-.06.59-.17.13-.12.2-.27.2-.45v-.04c0-.2-.06-.35-.19-.45a.784.784 0 0 0-.5-.15c-.21 0-.36.04-.49.13-.12.09-.23.2-.3.35l-.34-.26c.05-.08.1-.15.17-.22s.15-.14.24-.2.2-.1.32-.14c.12-.04.26-.05.41-.05.15 0 .31.02.45.06.14.04.26.1.37.18.1.08.19.18.25.3s.09.25.09.4c0 .12-.02.23-.06.33-.04.1-.09.18-.16.25a1.018 1.018 0 0 1-.52.29v.02a1.153 1.153 0 0 1 .56.3c.08.08.14.17.18.28a1.118 1.118 0 0 1-.02.83c-.06.14-.15.25-.26.35-.11.1-.25.17-.41.22-.16.05-.34.08-.53.08-.17 0-.31-.02-.44-.05a1.17 1.17 0 0 1-.34-.15c-.1-.06-.19-.13-.26-.21-.07-.08-.14-.15-.2-.24l.34-.26c.05.08.1.14.16.21.05.06.12.11.19.16s.15.08.24.11.19.04.31.04c.27 0 .47-.06.61-.18s.21-.3.21-.52v-.04c0-.22-.07-.4-.21-.52-.14-.12-.35-.18-.62-.18h-.45v-.39h.42l-.01-.02Z" class="Vector"/>
          <path id="Vector_35" fill="#000" d="M30.63 90.1c-.23 0-.43-.04-.59-.13-.17-.09-.3-.22-.41-.38a1.77 1.77 0 0 1-.24-.61 4.1 4.1 0 0 1-.08-.83c0-.31.02-.58.08-.82s.13-.45.24-.61c.11-.17.25-.29.41-.38.17-.09.36-.13.59-.13.23 0 .43.04.59.13.17.09.3.22.41.38.11.17.19.37.24.61a4.25 4.25 0 0 1 0 1.65c-.05.24-.13.44-.24.61-.11.17-.24.29-.41.38-.17.09-.36.13-.59.13Zm0-.39c.15 0 .28-.03.39-.09.11-.06.2-.14.26-.25.06-.11.12-.24.15-.39.03-.15.05-.32.05-.52v-.62c0-.19-.02-.36-.05-.51a1.06 1.06 0 0 0-.15-.39.777.777 0 0 0-.26-.25.803.803 0 0 0-.39-.09c-.15 0-.28.03-.39.09-.11.06-.2.14-.26.25-.07.11-.12.24-.15.39-.03.15-.05.33-.05.51v.62c0 .19.02.36.05.52.03.15.08.28.15.39.07.11.15.19.26.25.11.06.24.09.39.09Zm0-1.24c-.13 0-.21-.03-.26-.08a.241.241 0 0 1-.07-.18v-.12c0-.07.02-.13.07-.18.05-.05.14-.08.26-.08s.21.03.26.08c.05.05.07.11.07.18v.12c0 .07-.02.13-.07.18-.05.05-.14.08-.26.08Z" class="Vector"/>
          <path id="Vector_36" fill="#000" d="M34.29 90.04v-.74h-1.86v-.4l1.63-2.63h.66v2.66h.56v.37h-.56v.74h-.43Zm-1.45-1.11h1.45v-2.31h-.02l-1.43 2.31Z" class="Vector"/>
        </g>
        <g id="text_3" class="text">
          <path id="Vector_37" fill="#000" d="m24.04 93.87-.33.47v1.1h-.81v-3.77h.81v1.58h.04l.41-.63.66-.95h.91l-1.13 1.59 1.18 2.18h-.91l-.83-1.57Z" class="Vector"/>
          <path id="Vector_38" fill="#000" d="M27.86 94.93h-.03c-.06.16-.16.29-.29.41-.13.11-.31.17-.53.17-.13 0-.26-.02-.37-.07a.722.722 0 0 1-.29-.2c-.08-.09-.14-.2-.19-.33-.04-.13-.07-.28-.07-.45v-1.8h.8v1.7c0 .36.16.54.47.54.06 0 .12 0 .18-.02s.11-.04.16-.08c.04-.03.08-.08.11-.13s.04-.11.04-.18v-1.83h.8v2.79h-.8v-.51l.01-.01Z" class="Vector"/>
          <path id="Vector_39" fill="#000" d="M29.36 95.44v-2.79h.8v.51h.03a.94.94 0 0 1 .12-.22c.05-.07.1-.13.17-.18.07-.05.14-.09.23-.12s.19-.05.3-.05c.13 0 .26.02.37.07.11.05.21.11.29.2.08.09.14.2.19.33.04.13.07.28.07.45v1.8h-.8v-1.7c0-.36-.16-.54-.47-.54-.06 0-.12 0-.18.02s-.11.04-.16.08c-.05.03-.08.08-.11.13s-.04.11-.04.18v1.83h-.81Z" class="Vector"/>
          <path id="Vector_40" fill="#000" d="M33.84 95.5c-.31 0-.58-.05-.81-.14-.23-.09-.4-.22-.52-.38l.45-.42c.11.12.23.21.38.28.15.07.31.1.5.1.16 0 .28-.02.37-.07a.23.23 0 0 0 .13-.22c0-.08-.03-.13-.09-.16s-.15-.05-.25-.07l-.45-.07c-.13-.02-.24-.05-.35-.08-.11-.04-.2-.09-.28-.15a.654.654 0 0 1-.19-.24.74.74 0 0 1-.07-.34c0-.29.11-.52.33-.69.22-.17.54-.25.94-.25.27 0 .51.04.7.11.19.07.35.18.46.32l-.4.45a.975.975 0 0 0-.32-.23c-.13-.06-.29-.09-.47-.09-.31 0-.46.09-.46.28 0 .08.03.14.09.17s.15.05.25.07l.44.07c.13.02.24.05.35.08.11.04.2.09.28.15.08.06.15.14.19.24.04.1.07.21.07.34 0 .29-.11.52-.34.69-.23.17-.54.25-.96.25h.03Z" class="Vector"/>
          <path id="Vector_41" fill="#000" d="M37.33 95.44c-.29 0-.5-.08-.64-.23a.81.81 0 0 1-.21-.58v-1.36h-.76v-.63h.49c.12 0 .2-.02.25-.07.05-.05.08-.13.08-.26v-.65h.73v.98h1.08v.63h-1.08v1.53h1.08v.63h-1.03l.01.01Z" class="Vector"/>
          <path id="Vector_42" fill="#000" d="M13.64 100.9c-.32 0-.59-.05-.83-.16s-.42-.24-.57-.42l.47-.52c.14.15.29.26.45.33.16.07.33.11.5.11.19 0 .34-.04.44-.13.1-.09.15-.21.15-.38 0-.13-.04-.24-.12-.3-.08-.07-.21-.12-.39-.15l-.39-.06c-.34-.06-.58-.18-.73-.38-.15-.19-.23-.43-.23-.7 0-.36.12-.64.36-.84.24-.2.57-.3 1-.3.29 0 .55.04.76.13.22.09.39.21.52.36l-.46.51c-.1-.11-.22-.2-.36-.26-.14-.06-.29-.09-.46-.09-.36 0-.55.15-.55.45 0 .13.04.23.12.29.08.06.21.11.4.15l.39.07c.31.05.54.17.71.35.17.18.25.41.25.71 0 .18-.03.34-.09.49-.06.15-.15.28-.28.39-.12.11-.27.2-.45.26s-.39.09-.62.09h.01Z" class="Vector"/>
          <path id="Vector_43" fill="#000" d="M17.79 100.84c-.17 0-.3-.04-.4-.13a.543.543 0 0 1-.18-.36h-.03c-.05.18-.15.32-.3.42-.15.09-.33.14-.55.14-.27 0-.49-.07-.65-.22a.797.797 0 0 1-.25-.61c0-.29.11-.51.32-.65.21-.14.52-.21.93-.21h.45v-.14c0-.17-.04-.29-.12-.38-.08-.08-.21-.13-.39-.13-.17 0-.31.03-.41.1-.1.06-.19.15-.27.25l-.44-.39c.09-.16.24-.29.44-.39.2-.1.46-.15.77-.15.38 0 .68.09.89.26.21.17.32.44.32.79v1.22h.31v.58h-.46.02Zm-1.15-.46c.14 0 .26-.03.36-.1.1-.07.15-.17.15-.3v-.33h-.43c-.33 0-.49.11-.49.33v.11c0 .1.04.17.11.22.08.05.18.08.3.08v-.01Z" class="Vector"/>
          <path id="Vector_44" fill="#000" d="M18.4 100.84v-2.79h.64v.41h.04c.04-.13.1-.24.19-.33.08-.09.2-.14.34-.14.27 0 .44.16.5.48h.03c.02-.06.05-.13.08-.18.03-.05.07-.11.12-.15.05-.04.1-.08.17-.1.07-.02.14-.04.23-.04.39 0 .58.29.58.86v1.99h-.64v-1.91c0-.13-.02-.22-.07-.27a.234.234 0 0 0-.18-.08c-.07 0-.13.02-.18.07-.05.05-.07.11-.07.21v1.99h-.65v-1.91c0-.13-.02-.22-.06-.27a.214.214 0 0 0-.17-.08c-.07 0-.13.02-.18.07-.05.04-.08.11-.08.21v1.99h-.64v-.03Z" class="Vector"/>
          <path id="Vector_45" fill="#000" d="M21.48 100.84v-2.79h.64v.41h.04c.04-.13.1-.24.19-.33.08-.09.2-.14.34-.14.27 0 .44.16.5.48h.03c.02-.06.05-.13.08-.18.03-.05.07-.11.12-.15.05-.04.1-.08.17-.1.07-.02.14-.04.23-.04.39 0 .58.29.58.86v1.99h-.64v-1.91c0-.13-.02-.22-.07-.27a.234.234 0 0 0-.18-.08c-.07 0-.13.02-.18.07-.05.05-.07.11-.07.21v1.99h-.65v-1.91c0-.13-.02-.22-.06-.27a.214.214 0 0 0-.17-.08c-.07 0-.13.02-.18.07-.05.04-.08.11-.08.21v1.99h-.64v-.03Z" class="Vector"/>
          <path id="Vector_46" fill="#000" d="M24.76 100.21h.85v-2.74h-.85v-.63h1.65v3.37h.85v.63h-2.51v-.63h.01Z" class="Vector"/>
          <path id="Vector_47" fill="#000" d="M29.56 100.33h-.03c-.06.16-.16.29-.29.41-.13.11-.31.17-.53.17-.13 0-.26-.02-.37-.07a.722.722 0 0 1-.29-.2c-.08-.09-.14-.2-.19-.33-.04-.13-.07-.28-.07-.45v-1.8h.8v1.7c0 .36.16.54.47.54.06 0 .12 0 .18-.02s.11-.04.16-.08c.04-.03.08-.08.11-.13s.04-.11.04-.18v-1.83h.8v2.79h-.8v-.51l.01-.01Z" class="Vector"/>
          <path id="Vector_48" fill="#000" d="M30.9 100.84v-2.79h.8v.51h.03a.94.94 0 0 1 .12-.22c.05-.07.1-.13.17-.18.07-.05.14-.09.23-.12s.19-.05.3-.05c.13 0 .26.02.37.07.11.05.21.11.29.2.08.09.14.2.19.33.04.13.07.28.07.45v1.8h-.8v-1.7c0-.36-.16-.54-.47-.54-.06 0-.12 0-.18.02s-.11.04-.16.08c-.05.03-.08.08-.11.13s-.04.11-.04.18v1.83h-.81Z" class="Vector"/>
          <path id="Vector_49" fill="#000" d="M36.78 101.12c0 .29-.12.51-.37.65s-.64.21-1.17.21c-.27 0-.49-.02-.66-.05-.17-.03-.31-.07-.41-.13a.637.637 0 0 1-.22-.21.583.583 0 0 1-.06-.26c0-.16.05-.28.14-.36.09-.08.22-.14.39-.19v-.03a.818.818 0 0 1-.28-.15.376.376 0 0 1-.11-.28c0-.14.05-.24.14-.3.09-.06.21-.12.36-.15v-.03a.972.972 0 0 1-.39-.33.96.96 0 0 1-.14-.52c0-.16.03-.31.09-.43s.14-.23.25-.31c.11-.08.23-.15.38-.19.15-.04.31-.06.5-.06s.34.02.49.06v-.15c0-.11.04-.2.11-.27a.45.45 0 0 1 .31-.11h.49v.58h-.67v.05c.15.08.27.19.35.33.08.14.13.31.13.5 0 .16-.03.3-.09.43-.06.12-.14.23-.25.31-.11.08-.24.15-.39.19-.15.04-.32.06-.5.06-.08 0-.16 0-.24-.01-.08 0-.15-.02-.22-.04-.04.02-.07.05-.1.08s-.04.07-.04.12c0 .04.01.08.03.1.02.03.05.04.09.06.04.01.08.02.13.02h.8c.2 0 .37.02.51.06.14.04.26.1.35.17.09.07.15.16.19.25.04.1.06.21.06.32l.02.01Zm-.76.06c0-.07-.03-.13-.09-.17-.06-.04-.17-.06-.33-.06h-.96c-.07.06-.11.14-.11.23s.04.16.11.21c.07.06.2.08.38.08h.47c.18 0 .32-.03.4-.08a.24.24 0 0 0 .12-.22l.01.01Zm-.8-1.71c.16 0 .28-.04.35-.12.07-.08.11-.18.11-.3v-.13c0-.12-.04-.22-.11-.3-.07-.08-.19-.12-.35-.12-.16 0-.27.04-.35.12-.07.08-.11.18-.11.3v.13c0 .12.04.22.11.3.07.08.19.12.35.12Z" class="Vector"/>
          <path id="Vector_50" fill="#000" d="M41.87 100.33h-.03c-.06.16-.16.29-.29.41-.13.11-.31.17-.53.17-.13 0-.26-.02-.37-.07a.722.722 0 0 1-.29-.2c-.08-.09-.14-.2-.19-.33-.04-.13-.07-.28-.07-.45v-1.8h.8v1.7c0 .36.16.54.47.54.06 0 .12 0 .18-.02s.11-.04.16-.08c.04-.03.08-.08.11-.13s.04-.11.04-.18v-1.83h.8v2.79h-.8v-.51l.01-.01Z" class="Vector"/>
          <path id="Vector_51" fill="#000" d="M43.21 100.84v-2.79h.8v.51h.03a.94.94 0 0 1 .12-.22c.05-.07.1-.13.17-.18.07-.05.14-.09.23-.12s.19-.05.3-.05c.13 0 .26.02.37.07.11.05.21.11.29.2.08.09.14.2.19.33.04.13.07.28.07.45v1.8h-.8v-1.7c0-.36-.16-.54-.47-.54-.06 0-.12 0-.18.02s-.11.04-.16.08c-.05.03-.08.08-.11.13s-.04.11-.04.18v1.83h-.81Z" class="Vector"/>
          <path id="Vector_52" fill="#000" d="M48.06 100.32h-.04c-.07.17-.17.31-.3.42-.13.11-.3.16-.53.16-.15 0-.3-.03-.42-.09s-.24-.15-.33-.26c-.09-.11-.16-.27-.22-.45-.05-.18-.08-.4-.08-.65s.03-.47.08-.65c.05-.18.12-.33.22-.45s.2-.21.33-.26c.13-.05.27-.09.42-.09.11 0 .21.01.3.04s.16.07.23.12c.07.05.12.11.17.18.05.07.09.15.13.23h.04v-1.72h.8v4h-.8v-.53Zm-.52-.04c.14 0 .26-.03.36-.1.1-.07.15-.18.15-.32v-.82c0-.15-.05-.25-.15-.32a.61.61 0 0 0-.36-.1c-.18 0-.32.05-.42.16-.1.11-.15.26-.15.45v.43c0 .19.05.34.15.45.1.11.24.16.42.16v.01Z" class="Vector"/>
          <path id="Vector_53" fill="#000" d="m13.13 106.24-1-3.77h.9l.44 1.92.22 1.09h.04l.23-1.09.45-1.92h.86l-1 3.77h-1.14Z" class="Vector"/>
          <path id="Vector_54" fill="#000" d="M16.78 106.3c-.22 0-.41-.03-.58-.1-.17-.07-.32-.16-.44-.29a1.42 1.42 0 0 1-.28-.46 1.9 1.9 0 0 1-.1-.61c0-.23.03-.43.1-.61s.16-.33.28-.46c.12-.13.27-.22.44-.29.17-.07.37-.1.58-.1.21 0 .41.03.58.1.17.07.32.16.44.29.12.13.21.28.28.46.07.18.1.38.1.61 0 .23-.03.43-.1.61a1.207 1.207 0 0 1-.72.75c-.17.07-.37.1-.58.1Zm0-.59c.18 0 .32-.06.42-.17.1-.11.15-.27.15-.48v-.44c0-.21-.05-.36-.15-.48a.542.542 0 0 0-.42-.17c-.18 0-.32.06-.42.17-.1.11-.15.27-.15.48v.44c0 .21.05.36.15.48.1.11.24.17.42.17Z" class="Vector"/>
          <path id="Vector_55" fill="#000" d="M18.64 105.61h.64v-1.53h-.64v-.63h1.44v.79h.04c.03-.1.06-.2.11-.29.04-.1.1-.18.17-.25a1 1 0 0 1 .26-.18c.1-.04.22-.06.36-.06h.26v.73h-.59c-.2 0-.35.06-.45.17-.1.11-.15.26-.15.43v.82h.92v.63h-2.36v-.63h-.01Z" class="Vector"/>
          <path id="Vector_56" fill="#000" d="M21.63 102.24h.8v1.72h.04c.07-.17.17-.3.3-.41.13-.11.31-.16.53-.16a.928.928 0 0 1 .75.35c.09.11.16.27.22.45.05.18.08.4.08.65s-.03.47-.08.65c-.05.18-.12.33-.22.45s-.2.21-.33.26c-.13.05-.27.09-.42.09-.22 0-.4-.05-.53-.16s-.23-.25-.3-.42h-.04v.51h-.8v-4 .02Zm1.32 3.44c.18 0 .32-.05.42-.16.1-.11.15-.26.15-.45v-.43c0-.19-.05-.34-.15-.45-.1-.11-.24-.16-.42-.16a.61.61 0 0 0-.36.1c-.1.07-.15.17-.15.32v.82c0 .15.05.25.15.32.1.07.22.1.36.1v-.01Z" class="Vector"/>
          <path id="Vector_57" fill="#000" d="M26.09 106.3c-.47 0-.82-.13-1.06-.39-.24-.26-.36-.61-.36-1.06 0-.23.03-.43.09-.61s.15-.34.27-.46c.12-.13.26-.23.43-.29.17-.07.36-.1.56-.1.2 0 .4.03.56.1.17.07.31.16.42.28.12.12.2.27.27.45.06.17.09.37.09.59v.24h-1.91v.05c0 .18.06.33.17.44.11.11.28.16.49.16.17 0 .31-.03.43-.09s.22-.15.31-.25l.43.47c-.11.13-.26.25-.45.35-.19.1-.44.15-.74.15v-.03Zm-.07-2.34c-.17 0-.31.05-.41.16-.1.11-.15.25-.15.43v.04h1.12v-.04c0-.18-.05-.33-.15-.43a.55.55 0 0 0-.41-.16Z" class="Vector"/>
          <path id="Vector_58" fill="#000" d="M27.87 105.61h.64v-1.53h-.64v-.63h1.44v.79h.04c.03-.1.06-.2.11-.29.04-.1.1-.18.17-.25a1 1 0 0 1 .26-.18c.1-.04.22-.06.36-.06h.26v.73h-.59c-.2 0-.35.06-.45.17-.1.11-.15.26-.15.43v.82h.92v.63h-2.36v-.63h-.01Z" class="Vector"/>
          <path id="Vector_59" fill="#000" d="M32.25 106.3c-.47 0-.82-.13-1.06-.39-.24-.26-.36-.61-.36-1.06 0-.23.03-.43.09-.61s.15-.34.27-.46c.12-.13.26-.23.43-.29.17-.07.36-.1.56-.1.2 0 .4.03.56.1.17.07.31.16.42.28.12.12.2.27.27.45.06.17.09.37.09.59v.24h-1.91v.05c0 .18.06.33.17.44.11.11.28.16.49.16.17 0 .31-.03.43-.09s.22-.15.31-.25l.43.47c-.11.13-.26.25-.45.35-.19.1-.44.15-.74.15v-.03Zm-.07-2.34c-.17 0-.31.05-.41.16-.1.11-.15.25-.15.43v.04h1.12v-.04c0-.18-.05-.33-.15-.43a.55.55 0 0 0-.41-.16Z" class="Vector"/>
          <path id="Vector_60" fill="#000" d="M34.14 105.61h.89v-1.53h-.89v-.63h1.68v2.16h.82v.63h-2.5v-.63Zm1.28-2.52c-.18 0-.31-.04-.38-.11a.362.362 0 0 1-.1-.27v-.16c0-.11.04-.2.1-.27.07-.07.2-.11.38-.11s.3.04.38.11c.07.07.11.16.11.27v.16c0 .1-.04.19-.11.27-.07.08-.2.11-.38.11Z" class="Vector"/>
          <path id="Vector_61" fill="#000" d="M38.54 106.24c-.29 0-.5-.08-.64-.23a.81.81 0 0 1-.21-.58v-1.36h-.76v-.63h.49c.12 0 .2-.02.25-.07.05-.05.08-.13.08-.26v-.65h.73v.98h1.08v.63h-1.08v1.53h1.08v.63h-1.03l.01.01Z" class="Vector"/>
          <path id="Vector_62" fill="#000" d="M41.87 105.73h-.03c-.06.16-.16.29-.29.41-.13.11-.31.17-.53.17-.13 0-.26-.02-.37-.07a.722.722 0 0 1-.29-.2c-.08-.09-.14-.2-.19-.33-.04-.13-.07-.28-.07-.45v-1.8h.8v1.7c0 .36.16.54.47.54.06 0 .12 0 .18-.02s.11-.04.16-.08c.04-.03.08-.08.11-.13s.04-.11.04-.18v-1.83h.8v2.79h-.8v-.51l.01-.01Z" class="Vector"/>
          <path id="Vector_63" fill="#000" d="M43.21 106.24v-2.79h.8v.51h.03a.94.94 0 0 1 .12-.22c.05-.07.1-.13.17-.18.07-.05.14-.09.23-.12s.19-.05.3-.05c.13 0 .26.02.37.07.11.05.21.11.29.2.08.09.14.2.19.33.04.13.07.28.07.45v1.8h-.8v-1.7c0-.36-.16-.54-.47-.54-.06 0-.12 0-.18.02s-.11.04-.16.08c-.05.03-.08.08-.11.13s-.04.11-.04.18v1.83h-.81Z" class="Vector"/>
          <path id="Vector_64" fill="#000" d="M49.09 106.52c0 .29-.12.51-.37.65s-.64.21-1.17.21c-.27 0-.49-.02-.66-.05-.17-.03-.31-.07-.41-.13a.637.637 0 0 1-.22-.21.583.583 0 0 1-.06-.26c0-.16.05-.28.14-.36.09-.08.22-.14.39-.19v-.03a.818.818 0 0 1-.28-.15.376.376 0 0 1-.11-.28c0-.14.05-.24.14-.3.09-.06.21-.12.36-.15v-.03a.972.972 0 0 1-.39-.33.96.96 0 0 1-.14-.52c0-.16.03-.31.09-.43s.14-.23.25-.31c.11-.08.23-.15.38-.19.15-.04.31-.06.5-.06s.34.02.49.06v-.15c0-.11.04-.2.11-.27a.45.45 0 0 1 .31-.11h.49v.58h-.67v.05c.15.08.27.19.35.33.08.14.13.31.13.5 0 .16-.03.3-.09.43-.06.12-.14.23-.25.31-.11.08-.24.15-.39.19-.15.04-.32.06-.5.06-.08 0-.16 0-.24-.01-.08 0-.15-.02-.22-.04-.04.02-.07.05-.1.08s-.04.07-.04.12c0 .04.01.08.03.1.02.03.05.04.09.06.04.01.08.02.13.02h.8c.2 0 .37.02.51.06.14.04.26.1.35.17.09.07.15.16.19.25.04.1.06.21.06.32l.02.01Zm-.76.06c0-.07-.03-.13-.09-.17-.06-.04-.17-.06-.33-.06h-.96c-.07.06-.11.14-.11.23s.04.16.11.21c.07.06.2.08.38.08h.47c.18 0 .32-.03.4-.08a.24.24 0 0 0 .12-.22l.01.01Zm-.8-1.71c.16 0 .28-.04.35-.12.07-.08.11-.18.11-.3v-.13c0-.12-.04-.22-.11-.3-.07-.08-.19-.12-.35-.12-.16 0-.27.04-.35.12-.07.08-.11.18-.11.3v.13c0 .12.04.22.11.3.07.08.19.12.35.12Z" class="Vector"/>
        </g>
      </g>
      <g id="room_304a" class="room_304a">
        <path id="area_6" fill="#D9D9D9" d="M60.25 47.41H1.02v26.41h59.23V47.41Z" class="area"/>
        <g id="number_6" class="number">
          <path id="Vector_65" fill="#000" d="M20.59 60.85c.53 0 .92-.12 1.18-.35.26-.23.39-.53.39-.9v-.08c0-.4-.13-.7-.38-.9-.26-.2-.59-.3-1-.3-.41 0-.73.09-.98.26-.25.18-.45.41-.61.7l-.68-.52c.09-.15.21-.3.34-.45.14-.15.3-.28.48-.39.18-.11.4-.21.64-.28.24-.07.52-.11.83-.11.31 0 .63.04.91.12.28.08.53.21.73.37.2.16.37.36.49.6s.18.51.18.81c0 .24-.04.46-.11.66-.08.19-.18.36-.31.51-.13.14-.29.27-.47.37-.18.1-.37.18-.57.23v.04c.21.04.41.11.6.21.19.1.37.22.52.38.15.16.27.34.36.56.09.22.13.47.13.75 0 .32-.06.62-.19.89s-.3.5-.53.69c-.23.19-.5.34-.82.45-.32.11-.68.16-1.06.16-.33 0-.62-.04-.88-.11a2.63 2.63 0 0 1-1.2-.7c-.15-.15-.28-.31-.39-.48l.68-.52c.1.15.21.29.31.41.11.12.23.23.37.32.14.09.3.16.48.21.18.05.39.08.63.08.53 0 .94-.12 1.23-.37.29-.24.43-.59.43-1.05v-.09c0-.45-.14-.79-.42-1.04-.28-.24-.69-.37-1.25-.37h-.9v-.79h.83l.01.02Z" class="Vector"/>
          <path id="Vector_66" fill="#000" d="M27.4 65.33c-.46 0-.86-.09-1.19-.26-.33-.18-.6-.43-.82-.76-.22-.33-.38-.74-.48-1.22-.1-.48-.15-1.03-.15-1.65 0-.62.05-1.16.15-1.65.1-.49.26-.89.48-1.23.22-.34.49-.58.82-.76.33-.18.73-.26 1.19-.26.46 0 .86.09 1.19.26.33.18.6.43.82.76.22.33.37.74.47 1.23.1.49.15 1.04.15 1.65 0 .61-.05 1.17-.15 1.65-.1.48-.26.89-.47 1.22-.22.33-.49.58-.82.76-.33.18-.73.26-1.19.26Zm0-.78c.3 0 .56-.06.78-.18.22-.12.39-.29.52-.5.13-.22.23-.48.3-.78.07-.31.1-.65.1-1.03v-1.23c0-.37-.03-.72-.1-1.03-.06-.31-.16-.57-.3-.79-.13-.22-.31-.38-.52-.5-.21-.12-.48-.18-.78-.18-.3 0-.56.06-.78.18-.22.12-.39.29-.52.5-.13.22-.23.48-.3.79-.07.31-.1.65-.1 1.03v1.23c0 .38.03.73.1 1.03.07.3.16.57.3.78.13.22.31.38.52.5.22.12.48.18.78.18Zm0-2.48c-.25 0-.43-.05-.52-.15-.1-.1-.15-.22-.15-.37v-.24c0-.14.05-.27.15-.37.1-.1.27-.15.52-.15s.43.05.52.15c.1.1.15.22.15.37v.24c0 .14-.05.27-.15.37-.1.1-.27.15-.52.15Z" class="Vector"/>
          <path id="Vector_67" fill="#000" d="M34.72 65.2v-1.48h-3.71v-.8l3.26-5.26h1.32v5.31h1.12v.75h-1.12v1.48h-.87Zm-2.91-2.22h2.91v-4.61h-.04l-2.86 4.61h-.01Z" class="Vector"/>
          <path id="Vector_68" fill="#000" d="M42.46 65.2c-.34 0-.58-.09-.72-.26s-.23-.39-.27-.65h-.05c-.12.32-.32.58-.59.76-.27.18-.63.28-1.09.28-.58 0-1.05-.15-1.39-.45-.35-.3-.52-.72-.52-1.24s.19-.92.57-1.2c.38-.28.99-.42 1.83-.42h1.19v-.55c0-.41-.12-.71-.35-.92-.23-.2-.56-.31-.98-.31-.37 0-.68.07-.92.22s-.43.35-.57.6l-.58-.43c.07-.14.17-.28.29-.42.12-.14.27-.26.45-.37.18-.11.38-.19.62-.25s.49-.09.77-.09c.66 0 1.18.17 1.56.5.39.33.58.79.58 1.39v3.07h.78v.75h-.59l-.02-.01Zm-2.57-.59c.22 0 .43-.03.61-.08s.34-.13.48-.22c.14-.09.24-.2.32-.32.08-.13.11-.26.11-.41v-.92h-1.19c-.52 0-.9.07-1.13.22-.24.14-.36.35-.36.63v.23c0 .29.1.51.31.65.21.15.49.22.85.22Z" class="Vector"/>
        </g>
      </g>
      <g id="room_302a" class="room_302a">
        <path id="area_7" fill="#D9D9D9" d="M60.24 21H1.01v26.41h59.23V21Z" class="area"/>
        <g id="number_7" class="number">
          <path id="Vector_69" fill="#000" d="M20.59 34.44c.53 0 .92-.12 1.18-.35.26-.23.39-.53.39-.9v-.08c0-.4-.13-.7-.38-.9-.26-.2-.59-.3-1-.3-.41 0-.73.09-.98.26-.25.18-.45.41-.61.7l-.68-.52c.09-.15.21-.3.34-.45.14-.15.3-.28.48-.39.18-.11.4-.21.64-.28.24-.07.52-.11.83-.11.31 0 .63.04.91.12.28.08.53.21.73.37.2.16.37.36.49.6s.18.51.18.81c0 .24-.04.46-.11.66-.08.19-.18.36-.31.51-.13.14-.29.27-.47.37-.18.1-.37.18-.57.23v.04c.21.04.41.11.6.21.19.1.37.22.52.38.15.16.27.34.36.56.09.22.13.47.13.75 0 .32-.06.62-.19.89s-.3.5-.53.69c-.23.19-.5.34-.82.45-.32.11-.68.16-1.06.16-.33 0-.62-.04-.88-.11a2.63 2.63 0 0 1-1.2-.7c-.15-.15-.28-.31-.39-.48l.68-.52c.1.15.21.29.31.41.11.12.23.23.37.32.14.09.3.16.48.21.18.05.39.08.63.08.53 0 .94-.12 1.23-.37.29-.24.43-.59.43-1.05v-.09c0-.45-.14-.79-.42-1.04-.28-.24-.69-.37-1.25-.37h-.9v-.79h.83l.01.02Z" class="Vector"/>
          <path id="Vector_70" fill="#000" d="M27.39 38.92c-.46 0-.86-.09-1.19-.26-.33-.18-.6-.43-.82-.76-.22-.33-.38-.74-.48-1.22-.1-.48-.15-1.03-.15-1.65 0-.62.05-1.16.15-1.65.1-.49.26-.89.48-1.23.22-.34.49-.58.82-.76.33-.18.73-.26 1.19-.26.46 0 .86.09 1.19.26.33.18.6.43.82.76.22.33.37.74.47 1.23.1.49.15 1.04.15 1.65 0 .61-.05 1.17-.15 1.65-.1.48-.26.89-.47 1.22-.22.33-.49.58-.82.76-.33.18-.73.26-1.19.26Zm0-.78c.3 0 .56-.06.78-.18.22-.12.39-.29.52-.5.13-.22.23-.48.3-.78.07-.31.1-.65.1-1.03v-1.23c0-.37-.03-.72-.1-1.03-.06-.31-.16-.57-.3-.79-.13-.22-.31-.38-.52-.5-.21-.12-.48-.18-.78-.18-.3 0-.56.06-.78.18-.22.12-.39.29-.52.5-.13.22-.23.48-.3.79-.07.31-.1.65-.1 1.03v1.23c0 .38.03.73.1 1.03.07.3.16.57.3.78.13.22.31.38.52.5.22.12.48.18.78.18Zm0-2.48c-.25 0-.43-.05-.52-.15-.1-.1-.15-.22-.15-.37v-.24c0-.14.05-.27.15-.37.1-.1.27-.15.52-.15s.43.05.52.15c.1.1.15.22.15.37v.24c0 .14-.05.27-.15.37-.1.1-.27.15-.52.15Z" class="Vector"/>
          <path id="Vector_71" fill="#000" d="M36.43 38.79H31.4v-.93l2.52-2.27c.37-.33.67-.67.91-1.02s.36-.72.36-1.11v-.13c0-.45-.12-.8-.36-1.05s-.59-.37-1.06-.37c-.47 0-.82.12-1.06.35-.25.23-.43.55-.56.93l-.81-.3c.07-.22.17-.44.3-.65.13-.21.29-.4.48-.57.19-.17.43-.3.71-.4.28-.1.6-.15.97-.15s.71.05 1 .16c.29.11.54.26.73.45.19.19.35.43.45.69.1.27.16.56.16.87 0 .29-.04.56-.12.81-.08.25-.2.49-.35.72a4.1 4.1 0 0 1-.53.67c-.21.22-.43.44-.69.65l-2.11 1.84h4.09v.81Z" class="Vector"/>
          <path id="Vector_72" fill="#000" d="M42.45 38.79c-.34 0-.58-.09-.72-.26s-.23-.39-.27-.65h-.05c-.12.32-.32.58-.59.76-.27.18-.63.28-1.09.28-.58 0-1.05-.15-1.39-.45-.35-.3-.52-.72-.52-1.24s.19-.92.57-1.2c.38-.28.99-.42 1.83-.42h1.19v-.55c0-.41-.12-.71-.35-.92-.23-.2-.56-.31-.98-.31-.37 0-.68.07-.92.22s-.43.35-.57.6l-.58-.43c.07-.14.17-.28.29-.42.12-.14.27-.26.45-.37.18-.11.38-.19.62-.25s.49-.09.77-.09c.66 0 1.18.17 1.56.5.39.33.58.79.58 1.39v3.07h.78v.75h-.59l-.02-.01Zm-2.57-.59c.22 0 .43-.03.61-.08s.34-.13.48-.22c.14-.09.24-.2.32-.32.08-.13.11-.26.11-.41v-.92h-1.19c-.52 0-.9.07-1.13.22-.24.14-.36.35-.36.63v.23c0 .29.1.51.31.65.21.15.49.22.85.22Z" class="Vector"/>
        </g>
      </g>
      <g id="room_309" class="room">
        <path id="area_8" fill="#D9D9D9" d="M157.89 156.03H98.66v158.95h59.23V156.03Z" class="area"/>
        <g id="number_8" class="number">
          <path id="Vector_73" fill="#000" d="M121.48 230.34c.53 0 .92-.12 1.18-.35.26-.23.39-.53.39-.9v-.08c0-.4-.13-.7-.38-.9-.26-.2-.59-.3-1-.3-.41 0-.73.09-.98.26-.25.18-.45.41-.61.7l-.68-.52c.09-.15.21-.3.34-.45.14-.15.3-.28.48-.39.18-.11.4-.21.64-.28.24-.07.52-.11.83-.11.31 0 .63.04.91.12.28.08.53.21.73.37.2.16.37.36.49.6s.18.51.18.81c0 .24-.04.46-.11.66-.08.19-.18.36-.31.51-.13.14-.29.27-.47.37-.18.1-.37.18-.57.23v.04c.21.04.41.11.6.21.19.1.37.22.52.38.15.16.27.34.36.56.09.22.13.47.13.75 0 .32-.06.62-.19.89s-.3.5-.53.69c-.23.19-.5.34-.82.45-.32.11-.68.16-1.06.16-.33 0-.62-.04-.88-.11a2.63 2.63 0 0 1-1.2-.7c-.15-.15-.28-.31-.39-.48l.68-.52c.1.15.21.29.31.41.11.12.23.23.37.32.14.09.3.16.48.21.18.05.39.08.63.08.53 0 .94-.12 1.23-.37.29-.24.43-.59.43-1.05v-.09c0-.45-.14-.79-.42-1.04-.28-.24-.69-.37-1.25-.37h-.9v-.79h.83l.01.02Z" class="Vector"/>
          <path id="Vector_74" fill="#000" d="M128.28 234.82c-.46 0-.86-.09-1.19-.26-.33-.18-.6-.43-.82-.76-.22-.33-.38-.74-.48-1.22-.1-.48-.15-1.03-.15-1.65 0-.62.05-1.16.15-1.65.1-.49.26-.89.48-1.23.22-.34.49-.58.82-.76.33-.18.73-.26 1.19-.26.46 0 .86.09 1.19.26.33.18.6.43.82.76.22.33.37.74.47 1.23.1.49.15 1.04.15 1.65 0 .61-.05 1.17-.15 1.65-.1.48-.26.89-.47 1.22-.22.33-.49.58-.82.76-.33.18-.73.26-1.19.26Zm0-.79c.3 0 .56-.06.78-.18.22-.12.39-.29.52-.5.13-.22.23-.48.3-.78.07-.31.1-.65.1-1.03v-1.23c0-.37-.03-.72-.1-1.03-.06-.31-.16-.57-.3-.79-.13-.22-.31-.38-.52-.5-.21-.12-.48-.18-.78-.18-.3 0-.56.06-.78.18-.22.12-.39.29-.52.5-.13.22-.23.48-.3.79-.07.31-.1.65-.1 1.03v1.23c0 .38.03.73.1 1.03.07.3.16.57.3.78.13.22.31.38.52.5.22.12.48.18.78.18Zm0-2.47c-.25 0-.43-.05-.52-.15-.1-.1-.15-.22-.15-.37v-.24c0-.14.05-.27.15-.37.1-.1.27-.15.52-.15s.43.05.52.15c.1.1.15.22.15.37v.24c0 .14-.05.27-.15.37-.1.1-.27.15-.52.15Z" class="Vector"/>
          <path id="Vector_75" fill="#000" d="M137.31 229.91a4.8 4.8 0 0 1-.25 1.58c-.17.49-.39.94-.65 1.35-.27.41-.56.77-.88 1.08-.32.31-.63.57-.94.76h-1.17c.41-.29.78-.58 1.1-.86.32-.28.6-.57.85-.88.24-.31.45-.63.62-.98.17-.35.3-.74.41-1.18l-.05-.02c-.19.31-.43.57-.72.77-.29.21-.67.31-1.14.31-.33 0-.64-.05-.91-.16-.28-.11-.52-.26-.71-.46-.2-.2-.35-.44-.46-.73-.11-.28-.17-.61-.17-.97s.06-.7.18-1.01c.12-.31.29-.57.51-.79.22-.22.49-.39.8-.51.31-.12.66-.18 1.04-.18s.75.07 1.07.2c.32.13.58.32.8.57.22.25.39.55.51.91s.18.76.18 1.21l-.02-.01Zm-2.55 1.18c.52 0 .92-.14 1.2-.42.28-.28.43-.68.43-1.19v-.09c0-.51-.14-.91-.43-1.19-.29-.28-.69-.42-1.2-.42s-.92.14-1.2.42c-.29.28-.43.68-.43 1.19v.09c0 .51.14.91.43 1.19.28.28.69.42 1.2.42Z" class="Vector"/>
        </g>
        <g id="text_4" class="text">
          <path id="Vector_76" fill="#000" d="m108.62 242.34-.67.94v2.2h-1.62v-7.54h1.62v3.15h.09l.82-1.25 1.33-1.9H112l-2.26 3.19 2.36 4.35h-1.83l-1.66-3.14h.01Z" class="Vector"/>
          <path id="Vector_77" fill="#000" d="M116.26 244.47h-.07c-.12.32-.31.59-.58.81-.27.22-.62.33-1.06.33-.27 0-.51-.04-.73-.13-.22-.09-.41-.23-.57-.4-.16-.18-.28-.4-.37-.66-.09-.26-.13-.56-.13-.9v-3.61h1.6v3.39c0 .72.31 1.08.94 1.08.12 0 .24-.02.36-.05.12-.03.22-.08.31-.15.09-.07.16-.15.22-.25s.09-.22.09-.36v-3.66h1.6v5.57h-1.6v-1.02l-.01.01Z" class="Vector"/>
          <path id="Vector_78" fill="#000" d="M119.26 245.49v-5.57h1.6v1.02h.07a1.935 1.935 0 0 1 .58-.8c.13-.1.29-.19.46-.25.17-.06.38-.09.6-.09a1.73 1.73 0 0 1 1.3.54c.16.18.28.4.37.66.09.26.14.56.14.9v3.61h-1.6v-3.39c0-.72-.31-1.08-.94-1.08-.12 0-.24.02-.36.05a.94.94 0 0 0-.32.15c-.1.07-.17.15-.22.25-.05.1-.08.22-.08.36v3.66h-1.6v-.02Z" class="Vector"/>
          <path id="Vector_79" fill="#000" d="M128.21 245.62c-.62 0-1.16-.09-1.61-.28-.46-.19-.8-.44-1.03-.77l.9-.83c.22.24.47.42.76.56.29.13.62.2 1 .2.32 0 .57-.05.75-.15.18-.1.27-.25.27-.45 0-.16-.06-.27-.18-.33s-.29-.11-.51-.15l-.9-.14c-.25-.04-.49-.09-.7-.17-.22-.08-.4-.18-.56-.31-.16-.13-.28-.29-.38-.48-.09-.19-.14-.41-.14-.68 0-.58.22-1.04.67-1.37.45-.33 1.07-.5 1.88-.5.55 0 1.01.07 1.4.22.39.15.69.36.92.63l-.8.91a2.04 2.04 0 0 0-.64-.45c-.26-.12-.57-.18-.94-.18-.62 0-.93.19-.93.56 0 .17.06.28.18.34s.29.11.51.15l.89.14c.25.04.49.09.7.17.22.08.41.18.57.31.16.13.29.29.38.48.09.19.14.41.14.68 0 .58-.22 1.04-.67 1.38-.45.34-1.09.51-1.92.51h-.01Z" class="Vector"/>
          <path id="Vector_80" fill="#000" d="M135.19 245.49c-.58 0-1-.15-1.29-.45-.28-.3-.42-.69-.42-1.15v-2.71h-1.51v-1.25h.98c.24 0 .41-.05.51-.14.1-.09.15-.27.15-.52v-1.31h1.47v1.97h2.17v1.25h-2.17v3.07h2.17v1.25h-2.06v-.01Z" class="Vector"/>
          <path id="Vector_81" fill="#000" d="M145.49 245.49v-1.31h2.03v-5.05h-.1l-1.53 2.01-1.04-.81 1.8-2.38h2.48v6.23h1.6v1.31h-5.25.01Z" class="Vector"/>
        </g>
      </g>
      <g id="room_Sonstiges_17" class="room_Sonstiges">
        <path id="area_9" fill="#D9D9D9" d="M157.9 377.5H99.08v45.24h58.82V377.5Z" class="area"/>
        <g id="text_5" class="text">
          <path id="Vector_82" fill="#000" d="m121.9 398.14-.33.47v1.1h-.81v-3.77h.81v1.58h.04l.41-.63.66-.95h.91l-1.13 1.59 1.18 2.18h-.91l-.83-1.57Z" class="Vector"/>
          <path id="Vector_83" fill="#000" d="M125.72 399.21h-.03c-.06.16-.16.29-.29.41-.13.11-.31.17-.53.17-.13 0-.26-.02-.37-.07a.722.722 0 0 1-.29-.2c-.08-.09-.14-.2-.19-.33-.04-.13-.07-.28-.07-.45v-1.8h.8v1.7c0 .36.16.54.47.54.06 0 .12 0 .18-.02s.11-.04.16-.08c.04-.03.08-.08.11-.13s.04-.11.04-.18v-1.83h.8v2.79h-.8v-.51l.01-.01Z" class="Vector"/>
          <path id="Vector_84" fill="#000" d="M127.22 399.71v-2.79h.8v.51h.03a.94.94 0 0 1 .12-.22c.05-.07.1-.13.17-.18.07-.05.14-.09.23-.12s.19-.05.3-.05c.13 0 .26.02.37.07.11.05.21.11.29.2.08.09.14.2.19.33.04.13.07.28.07.45v1.8h-.8v-1.7c0-.36-.16-.54-.47-.54-.06 0-.12 0-.18.02s-.11.04-.16.08c-.05.03-.08.08-.11.13s-.04.11-.04.18v1.83h-.81Z" class="Vector"/>
          <path id="Vector_85" fill="#000" d="M131.7 399.78c-.31 0-.58-.05-.81-.14-.23-.09-.4-.22-.52-.38l.45-.42c.11.12.23.21.38.28.15.07.31.1.5.1.16 0 .28-.02.37-.07a.23.23 0 0 0 .13-.22c0-.08-.03-.13-.09-.16s-.15-.05-.25-.07l-.45-.07c-.13-.02-.24-.05-.35-.08-.11-.04-.2-.09-.28-.15a.654.654 0 0 1-.19-.24.74.74 0 0 1-.07-.34c0-.29.11-.52.33-.69.22-.17.54-.25.94-.25.27 0 .51.04.7.11.19.07.35.18.46.32l-.4.45a.975.975 0 0 0-.32-.23c-.13-.06-.29-.09-.47-.09-.31 0-.46.09-.46.28 0 .08.03.14.09.17s.15.05.25.07l.44.07c.13.02.24.05.35.08.11.04.2.09.28.15.08.06.15.14.19.24.04.1.07.21.07.34 0 .29-.11.52-.34.69-.23.17-.54.25-.96.25h.03Z" class="Vector"/>
          <path id="Vector_86" fill="#000" d="M135.18 399.71c-.29 0-.5-.08-.64-.23a.81.81 0 0 1-.21-.58v-1.36h-.76v-.63h.49c.12 0 .2-.02.25-.07.05-.05.08-.13.08-.26v-.65h.73v.98h1.08v.63h-1.08v1.53h1.08v.63h-1.03l.01.01Z" class="Vector"/>
          <path id="Vector_87" fill="#000" d="m110.99 405.11-1-3.77h.9l.44 1.92.22 1.09h.04l.23-1.09.45-1.92h.86l-1 3.77h-1.14Z" class="Vector"/>
          <path id="Vector_88" fill="#000" d="M114.64 405.18c-.22 0-.41-.03-.58-.1-.17-.07-.32-.16-.44-.29a1.42 1.42 0 0 1-.28-.46 1.9 1.9 0 0 1-.1-.61c0-.23.03-.43.1-.61s.16-.33.28-.46c.12-.13.27-.22.44-.29.17-.07.37-.1.58-.1.21 0 .41.03.58.1.17.07.32.16.44.29.12.13.21.28.28.46.07.18.1.38.1.61 0 .23-.03.43-.1.61a1.207 1.207 0 0 1-.72.75c-.17.07-.37.1-.58.1Zm0-.6c.18 0 .32-.06.42-.17.1-.11.15-.27.15-.48v-.44c0-.21-.05-.36-.15-.48a.542.542 0 0 0-.42-.17c-.18 0-.32.06-.42.17-.1.11-.15.27-.15.48v.44c0 .21.05.36.15.48.1.11.24.17.42.17Z" class="Vector"/>
          <path id="Vector_89" fill="#000" d="M116.49 404.49h.64v-1.53h-.64v-.63h1.44v.79h.04c.03-.1.06-.2.11-.29.04-.1.1-.18.17-.25a1 1 0 0 1 .26-.18c.1-.04.22-.06.36-.06h.26v.73h-.59c-.2 0-.35.06-.45.17-.1.11-.15.26-.15.43v.82h.92v.63h-2.36v-.63h-.01Z" class="Vector"/>
          <path id="Vector_90" fill="#000" d="M119.49 401.12h.8v1.72h.04c.07-.17.17-.3.3-.41.13-.11.31-.16.53-.16a.928.928 0 0 1 .75.35c.09.11.16.27.22.45.05.18.08.4.08.65s-.03.47-.08.65c-.05.18-.12.33-.22.45s-.2.21-.33.26c-.13.05-.27.09-.42.09-.22 0-.4-.05-.53-.16s-.23-.25-.3-.42h-.04v.51h-.8v-4 .02Zm1.32 3.43c.18 0 .32-.05.42-.16.1-.11.15-.26.15-.45v-.43c0-.19-.05-.34-.15-.45-.1-.11-.24-.16-.42-.16a.61.61 0 0 0-.36.1c-.1.07-.15.17-.15.32v.82c0 .15.05.25.15.32.1.07.22.1.36.1v-.01Z" class="Vector"/>
          <path id="Vector_91" fill="#000" d="M123.95 405.18c-.47 0-.82-.13-1.06-.39-.24-.26-.36-.61-.36-1.06 0-.23.03-.43.09-.61s.15-.34.27-.46c.12-.13.26-.23.43-.29.17-.07.36-.1.56-.1.2 0 .4.03.56.1.17.07.31.16.42.28.12.12.2.27.27.45.06.17.09.37.09.59v.24h-1.91v.05c0 .18.06.33.17.44.11.11.28.16.49.16.17 0 .31-.03.43-.09s.22-.15.31-.25l.43.47c-.11.13-.26.25-.45.35-.19.1-.44.15-.74.15v-.03Zm-.07-2.35c-.17 0-.31.05-.41.16-.1.11-.15.25-.15.43v.04h1.12v-.04c0-.18-.05-.33-.15-.43a.55.55 0 0 0-.41-.16Z" class="Vector"/>
          <path id="Vector_92" fill="#000" d="M125.73 404.49h.64v-1.53h-.64v-.63h1.44v.79h.04c.03-.1.06-.2.11-.29.04-.1.1-.18.17-.25a1 1 0 0 1 .26-.18c.1-.04.22-.06.36-.06h.26v.73h-.59c-.2 0-.35.06-.45.17-.1.11-.15.26-.15.43v.82h.92v.63h-2.36v-.63h-.01Z" class="Vector"/>
          <path id="Vector_93" fill="#000" d="M130.1 405.18c-.47 0-.82-.13-1.06-.39-.24-.26-.36-.61-.36-1.06 0-.23.03-.43.09-.61s.15-.34.27-.46c.12-.13.26-.23.43-.29.17-.07.36-.1.56-.1.2 0 .4.03.56.1.17.07.31.16.42.28.12.12.2.27.27.45.06.17.09.37.09.59v.24h-1.91v.05c0 .18.06.33.17.44.11.11.28.16.49.16.17 0 .31-.03.43-.09s.22-.15.31-.25l.43.47c-.11.13-.26.25-.45.35-.19.1-.44.15-.74.15v-.03Zm-.06-2.35c-.17 0-.31.05-.41.16-.1.11-.15.25-.15.43v.04h1.12v-.04c0-.18-.05-.33-.15-.43a.55.55 0 0 0-.41-.16Z" class="Vector"/>
          <path id="Vector_94" fill="#000" d="M131.99 404.49h.89v-1.53h-.89v-.63h1.68v2.16h.82v.63h-2.5v-.63Zm1.29-2.52c-.18 0-.31-.04-.38-.11a.362.362 0 0 1-.1-.27v-.16c0-.11.04-.2.1-.27.07-.07.2-.11.38-.11s.3.04.38.11c.07.07.11.16.11.27v.16c0 .1-.04.19-.11.27-.07.08-.2.11-.38.11Z" class="Vector"/>
          <path id="Vector_95" fill="#000" d="M136.4 405.11c-.29 0-.5-.08-.64-.23a.81.81 0 0 1-.21-.58v-1.36h-.76v-.63h.49c.12 0 .2-.02.25-.07.05-.05.08-.13.08-.26v-.65h.73v.98h1.08v.63h-1.08v1.53h1.08v.63h-1.03l.01.01Z" class="Vector"/>
          <path id="Vector_96" fill="#000" d="M139.73 404.61h-.03c-.06.16-.16.29-.29.41-.13.11-.31.17-.53.17-.13 0-.26-.02-.37-.07a.722.722 0 0 1-.29-.2c-.08-.09-.14-.2-.19-.33-.04-.13-.07-.28-.07-.45v-1.8h.8v1.7c0 .36.16.54.47.54.06 0 .12 0 .18-.02s.11-.04.16-.08c.04-.03.08-.08.11-.13s.04-.11.04-.18v-1.83h.8v2.79h-.8v-.51l.01-.01Z" class="Vector"/>
          <path id="Vector_97" fill="#000" d="M141.07 405.11v-2.79h.8v.51h.03a.94.94 0 0 1 .12-.22c.05-.07.1-.13.17-.18.07-.05.14-.09.23-.12s.19-.05.3-.05c.13 0 .26.02.37.07.11.05.21.11.29.2.08.09.14.2.19.33.04.13.07.28.07.45v1.8h-.8v-1.7c0-.36-.16-.54-.47-.54-.06 0-.12 0-.18.02s-.11.04-.16.08c-.05.03-.08.08-.11.13s-.04.11-.04.18v1.83h-.81Z" class="Vector"/>
          <path id="Vector_98" fill="#000" d="M146.95 405.39c0 .29-.12.51-.37.65s-.64.21-1.17.21c-.27 0-.49-.02-.66-.05-.17-.03-.31-.07-.41-.13a.637.637 0 0 1-.22-.21.583.583 0 0 1-.06-.26c0-.16.05-.28.14-.36.09-.08.22-.14.39-.19v-.03a.818.818 0 0 1-.28-.15.376.376 0 0 1-.11-.28c0-.14.05-.24.14-.3.09-.06.21-.12.36-.15v-.03a.972.972 0 0 1-.39-.33.96.96 0 0 1-.14-.52c0-.16.03-.31.09-.43s.14-.23.25-.31c.11-.08.23-.15.38-.19.15-.04.31-.06.5-.06s.34.02.49.06v-.15c0-.11.04-.2.11-.27a.45.45 0 0 1 .31-.11h.49v.58h-.67v.05c.15.08.27.19.35.33.08.14.13.31.13.5 0 .16-.03.3-.09.43-.06.12-.14.23-.25.31-.11.08-.24.15-.39.19-.15.04-.32.06-.5.06-.08 0-.16 0-.24-.01a.78.78 0 0 1-.22-.04c-.04.02-.07.05-.1.08s-.04.07-.04.12c0 .04.01.08.03.1.02.03.05.04.09.06.04.01.08.02.13.02h.8c.2 0 .37.02.51.06.14.04.26.1.35.17.09.07.15.16.19.25.04.1.06.21.06.32l.02.01Zm-.76.06c0-.07-.03-.13-.09-.17-.06-.04-.17-.06-.33-.06h-.96c-.07.06-.11.14-.11.23s.04.16.11.21c.07.06.2.08.38.08h.47c.18 0 .32-.03.4-.08a.24.24 0 0 0 .12-.22l.01.01Zm-.8-1.71c.16 0 .28-.04.35-.12.07-.08.11-.18.11-.3v-.13c0-.12-.04-.22-.11-.3-.07-.08-.19-.12-.35-.12-.16 0-.27.04-.35.12-.07.08-.11.18-.11.3v.13c0 .12.04.22.11.3.07.08.19.12.35.12Z" class="Vector"/>
        </g>
      </g>
      <g id="room_Sonstiges_18" class="room_Sonstiges">
        <path id="area_10" fill="#D9D9D9" d="M79.45 314.98H1v135.09h78.45V314.98Z" class="area"/>
        <g id="text_6" class="text">
          <path id="Vector_99" fill="#000" d="M17.53 381.84c-.68 0-1.23-.13-1.66-.38-.43-.25-.79-.57-1.07-.96l.66-.54c.29.37.61.64.93.82.33.18.72.27 1.17.27.55 0 .96-.13 1.25-.38.29-.25.43-.6.43-1.05 0-.36-.1-.65-.31-.85-.21-.2-.57-.35-1.09-.43l-.84-.14c-.37-.06-.68-.16-.92-.29-.25-.13-.45-.29-.6-.47-.15-.18-.26-.39-.32-.61-.07-.22-.1-.45-.1-.69 0-.69.23-1.21.68-1.57.45-.35 1.07-.53 1.84-.53.6 0 1.11.1 1.53.31.41.2.75.49 1 .86l-.64.55c-.21-.27-.46-.5-.76-.67-.3-.17-.68-.26-1.14-.26-.51 0-.9.11-1.18.32-.27.21-.41.54-.41.97 0 .34.1.61.31.82.21.21.57.36 1.11.46l.81.14c.37.06.68.16.93.29.25.13.46.28.61.46.15.18.26.38.33.61.07.22.1.46.1.7 0 .7-.23 1.25-.69 1.64-.46.4-1.11.59-1.95.59l-.01.01Z" class="Vector"/>
          <path id="Vector_100" fill="#000" d="M24.22 381.84c-.4 0-.76-.07-1.08-.21-.31-.14-.58-.34-.79-.59a2.46 2.46 0 0 1-.49-.92c-.11-.36-.17-.76-.17-1.2 0-.44.06-.84.17-1.2.11-.36.28-.67.5-.92.22-.26.48-.45.79-.59.31-.14.66-.21 1.06-.21.54 0 .98.12 1.32.36.34.24.59.55.75.93l-.69.37c-.1-.29-.27-.51-.5-.67-.23-.16-.52-.24-.87-.24-.25 0-.48.04-.68.12-.2.08-.37.2-.5.35-.14.15-.24.33-.31.54-.07.21-.1.44-.1.68v.95c0 .24.03.47.1.68.07.21.17.39.31.54.14.15.31.27.51.35.2.08.43.12.69.12.37 0 .68-.09.93-.26.24-.17.44-.41.58-.71l.62.42c-.17.37-.42.68-.77.93-.35.25-.8.37-1.37.37l-.01.01Z" class="Vector"/>
          <path id="Vector_101" fill="#000" d="M28.33 373.72h.86v3.33h.04c.06-.14.13-.27.22-.39.09-.13.19-.24.32-.33.13-.09.28-.17.45-.23.17-.06.37-.09.6-.09.58 0 1.05.19 1.4.56.35.37.53.89.53 1.57v3.57h-.86v-3.42c0-.51-.11-.89-.33-1.14-.22-.25-.55-.37-.98-.37-.17 0-.34.02-.51.06-.17.04-.31.11-.44.19-.13.09-.23.2-.31.33-.08.13-.12.3-.12.48v3.87h-.86v-7.99h-.01Z" class="Vector"/>
          <path id="Vector_102" fill="#000" d="M38.3 380.8h-.04c-.06.14-.13.27-.22.39-.09.13-.19.24-.32.33-.13.09-.28.17-.45.23-.17.06-.37.09-.6.09-.58 0-1.05-.19-1.4-.56-.35-.37-.53-.89-.53-1.57v-3.57h.86v3.42c0 .51.11.89.33 1.14.22.25.55.37.98.37.17 0 .34-.02.51-.06.17-.04.31-.11.44-.19.13-.09.23-.2.31-.33a.9.9 0 0 0 .12-.48v-3.87h.86v5.57h-.86v-.91h.01Zm-2.34-5.77c-.22 0-.38-.05-.48-.14a.49.49 0 0 1-.14-.36v-.15c0-.14.05-.26.14-.36.09-.09.25-.14.48-.14.23 0 .38.05.48.14.09.09.14.21.14.36v.15c0 .14-.05.26-.14.36-.09.09-.25.14-.48.14Zm2.01 0c-.22 0-.38-.05-.48-.14-.1-.09-.14-.21-.14-.36v-.15c0-.14.05-.26.14-.36.09-.09.25-.14.48-.14.23 0 .38.05.48.14.09.09.14.21.14.36v.15c0 .14-.05.26-.14.36-.09.09-.25.14-.48.14Z" class="Vector"/>
          <path id="Vector_103" fill="#000" d="M41.09 380.96h1.94v-6.5h-1.94v-.75h2.81v7.25h1.94v.75h-4.75v-.75Z" class="Vector"/>
          <path id="Vector_104" fill="#000" d="M50.04 381.84c-.4 0-.76-.07-1.08-.21-.32-.14-.59-.33-.82-.59-.23-.26-.4-.56-.52-.92s-.18-.75-.18-1.19c0-.44.06-.85.19-1.21s.3-.67.52-.92c.22-.26.49-.45.8-.59.31-.14.66-.21 1.04-.21s.71.07 1.02.21c.31.14.57.33.78.57.22.24.38.53.5.86.12.33.17.69.17 1.09v.41h-4.12v.26c0 .24.04.47.12.68.08.21.19.39.34.54.15.15.33.27.54.35.21.08.45.12.71.12.37 0 .7-.09.97-.26s.48-.41.63-.71l.64.43c-.17.37-.44.68-.83.92-.38.24-.85.36-1.41.36l-.01.01Zm-.05-5.12a1.588 1.588 0 0 0-1.18.49c-.14.15-.26.33-.35.53-.09.2-.12.43-.12.67v.08h3.2v-.12c0-.24-.04-.47-.11-.67-.08-.2-.18-.38-.31-.52-.13-.15-.29-.26-.49-.34-.19-.08-.4-.12-.63-.12h-.01Z" class="Vector"/>
          <path id="Vector_105" fill="#000" d="M54.02 380.96h1.63v-4.08h-1.63v-.75h2.49v1.4h.05c.12-.44.33-.78.65-1.03s.73-.37 1.23-.37h.78v.86h-1.05c-.5 0-.9.14-1.2.43-.3.29-.46.66-.46 1.13v2.4h2.16v.75h-4.65v-.75.01Z" class="Vector"/>
          <path id="Vector_106" fill="#000" d="M61.34 378.88v-.91h3.13v.91h-3.13Z" class="Vector"/>
          <path id="Vector_107" fill="#000" d="M8.85 384.52h.86v3.33h.04c.36-.69.93-1.04 1.72-1.04.68 0 1.22.26 1.6.77.38.51.58 1.23.58 2.15 0 .92-.19 1.64-.58 2.15-.39.51-.92.77-1.6.77-.79 0-1.36-.35-1.72-1.04h-.04v.91h-.86v-8Zm2.29 7.35c.5 0 .89-.15 1.17-.46.28-.31.42-.71.42-1.21v-.95c0-.5-.14-.91-.42-1.22-.28-.31-.67-.46-1.17-.46-.19 0-.38.03-.55.08-.17.05-.32.12-.45.22s-.23.22-.31.36a.96.96 0 0 0-.11.49v2.01c0 .19.04.35.11.49.08.14.18.26.31.36.13.1.28.17.45.22.17.05.36.08.55.08v-.01Z" class="Vector"/>
          <path id="Vector_108" fill="#000" d="M15.45 391.76h2.01v-4.08h-2.01v-.75h2.87v4.83h1.88v.75h-4.75v-.75Zm2.44-6.06c-.25 0-.43-.05-.53-.16-.1-.1-.15-.24-.15-.39v-.17c0-.16.05-.29.15-.39.1-.1.28-.16.53-.16s.43.05.53.16c.1.1.15.24.15.39v.17c0 .16-.05.29-.15.39-.1.1-.28.16-.53.16Z" class="Vector"/>
          <path id="Vector_109" fill="#000" d="M21.81 384.52h.86v3.33h.04c.36-.69.93-1.04 1.72-1.04.68 0 1.22.26 1.6.77.38.51.58 1.23.58 2.15 0 .92-.19 1.64-.58 2.15-.39.51-.92.77-1.6.77-.79 0-1.36-.35-1.72-1.04h-.04v.91h-.86v-8Zm2.29 7.35c.5 0 .89-.15 1.17-.46.28-.31.42-.71.42-1.21v-.95c0-.5-.14-.91-.42-1.22-.28-.31-.67-.46-1.17-.46-.19 0-.38.03-.55.08-.17.05-.32.12-.45.22s-.23.22-.31.36a.96.96 0 0 0-.11.49v2.01c0 .19.04.35.11.49.08.14.18.26.31.36.13.1.28.17.45.22.17.05.36.08.55.08v-.01Z" class="Vector"/>
          <path id="Vector_110" fill="#000" d="M28.13 391.76h1.94v-6.5h-1.94v-.75h2.81v7.25h1.94v.75h-4.75v-.75Z" class="Vector"/>
          <path id="Vector_111" fill="#000" d="M34.89 391.76h2.01v-4.08h-2.01v-.75h2.87v4.83h1.88v.75h-4.75v-.75Zm2.44-6.06c-.25 0-.43-.05-.53-.16-.1-.1-.15-.24-.15-.39v-.17c0-.16.05-.29.15-.39.1-.1.28-.16.53-.16s.43.05.53.16c.1.1.15.24.15.39v.17c0 .16-.05.29-.15.39-.1.1-.28.16-.53.16Z" class="Vector"/>
          <path id="Vector_112" fill="#000" d="M43.47 392.64c-.39 0-.74-.07-1.05-.21-.31-.14-.58-.33-.8-.59-.22-.26-.39-.56-.5-.92-.11-.36-.17-.76-.17-1.2 0-.44.06-.84.17-1.2.11-.36.28-.67.5-.92.22-.26.49-.45.8-.59.31-.14.66-.21 1.05-.21s.74.07 1.05.21c.31.14.58.33.8.59.22.26.39.56.5.92.11.36.17.76.17 1.2 0 .44-.06.85-.17 1.2-.11.35-.28.66-.5.92-.22.26-.49.45-.8.59-.31.14-.66.21-1.05.21Zm0-.75c.48 0 .87-.14 1.17-.43.3-.29.44-.73.44-1.34v-.8c0-.6-.15-1.05-.44-1.34-.29-.29-.68-.43-1.17-.43-.49 0-.87.14-1.17.43-.3.29-.44.73-.44 1.34v.8c0 .6.15 1.05.44 1.34.29.29.68.43 1.17.43Z" class="Vector"/>
          <path id="Vector_113" fill="#000" d="M50.21 392.51c-.42 0-.74-.12-.93-.36-.2-.24-.3-.54-.3-.92v-3.56h-1.86v-.75h1.38c.19 0 .32-.04.39-.11.08-.08.11-.21.11-.39v-1.46h.83v1.97h2.54v.75h-2.54v4.08h2.54v.75H50.2h.01Z" class="Vector"/>
          <path id="Vector_114" fill="#000" d="M54.24 384.52h.86v3.33h.04c.06-.14.13-.27.22-.39.09-.13.19-.24.32-.33.13-.09.28-.17.45-.23.17-.06.37-.09.6-.09.58 0 1.05.19 1.4.56.35.37.53.89.53 1.57v3.57h-.86v-3.42c0-.51-.11-.89-.33-1.14-.22-.25-.55-.37-.98-.37-.17 0-.34.02-.51.06-.17.04-.31.11-.44.19-.13.09-.23.2-.31.33-.08.13-.12.3-.12.48v3.87h-.86v-7.99h-.01Z" class="Vector"/>
          <path id="Vector_115" fill="#000" d="M63 392.64c-.4 0-.76-.07-1.08-.21-.32-.14-.59-.33-.82-.59-.23-.26-.4-.56-.52-.92s-.18-.75-.18-1.19c0-.44.06-.85.19-1.21s.3-.67.52-.92c.22-.26.49-.45.8-.59.31-.14.66-.21 1.04-.21s.71.07 1.02.21c.31.14.57.33.78.57.22.24.38.53.5.86.12.33.17.69.17 1.09v.41H61.3v.26c0 .24.04.47.12.68.08.21.19.39.34.54.15.15.33.27.54.35.21.08.45.12.71.12.37 0 .7-.09.97-.26s.48-.41.63-.71l.64.43c-.17.37-.44.68-.83.92-.38.24-.85.36-1.41.36l-.01.01Zm-.05-5.12a1.588 1.588 0 0 0-1.18.49c-.14.15-.26.33-.35.53-.09.2-.12.43-.12.67v.08h3.2v-.12c0-.24-.04-.47-.11-.67-.08-.2-.18-.38-.31-.52-.13-.15-.29-.26-.49-.34-.19-.08-.4-.12-.63-.12h-.01Z" class="Vector"/>
          <path id="Vector_116" fill="#000" d="M67.28 384.52h.86v5.04h.04l.97-.92 1.86-1.71h1.06l-2.31 2.18 2.58 3.39h-1.07l-2.17-2.89-.96.87v2.02h-.86v-7.99.01Z" class="Vector"/>
        </g>
      </g>
      <g id="room_Sonstiges_19" class="room_Sonstiges">
        <path id="area_11" fill="#D9D9D9" d="M98.66 450.07H1v131.01h97.66V450.07Z" class="area"/>
        <g id="text_7" class="text">
          <path id="Vector_117" fill="#000" d="M34.93 520.16v-7.54h.91v6.75h3.57v.79h-4.48Z" class="Vector"/>
          <path id="Vector_118" fill="#000" d="M45.46 520.16c-.34 0-.58-.09-.72-.26s-.23-.39-.27-.65h-.05c-.12.32-.32.58-.59.76-.27.18-.63.28-1.09.28-.58 0-1.05-.15-1.39-.45-.35-.3-.52-.72-.52-1.24s.19-.92.57-1.2c.38-.28.99-.42 1.83-.42h1.19v-.55c0-.41-.12-.71-.35-.92-.23-.2-.56-.31-.98-.31-.37 0-.68.07-.92.22s-.43.35-.57.6l-.58-.43c.07-.14.17-.28.29-.42.12-.14.27-.26.45-.37.18-.11.38-.19.62-.25s.49-.09.77-.09c.66 0 1.18.17 1.56.5.39.33.58.79.58 1.39v3.07h.78v.75h-.59l-.02-.01Zm-2.57-.59c.22 0 .43-.03.61-.08s.34-.13.48-.22c.14-.09.24-.2.32-.32.08-.13.11-.26.11-.41v-.92h-1.19c-.52 0-.9.07-1.13.22-.24.14-.36.35-.36.63v.23c0 .29.1.51.31.65.21.15.49.22.85.22Z" class="Vector"/>
          <path id="Vector_119" fill="#000" d="M52.65 520.8c0 .56-.23.97-.7 1.24s-1.17.4-2.11.4-1.55-.12-1.94-.36c-.39-.24-.59-.58-.59-1.03 0-.3.08-.54.24-.7.16-.16.38-.29.67-.37v-.13c-.16-.08-.28-.18-.37-.3a.757.757 0 0 1-.13-.46c0-.29.1-.5.29-.65.19-.14.43-.25.72-.32v-.04c-.35-.15-.61-.37-.8-.67-.19-.29-.29-.64-.29-1.04 0-.28.05-.54.15-.78.1-.24.25-.44.44-.61.19-.17.42-.3.69-.39.27-.09.56-.14.88-.14.42 0 .79.08 1.1.23v-.1c0-.21.05-.39.15-.53.1-.14.27-.21.52-.21h1.03v.75h-1.25v.38c.2.17.36.38.46.62.11.24.16.5.16.8 0 .3-.05.54-.16.78-.1.24-.25.44-.44.61-.19.17-.42.3-.69.39-.27.09-.57.14-.89.14-.09 0-.18 0-.27-.01-.09 0-.17-.02-.26-.03a1.343 1.343 0 0 0-.53.2c-.08.05-.14.12-.19.19-.05.07-.08.16-.08.25 0 .17.08.28.25.33.17.05.38.08.65.08h1.23c.72 0 1.24.13 1.57.4.32.27.49.63.49 1.08Zm-.81.04c0-.22-.09-.4-.27-.53-.18-.13-.49-.2-.94-.2H48.7c-.37.15-.56.4-.56.76 0 .24.1.46.29.63.19.18.52.26.97.26h.84c.5 0 .9-.08 1.18-.23.28-.15.42-.38.42-.69Zm-2.04-3.21c.43 0 .75-.1.96-.3.21-.2.31-.47.31-.8v-.31c0-.33-.1-.6-.31-.79-.21-.2-.52-.3-.96-.3-.44 0-.75.1-.95.3-.2.2-.3.46-.3.79v.31c0 .33.1.6.3.8.2.2.52.3.95.3Z" class="Vector"/>
          <path id="Vector_120" fill="#000" d="M56.41 520.29c-.4 0-.76-.07-1.08-.21-.32-.14-.59-.33-.82-.59-.23-.26-.4-.56-.52-.92s-.18-.75-.18-1.19c0-.44.06-.85.19-1.21s.3-.67.52-.92c.22-.26.49-.45.8-.59.31-.14.66-.21 1.04-.21s.71.07 1.02.21c.31.14.57.33.78.57.22.24.38.53.5.86.12.33.17.69.17 1.09v.41h-4.12v.26c0 .24.04.47.12.68.08.21.19.39.34.54.15.15.33.27.54.35.21.08.45.12.71.12.37 0 .7-.09.97-.26s.48-.41.63-.71l.64.43c-.17.37-.44.68-.83.92-.38.24-.85.36-1.41.36l-.01.01Zm-.05-5.12a1.588 1.588 0 0 0-1.18.49c-.14.15-.26.33-.35.53-.09.2-.12.43-.12.67v.08h3.2v-.12c0-.24-.04-.47-.11-.67-.08-.2-.18-.38-.31-.52-.13-.15-.29-.26-.49-.34-.19-.08-.4-.12-.63-.12h-.01Z" class="Vector"/>
          <path id="Vector_121" fill="#000" d="M60.38 519.41h1.63v-4.08h-1.63v-.75h2.49v1.4h.05c.12-.44.33-.78.65-1.03s.73-.37 1.23-.37h.78v.86h-1.05c-.5 0-.9.14-1.2.43-.3.29-.46.66-.46 1.13v2.4h2.16v.75h-4.65v-.75.01Z" class="Vector"/>
        </g>
      </g>
      <g id="room_301" class="room">
        <rect id="area_12" width="38" height="112" x="60.48" y="202.7" fill="#D9D9D9" class="area"/>
        <g id="number_9" class="number">
          <path id="Vector_122" fill="#000" d="M78.19 295.01c0-.53-.12-.92-.35-1.18-.23-.26-.53-.39-.9-.39h-.08c-.4 0-.7.13-.9.38-.2.26-.3.59-.3 1 0 .41.09.73.26.98.18.25.41.45.7.61l-.52.68c-.15-.09-.3-.21-.45-.35-.15-.14-.28-.3-.39-.48-.11-.18-.21-.4-.28-.64a2.98 2.98 0 0 1-.11-.83c0-.31.04-.63.12-.91.08-.28.21-.53.37-.73.16-.21.36-.37.6-.49s.51-.18.81-.18c.25 0 .46.04.66.11s.36.18.51.31c.14.13.27.29.37.47.1.18.18.37.23.57h.04c.04-.21.11-.41.21-.6.1-.19.22-.37.38-.52.16-.15.34-.27.56-.36.22-.09.47-.14.75-.14.32 0 .62.06.89.19s.5.3.69.53c.19.23.34.5.45.82.11.32.16.67.16 1.06 0 .33-.04.62-.11.88a2.63 2.63 0 0 1-.7 1.2c-.15.15-.31.28-.47.39l-.52-.68c.15-.1.29-.21.41-.31.12-.11.23-.23.32-.37.09-.14.16-.3.21-.48.05-.18.08-.39.08-.63 0-.53-.12-.94-.37-1.23-.24-.28-.59-.43-1.05-.43h-.09c-.45 0-.79.14-1.04.42-.25.28-.37.69-.37 1.25v.9h-.79V295l.01.01Z" class="Vector"/>
          <path id="Vector_123" fill="#000" d="M82.67 288.21c0 .46-.09.86-.26 1.19-.18.33-.43.6-.76.82-.33.22-.74.37-1.22.48-.48.1-1.03.15-1.65.15-.62 0-1.16-.05-1.65-.15-.49-.1-.89-.26-1.23-.48-.33-.22-.58-.49-.76-.82-.18-.33-.26-.73-.26-1.19 0-.46.09-.86.26-1.19.18-.33.43-.6.76-.82.33-.22.74-.37 1.23-.48.49-.1 1.04-.15 1.65-.15.61 0 1.17.05 1.65.15.48.1.89.26 1.22.48.33.22.58.49.76.82.18.33.26.73.26 1.19Zm-.79 0c0-.3-.06-.56-.18-.78-.12-.22-.29-.39-.5-.52-.21-.13-.48-.23-.78-.3-.31-.06-.65-.1-1.03-.1h-1.23c-.37 0-.72.03-1.03.1-.31.06-.57.16-.79.3-.22.14-.38.31-.5.52-.12.22-.18.48-.18.78 0 .3.06.56.18.78.12.22.29.39.5.52.21.13.48.23.79.3.31.07.65.1 1.03.1h1.23c.38 0 .73-.03 1.03-.1.3-.07.57-.16.78-.3.21-.14.38-.31.5-.52.12-.22.18-.48.18-.78Zm-2.47 0c0 .25-.05.43-.15.52-.1.1-.22.15-.37.15h-.24c-.14 0-.27-.05-.37-.15-.1-.1-.15-.27-.15-.52s.05-.43.15-.52c.1-.09.22-.15.37-.15h.24c.14 0 .27.05.37.15.1.1.15.27.15.52Z" class="Vector"/>
          <path id="Vector_124" fill="#000" d="M82.54 284.05h-.79v-2.16h-6.08v.08l1.77 1.9-.57.53-1.87-2v-1.41h6.75V279h.79v5.05Z" class="Vector"/>
        </g>
        <g id="text_8" class="text">
          <path id="Vector_125" fill="#000" d="M75.79 268.31h6.75v.91h-6.75v2.52H75v-5.94h.79v2.52-.01Z" class="Vector"/>
          <path id="Vector_126" fill="#000" d="M82.67 262.19c0 .4-.07.77-.21 1.09-.14.32-.33.59-.59.82-.26.23-.56.4-.92.52s-.75.18-1.19.18c-.44 0-.85-.06-1.21-.19s-.67-.3-.92-.52c-.26-.22-.45-.49-.59-.8a2.51 2.51 0 0 1-.21-1.04c0-.38.07-.71.21-1.02.14-.31.33-.57.57-.78.24-.22.53-.38.86-.5.33-.11.69-.17 1.09-.17h.41v4.13h.26c.25 0 .47-.04.68-.12.21-.08.39-.19.54-.34.15-.15.27-.33.35-.54.08-.21.12-.45.12-.71 0-.37-.09-.7-.26-.97s-.41-.48-.71-.63l.43-.64c.37.17.68.44.92.83.24.39.36.85.36 1.41l.01-.01Zm-5.12.05a1.588 1.588 0 0 0 .49 1.18c.15.15.33.26.53.35.21.08.43.12.67.12h.08v-3.2h-.12c-.25 0-.47.04-.67.11-.2.08-.38.18-.52.31-.15.13-.26.3-.34.49-.08.19-.12.4-.12.63v.01Z" class="Vector"/>
          <path id="Vector_127" fill="#000" d="M81.8 258.22v-1.63h-4.08v1.63h-.75v-2.49h1.4v-.05c-.44-.11-.78-.33-1.03-.65s-.37-.73-.37-1.23v-.78h.86v1.05c0 .5.14.9.43 1.2.29.31.66.46 1.13.46h2.4v-2.16h.75v4.65h-.75.01Z" class="Vector"/>
          <path id="Vector_128" fill="#000" d="M81.8 251.74v-1.63h-4.08v1.63h-.75v-2.49h1.4v-.05c-.44-.11-.78-.33-1.03-.65s-.37-.73-.37-1.23v-.78h.86v1.05c0 .5.14.9.43 1.2.29.31.66.46 1.13.46h2.4v-2.16h.75v4.65h-.75.01Z" class="Vector"/>
          <path id="Vector_129" fill="#000" d="M82.54 240.74c0 .34-.09.58-.26.72s-.39.23-.65.27v.05c.32.12.58.32.76.59.18.27.28.63.28 1.08 0 .58-.15 1.05-.45 1.39-.3.35-.72.52-1.24.52s-.92-.19-1.2-.57c-.28-.38-.42-.99-.42-1.83v-1.19h-.55c-.41 0-.71.12-.92.35-.2.23-.31.56-.31.98 0 .37.07.68.22.92s.35.43.6.57l-.43.58c-.14-.07-.28-.17-.42-.29-.14-.12-.26-.27-.37-.45-.11-.18-.19-.38-.25-.62a3.07 3.07 0 0 1-.09-.77c0-.65.17-1.18.5-1.56.33-.38.79-.58 1.38-.58h3.07v-.78h.75v.62Zm-.59 2.57c0-.22-.03-.43-.08-.61s-.13-.34-.22-.48c-.09-.14-.2-.24-.32-.32a.744.744 0 0 0-.41-.11H80v1.19c0 .52.07.9.22 1.13.14.24.35.36.63.36h.23c.29 0 .51-.1.65-.31s.22-.49.22-.85Z" class="Vector"/>
          <path id="Vector_130" fill="#000" d="M82.67 236.3c0 .58-.1 1.09-.3 1.51-.2.42-.46.78-.79 1.07l-.51-.58c.28-.27.5-.56.65-.88.15-.32.23-.7.23-1.14 0-.44-.08-.79-.23-1.06-.15-.28-.4-.42-.73-.42-.14 0-.26.03-.36.08-.1.05-.17.13-.23.22s-.1.2-.13.31c-.03.12-.06.24-.08.37l-.13.88c-.03.19-.07.4-.12.63-.05.23-.13.43-.24.62-.11.19-.26.34-.45.47-.19.13-.43.19-.73.19-.28 0-.52-.06-.73-.17-.21-.11-.38-.27-.52-.47-.14-.2-.25-.44-.31-.71-.07-.27-.1-.57-.1-.9 0-.5.08-.94.24-1.31.16-.37.38-.69.66-.96l.53.56a1.81 1.81 0 0 0-.47.6c-.07.14-.12.3-.17.49-.04.19-.06.4-.06.65 0 .44.08.78.23 1.01.15.23.37.35.66.35.14 0 .26-.03.36-.08.1-.05.17-.13.23-.22s.1-.2.13-.32.06-.24.08-.36l.13-.88c.03-.2.07-.41.12-.64.05-.22.13-.43.24-.62.11-.19.26-.34.45-.47.19-.13.43-.19.73-.19.55 0 .98.21 1.29.64.3.43.45 1 .45 1.71l-.02.02Z" class="Vector"/>
          <path id="Vector_131" fill="#000" d="M82.67 229.82c0 .58-.1 1.09-.3 1.51-.2.42-.46.78-.79 1.07l-.51-.58c.28-.27.5-.56.65-.88.15-.32.23-.7.23-1.14 0-.44-.08-.79-.23-1.06-.15-.28-.4-.42-.73-.42-.14 0-.26.03-.36.08-.1.05-.17.13-.23.22s-.1.2-.13.31c-.03.12-.06.24-.08.37l-.13.88c-.03.19-.07.4-.12.63-.05.23-.13.43-.24.62-.11.19-.26.34-.45.47-.19.13-.43.19-.73.19-.28 0-.52-.06-.73-.17-.21-.11-.38-.27-.52-.47-.14-.2-.25-.44-.31-.71-.07-.27-.1-.57-.1-.9 0-.5.08-.94.24-1.31.16-.37.38-.69.66-.96l.53.56a1.81 1.81 0 0 0-.47.6c-.07.14-.12.3-.17.49-.04.19-.06.4-.06.65 0 .44.08.78.23 1.01.15.23.37.35.66.35.14 0 .26-.03.36-.08.1-.05.17-.13.23-.22s.1-.2.13-.32.06-.24.08-.36l.13-.88c.03-.2.07-.41.12-.64.05-.22.13-.43.24-.62.11-.19.26-.34.45-.47.19-.13.43-.19.73-.19.55 0 .98.21 1.29.64.3.43.45 1 .45 1.71l-.02.02Z" class="Vector"/>
          <path id="Vector_132" fill="#000" d="M82.67 223.31c0 .4-.07.77-.21 1.09-.14.32-.33.59-.59.82-.26.23-.56.4-.92.52s-.75.18-1.19.18c-.44 0-.85-.06-1.21-.19s-.67-.3-.92-.52c-.26-.22-.45-.49-.59-.8a2.51 2.51 0 0 1-.21-1.04c0-.38.07-.71.21-1.02.14-.31.33-.57.57-.78.24-.22.53-.38.86-.5.33-.11.69-.17 1.09-.17h.41v4.13h.26c.25 0 .47-.04.68-.12.21-.08.39-.19.54-.34.15-.15.27-.33.35-.54.08-.21.12-.45.12-.71 0-.37-.09-.7-.26-.97s-.41-.48-.71-.63l.43-.64c.37.17.68.44.92.83.24.39.36.85.36 1.41l.01-.01Zm-5.12.06a1.588 1.588 0 0 0 .49 1.18c.15.15.33.26.53.35.21.08.43.12.67.12h.08v-3.2h-.12c-.25 0-.47.04-.67.11-.2.08-.38.18-.52.31-.15.13-.26.3-.34.49-.08.19-.12.4-.12.63v.01Z" class="Vector"/>
        </g>
      </g>
      <g id="room_308gang" class="room_308gang">
        <rect id="area_13" width="16" height="106" x="81" y="49" fill="#fff" class="area"/>
      </g>
      <g id="room_306gang" class="room_306gang">
        <rect id="area_14" width="16" height="24" x="81" y="23" fill="#fff" class="area"/>
      </g>
      <g id="room_302agang" class="room_302agang">
        <rect id="area_15" width="16" height="23" x="62" y="23" fill="#fff" class="area"/>
      </g>
      <g id="room_304agang" class="room_304agang">
        <rect id="area_16" width="16" height="23" x="62" y="49" fill="#fff" class="area"/>
      </g>
      <g id="room_304gang" class="room_304gang">
        <rect id="area_17" width="16" height="41" x="62" y="75" fill="#fff" class="area"/>
      </g>
      <g id="room_302gang" class="room_302gang">
        <rect id="area_18" width="16" height="27" x="62" y="119" fill="#fff" class="area"/>
      </g>
      <g id="room_304bgang" class="room_304bgang">
        <rect id="area_19" width="16" height="18" x="62" y="149" fill="#fff" class="area"/>
      </g>
      <g id="room_309gang" class="room_309gang">
        <rect id="area_20" width="16" height="31" x="81" y="170" fill="#fff" class="area"/>
      </g>
    </g>
    <g id="walls" class="walls">
      <path id="Vector_133" stroke="#000" stroke-miterlimit="10" d="M1 314.98v383.79l25.28 33.55 240.5 68.96 43.25-150.81-126.86-36.38" class="Vector"/>
      <path id="Vector_134" stroke="#000" stroke-miterlimit="10" d="M157.89 450.07V21H1v147.61" class="Vector"/>
      <path id="Vector_135" stroke="#000" stroke-miterlimit="10" d="M157.89 156.03V48.39H98.66v107.64h59.23Z" class="Vector"/>
      <path id="Vector_136" stroke="#000" stroke-miterlimit="10" d="M157.89 48.39V21.01H98.66v27.38h59.23Z" class="Vector"/>
      <path id="Vector_137" stroke="#000" stroke-miterlimit="10" d="M60.24 47.41V21H1.01v26.41h59.23Z" class="Vector"/>
      <path id="Vector_138" stroke="#000" stroke-miterlimit="10" d="M60.24 73.82V47.41H1.01v26.41h59.23Z" class="Vector"/>
      <path id="Vector_139" stroke="#000" stroke-miterlimit="10" d="M60.23 117.87V73.83H1v44.04h59.23Z" class="Vector"/>
      <path id="Vector_140" stroke="#000" stroke-miterlimit="10" d="M60.23 147.59v-29.73H1v29.73h59.23Z" class="Vector"/>
      <path id="Vector_141" stroke="#000" stroke-miterlimit="10" d="M157.89 314.97V156.02H98.66v158.95h59.23Z" class="Vector"/>
      <path id="Vector_142" stroke="#000" stroke-miterlimit="10" d="M60.23 168.61V147.6H1v21.01h59.23Z" class="Vector"/>
      <path id="Vector_143" stroke="#000" stroke-miterlimit="10" d="M157.89 450.07H98.66v79.06h59.23v51.42l25.28 33.54" class="Vector"/>
      <path id="Vector_144" stroke="#000" stroke-miterlimit="10" d="M88 314.98H60.24" class="Vector"/>
      <path id="Vector_145" stroke="#000" stroke-miterlimit="10" d="M98.66 314.98H88" class="Vector"/>
      <path id="Vector_146" stroke="#000" stroke-miterlimit="10" d="M1 314.98h59.24V203.11h38.84" class="Vector"/>
      <path id="Vector_147" stroke="#000" stroke-miterlimit="10" d="M70.93 168.61H60.26" class="Vector"/>
      <path id="Vector_148" stroke="#000" stroke-miterlimit="10" d="M98.69 168.61H88.02" class="Vector"/>
      <path id="Vector_149" stroke="#000" stroke-miterlimit="10" d="M98.66 450.07h27.33v-27.33H98.66" class="Vector"/>
      <path id="Vector_150" stroke="#000" stroke-miterlimit="10" d="M117 431.69h-9.35v9.35H117v-9.35Z" class="Vector"/>
      <path id="Vector_151" stroke="#000" stroke-miterlimit="10" d="M112.33 431.69v-8.95h-4.68v8.95h4.68Z" class="Vector"/>
      <path id="Vector_152" stroke="#000" stroke-miterlimit="10" d="M117 431.69v-8.95h-4.68v8.95H117Z" class="Vector"/>
      <path id="Vector_153" stroke="#000" stroke-miterlimit="10" d="M117.01 436.37H126v-4.68h-8.99v4.68Z" class="Vector"/>
      <path id="Vector_154" stroke="#000" stroke-miterlimit="10" d="M117.01 441.04H126v-4.68h-8.99v4.68Z" class="Vector"/>
      <path id="Vector_155" stroke="#000" stroke-miterlimit="10" d="M112.33 441.04v9.03h4.68v-9.03h-4.68Z" class="Vector"/>
      <path id="Vector_156" stroke="#000" stroke-miterlimit="10" d="M107.65 441.04v9.03h4.68v-9.03h-4.68Z" class="Vector"/>
      <path id="Vector_157" stroke="#000" stroke-linejoin="bevel" d="m117 431.69 8.99-8.95" class="Vector"/>
      <path id="Vector_158" stroke="#000" stroke-linejoin="bevel" d="m117 441.04 8.99 9.03" class="Vector"/>
      <path id="Vector_159" stroke="#000" stroke-miterlimit="10" d="M107.63 427.22h13.87v18.34h-18.34v-8.47" class="Vector"/>
      <path id="Vector_160" stroke="#000" stroke-miterlimit="10" d="m103.16 434.03-2.26 4.52h4.52l-2.26-4.52Z" class="Vector"/>
      <path id="Vector_161" stroke="#000" stroke-linejoin="bevel" d="M98.66 422.74v-45.19h27.33v-62.57" class="Vector"/>
      <path id="Vector_162" stroke="#000" stroke-linejoin="bevel" d="M98.66 314.98v42.66H78.84v92.43" class="Vector"/>
      <path id="Vector_163" stroke="#000" stroke-linejoin="bevel" d="M98.66 450.07H1" class="Vector"/>
      <path id="Vector_164" stroke="#000" stroke-miterlimit="10" d="m107.65 441.04-8.99 9.03v-9.03h8.99Z" class="Vector"/>
      <path id="Vector_165" stroke="#000" stroke-miterlimit="10" d="M60.25 203.11v-34.5H1.02v34.5h59.23Z" class="Vector"/>
      <path id="Vector_166" stroke="#000" stroke-miterlimit="10" d="M32.92 185.85V168.6H1.01v17.25h31.91Z" class="Vector"/>
      <path id="Vector_167" stroke="#000" stroke-miterlimit="10" d="M23.81 185.85V168.6h-4.56v17.25h4.56Z" class="Vector"/>
      <path id="Vector_168" stroke="#000" stroke-miterlimit="10" d="M28.37 185.85V168.6h-4.56v17.25h4.56Z" class="Vector"/>
      <path id="Vector_169" stroke="#000" stroke-miterlimit="10" d="M32.93 185.85V168.6h-4.56v17.25h4.56Z" class="Vector"/>
      <path id="Vector_170" stroke="#000" stroke-miterlimit="10" d="M37.49 185.86v-17.25h-4.56v17.25h4.56Z" class="Vector"/>
      <path id="Vector_171" stroke="#000" stroke-miterlimit="10" d="M42.05 185.86v-17.25h-4.56v17.25h4.56Z" class="Vector"/>
      <path id="Vector_172" stroke="#000" stroke-miterlimit="10" d="M46.61 185.86v-17.25h-4.56v17.25h4.56Z" class="Vector"/>
      <path id="Vector_173" stroke="#000" stroke-miterlimit="10" d="M51.17 185.86v-17.25h-4.56v17.25h4.56Z" class="Vector"/>
      <path id="Vector_174" stroke="#000" stroke-miterlimit="10" d="M32.92 203.1v-17.25H1.01v17.25h31.91Z" class="Vector"/>
      <path id="Vector_175" stroke="#000" stroke-miterlimit="10" d="M23.81 203.1v-17.25h-4.56v17.25h4.56Z" class="Vector"/>
      <path id="Vector_176" stroke="#000" stroke-miterlimit="10" d="M19.25 185.85V168.6h-4.56v17.25h4.56Z" class="Vector"/>
      <path id="Vector_177" stroke="#000" stroke-miterlimit="10" d="M19.25 203.1v-17.25h-4.56v17.25h4.56Z" class="Vector"/>
      <path id="Vector_178" stroke="#000" stroke-miterlimit="10" d="M28.37 203.11v-17.25h-4.56v17.25h4.56Z" class="Vector"/>
      <path id="Vector_179" stroke="#000" stroke-miterlimit="10" d="M32.93 203.11v-17.25h-4.56v17.25h4.56Z" class="Vector"/>
      <path id="Vector_180" stroke="#000" stroke-miterlimit="10" d="M37.49 203.11v-17.25h-4.56v17.25h4.56Z" class="Vector"/>
      <path id="Vector_181" stroke="#000" stroke-miterlimit="10" d="M42.05 203.11v-17.25h-4.56v17.25h4.56Z" class="Vector"/>
      <path id="Vector_182" stroke="#000" stroke-miterlimit="10" d="M46.61 203.11v-17.25h-4.56v17.25h4.56Z" class="Vector"/>
      <path id="Vector_183" stroke="#000" stroke-miterlimit="10" d="M51.17 203.11v-17.25h-4.56v17.25h4.56Z" class="Vector"/>
      <path id="Vector_184" stroke="#000" stroke-miterlimit="10" d="m55.7 194.35-48.52.26v-17.38h46.85" class="Vector"/>
      <path id="Vector_185" stroke="#000" stroke-miterlimit="10" d="m58.6 177.23-4.52-2.26v4.52l4.52-2.26Z" class="Vector"/>
    </g>
  </g>
</svg>
