<?xml version="1.0" encoding="UTF-8"?><svg xmlns="http://www.w3.org/2000/svg" viewBox="0 0 360 810"><defs><style>.c,.d,.e{fill:none;}.d{stroke-miterlimit:10;}.d,.e{stroke:#000;}.e{stroke-linejoin:bevel;}</style></defs><g id="a"><polyline class="d" points="49.52 322.28 49.52 706.07 74.8 739.62 315.3 808.58 358.55 657.77 231.69 621.39"/><polyline class="d" points="206.41 457.37 206.41 28.3 49.52 28.3 49.52 34.06 49.52 175.91"/><rect class="d" x="122.98" y="79.89" width="107.64" height="59.23" transform="translate(286.3 -67.29) rotate(90)"/><rect class="d" x="163.11" y="12.38" width="27.38" height="59.23" transform="translate(218.79 -134.8) rotate(90)"/><rect class="d" x="65.93" y="11.89" width="26.41" height="59.23" transform="translate(120.65 -37.63) rotate(90)"/><rect class="d" x="65.93" y="38.3" width="26.41" height="59.23" transform="translate(147.06 -11.22) rotate(90)"/><rect class="d" x="57.12" y="73.53" width="44.04" height="59.23" transform="translate(182.28 24.01) rotate(90)"/><rect class="d" x="64.27" y="110.42" width="29.73" height="59.23" transform="translate(219.17 60.89) rotate(90)"/><rect class="d" x="97.32" y="213.19" width="158.95" height="59.23" transform="translate(419.6 66) rotate(90)"/><rect class="d" x="68.64" y="135.79" width="21.01" height="59.23" transform="translate(244.54 86.26) rotate(90)"/><polyline class="d" points="206.41 457.37 147.18 457.37 147.18 536.43 206.41 536.43 206.41 587.85 231.69 621.39"/><line class="d" x1="136.52" y1="322.28" x2="108.76" y2="322.28"/><line class="d" x1="147.18" y1="322.28" x2="136.52" y2="322.28"/><polyline class="d" points="49.52 322.28 108.76 322.28 108.76 210.41 147.6 210.41"/><line class="d" x1="119.45" y1="175.91" x2="108.78" y2="175.91"/><line class="d" x1="147.21" y1="175.91" x2="136.54" y2="175.91"/><polyline class="d" points="147.18 457.37 174.51 457.37 174.51 430.04 147.18 430.04"/><rect class="d" x="156.17" y="438.99" width="9.35" height="9.35"/><rect class="d" x="154.03" y="432.18" width="8.95" height="4.68" transform="translate(593.03 276.01) rotate(90)"/><rect class="d" x="158.71" y="432.18" width="8.95" height="4.68" transform="translate(597.7 271.33) rotate(90)"/><rect class="d" x="165.52" y="438.99" width="8.99" height="4.68" transform="translate(340.04 882.66) rotate(180)"/><rect class="d" x="165.52" y="443.67" width="8.99" height="4.68" transform="translate(340.04 892.01) rotate(180)"/><rect class="d" x="158.67" y="450.52" width="9.03" height="4.68" transform="translate(-289.67 616.04) rotate(-90)"/><rect class="d" x="154" y="450.52" width="9.03" height="4.68" transform="translate(-294.35 611.37) rotate(-90)"/><line class="e" x1="165.52" y1="438.99" x2="174.51" y2="430.04"/><line class="e" x1="165.52" y1="448.34" x2="174.51" y2="457.37"/><polyline class="d" points="156.15 434.52 170.02 434.52 170.02 452.86 151.68 452.86 151.68 444.39"/><polygon class="d" points="151.68 441.33 149.42 445.85 153.94 445.85 151.68 441.33"/><polyline class="e" points="147.18 430.04 147.18 384.85 174.51 384.85 174.51 322.28"/><polyline class="e" points="147.18 322.28 147.18 364.94 127.36 364.94 127.36 430.04 127.36 457.37"/><line class="e" x1="147.18" y1="457.37" x2="49.52" y2="457.37"/><path class="d" d="M156.17,448.34l-8.99,9.03v-9.03s9.33,0,8.99,0Z"/><rect class="d" x="61.91" y="163.54" width="34.5" height="59.23" transform="translate(272.31 114) rotate(90)"/><rect class="d" x="56.86" y="168.58" width="17.25" height="31.91" transform="translate(250.02 119.04) rotate(90)"/><rect class="d" x="61.42" y="182.25" width="17.25" height="4.56" transform="translate(254.58 114.48) rotate(90)"/><rect class="d" x="65.98" y="182.25" width="17.25" height="4.56" transform="translate(259.14 109.92) rotate(90)"/><rect class="d" x="70.54" y="182.25" width="17.25" height="4.56" transform="translate(263.7 105.36) rotate(90)"/><rect class="d" x="75.1" y="182.25" width="17.25" height="4.56" transform="translate(268.26 100.81) rotate(90)"/><rect class="d" x="79.66" y="182.25" width="17.25" height="4.56" transform="translate(272.82 96.25) rotate(90)"/><rect class="d" x="84.22" y="182.25" width="17.25" height="4.56" transform="translate(277.38 91.69) rotate(90)"/><rect class="d" x="88.78" y="182.25" width="17.25" height="4.56" transform="translate(281.94 87.13) rotate(90)"/><rect class="d" x="56.86" y="185.83" width="17.25" height="31.91" transform="translate(267.27 136.29) rotate(90)"/><rect class="d" x="61.42" y="199.5" width="17.25" height="4.56" transform="translate(271.83 131.73) rotate(90)"/><rect class="d" x="56.86" y="182.25" width="17.25" height="4.56" transform="translate(250.02 119.04) rotate(90)"/><rect class="d" x="56.86" y="199.5" width="17.25" height="4.56" transform="translate(267.27 136.29) rotate(90)"/><rect class="d" x="65.98" y="199.5" width="17.25" height="4.56" transform="translate(276.39 127.18) rotate(90)"/><rect class="d" x="70.54" y="199.5" width="17.25" height="4.56" transform="translate(280.95 122.62) rotate(90)"/><rect class="d" x="75.1" y="199.5" width="17.25" height="4.56" transform="translate(285.51 118.06) rotate(90)"/><rect class="d" x="79.66" y="199.5" width="17.25" height="4.56" transform="translate(290.07 113.5) rotate(90)"/><rect class="d" x="84.22" y="199.5" width="17.25" height="4.56" transform="translate(294.63 108.94) rotate(90)"/><rect class="d" x="88.78" y="199.5" width="17.25" height="4.56" transform="translate(299.19 104.38) rotate(90)"/><polyline class="d" points="104.22 201.65 55.7 201.91 55.7 184.53 102.55 184.53"/><polygon class="d" points="107.12 184.53 102.6 182.27 102.6 186.79 107.12 184.53"/></g><g id="b"><rect class="c" x="147.18" y="55.68" width="59.23" height="107.64"/><path d="M170,104.34c.53,0,.92-.12,1.18-.35s.39-.53.39-.9v-.08c0-.4-.13-.7-.38-.9-.26-.2-.59-.3-1-.3s-.73.09-.98.26c-.25.18-.45.41-.61.7l-.68-.52c.09-.15.21-.3.34-.45.14-.15.3-.28.48-.39s.4-.21.64-.28.52-.11.83-.11.63.04.91.12c.28.08.53.21.73.37s.37.36.49.6.18.51.18.81c0,.24-.04.46-.11.66-.08.19-.18.36-.31.51-.13.14-.29.27-.47.37-.18.1-.37.18-.57.23v.04c.21.04.41.11.6.21.19.1.37.22.52.38s.27.34.36.56c.09.22.13.47.13.75,0,.32-.06.62-.19.89-.13.27-.3.5-.53.69s-.5.34-.82.45c-.32.11-.68.16-1.06.16-.33,0-.62-.04-.88-.11s-.48-.17-.68-.29c-.2-.12-.37-.26-.52-.41-.15-.15-.28-.31-.39-.48l.68-.52c.1.15.21.29.31.41.11.12.23.23.37.32s.3.16.48.21c.18.05.39.08.63.08.53,0,.94-.12,1.23-.37.29-.24.43-.59.43-1.05v-.09c0-.45-.14-.79-.42-1.04-.28-.24-.69-.37-1.25-.37h-.9v-.79h.83Z"/><path d="M176.8,108.82c-.46,0-.86-.09-1.19-.26-.33-.18-.6-.43-.82-.76-.22-.33-.38-.74-.48-1.22s-.15-1.03-.15-1.65.05-1.16.15-1.65.26-.89.48-1.23.49-.58.82-.76c.33-.18.73-.26,1.19-.26s.86.09,1.19.26c.33.18.6.43.82.76.22.33.37.74.47,1.23s.15,1.04.15,1.65-.05,1.17-.15,1.65-.26.89-.47,1.22c-.22.33-.49.58-.82.76-.33.18-.73.26-1.19.26ZM176.8,108.03c.3,0,.56-.06.78-.18s.39-.29.52-.5c.13-.22.23-.48.3-.78.07-.31.1-.65.1-1.03v-1.23c0-.37-.03-.72-.1-1.03-.06-.31-.16-.57-.3-.79-.13-.22-.31-.38-.52-.5s-.48-.18-.78-.18-.56.06-.78.18c-.22.12-.39.29-.52.5-.13.22-.23.48-.3.79s-.1.65-.1,1.03v1.23c0,.38.03.73.1,1.03s.16.57.3.78c.13.22.31.38.52.5.22.12.48.18.78.18ZM176.8,105.56c-.25,0-.43-.05-.52-.15-.1-.1-.15-.22-.15-.37v-.24c0-.14.05-.27.15-.37.1-.1.27-.15.52-.15s.43.05.52.15c.1.1.15.22.15.37v.24c0,.14-.05.27-.15.37-.1.1-.27.15-.52.15Z"/><path d="M183.28,108.82c-.44,0-.83-.06-1.16-.17-.33-.11-.61-.26-.83-.46-.22-.19-.38-.42-.5-.69-.11-.27-.17-.55-.17-.86,0-.52.14-.93.42-1.23.28-.3.65-.51,1.11-.64v-.09c-.4-.14-.72-.36-.96-.66-.23-.31-.35-.67-.35-1.11,0-.58.21-1.03.64-1.38.42-.34,1.02-.51,1.78-.51s1.36.17,1.78.51c.42.34.64.8.64,1.38,0,.43-.12.8-.35,1.11-.23.31-.55.53-.96.66v.09c.46.12.83.33,1.11.64.28.3.42.71.42,1.23,0,.31-.06.6-.17.86-.11.27-.28.5-.5.69-.22.19-.5.35-.83.46-.33.11-.71.17-1.15.17ZM183.28,108.05c.53,0,.95-.12,1.25-.36.3-.24.45-.57.45-1v-.24c0-.43-.15-.77-.45-1-.3-.24-.72-.36-1.26-.36s-.96.12-1.26.36c-.3.24-.45.57-.45,1v.24c0,.43.15.77.45,1,.3.24.72.36,1.25.36ZM183.28,104.36c.49,0,.86-.1,1.12-.31.26-.21.38-.51.38-.9v-.15c0-.39-.13-.69-.39-.9-.26-.21-.63-.31-1.11-.31s-.84.1-1.11.31c-.26.21-.39.51-.39.9v.15c0,.39.13.69.38.9.26.21.63.31,1.12.31Z"/><path d="M157.14,116.35l-.67.94v2.2h-1.62v-7.54h1.62v3.15h.09l.82-1.25,1.33-1.9h1.81l-2.26,3.19,2.36,4.35h-1.83l-1.66-3.14Z"/><path d="M164.78,118.47h-.07c-.12.32-.31.59-.58.81s-.62.33-1.06.33c-.27,0-.51-.04-.73-.13-.22-.09-.41-.23-.57-.4-.16-.18-.28-.4-.37-.66-.09-.26-.13-.56-.13-.9v-3.61h1.6v3.39c0,.72.31,1.08.94,1.08.12,0,.24-.02.36-.05.12-.03.22-.08.31-.15.09-.07.16-.15.22-.25.06-.1.09-.22.09-.36v-3.66h1.6v5.57h-1.6v-1.02Z"/><path d="M167.78,119.49v-5.57h1.6v1.02h.07c.06-.16.14-.31.24-.44s.21-.26.34-.36c.13-.1.29-.19.46-.25s.38-.09.6-.09c.27,0,.51.04.73.14.22.09.41.23.57.4.16.18.28.4.37.66s.14.56.14.9v3.61h-1.6v-3.39c0-.72-.31-1.08-.94-1.08-.12,0-.24.02-.36.05-.12.03-.22.08-.32.15s-.17.15-.22.25c-.05.1-.08.22-.08.36v3.66h-1.6Z"/><path d="M176.73,119.62c-.62,0-1.16-.09-1.61-.28-.46-.19-.8-.44-1.03-.77l.9-.83c.22.24.47.42.76.56.29.13.62.2,1,.2.32,0,.57-.05.75-.15.18-.1.27-.25.27-.45,0-.16-.06-.27-.18-.33-.12-.06-.29-.11-.51-.15l-.9-.14c-.25-.04-.49-.09-.7-.17-.22-.08-.4-.18-.56-.31-.16-.13-.28-.29-.38-.48-.09-.19-.14-.41-.14-.68,0-.58.22-1.04.67-1.37.45-.33,1.07-.5,1.88-.5.55,0,1.01.07,1.4.22.39.15.69.36.92.63l-.8.91c-.17-.18-.38-.33-.64-.45-.26-.12-.57-.18-.94-.18-.62,0-.93.19-.93.56,0,.17.06.28.18.34s.29.11.51.15l.89.14c.25.04.49.09.7.17.22.08.41.18.57.31.16.13.29.29.38.48.09.19.14.41.14.68,0,.58-.22,1.04-.67,1.38s-1.09.51-1.92.51Z"/><path d="M183.71,119.49c-.58,0-1-.15-1.29-.45-.28-.3-.42-.69-.42-1.15v-2.71h-1.51v-1.25h.98c.24,0,.41-.05.51-.14.1-.09.15-.27.15-.52v-1.31h1.47v1.97h2.17v1.25h-2.17v3.07h2.17v1.25h-2.06Z"/><path d="M198.99,119.49h-5.42v-1.48l2.38-1.98c.41-.35.71-.66.89-.92.18-.26.27-.53.27-.82v-.11c0-.32-.09-.56-.28-.72-.19-.16-.44-.24-.76-.24-.36,0-.64.1-.83.31-.19.21-.33.46-.41.75l-1.42-.54c.09-.26.21-.51.36-.74s.34-.44.58-.61c.23-.17.51-.31.82-.42.31-.1.67-.16,1.07-.16s.78.06,1.1.17c.32.12.6.27.82.48.22.2.39.44.51.72.12.28.17.58.17.9s-.05.61-.16.87-.25.51-.43.74-.4.45-.65.67c-.25.22-.51.43-.79.65l-1.44,1.11h3.63v1.36Z"/><rect class="c" x="147.18" y="28.3" width="59.23" height="27.38"/><path d="M173.4,39.41c.26,0,.46-.06.59-.17.13-.12.2-.27.2-.45v-.04c0-.2-.06-.35-.19-.45s-.29-.15-.5-.15-.36.04-.49.13c-.12.09-.23.2-.3.35l-.34-.26c.05-.08.1-.15.17-.22s.15-.14.24-.2c.09-.06.2-.1.32-.14.12-.04.26-.05.41-.05s.31.02.45.06c.14.04.26.1.37.18.1.08.19.18.25.3.06.12.09.25.09.4,0,.12-.02.23-.06.33-.04.1-.09.18-.16.25-.07.07-.14.13-.23.18s-.19.09-.29.11v.02c.1.02.21.06.3.11s.18.11.26.19c.08.08.14.17.18.28s.07.24.07.38c0,.16-.03.31-.09.45-.06.14-.15.25-.26.35-.11.1-.25.17-.41.22-.16.05-.34.08-.53.08-.17,0-.31-.02-.44-.05-.13-.04-.24-.08-.34-.15-.1-.06-.19-.13-.26-.21-.07-.08-.14-.15-.2-.24l.34-.26c.05.08.1.14.16.21.05.06.12.11.19.16.07.05.15.08.24.11.09.03.19.04.31.04.27,0,.47-.06.61-.18.14-.12.21-.3.21-.52v-.04c0-.22-.07-.4-.21-.52-.14-.12-.35-.18-.62-.18h-.45v-.39h.42Z"/><path d="M176.8,41.65c-.23,0-.43-.04-.59-.13-.17-.09-.3-.22-.41-.38-.11-.17-.19-.37-.24-.61-.05-.24-.08-.52-.08-.83s.02-.58.08-.82.13-.45.24-.61c.11-.17.25-.29.41-.38.17-.09.36-.13.59-.13s.43.04.59.13c.17.09.3.22.41.38.11.17.19.37.24.61.05.24.08.52.08.82s-.03.58-.08.83c-.05.24-.13.44-.24.61-.11.17-.24.29-.41.38-.17.09-.36.13-.59.13ZM176.8,41.26c.15,0,.28-.03.39-.09s.2-.14.26-.25.12-.24.15-.39.05-.32.05-.52v-.62c0-.19-.02-.36-.05-.51s-.08-.29-.15-.39-.15-.19-.26-.25-.24-.09-.39-.09-.28.03-.39.09c-.11.06-.2.14-.26.25-.07.11-.12.24-.15.39-.03.15-.05.33-.05.51v.62c0,.19.02.36.05.52.03.15.08.28.15.39.07.11.15.19.26.25.11.06.24.09.39.09ZM176.8,40.02c-.13,0-.21-.03-.26-.08-.05-.05-.07-.11-.07-.18v-.12c0-.07.02-.13.07-.18.05-.05.14-.08.26-.08s.21.03.26.08.07.11.07.18v.12c0,.07-.02.13-.07.18s-.14.08-.26.08Z"/><path d="M180.04,41.65c-.2,0-.38-.03-.53-.1s-.29-.16-.4-.29-.19-.28-.25-.46c-.06-.18-.09-.38-.09-.6,0-.28.04-.54.13-.79.08-.25.19-.47.32-.67.13-.2.28-.38.44-.54.16-.16.32-.28.48-.38h.58c-.21.15-.39.29-.55.43-.16.14-.3.29-.42.44-.12.15-.23.32-.31.49-.08.17-.15.37-.21.59h.03c.09-.14.21-.27.36-.38s.34-.15.57-.15c.17,0,.32.03.45.08.14.05.25.13.36.23.1.1.18.22.24.37s.08.3.08.48-.03.35-.09.5c-.06.15-.15.28-.26.39-.11.11-.24.2-.4.26-.16.06-.33.09-.52.09ZM180.04,41.27c.26,0,.46-.07.6-.21.14-.14.21-.34.21-.59v-.04c0-.26-.07-.45-.21-.59-.14-.14-.34-.21-.6-.21s-.46.07-.6.21c-.14.14-.21.34-.21.59v.04c0,.26.07.45.21.59.14.14.34.21.6.21Z"/><path d="M154.05,43.22h1.32c.37,0,.65.09.85.27s.29.42.29.73c0,.22-.05.39-.16.52-.11.13-.26.22-.46.28v.03c.23.06.42.16.54.3s.19.34.19.6c0,.32-.1.57-.3.76-.2.19-.48.28-.84.28h-1.45v-3.77ZM155.15,44.81c.19,0,.33-.03.42-.09s.13-.18.13-.34v-.16c0-.17-.04-.28-.13-.34-.09-.06-.22-.09-.42-.09h-.31v1.03h.31ZM155.25,46.42c.19,0,.34-.03.43-.1.09-.06.13-.18.13-.36v-.16c0-.17-.04-.29-.13-.36-.09-.06-.23-.1-.43-.1h-.41v1.06h.41Z"/><path d="M157.11,46.36h.64v-1.53h-.64v-.63h1.44v.79h.04c.03-.1.06-.2.11-.29.04-.1.1-.18.17-.25s.16-.13.26-.18c.1-.04.22-.06.36-.06h.26v.73h-.59c-.2,0-.35.06-.45.17s-.15.26-.15.43v.82h.92v.63h-2.36v-.63Z"/><path d="M161.49,47.05c-.47,0-.82-.13-1.06-.39-.24-.26-.36-.61-.36-1.06,0-.23.03-.43.09-.61.06-.18.15-.34.27-.46.12-.13.26-.23.43-.29.17-.07.36-.1.56-.1s.4.03.56.1c.17.07.31.16.42.28.12.12.2.27.27.45.06.17.09.37.09.59v.24h-1.91v.05c0,.18.06.33.17.44.11.11.28.16.49.16.17,0,.31-.03.43-.09.12-.06.22-.15.31-.25l.43.47c-.11.13-.26.25-.45.35s-.44.15-.74.15ZM161.42,44.71c-.17,0-.31.05-.41.16-.1.11-.15.25-.15.43v.04h1.12v-.04c0-.18-.05-.33-.15-.43-.1-.1-.23-.16-.41-.16Z"/><path d="M163.22,46.99v-2.79h.8v.51h.03c.03-.08.07-.15.12-.22.05-.07.1-.13.17-.18.07-.05.14-.09.23-.12.09-.03.19-.05.3-.05.13,0,.26.02.37.07.11.05.21.11.29.2s.14.2.19.33c.04.13.07.28.07.45v1.8h-.8v-1.7c0-.36-.16-.54-.47-.54-.06,0-.12,0-.18.02-.06.02-.11.04-.16.08-.05.03-.08.08-.11.13-.03.05-.04.11-.04.18v1.83h-.8Z"/><path d="M166.3,46.99v-2.79h.8v.51h.03c.03-.08.07-.15.12-.22.05-.07.1-.13.17-.18.07-.05.14-.09.23-.12.09-.03.19-.05.3-.05.13,0,.26.02.37.07.11.05.21.11.29.2s.14.2.19.33c.04.13.07.28.07.45v1.8h-.8v-1.7c0-.36-.16-.54-.47-.54-.06,0-.12,0-.18.02-.06.02-.11.04-.16.08-.05.03-.08.08-.11.13-.03.05-.04.11-.04.18v1.83h-.8Z"/><path d="M169.43,46.36h.64v-1.53h-.64v-.63h1.44v.79h.04c.03-.1.06-.2.11-.29.04-.1.1-.18.17-.25s.16-.13.26-.18c.1-.04.22-.06.36-.06h.26v.73h-.59c-.2,0-.35.06-.45.17s-.15.26-.15.43v.82h.92v.63h-2.36v-.63Z"/><path d="M174.73,46.99c-.17,0-.3-.04-.4-.13-.1-.08-.16-.21-.18-.36h-.03c-.05.18-.15.32-.3.42-.15.09-.33.14-.55.14-.27,0-.49-.07-.65-.22-.16-.15-.25-.35-.25-.61,0-.29.11-.51.32-.65.21-.14.52-.21.93-.21h.45v-.14c0-.17-.04-.29-.12-.38-.08-.08-.21-.13-.39-.13-.17,0-.31.03-.41.1-.1.06-.19.15-.27.25l-.44-.39c.09-.16.24-.29.44-.39.2-.1.46-.15.77-.15.38,0,.68.09.89.26.21.17.32.44.32.79v1.22h.31v.58h-.46ZM173.58,46.53c.14,0,.26-.03.36-.1s.15-.17.15-.3v-.33h-.43c-.33,0-.49.11-.49.33v.11c0,.1.04.17.11.22.08.05.18.08.3.08Z"/><path d="M177.27,46.48h-.03c-.06.16-.16.29-.29.41-.13.11-.31.17-.53.17-.13,0-.26-.02-.37-.07-.11-.04-.21-.11-.29-.2s-.14-.2-.19-.33c-.04-.13-.07-.28-.07-.45v-1.8h.8v1.7c0,.36.16.54.47.54.06,0,.12,0,.18-.02s.11-.04.16-.08c.04-.03.08-.08.11-.13.03-.05.04-.11.04-.18v-1.83h.8v2.79h-.8v-.51Z"/><path d="M178.42,46.99v-2.79h.64v.41h.04c.04-.13.1-.24.19-.33.08-.09.2-.14.34-.14.27,0,.44.16.5.48h.03c.02-.06.05-.13.08-.18s.07-.11.12-.15c.05-.04.1-.08.17-.1.07-.02.14-.04.23-.04.39,0,.58.29.58.86v1.99h-.64v-1.91c0-.13-.02-.22-.07-.27-.05-.05-.1-.08-.18-.08-.07,0-.13.02-.18.07s-.07.11-.07.21v1.99h-.65v-1.91c0-.13-.02-.22-.06-.27-.04-.05-.1-.08-.17-.08s-.13.02-.18.07c-.05.04-.08.11-.08.21v1.99h-.64Z"/><path d="M185.93,45.41l-.33.47v1.1h-.81v-3.77h.81v1.58h.04l.41-.63.66-.95h.91l-1.13,1.59,1.18,2.18h-.91l-.83-1.57Z"/><path d="M189.58,46.48h-.03c-.06.16-.16.29-.29.41-.13.11-.31.17-.53.17-.13,0-.26-.02-.37-.07-.11-.04-.21-.11-.29-.2s-.14-.2-.19-.33c-.04-.13-.07-.28-.07-.45v-1.8h.8v1.7c0,.36.16.54.47.54.06,0,.12,0,.18-.02s.11-.04.16-.08c.04-.03.08-.08.11-.13.03-.05.04-.11.04-.18v-1.83h.8v2.79h-.8v-.51Z"/><path d="M190.92,46.99v-2.79h.8v.51h.03c.03-.08.07-.15.12-.22.05-.07.1-.13.17-.18.07-.05.14-.09.23-.12.09-.03.19-.05.3-.05.13,0,.26.02.37.07.11.05.21.11.29.2s.14.2.19.33c.04.13.07.28.07.45v1.8h-.8v-1.7c0-.36-.16-.54-.47-.54-.06,0-.12,0-.18.02-.06.02-.11.04-.16.08-.05.03-.08.08-.11.13-.03.05-.04.11-.04.18v1.83h-.8Z"/><path d="M195.24,47.05c-.31,0-.58-.05-.81-.14-.23-.09-.4-.22-.52-.38l.45-.42c.11.12.23.21.38.28.15.07.31.1.5.1.16,0,.28-.02.37-.07.09-.05.13-.12.13-.22,0-.08-.03-.13-.09-.16-.06-.03-.15-.05-.25-.07l-.45-.07c-.13-.02-.24-.05-.35-.08-.11-.04-.2-.09-.28-.15-.08-.06-.14-.14-.19-.24s-.07-.21-.07-.34c0-.29.11-.52.33-.69.22-.17.54-.25.94-.25.27,0,.51.04.7.11.19.07.35.18.46.32l-.4.45c-.08-.09-.19-.17-.32-.23-.13-.06-.29-.09-.47-.09-.31,0-.46.09-.46.28,0,.08.03.14.09.17s.15.05.25.07l.44.07c.13.02.24.05.35.08.11.04.2.09.28.15.08.06.15.14.19.24s.07.21.07.34c0,.29-.11.52-.34.69s-.54.25-.96.25Z"/><path d="M198.57,46.99c-.29,0-.5-.08-.64-.23s-.21-.34-.21-.58v-1.36h-.76v-.63h.49c.12,0,.2-.02.25-.07.05-.05.08-.13.08-.26v-.65h.73v.98h1.08v.63h-1.08v1.53h1.08v.63h-1.03Z"/><rect class="c" x="49.53" y="154.9" width="59.23" height="21.01"/><path d="M69.11,165.63c.53,0,.92-.12,1.18-.35s.39-.53.39-.9v-.08c0-.4-.13-.7-.38-.9-.26-.2-.59-.3-1-.3s-.73.09-.98.26c-.25.18-.45.41-.61.7l-.68-.52c.09-.15.21-.3.34-.45.14-.15.3-.28.48-.39s.4-.21.64-.28.52-.11.83-.11.63.04.91.12c.28.08.53.21.73.37s.37.36.49.6.18.51.18.81c0,.24-.04.46-.11.66-.08.19-.18.36-.31.51-.13.14-.29.27-.47.37-.18.1-.37.18-.57.23v.04c.21.04.41.11.6.21.19.1.37.22.52.38s.27.34.36.56c.09.22.13.47.13.75,0,.32-.06.62-.19.89-.13.27-.3.5-.53.69s-.5.34-.82.45c-.32.11-.68.16-1.06.16-.33,0-.62-.04-.88-.11s-.48-.17-.68-.29c-.2-.12-.37-.26-.52-.41-.15-.15-.28-.31-.39-.48l.68-.52c.1.15.21.29.31.41.11.12.23.23.37.32s.3.16.48.21c.18.05.39.08.63.08.53,0,.94-.12,1.23-.37.29-.24.43-.59.43-1.05v-.09c0-.45-.14-.79-.42-1.04-.28-.24-.69-.37-1.25-.37h-.9v-.79h.83Z"/><path d="M75.91,170.12c-.46,0-.86-.09-1.19-.26-.33-.18-.6-.43-.82-.76-.22-.33-.38-.74-.48-1.22s-.15-1.03-.15-1.65.05-1.16.15-1.65.26-.89.48-1.23.49-.58.82-.76c.33-.18.73-.26,1.19-.26s.86.09,1.19.26c.33.18.6.43.82.76.22.33.37.74.47,1.23s.15,1.04.15,1.65-.05,1.17-.15,1.65-.26.89-.47,1.22c-.22.33-.49.58-.82.76-.33.18-.73.26-1.19.26ZM75.91,169.33c.3,0,.56-.06.78-.18s.39-.29.52-.5c.13-.22.23-.48.3-.78.07-.31.1-.65.1-1.03v-1.23c0-.37-.03-.72-.1-1.03-.06-.31-.16-.57-.3-.79-.13-.22-.31-.38-.52-.5s-.48-.18-.78-.18-.56.06-.78.18c-.22.12-.39.29-.52.5-.13.22-.23.48-.3.79s-.1.65-.1,1.03v1.23c0,.38.03.73.1,1.03s.16.57.3.78c.13.22.31.38.52.5.22.12.48.18.78.18ZM75.91,166.85c-.25,0-.43-.05-.52-.15-.1-.1-.15-.22-.15-.37v-.24c0-.14.05-.27.15-.37.1-.1.27-.15.52-.15s.43.05.52.15c.1.1.15.22.15.37v.24c0,.14-.05.27-.15.37-.1.1-.27.15-.52.15Z"/><path d="M83.23,169.99v-1.48h-3.71v-.8l3.26-5.26h1.32v5.31h1.12v.75h-1.12v1.48h-.86ZM80.33,167.76h2.91v-4.61h-.04l-2.86,4.61Z"/><path d="M86.65,162h.86v3.33h.04c.36-.69.93-1.04,1.72-1.04.68,0,1.22.26,1.6.77.38.51.58,1.23.58,2.15s-.19,1.64-.58,2.15-.92.77-1.6.77c-.79,0-1.36-.35-1.72-1.04h-.04v.91h-.86v-7.99ZM88.94,169.35c.5,0,.89-.15,1.17-.46.28-.31.42-.71.42-1.21v-.95c0-.5-.14-.91-.42-1.22-.28-.31-.67-.46-1.17-.46-.19,0-.38.03-.55.08-.17.05-.32.12-.45.22-.13.1-.23.22-.31.36-.08.14-.11.3-.11.49v2.01c0,.19.04.35.11.49.08.14.18.26.31.36.13.1.28.17.45.22.17.05.36.08.55.08Z"/><rect class="c" x="49.52" y="125.17" width="59.26" height="30.12"/><path d="M72.35,140.46c.53,0,.92-.12,1.18-.35s.39-.53.39-.9v-.08c0-.4-.13-.7-.38-.9-.26-.2-.59-.3-1-.3s-.73.09-.98.26c-.25.18-.45.41-.61.7l-.68-.52c.09-.15.21-.3.34-.45.14-.15.3-.28.48-.39s.4-.21.64-.28.52-.11.83-.11.63.04.91.12c.28.08.53.21.73.37s.37.36.49.6.18.51.18.81c0,.24-.04.46-.11.66-.08.19-.18.36-.31.51-.13.14-.29.27-.47.37-.18.1-.37.18-.57.23v.04c.21.04.41.11.6.21.19.1.37.22.52.38s.27.34.36.56c.09.22.13.47.13.75,0,.32-.06.62-.19.89-.13.27-.3.5-.53.69s-.5.34-.82.45c-.32.11-.68.16-1.06.16-.33,0-.62-.04-.88-.11s-.48-.17-.68-.29c-.2-.12-.37-.26-.52-.41-.15-.15-.28-.31-.39-.48l.68-.52c.1.15.21.29.31.41.11.12.23.23.37.32s.3.16.48.21c.18.05.39.08.63.08.53,0,.94-.12,1.23-.37.29-.24.43-.59.43-1.05v-.09c0-.45-.14-.79-.42-1.04-.28-.24-.69-.37-1.25-.37h-.9v-.79h.83Z"/><path d="M79.15,144.94c-.46,0-.86-.09-1.19-.26-.33-.18-.6-.43-.82-.76-.22-.33-.38-.74-.48-1.22s-.15-1.03-.15-1.65.05-1.16.15-1.65.26-.89.48-1.23.49-.58.82-.76c.33-.18.73-.26,1.19-.26s.86.09,1.19.26c.33.18.6.43.82.76.22.33.37.74.47,1.23s.15,1.04.15,1.65-.05,1.17-.15,1.65-.26.89-.47,1.22c-.22.33-.49.58-.82.76-.33.18-.73.26-1.19.26ZM79.15,144.15c.3,0,.56-.06.78-.18s.39-.29.52-.5c.13-.22.23-.48.3-.78.07-.31.1-.65.1-1.03v-1.23c0-.37-.03-.72-.1-1.03-.06-.31-.16-.57-.3-.79-.13-.22-.31-.38-.52-.5s-.48-.18-.78-.18-.56.06-.78.18c-.22.12-.39.29-.52.5-.13.22-.23.48-.3.79s-.1.65-.1,1.03v1.23c0,.38.03.73.1,1.03s.16.57.3.78c.13.22.31.38.52.5.22.12.48.18.78.18ZM79.15,141.68c-.25,0-.43-.05-.52-.15-.1-.1-.15-.22-.15-.37v-.24c0-.14.05-.27.15-.37.1-.1.27-.15.52-.15s.43.05.52.15c.1.1.15.22.15.37v.24c0,.14-.05.27-.15.37-.1.1-.27.15-.52.15Z"/><path d="M88.19,144.81h-5.03v-.93l2.52-2.27c.37-.33.67-.67.91-1.02.24-.35.36-.72.36-1.11v-.13c0-.45-.12-.8-.36-1.05-.24-.25-.59-.37-1.06-.37s-.82.12-1.06.35c-.25.23-.43.55-.56.93l-.81-.3c.07-.22.17-.44.3-.65s.29-.4.48-.57.43-.3.71-.4c.28-.1.6-.15.97-.15s.71.05,1,.16c.29.11.54.26.73.45s.35.43.45.69c.1.27.16.56.16.87,0,.29-.04.56-.12.81-.08.25-.2.49-.35.72s-.32.46-.53.67c-.21.22-.43.44-.69.65l-2.11,1.84h4.09v.79Z"/><rect class="c" x="49.53" y="81.12" width="59.23" height="44.04"/><path d="M75.75,95.16c.26,0,.46-.06.59-.17.13-.12.2-.27.2-.45v-.04c0-.2-.06-.35-.19-.45s-.29-.15-.5-.15-.36.04-.49.13c-.12.09-.23.2-.3.35l-.34-.26c.05-.08.1-.15.17-.22s.15-.14.24-.2c.09-.06.2-.1.32-.14.12-.04.26-.05.41-.05s.31.02.45.06c.14.04.26.1.37.18.1.08.19.18.25.3.06.12.09.25.09.4,0,.12-.02.23-.06.33-.04.1-.09.18-.16.25-.07.07-.14.13-.23.18s-.19.09-.29.11v.02c.1.02.21.06.3.11s.18.11.26.19c.08.08.14.17.18.28s.07.24.07.38c0,.16-.03.31-.09.45-.06.14-.15.25-.26.35-.11.1-.25.17-.41.22-.16.05-.34.08-.53.08-.17,0-.31-.02-.44-.05-.13-.04-.24-.08-.34-.15-.1-.06-.19-.13-.26-.21-.07-.08-.14-.15-.2-.24l.34-.26c.05.08.1.14.16.21.05.06.12.11.19.16.07.05.15.08.24.11.09.03.19.04.31.04.27,0,.47-.06.61-.18.14-.12.21-.3.21-.52v-.04c0-.22-.07-.4-.21-.52-.14-.12-.35-.18-.62-.18h-.45v-.39h.42Z"/><path d="M79.15,97.4c-.23,0-.43-.04-.59-.13-.17-.09-.3-.22-.41-.38-.11-.17-.19-.37-.24-.61-.05-.24-.08-.52-.08-.83s.02-.58.08-.82.13-.45.24-.61c.11-.17.25-.29.41-.38.17-.09.36-.13.59-.13s.43.04.59.13c.17.09.3.22.41.38.11.17.19.37.24.61.05.24.08.52.08.82s-.03.58-.08.83c-.05.24-.13.44-.24.61-.11.17-.24.29-.41.38-.17.09-.36.13-.59.13ZM79.15,97.01c.15,0,.28-.03.39-.09s.2-.14.26-.25.12-.24.15-.39.05-.32.05-.52v-.62c0-.19-.02-.36-.05-.51s-.08-.29-.15-.39-.15-.19-.26-.25-.24-.09-.39-.09-.28.03-.39.09c-.11.06-.2.14-.26.25-.07.11-.12.24-.15.39-.03.15-.05.33-.05.51v.62c0,.19.02.36.05.52.03.15.08.28.15.39.07.11.15.19.26.25.11.06.24.09.39.09ZM79.15,95.77c-.13,0-.21-.03-.26-.08-.05-.05-.07-.11-.07-.18v-.12c0-.07.02-.13.07-.18.05-.05.14-.08.26-.08s.21.03.26.08.07.11.07.18v.12c0,.07-.02.13-.07.18s-.14.08-.26.08Z"/><path d="M82.81,97.34v-.74h-1.86v-.4l1.63-2.63h.66v2.66h.56v.37h-.56v.74h-.43ZM81.36,96.23h1.45v-2.31h-.02l-1.43,2.31Z"/><path d="M72.56,101.17l-.33.47v1.1h-.81v-3.77h.81v1.58h.04l.41-.63.66-.95h.91l-1.13,1.59,1.18,2.18h-.91l-.83-1.57Z"/><path d="M76.38,102.23h-.03c-.06.16-.16.29-.29.41-.13.11-.31.17-.53.17-.13,0-.26-.02-.37-.07-.11-.04-.21-.11-.29-.2s-.14-.2-.19-.33c-.04-.13-.07-.28-.07-.45v-1.8h.8v1.7c0,.36.16.54.47.54.06,0,.12,0,.18-.02s.11-.04.16-.08c.04-.03.08-.08.11-.13.03-.05.04-.11.04-.18v-1.83h.8v2.79h-.8v-.51Z"/><path d="M77.88,102.74v-2.79h.8v.51h.03c.03-.08.07-.15.12-.22.05-.07.1-.13.17-.18.07-.05.14-.09.23-.12.09-.03.19-.05.3-.05.13,0,.26.02.37.07.11.05.21.11.29.2s.14.2.19.33c.04.13.07.28.07.45v1.8h-.8v-1.7c0-.36-.16-.54-.47-.54-.06,0-.12,0-.18.02-.06.02-.11.04-.16.08-.05.03-.08.08-.11.13-.03.05-.04.11-.04.18v1.83h-.8Z"/><path d="M82.36,102.8c-.31,0-.58-.05-.81-.14-.23-.09-.4-.22-.52-.38l.45-.42c.11.12.23.21.38.28.15.07.31.1.5.1.16,0,.28-.02.37-.07.09-.05.13-.12.13-.22,0-.08-.03-.13-.09-.16-.06-.03-.15-.05-.25-.07l-.45-.07c-.13-.02-.24-.05-.35-.08-.11-.04-.2-.09-.28-.15-.08-.06-.14-.14-.19-.24s-.07-.21-.07-.34c0-.29.11-.52.33-.69.22-.17.54-.25.94-.25.27,0,.51.04.7.11.19.07.35.18.46.32l-.4.45c-.08-.09-.19-.17-.32-.23-.13-.06-.29-.09-.47-.09-.31,0-.46.09-.46.28,0,.08.03.14.09.17s.15.05.25.07l.44.07c.13.02.24.05.35.08.11.04.2.09.28.15.08.06.15.14.19.24s.07.21.07.34c0,.29-.11.52-.34.69s-.54.25-.96.25Z"/><path d="M85.85,102.74c-.29,0-.5-.08-.64-.23s-.21-.34-.21-.58v-1.36h-.76v-.63h.49c.12,0,.2-.02.25-.07.05-.05.08-.13.08-.26v-.65h.73v.98h1.08v.63h-1.08v1.53h1.08v.63h-1.03Z"/><path d="M62.16,108.2c-.32,0-.59-.05-.83-.16s-.42-.24-.57-.42l.47-.52c.14.15.29.26.45.33.16.07.33.11.5.11.19,0,.34-.04.44-.13s.15-.21.15-.38c0-.13-.04-.24-.12-.3-.08-.07-.21-.12-.39-.15l-.39-.06c-.34-.06-.58-.18-.73-.38-.15-.19-.23-.43-.23-.7,0-.36.12-.64.36-.84.24-.2.57-.3,1-.3.29,0,.55.04.76.13.22.09.39.21.52.36l-.46.51c-.1-.11-.22-.2-.36-.26s-.29-.09-.46-.09c-.36,0-.55.15-.55.45,0,.13.04.23.12.29s.21.11.4.15l.39.07c.31.05.54.17.71.35.17.18.25.41.25.71,0,.18-.03.34-.09.49-.06.15-.15.28-.28.39-.12.11-.27.2-.45.26-.18.06-.39.09-.62.09Z"/><path d="M66.31,108.14c-.17,0-.3-.04-.4-.13-.1-.08-.16-.21-.18-.36h-.03c-.05.18-.15.32-.3.42-.15.09-.33.14-.55.14-.27,0-.49-.07-.65-.22-.16-.15-.25-.35-.25-.61,0-.29.11-.51.32-.65.21-.14.52-.21.93-.21h.45v-.14c0-.17-.04-.29-.12-.38-.08-.08-.21-.13-.39-.13-.17,0-.31.03-.41.1-.1.06-.19.15-.27.25l-.44-.39c.09-.16.24-.29.44-.39.2-.1.46-.15.77-.15.38,0,.68.09.89.26.21.17.32.44.32.79v1.22h.31v.58h-.46ZM65.16,107.68c.14,0,.26-.03.36-.1s.15-.17.15-.3v-.33h-.43c-.33,0-.49.11-.49.33v.11c0,.1.04.17.11.22.08.05.18.08.3.08Z"/><path d="M66.92,108.14v-2.79h.64v.41h.04c.04-.13.1-.24.19-.33.08-.09.2-.14.34-.14.27,0,.44.16.5.48h.03c.02-.06.05-.13.08-.18s.07-.11.12-.15c.05-.04.1-.08.17-.1.07-.02.14-.04.23-.04.39,0,.58.29.58.86v1.99h-.64v-1.91c0-.13-.02-.22-.07-.27-.05-.05-.1-.08-.18-.08-.07,0-.13.02-.18.07s-.07.11-.07.21v1.99h-.65v-1.91c0-.13-.02-.22-.06-.27-.04-.05-.1-.08-.17-.08s-.13.02-.18.07c-.05.04-.08.11-.08.21v1.99h-.64Z"/><path d="M70,108.14v-2.79h.64v.41h.04c.04-.13.1-.24.19-.33.08-.09.2-.14.34-.14.27,0,.44.16.5.48h.03c.02-.06.05-.13.08-.18s.07-.11.12-.15c.05-.04.1-.08.17-.1.07-.02.14-.04.23-.04.39,0,.58.29.58.86v1.99h-.64v-1.91c0-.13-.02-.22-.07-.27-.05-.05-.1-.08-.18-.08-.07,0-.13.02-.18.07s-.07.11-.07.21v1.99h-.65v-1.91c0-.13-.02-.22-.06-.27-.04-.05-.1-.08-.17-.08s-.13.02-.18.07c-.05.04-.08.11-.08.21v1.99h-.64Z"/><path d="M73.28,107.51h.85v-2.74h-.85v-.63h1.65v3.37h.85v.63h-2.51v-.63Z"/><path d="M78.08,107.63h-.03c-.06.16-.16.29-.29.41-.13.11-.31.17-.53.17-.13,0-.26-.02-.37-.07-.11-.04-.21-.11-.29-.2s-.14-.2-.19-.33c-.04-.13-.07-.28-.07-.45v-1.8h.8v1.7c0,.36.16.54.47.54.06,0,.12,0,.18-.02s.11-.04.16-.08c.04-.03.08-.08.11-.13.03-.05.04-.11.04-.18v-1.83h.8v2.79h-.8v-.51Z"/><path d="M79.42,108.14v-2.79h.8v.51h.03c.03-.08.07-.15.12-.22.05-.07.1-.13.17-.18.07-.05.14-.09.23-.12.09-.03.19-.05.3-.05.13,0,.26.02.37.07.11.05.21.11.29.2s.14.2.19.33c.04.13.07.28.07.45v1.8h-.8v-1.7c0-.36-.16-.54-.47-.54-.06,0-.12,0-.18.02-.06.02-.11.04-.16.08-.05.03-.08.08-.11.13-.03.05-.04.11-.04.18v1.83h-.8Z"/><path d="M85.3,108.42c0,.29-.12.51-.37.65-.25.14-.64.21-1.17.21-.27,0-.49-.02-.66-.05-.17-.03-.31-.07-.41-.13-.1-.06-.17-.13-.22-.21-.04-.08-.06-.17-.06-.26,0-.16.05-.28.14-.36.09-.08.22-.14.39-.19v-.03c-.12-.04-.21-.09-.28-.15-.07-.07-.11-.16-.11-.28,0-.14.05-.24.14-.3s.21-.12.36-.15v-.03c-.17-.08-.29-.19-.39-.33-.09-.14-.14-.32-.14-.52,0-.16.03-.31.09-.43.06-.12.14-.23.25-.31.11-.08.23-.15.38-.19.15-.04.31-.06.5-.06s.34.02.49.06v-.15c0-.11.04-.2.11-.27.08-.07.18-.11.31-.11h.49v.58h-.67v.05c.15.08.27.19.35.33.08.14.13.31.13.5,0,.16-.03.3-.09.43-.06.12-.14.23-.25.31-.11.08-.24.15-.39.19-.15.04-.32.06-.5.06-.08,0-.16,0-.24-.01-.08,0-.15-.02-.22-.04-.04.02-.07.05-.1.08s-.04.07-.04.12c0,.04.01.08.03.1.02.03.05.04.09.06.04.01.08.02.13.02.05,0,.1,0,.16,0h.64c.2,0,.37.02.51.06s.26.1.35.17c.09.07.15.16.19.25.04.1.06.21.06.32ZM84.54,108.48c0-.07-.03-.13-.09-.17-.06-.04-.17-.06-.33-.06h-.96c-.07.06-.11.14-.11.23s.04.16.11.21c.07.06.2.08.38.08h.47c.18,0,.32-.03.4-.08s.12-.12.12-.22ZM83.74,106.77c.16,0,.28-.04.35-.12.07-.08.11-.18.11-.3v-.13c0-.12-.04-.22-.11-.3-.07-.08-.19-.12-.35-.12s-.27.04-.35.12c-.07.08-.11.18-.11.3v.13c0,.12.04.22.11.3.07.08.19.12.35.12Z"/><path d="M90.39,107.63h-.03c-.06.16-.16.29-.29.41-.13.11-.31.17-.53.17-.13,0-.26-.02-.37-.07-.11-.04-.21-.11-.29-.2s-.14-.2-.19-.33c-.04-.13-.07-.28-.07-.45v-1.8h.8v1.7c0,.36.16.54.47.54.06,0,.12,0,.18-.02s.11-.04.16-.08c.04-.03.08-.08.11-.13.03-.05.04-.11.04-.18v-1.83h.8v2.79h-.8v-.51Z"/><path d="M91.73,108.14v-2.79h.8v.51h.03c.03-.08.07-.15.12-.22.05-.07.1-.13.17-.18.07-.05.14-.09.23-.12.09-.03.19-.05.3-.05.13,0,.26.02.37.07.11.05.21.11.29.2s.14.2.19.33c.04.13.07.28.07.45v1.8h-.8v-1.7c0-.36-.16-.54-.47-.54-.06,0-.12,0-.18.02-.06.02-.11.04-.16.08-.05.03-.08.08-.11.13-.03.05-.04.11-.04.18v1.83h-.8Z"/><path d="M96.58,107.62h-.04c-.07.17-.17.31-.3.42-.13.11-.3.16-.53.16-.15,0-.3-.03-.42-.09s-.24-.15-.33-.26-.16-.27-.22-.45c-.05-.18-.08-.4-.08-.65s.03-.47.08-.65c.05-.18.12-.33.22-.45s.2-.21.33-.26.27-.09.42-.09c.11,0,.21.01.3.04.09.03.16.07.23.12.07.05.12.11.17.18.05.07.09.15.13.23h.04v-1.72h.8v4h-.8v-.51ZM96.06,107.58c.14,0,.26-.03.36-.1.1-.07.15-.18.15-.32v-.82c0-.15-.05-.25-.15-.32-.1-.07-.22-.1-.36-.1-.18,0-.32.05-.42.16-.1.11-.15.26-.15.45v.43c0,.19.05.34.15.45.1.11.24.16.42.16Z"/><path d="M61.65,113.54l-1-3.77h.9l.44,1.92.22,1.09h.04l.23-1.09.45-1.92h.86l-1,3.77h-1.14Z"/><path d="M65.3,113.6c-.22,0-.41-.03-.58-.1s-.32-.16-.44-.29c-.12-.13-.21-.28-.28-.46-.06-.18-.1-.38-.1-.61s.03-.43.1-.61c.07-.18.16-.33.28-.46.12-.13.27-.22.44-.29.17-.07.37-.1.58-.1s.41.03.58.1c.17.07.32.16.44.29.12.13.21.28.28.46.07.18.1.38.1.61s-.03.43-.1.61c-.06.18-.16.33-.28.46-.12.13-.27.22-.44.29s-.37.1-.58.1ZM65.3,113.01c.18,0,.32-.06.42-.17.1-.11.15-.27.15-.48v-.44c0-.21-.05-.36-.15-.48-.1-.11-.24-.17-.42-.17s-.32.06-.42.17c-.1.11-.15.27-.15.48v.44c0,.21.05.36.15.48.1.11.24.17.42.17Z"/><path d="M67.16,112.91h.64v-1.53h-.64v-.63h1.44v.79h.04c.03-.1.06-.2.11-.29.04-.1.1-.18.17-.25s.16-.13.26-.18c.1-.04.22-.06.36-.06h.26v.73h-.59c-.2,0-.35.06-.45.17s-.15.26-.15.43v.82h.92v.63h-2.36v-.63Z"/><path d="M70.15,109.54h.8v1.72h.04c.07-.17.17-.3.3-.41.13-.11.31-.16.53-.16.16,0,.3.03.42.09s.24.15.33.26.16.27.22.45c.05.18.08.4.08.65s-.03.47-.08.65c-.05.18-.12.33-.22.45s-.2.21-.33.26-.27.09-.42.09c-.22,0-.4-.05-.53-.16-.13-.11-.23-.25-.3-.42h-.04v.51h-.8v-4ZM71.47,112.98c.18,0,.32-.05.42-.16.1-.11.15-.26.15-.45v-.43c0-.19-.05-.34-.15-.45-.1-.11-.24-.16-.42-.16-.14,0-.26.03-.36.1-.1.07-.15.17-.15.32v.82c0,.15.05.25.15.32s.22.1.36.1Z"/><path d="M74.61,113.6c-.47,0-.82-.13-1.06-.39-.24-.26-.36-.61-.36-1.06,0-.23.03-.43.09-.61.06-.18.15-.34.27-.46.12-.13.26-.23.43-.29.17-.07.36-.1.56-.1s.4.03.56.1c.17.07.31.16.42.28.12.12.2.27.27.45.06.17.09.37.09.59v.24h-1.91v.05c0,.18.06.33.17.44.11.11.28.16.49.16.17,0,.31-.03.43-.09.12-.06.22-.15.31-.25l.43.47c-.11.13-.26.25-.45.35s-.44.15-.74.15ZM74.54,111.26c-.17,0-.31.05-.41.16-.1.11-.15.25-.15.43v.04h1.12v-.04c0-.18-.05-.33-.15-.43-.1-.1-.23-.16-.41-.16Z"/><path d="M76.39,112.91h.64v-1.53h-.64v-.63h1.44v.79h.04c.03-.1.06-.2.11-.29.04-.1.1-.18.17-.25s.16-.13.26-.18c.1-.04.22-.06.36-.06h.26v.73h-.59c-.2,0-.35.06-.45.17s-.15.26-.15.43v.82h.92v.63h-2.36v-.63Z"/><path d="M80.77,113.6c-.47,0-.82-.13-1.06-.39-.24-.26-.36-.61-.36-1.06,0-.23.03-.43.09-.61.06-.18.15-.34.27-.46.12-.13.26-.23.43-.29.17-.07.36-.1.56-.1s.4.03.56.1c.17.07.31.16.42.28.12.12.2.27.27.45.06.17.09.37.09.59v.24h-1.91v.05c0,.18.06.33.17.44.11.11.28.16.49.16.17,0,.31-.03.43-.09.12-.06.22-.15.31-.25l.43.47c-.11.13-.26.25-.45.35s-.44.15-.74.15ZM80.7,111.26c-.17,0-.31.05-.41.16-.1.11-.15.25-.15.43v.04h1.12v-.04c0-.18-.05-.33-.15-.43-.1-.1-.23-.16-.41-.16Z"/><path d="M82.66,112.91h.89v-1.53h-.89v-.63h1.68v2.16h.82v.63h-2.5v-.63ZM83.94,110.39c-.18,0-.31-.04-.38-.11-.07-.07-.1-.16-.1-.27v-.16c0-.11.04-.2.1-.27.07-.07.2-.11.38-.11s.3.04.38.11c.07.07.11.16.11.27v.16c0,.1-.04.19-.11.27s-.2.11-.38.11Z"/><path d="M87.06,113.54c-.29,0-.5-.08-.64-.23s-.21-.34-.21-.58v-1.36h-.76v-.63h.49c.12,0,.2-.02.25-.07.05-.05.08-.13.08-.26v-.65h.73v.98h1.08v.63h-1.08v1.53h1.08v.63h-1.03Z"/><path d="M90.39,113.03h-.03c-.06.16-.16.29-.29.41-.13.11-.31.17-.53.17-.13,0-.26-.02-.37-.07-.11-.04-.21-.11-.29-.2s-.14-.2-.19-.33c-.04-.13-.07-.28-.07-.45v-1.8h.8v1.7c0,.36.16.54.47.54.06,0,.12,0,.18-.02s.11-.04.16-.08c.04-.03.08-.08.11-.13.03-.05.04-.11.04-.18v-1.83h.8v2.79h-.8v-.51Z"/><path d="M91.73,113.54v-2.79h.8v.51h.03c.03-.08.07-.15.12-.22.05-.07.1-.13.17-.18.07-.05.14-.09.23-.12.09-.03.19-.05.3-.05.13,0,.26.02.37.07.11.05.21.11.29.2s.14.2.19.33c.04.13.07.28.07.45v1.8h-.8v-1.7c0-.36-.16-.54-.47-.54-.06,0-.12,0-.18.02-.06.02-.11.04-.16.08-.05.03-.08.08-.11.13-.03.05-.04.11-.04.18v1.83h-.8Z"/><path d="M97.61,113.82c0,.29-.12.51-.37.65-.25.14-.64.21-1.17.21-.27,0-.49-.02-.66-.05-.17-.03-.31-.07-.41-.13-.1-.06-.17-.13-.22-.21-.04-.08-.06-.17-.06-.26,0-.16.05-.28.14-.36.09-.08.22-.14.39-.19v-.03c-.12-.04-.21-.09-.28-.15-.07-.07-.11-.16-.11-.28,0-.14.05-.24.14-.3s.21-.12.36-.15v-.03c-.17-.08-.29-.19-.39-.33-.09-.14-.14-.32-.14-.52,0-.16.03-.31.09-.43.06-.12.14-.23.25-.31.11-.08.23-.15.38-.19.15-.04.31-.06.5-.06s.34.02.49.06v-.15c0-.11.04-.2.11-.27.08-.07.18-.11.31-.11h.49v.58h-.67v.05c.15.08.27.19.35.33.08.14.13.31.13.5,0,.16-.03.3-.09.43-.06.12-.14.23-.25.31-.11.08-.24.15-.39.19-.15.04-.32.06-.5.06-.08,0-.16,0-.24-.01-.08,0-.15-.02-.22-.04-.04.02-.07.05-.1.08s-.04.07-.04.12c0,.04.01.08.03.1.02.03.05.04.09.06.04.01.08.02.13.02.05,0,.1,0,.16,0h.64c.2,0,.37.02.51.06s.26.1.35.17c.09.07.15.16.19.25.04.1.06.21.06.32ZM96.85,113.88c0-.07-.03-.13-.09-.17-.06-.04-.17-.06-.33-.06h-.96c-.07.06-.11.14-.11.23s.04.16.11.21c.07.06.2.08.38.08h.47c.18,0,.32-.03.4-.08s.12-.12.12-.22ZM96.05,112.17c.16,0,.28-.04.35-.12.07-.08.11-.18.11-.3v-.13c0-.12-.04-.22-.11-.3-.07-.08-.19-.12-.35-.12s-.27.04-.35.12c-.07.08-.11.18-.11.3v.13c0,.12.04.22.11.3.07.08.19.12.35.12Z"/><rect class="c" x="49.54" y="54.71" width="59.23" height="26.41"/><path d="M69.11,68.15c.53,0,.92-.12,1.18-.35s.39-.53.39-.9v-.08c0-.4-.13-.7-.38-.9-.26-.2-.59-.3-1-.3s-.73.09-.98.26c-.25.18-.45.41-.61.7l-.68-.52c.09-.15.21-.3.34-.45.14-.15.3-.28.48-.39s.4-.21.64-.28.52-.11.83-.11.63.04.91.12c.28.08.53.21.73.37s.37.36.49.6.18.51.18.81c0,.24-.04.46-.11.66-.08.19-.18.36-.31.51-.13.14-.29.27-.47.37-.18.1-.37.18-.57.23v.04c.21.04.41.11.6.21.19.1.37.22.52.38s.27.34.36.56c.09.22.13.47.13.75,0,.32-.06.62-.19.89-.13.27-.3.5-.53.69s-.5.34-.82.45c-.32.11-.68.16-1.06.16-.33,0-.62-.04-.88-.11s-.48-.17-.68-.29c-.2-.12-.37-.26-.52-.41-.15-.15-.28-.31-.39-.48l.68-.52c.1.15.21.29.31.41.11.12.23.23.37.32s.3.16.48.21c.18.05.39.08.63.08.53,0,.94-.12,1.23-.37.29-.24.43-.59.43-1.05v-.09c0-.45-.14-.79-.42-1.04-.28-.24-.69-.37-1.25-.37h-.9v-.79h.83Z"/><path d="M75.92,72.63c-.46,0-.86-.09-1.19-.26-.33-.18-.6-.43-.82-.76-.22-.33-.38-.74-.48-1.22s-.15-1.03-.15-1.65.05-1.16.15-1.65.26-.89.48-1.23.49-.58.82-.76c.33-.18.73-.26,1.19-.26s.86.09,1.19.26c.33.18.6.43.82.76.22.33.37.74.47,1.23s.15,1.04.15,1.65-.05,1.17-.15,1.65-.26.89-.47,1.22c-.22.33-.49.58-.82.76-.33.18-.73.26-1.19.26ZM75.92,71.85c.3,0,.56-.06.78-.18s.39-.29.52-.5c.13-.22.23-.48.3-.78.07-.31.1-.65.1-1.03v-1.23c0-.37-.03-.72-.1-1.03-.06-.31-.16-.57-.3-.79-.13-.22-.31-.38-.52-.5s-.48-.18-.78-.18-.56.06-.78.18c-.22.12-.39.29-.52.5-.13.22-.23.48-.3.79s-.1.65-.1,1.03v1.23c0,.38.03.73.1,1.03s.16.57.3.78c.13.22.31.38.52.5.22.12.48.18.78.18ZM75.92,69.37c-.25,0-.43-.05-.52-.15-.1-.1-.15-.22-.15-.37v-.24c0-.14.05-.27.15-.37.1-.1.27-.15.52-.15s.43.05.52.15c.1.1.15.22.15.37v.24c0,.14-.05.27-.15.37-.1.1-.27.15-.52.15Z"/><path d="M83.24,72.5v-1.48h-3.71v-.8l3.26-5.26h1.32v5.31h1.12v.75h-1.12v1.48h-.86ZM80.33,70.28h2.91v-4.61h-.04l-2.86,4.61Z"/><path d="M90.98,72.5c-.34,0-.58-.09-.72-.26-.14-.17-.23-.39-.27-.65h-.05c-.12.32-.32.58-.59.76-.27.18-.63.28-1.09.28-.58,0-1.05-.15-1.39-.45-.35-.3-.52-.72-.52-1.24s.19-.92.57-1.2c.38-.28.99-.42,1.83-.42h1.19v-.55c0-.41-.12-.71-.35-.92-.23-.2-.56-.31-.98-.31-.37,0-.68.07-.92.22s-.43.35-.57.6l-.58-.43c.07-.14.17-.28.29-.42.12-.14.27-.26.45-.37s.38-.19.62-.25.49-.09.77-.09c.66,0,1.18.17,1.56.5.39.33.58.79.58,1.39v3.07h.78v.75h-.59ZM88.41,71.91c.22,0,.43-.03.61-.08.18-.05.34-.13.48-.22.14-.09.24-.2.32-.32.08-.13.11-.26.11-.41v-.92h-1.19c-.52,0-.9.07-1.13.22-.24.14-.36.35-.36.63v.23c0,.29.1.51.31.65.21.15.49.22.85.22Z"/><rect class="c" x="49.53" y="28.3" width="59.23" height="26.41"/><path d="M69.11,41.74c.53,0,.92-.12,1.18-.35s.39-.53.39-.9v-.08c0-.4-.13-.7-.38-.9-.26-.2-.59-.3-1-.3s-.73.09-.98.26c-.25.18-.45.41-.61.7l-.68-.52c.09-.15.21-.3.34-.45.14-.15.3-.28.48-.39s.4-.21.64-.28.52-.11.83-.11.63.04.91.12c.28.08.53.21.73.37s.37.36.49.6.18.51.18.81c0,.24-.04.46-.11.66-.08.19-.18.36-.31.51-.13.14-.29.27-.47.37-.18.1-.37.18-.57.23v.04c.21.04.41.11.6.21.19.1.37.22.52.38s.27.34.36.56c.09.22.13.47.13.75,0,.32-.06.62-.19.89-.13.27-.3.5-.53.69s-.5.34-.82.45c-.32.11-.68.16-1.06.16-.33,0-.62-.04-.88-.11s-.48-.17-.68-.29c-.2-.12-.37-.26-.52-.41-.15-.15-.28-.31-.39-.48l.68-.52c.1.15.21.29.31.41.11.12.23.23.37.32s.3.16.48.21c.18.05.39.08.63.08.53,0,.94-.12,1.23-.37.29-.24.43-.59.43-1.05v-.09c0-.45-.14-.79-.42-1.04-.28-.24-.69-.37-1.25-.37h-.9v-.79h.83Z"/><path d="M75.91,46.22c-.46,0-.86-.09-1.19-.26-.33-.18-.6-.43-.82-.76-.22-.33-.38-.74-.48-1.22s-.15-1.03-.15-1.65.05-1.16.15-1.65.26-.89.48-1.23.49-.58.82-.76c.33-.18.73-.26,1.19-.26s.86.09,1.19.26c.33.18.6.43.82.76.22.33.37.74.47,1.23s.15,1.04.15,1.65-.05,1.17-.15,1.65-.26.89-.47,1.22c-.22.33-.49.58-.82.76-.33.18-.73.26-1.19.26ZM75.91,45.44c.3,0,.56-.06.78-.18s.39-.29.52-.5c.13-.22.23-.48.3-.78.07-.31.1-.65.1-1.03v-1.23c0-.37-.03-.72-.1-1.03-.06-.31-.16-.57-.3-.79-.13-.22-.31-.38-.52-.5s-.48-.18-.78-.18-.56.06-.78.18c-.22.12-.39.29-.52.5-.13.22-.23.48-.3.79s-.1.65-.1,1.03v1.23c0,.38.03.73.1,1.03s.16.57.3.78c.13.22.31.38.52.5.22.12.48.18.78.18ZM75.91,42.96c-.25,0-.43-.05-.52-.15-.1-.1-.15-.22-.15-.37v-.24c0-.14.05-.27.15-.37.1-.1.27-.15.52-.15s.43.05.52.15c.1.1.15.22.15.37v.24c0,.14-.05.27-.15.37-.1.1-.27.15-.52.15Z"/><path d="M84.95,46.09h-5.03v-.93l2.52-2.27c.37-.33.67-.67.91-1.02.24-.35.36-.72.36-1.11v-.13c0-.45-.12-.8-.36-1.05-.24-.25-.59-.37-1.06-.37s-.82.12-1.06.35c-.25.23-.43.55-.56.93l-.81-.3c.07-.22.17-.44.3-.65s.29-.4.48-.57.43-.3.71-.4c.28-.1.6-.15.97-.15s.71.05,1,.16c.29.11.54.26.73.45s.35.43.45.69c.1.27.16.56.16.87,0,.29-.04.56-.12.81-.08.25-.2.49-.35.72s-.32.46-.53.67c-.21.22-.43.44-.69.65l-2.11,1.84h4.09v.79Z"/><path d="M90.97,46.09c-.34,0-.58-.09-.72-.26-.14-.17-.23-.39-.27-.65h-.05c-.12.32-.32.58-.59.76-.27.18-.63.28-1.09.28-.58,0-1.05-.15-1.39-.45-.35-.3-.52-.72-.52-1.24s.19-.92.57-1.2c.38-.28.99-.42,1.83-.42h1.19v-.55c0-.41-.12-.71-.35-.92-.23-.2-.56-.31-.98-.31-.37,0-.68.07-.92.22s-.43.35-.57.6l-.58-.43c.07-.14.17-.28.29-.42.12-.14.27-.26.45-.37s.38-.19.62-.25.49-.09.77-.09c.66,0,1.18.17,1.56.5.39.33.58.79.58,1.39v3.07h.78v.75h-.59ZM88.4,45.5c.22,0,.43-.03.61-.08.18-.05.34-.13.48-.22.14-.09.24-.2.32-.32.08-.13.11-.26.11-.41v-.92h-1.19c-.52,0-.9.07-1.13.22-.24.14-.36.35-.36.63v.23c0,.29.1.51.31.65.21.15.49.22.85.22Z"/><rect class="c" x="147.18" y="163.33" width="59.23" height="158.95"/><path d="M170,237.64c.53,0,.92-.12,1.18-.35s.39-.53.39-.9v-.08c0-.4-.13-.7-.38-.9-.26-.2-.59-.3-1-.3s-.73.09-.98.26c-.25.18-.45.41-.61.7l-.68-.52c.09-.15.21-.3.34-.45.14-.15.3-.28.48-.39s.4-.21.64-.28.52-.11.83-.11.63.04.91.12c.28.08.53.21.73.37s.37.36.49.6.18.51.18.81c0,.24-.04.46-.11.66-.08.19-.18.36-.31.51-.13.14-.29.27-.47.37-.18.1-.37.18-.57.23v.04c.21.04.41.11.6.21.19.1.37.22.52.38s.27.34.36.56c.09.22.13.47.13.75,0,.32-.06.62-.19.89-.13.27-.3.5-.53.69s-.5.34-.82.45c-.32.11-.68.16-1.06.16-.33,0-.62-.04-.88-.11s-.48-.17-.68-.29c-.2-.12-.37-.26-.52-.41-.15-.15-.28-.31-.39-.48l.68-.52c.1.15.21.29.31.41.11.12.23.23.37.32s.3.16.48.21c.18.05.39.08.63.08.53,0,.94-.12,1.23-.37.29-.24.43-.59.43-1.05v-.09c0-.45-.14-.79-.42-1.04-.28-.24-.69-.37-1.25-.37h-.9v-.79h.83Z"/><path d="M176.8,242.12c-.46,0-.86-.09-1.19-.26-.33-.18-.6-.43-.82-.76-.22-.33-.38-.74-.48-1.22s-.15-1.03-.15-1.65.05-1.16.15-1.65.26-.89.48-1.23.49-.58.82-.76c.33-.18.73-.26,1.19-.26s.86.09,1.19.26c.33.18.6.43.82.76.22.33.37.74.47,1.23s.15,1.04.15,1.65-.05,1.17-.15,1.65-.26.89-.47,1.22c-.22.33-.49.58-.82.76-.33.18-.73.26-1.19.26ZM176.8,241.33c.3,0,.56-.06.78-.18s.39-.29.52-.5c.13-.22.23-.48.3-.78.07-.31.1-.65.1-1.03v-1.23c0-.37-.03-.72-.1-1.03-.06-.31-.16-.57-.3-.79-.13-.22-.31-.38-.52-.5s-.48-.18-.78-.18-.56.06-.78.18c-.22.12-.39.29-.52.5-.13.22-.23.48-.3.79s-.1.65-.1,1.03v1.23c0,.38.03.73.1,1.03s.16.57.3.78c.13.22.31.38.52.5.22.12.48.18.78.18ZM176.8,238.86c-.25,0-.43-.05-.52-.15-.1-.1-.15-.22-.15-.37v-.24c0-.14.05-.27.15-.37.1-.1.27-.15.52-.15s.43.05.52.15c.1.1.15.22.15.37v.24c0,.14-.05.27-.15.37-.1.1-.27.15-.52.15Z"/><path d="M185.83,237.21c0,.56-.08,1.09-.25,1.58-.17.49-.39.94-.65,1.35-.27.41-.56.77-.88,1.08-.32.31-.63.57-.94.76h-1.17c.41-.29.78-.58,1.1-.86s.6-.57.85-.88c.24-.31.45-.63.62-.98.17-.35.3-.74.41-1.18l-.05-.02c-.19.31-.43.57-.72.77-.29.21-.67.31-1.14.31-.33,0-.64-.05-.91-.16-.28-.11-.52-.26-.71-.46-.2-.2-.35-.44-.46-.73-.11-.28-.17-.61-.17-.97s.06-.7.18-1.01c.12-.31.29-.57.51-.79.22-.22.49-.39.8-.51.31-.12.66-.18,1.04-.18s.75.07,1.07.2c.32.13.58.32.8.57s.39.55.51.91.18.76.18,1.21ZM183.28,238.39c.52,0,.92-.14,1.2-.42.28-.28.43-.68.43-1.19v-.09c0-.51-.14-.91-.43-1.19-.29-.28-.69-.42-1.2-.42s-.92.14-1.2.42c-.29.28-.43.68-.43,1.19v.09c0,.51.14.91.43,1.19.28.28.69.42,1.2.42Z"/><path d="M157.14,249.64l-.67.94v2.2h-1.62v-7.54h1.62v3.15h.09l.82-1.25,1.33-1.9h1.81l-2.26,3.19,2.36,4.35h-1.83l-1.66-3.14Z"/><path d="M164.78,251.77h-.07c-.12.32-.31.59-.58.81s-.62.33-1.06.33c-.27,0-.51-.04-.73-.13-.22-.09-.41-.23-.57-.4-.16-.18-.28-.4-.37-.66-.09-.26-.13-.56-.13-.9v-3.61h1.6v3.39c0,.72.31,1.08.94,1.08.12,0,.24-.02.36-.05.12-.03.22-.08.31-.15.09-.07.16-.15.22-.25.06-.1.09-.22.09-.36v-3.66h1.6v5.57h-1.6v-1.02Z"/><path d="M167.78,252.79v-5.57h1.6v1.02h.07c.06-.16.14-.31.24-.44s.21-.26.34-.36c.13-.1.29-.19.46-.25s.38-.09.6-.09c.27,0,.51.04.73.14.22.09.41.23.57.4.16.18.28.4.37.66s.14.56.14.9v3.61h-1.6v-3.39c0-.72-.31-1.08-.94-1.08-.12,0-.24.02-.36.05-.12.03-.22.08-.32.15s-.17.15-.22.25c-.05.1-.08.22-.08.36v3.66h-1.6Z"/><path d="M176.73,252.92c-.62,0-1.16-.09-1.61-.28-.46-.19-.8-.44-1.03-.77l.9-.83c.22.24.47.42.76.56.29.13.62.2,1,.2.32,0,.57-.05.75-.15.18-.1.27-.25.27-.45,0-.16-.06-.27-.18-.33-.12-.06-.29-.11-.51-.15l-.9-.14c-.25-.04-.49-.09-.7-.17-.22-.08-.4-.18-.56-.31-.16-.13-.28-.29-.38-.48-.09-.19-.14-.41-.14-.68,0-.58.22-1.04.67-1.37.45-.33,1.07-.5,1.88-.5.55,0,1.01.07,1.4.22.39.15.69.36.92.63l-.8.91c-.17-.18-.38-.33-.64-.45-.26-.12-.57-.18-.94-.18-.62,0-.93.19-.93.56,0,.17.06.28.18.34s.29.11.51.15l.89.14c.25.04.49.09.7.17.22.08.41.18.57.31.16.13.29.29.38.48.09.19.14.41.14.68,0,.58-.22,1.04-.67,1.38s-1.09.51-1.92.51Z"/><path d="M183.71,252.79c-.58,0-1-.15-1.29-.45-.28-.3-.42-.69-.42-1.15v-2.71h-1.51v-1.25h.98c.24,0,.41-.05.51-.14.1-.09.15-.27.15-.52v-1.31h1.47v1.97h2.17v1.25h-2.17v3.07h2.17v1.25h-2.06Z"/><path d="M194.01,252.79v-1.31h2.03v-5.05h-.1l-1.53,2.01-1.04-.81,1.8-2.38h2.48v6.23h1.6v1.31h-5.25Z"/><rect class="c" x="147.6" y="384.8" width="58.82" height="45.24"/><path d="M170.42,405.44l-.33.47v1.1h-.81v-3.77h.81v1.58h.04l.41-.63.66-.95h.91l-1.13,1.59,1.18,2.18h-.91l-.83-1.57Z"/><path d="M174.24,406.51h-.03c-.06.16-.16.29-.29.41-.13.11-.31.17-.53.17-.13,0-.26-.02-.37-.07-.11-.04-.21-.11-.29-.2s-.14-.2-.19-.33c-.04-.13-.07-.28-.07-.45v-1.8h.8v1.7c0,.36.16.54.47.54.06,0,.12,0,.18-.02s.11-.04.16-.08c.04-.03.08-.08.11-.13.03-.05.04-.11.04-.18v-1.83h.8v2.79h-.8v-.51Z"/><path d="M175.74,407.01v-2.79h.8v.51h.03c.03-.08.07-.15.12-.22.05-.07.1-.13.17-.18.07-.05.14-.09.23-.12.09-.03.19-.05.3-.05.13,0,.26.02.37.07.11.05.21.11.29.2s.14.2.19.33c.04.13.07.28.07.45v1.8h-.8v-1.7c0-.36-.16-.54-.47-.54-.06,0-.12,0-.18.02-.06.02-.11.04-.16.08-.05.03-.08.08-.11.13-.03.05-.04.11-.04.18v1.83h-.8Z"/><path d="M180.22,407.08c-.31,0-.58-.05-.81-.14-.23-.09-.4-.22-.52-.38l.45-.42c.11.12.23.21.38.28.15.07.31.1.5.1.16,0,.28-.02.37-.07.09-.05.13-.12.13-.22,0-.08-.03-.13-.09-.16-.06-.03-.15-.05-.25-.07l-.45-.07c-.13-.02-.24-.05-.35-.08-.11-.04-.2-.09-.28-.15-.08-.06-.14-.14-.19-.24s-.07-.21-.07-.34c0-.29.11-.52.33-.69.22-.17.54-.25.94-.25.27,0,.51.04.7.11.19.07.35.18.46.32l-.4.45c-.08-.09-.19-.17-.32-.23-.13-.06-.29-.09-.47-.09-.31,0-.46.09-.46.28,0,.08.03.14.09.17s.15.05.25.07l.44.07c.13.02.24.05.35.08.11.04.2.09.28.15.08.06.15.14.19.24s.07.21.07.34c0,.29-.11.52-.34.69s-.54.25-.96.25Z"/><path d="M183.7,407.01c-.29,0-.5-.08-.64-.23s-.21-.34-.21-.58v-1.36h-.76v-.63h.49c.12,0,.2-.02.25-.07.05-.05.08-.13.08-.26v-.65h.73v.98h1.08v.63h-1.08v1.53h1.08v.63h-1.03Z"/><path d="M159.51,412.41l-1-3.77h.9l.44,1.92.22,1.09h.04l.23-1.09.45-1.92h.86l-1,3.77h-1.14Z"/><path d="M163.16,412.48c-.22,0-.41-.03-.58-.1s-.32-.16-.44-.29c-.12-.13-.21-.28-.28-.46-.06-.18-.1-.38-.1-.61s.03-.43.1-.61c.07-.18.16-.33.28-.46.12-.13.27-.22.44-.29.17-.07.37-.1.58-.1s.41.03.58.1c.17.07.32.16.44.29.12.13.21.28.28.46.07.18.1.38.1.61s-.03.43-.1.61c-.06.18-.16.33-.28.46-.12.13-.27.22-.44.29s-.37.1-.58.1ZM163.16,411.88c.18,0,.32-.06.42-.17.1-.11.15-.27.15-.48v-.44c0-.21-.05-.36-.15-.48-.1-.11-.24-.17-.42-.17s-.32.06-.42.17c-.1.11-.15.27-.15.48v.44c0,.21.05.36.15.48.1.11.24.17.42.17Z"/><path d="M165.01,411.79h.64v-1.53h-.64v-.63h1.44v.79h.04c.03-.1.06-.2.11-.29.04-.1.1-.18.17-.25s.16-.13.26-.18c.1-.04.22-.06.36-.06h.26v.73h-.59c-.2,0-.35.06-.45.17s-.15.26-.15.43v.82h.92v.63h-2.36v-.63Z"/><path d="M168.01,408.42h.8v1.72h.04c.07-.17.17-.3.3-.41.13-.11.31-.16.53-.16.16,0,.3.03.42.09s.24.15.33.26.16.27.22.45c.05.18.08.4.08.65s-.03.47-.08.65c-.05.18-.12.33-.22.45s-.2.21-.33.26-.27.09-.42.09c-.22,0-.4-.05-.53-.16-.13-.11-.23-.25-.3-.42h-.04v.51h-.8v-4ZM169.33,411.85c.18,0,.32-.05.42-.16.1-.11.15-.26.15-.45v-.43c0-.19-.05-.34-.15-.45-.1-.11-.24-.16-.42-.16-.14,0-.26.03-.36.1-.1.07-.15.17-.15.32v.82c0,.15.05.25.15.32s.22.1.36.1Z"/><path d="M172.47,412.48c-.47,0-.82-.13-1.06-.39-.24-.26-.36-.61-.36-1.06,0-.23.03-.43.09-.61.06-.18.15-.34.27-.46.12-.13.26-.23.43-.29.17-.07.36-.1.56-.1s.4.03.56.1c.17.07.31.16.42.28.12.12.2.27.27.45.06.17.09.37.09.59v.24h-1.91v.05c0,.18.06.33.17.44.11.11.28.16.49.16.17,0,.31-.03.43-.09.12-.06.22-.15.31-.25l.43.47c-.11.13-.26.25-.45.35s-.44.15-.74.15ZM172.4,410.13c-.17,0-.31.05-.41.16-.1.11-.15.25-.15.43v.04h1.12v-.04c0-.18-.05-.33-.15-.43-.1-.1-.23-.16-.41-.16Z"/><path d="M174.25,411.79h.64v-1.53h-.64v-.63h1.44v.79h.04c.03-.1.06-.2.11-.29.04-.1.1-.18.17-.25s.16-.13.26-.18c.1-.04.22-.06.36-.06h.26v.73h-.59c-.2,0-.35.06-.45.17s-.15.26-.15.43v.82h.92v.63h-2.36v-.63Z"/><path d="M178.62,412.48c-.47,0-.82-.13-1.06-.39-.24-.26-.36-.61-.36-1.06,0-.23.03-.43.09-.61.06-.18.15-.34.27-.46.12-.13.26-.23.43-.29.17-.07.36-.1.56-.1s.4.03.56.1c.17.07.31.16.42.28.12.12.2.27.27.45.06.17.09.37.09.59v.24h-1.91v.05c0,.18.06.33.17.44.11.11.28.16.49.16.17,0,.31-.03.43-.09.12-.06.22-.15.31-.25l.43.47c-.11.13-.26.25-.45.35s-.44.15-.74.15ZM178.56,410.13c-.17,0-.31.05-.41.16-.1.11-.15.25-.15.43v.04h1.12v-.04c0-.18-.05-.33-.15-.43-.1-.1-.23-.16-.41-.16Z"/><path d="M180.51,411.79h.89v-1.53h-.89v-.63h1.68v2.16h.82v.63h-2.5v-.63ZM181.8,409.27c-.18,0-.31-.04-.38-.11-.07-.07-.1-.16-.1-.27v-.16c0-.11.04-.2.1-.27.07-.07.2-.11.38-.11s.3.04.38.11c.07.07.11.16.11.27v.16c0,.1-.04.19-.11.27s-.2.11-.38.11Z"/><path d="M184.92,412.41c-.29,0-.5-.08-.64-.23s-.21-.34-.21-.58v-1.36h-.76v-.63h.49c.12,0,.2-.02.25-.07.05-.05.08-.13.08-.26v-.65h.73v.98h1.08v.63h-1.08v1.53h1.08v.63h-1.03Z"/><path d="M188.25,411.91h-.03c-.06.16-.16.29-.29.41-.13.11-.31.17-.53.17-.13,0-.26-.02-.37-.07-.11-.04-.21-.11-.29-.2s-.14-.2-.19-.33c-.04-.13-.07-.28-.07-.45v-1.8h.8v1.7c0,.36.16.54.47.54.06,0,.12,0,.18-.02s.11-.04.16-.08c.04-.03.08-.08.11-.13.03-.05.04-.11.04-.18v-1.83h.8v2.79h-.8v-.51Z"/><path d="M189.59,412.41v-2.79h.8v.51h.03c.03-.08.07-.15.12-.22.05-.07.1-.13.17-.18.07-.05.14-.09.23-.12.09-.03.19-.05.3-.05.13,0,.26.02.37.07.11.05.21.11.29.2s.14.2.19.33c.04.13.07.28.07.45v1.8h-.8v-1.7c0-.36-.16-.54-.47-.54-.06,0-.12,0-.18.02-.06.02-.11.04-.16.08-.05.03-.08.08-.11.13-.03.05-.04.11-.04.18v1.83h-.8Z"/><path d="M195.47,412.69c0,.29-.12.51-.37.65-.25.14-.64.21-1.17.21-.27,0-.49-.02-.66-.05-.17-.03-.31-.07-.41-.13-.1-.06-.17-.13-.22-.21-.04-.08-.06-.17-.06-.26,0-.16.05-.28.14-.36.09-.08.22-.14.39-.19v-.03c-.12-.04-.21-.09-.28-.15-.07-.07-.11-.16-.11-.28,0-.14.05-.24.14-.3s.21-.12.36-.15v-.03c-.17-.08-.29-.19-.39-.33-.09-.14-.14-.32-.14-.52,0-.16.03-.31.09-.43.06-.12.14-.23.25-.31.11-.08.23-.15.38-.19.15-.04.31-.06.5-.06s.34.02.49.06v-.15c0-.11.04-.2.11-.27.08-.07.18-.11.31-.11h.49v.58h-.67v.05c.15.08.27.19.35.33.08.14.13.31.13.5,0,.16-.03.3-.09.43-.06.12-.14.23-.25.31-.11.08-.24.15-.39.19-.15.04-.32.06-.5.06-.08,0-.16,0-.24-.01-.08,0-.15-.02-.22-.04-.04.02-.07.05-.1.08s-.04.07-.04.12c0,.04.01.08.03.1.02.03.05.04.09.06.04.01.08.02.13.02.05,0,.1,0,.16,0h.64c.2,0,.37.02.51.06s.26.1.35.17c.09.07.15.16.19.25.04.1.06.21.06.32ZM194.71,412.75c0-.07-.03-.13-.09-.17-.06-.04-.17-.06-.33-.06h-.96c-.07.06-.11.14-.11.23s.04.16.11.21c.07.06.2.08.38.08h.47c.18,0,.32-.03.4-.08s.12-.12.12-.22ZM193.91,411.04c.16,0,.28-.04.35-.12.07-.08.11-.18.11-.3v-.13c0-.12-.04-.22-.11-.3-.07-.08-.19-.12-.35-.12s-.27.04-.35.12c-.07.08-.11.18-.11.3v.13c0,.12.04.22.11.3.07.08.19.12.35.12Z"/><rect class="c" x="49.52" y="322.28" width="78.45" height="135.09"/><path d="M66.05,389.14c-.68,0-1.23-.13-1.66-.38-.43-.25-.79-.57-1.07-.96l.66-.54c.29.37.61.64.93.82.33.18.72.27,1.17.27.55,0,.96-.13,1.25-.38.29-.25.43-.6.43-1.05,0-.36-.1-.65-.31-.85s-.57-.35-1.09-.43l-.84-.14c-.37-.06-.68-.16-.92-.29-.25-.13-.45-.29-.6-.47-.15-.18-.26-.39-.32-.61-.07-.22-.1-.45-.1-.69,0-.69.23-1.21.68-1.57.45-.35,1.07-.53,1.84-.53.6,0,1.11.1,1.53.31.41.2.75.49,1,.86l-.64.55c-.21-.27-.46-.5-.76-.67-.3-.17-.68-.26-1.14-.26-.51,0-.9.11-1.18.32-.27.21-.41.54-.41.97,0,.34.1.61.31.82.21.21.57.36,1.11.46l.81.14c.37.06.68.16.93.29s.46.28.61.46c.15.18.26.38.33.61.07.22.1.46.1.7,0,.7-.23,1.25-.69,1.64-.46.4-1.11.59-1.95.59Z"/><path d="M72.74,389.14c-.4,0-.76-.07-1.08-.21-.31-.14-.58-.34-.79-.59-.22-.25-.38-.56-.49-.92-.11-.36-.17-.76-.17-1.2s.06-.84.17-1.2.28-.67.5-.92c.22-.26.48-.45.79-.59.31-.14.66-.21,1.06-.21.54,0,.98.12,1.32.36.34.24.59.55.75.93l-.69.37c-.1-.29-.27-.51-.5-.67-.23-.16-.52-.24-.87-.24-.25,0-.48.04-.68.12-.2.08-.37.2-.5.35-.14.15-.24.33-.31.54-.07.21-.1.44-.1.68v.95c0,.24.03.47.1.68.07.21.17.39.31.54.14.15.31.27.51.35.2.08.43.12.69.12.37,0,.68-.09.93-.26.24-.17.44-.41.58-.71l.62.42c-.17.37-.42.68-.77.93-.35.25-.8.37-1.37.37Z"/><path d="M76.85,381.02h.86v3.33h.04c.06-.14.13-.27.22-.39.09-.13.19-.24.32-.33.13-.09.28-.17.45-.23s.37-.09.6-.09c.58,0,1.05.19,1.4.56.35.37.53.89.53,1.57v3.57h-.86v-3.42c0-.51-.11-.89-.33-1.14-.22-.25-.55-.37-.98-.37-.17,0-.34.02-.51.06-.17.04-.31.11-.44.19-.13.09-.23.2-.31.33s-.12.3-.12.48v3.87h-.86v-7.99Z"/><path d="M86.82,388.1h-.04c-.06.14-.13.27-.22.39-.09.13-.19.24-.32.33-.13.09-.28.17-.45.23-.17.06-.37.09-.6.09-.58,0-1.05-.19-1.4-.56-.35-.37-.53-.89-.53-1.57v-3.57h.86v3.42c0,.51.11.89.33,1.14.22.25.55.37.98.37.17,0,.34-.02.51-.06.17-.04.31-.11.44-.19.13-.09.23-.2.31-.33s.12-.29.12-.48v-3.87h.86v5.57h-.86v-.91ZM84.48,382.33c-.22,0-.38-.05-.48-.14-.09-.09-.14-.21-.14-.36v-.15c0-.14.05-.26.14-.36.09-.09.25-.14.48-.14s.38.05.48.14c.09.09.14.21.14.36v.15c0,.14-.05.26-.14.36-.09.09-.25.14-.48.14ZM86.49,382.33c-.22,0-.38-.05-.48-.14s-.14-.21-.14-.36v-.15c0-.14.05-.26.14-.36.09-.09.25-.14.48-.14s.38.05.48.14c.09.09.14.21.14.36v.15c0,.14-.05.26-.14.36-.09.09-.25.14-.48.14Z"/><path d="M89.61,388.26h1.94v-6.5h-1.94v-.75h2.81v7.25h1.94v.75h-4.75v-.75Z"/><path d="M98.56,389.14c-.4,0-.76-.07-1.08-.21s-.59-.33-.82-.59c-.23-.26-.4-.56-.52-.92-.12-.36-.18-.75-.18-1.19s.06-.85.19-1.21.3-.67.52-.92c.22-.26.49-.45.8-.59.31-.14.66-.21,1.04-.21s.71.07,1.02.21c.31.14.57.33.78.57.22.24.38.53.5.86s.17.69.17,1.09v.41h-4.12v.26c0,.24.04.47.12.68.08.21.19.39.34.54.15.15.33.27.54.35.21.08.45.12.71.12.37,0,.7-.09.97-.26.27-.17.48-.41.63-.71l.64.43c-.17.37-.44.68-.83.92-.38.24-.85.36-1.41.36ZM98.51,384.02c-.24,0-.46.04-.66.13-.2.09-.38.21-.52.36s-.26.33-.35.53-.12.43-.12.67v.08h3.2v-.12c0-.24-.04-.47-.11-.67-.08-.2-.18-.38-.31-.52-.13-.15-.29-.26-.49-.34-.19-.08-.4-.12-.63-.12Z"/><path d="M102.54,388.26h1.63v-4.08h-1.63v-.75h2.49v1.4h.05c.12-.44.33-.78.65-1.03.32-.25.73-.37,1.23-.37h.78v.86h-1.05c-.5,0-.9.14-1.2.43s-.46.66-.46,1.13v2.4h2.16v.75h-4.65v-.75Z"/><path d="M109.86,386.18v-.91h3.13v.91h-3.13Z"/><path d="M57.37,391.82h.86v3.33h.04c.36-.69.93-1.04,1.72-1.04.68,0,1.22.26,1.6.77.38.51.58,1.23.58,2.15s-.19,1.64-.58,2.15-.92.77-1.6.77c-.79,0-1.36-.35-1.72-1.04h-.04v.91h-.86v-7.99ZM59.66,399.17c.5,0,.89-.15,1.17-.46.28-.31.42-.71.42-1.21v-.95c0-.5-.14-.91-.42-1.22-.28-.31-.67-.46-1.17-.46-.19,0-.38.03-.55.08-.17.05-.32.12-.45.22-.13.1-.23.22-.31.36-.08.14-.11.3-.11.49v2.01c0,.19.04.35.11.49.08.14.18.26.31.36.13.1.28.17.45.22.17.05.36.08.55.08Z"/><path d="M63.97,399.06h2.01v-4.08h-2.01v-.75h2.87v4.83h1.88v.75h-4.75v-.75ZM66.41,393c-.25,0-.43-.05-.53-.16-.1-.1-.15-.24-.15-.39v-.17c0-.16.05-.29.15-.39.1-.1.28-.16.53-.16s.43.05.53.16c.1.1.15.24.15.39v.17c0,.16-.05.29-.15.39-.1.1-.28.16-.53.16Z"/><path d="M70.33,391.82h.86v3.33h.04c.36-.69.93-1.04,1.72-1.04.68,0,1.22.26,1.6.77.38.51.58,1.23.58,2.15s-.19,1.64-.58,2.15-.92.77-1.6.77c-.79,0-1.36-.35-1.72-1.04h-.04v.91h-.86v-7.99ZM72.62,399.17c.5,0,.89-.15,1.17-.46.28-.31.42-.71.42-1.21v-.95c0-.5-.14-.91-.42-1.22-.28-.31-.67-.46-1.17-.46-.19,0-.38.03-.55.08-.17.05-.32.12-.45.22-.13.1-.23.22-.31.36-.08.14-.11.3-.11.49v2.01c0,.19.04.35.11.49.08.14.18.26.31.36.13.1.28.17.45.22.17.05.36.08.55.08Z"/><path d="M76.65,399.06h1.94v-6.5h-1.94v-.75h2.81v7.25h1.94v.75h-4.75v-.75Z"/><path d="M83.41,399.06h2.01v-4.08h-2.01v-.75h2.87v4.83h1.88v.75h-4.75v-.75ZM85.85,393c-.25,0-.43-.05-.53-.16-.1-.1-.15-.24-.15-.39v-.17c0-.16.05-.29.15-.39.1-.1.28-.16.53-.16s.43.05.53.16c.1.1.15.24.15.39v.17c0,.16-.05.29-.15.39-.1.1-.28.16-.53.16Z"/><path d="M91.99,399.94c-.39,0-.74-.07-1.05-.21-.31-.14-.58-.33-.8-.59s-.39-.56-.5-.92-.17-.76-.17-1.2.06-.84.17-1.2.28-.67.5-.92c.22-.26.49-.45.8-.59.31-.14.66-.21,1.05-.21s.74.07,1.05.21c.31.14.58.33.8.59.22.26.39.56.5.92s.17.76.17,1.2-.06.85-.17,1.2-.28.66-.5.92-.49.45-.8.59-.66.21-1.05.21ZM91.99,399.19c.48,0,.87-.14,1.17-.43s.44-.73.44-1.34v-.8c0-.6-.15-1.05-.44-1.34s-.68-.43-1.17-.43-.87.14-1.17.43-.44.73-.44,1.34v.8c0,.6.15,1.05.44,1.34s.68.43,1.17.43Z"/><path d="M98.73,399.81c-.42,0-.74-.12-.93-.36-.2-.24-.3-.54-.3-.92v-3.56h-1.86v-.75h1.38c.19,0,.32-.04.39-.11.08-.08.11-.21.11-.39v-1.46h.83v1.97h2.54v.75h-2.54v4.08h2.54v.75h-2.17Z"/><path d="M102.76,391.82h.86v3.33h.04c.06-.14.13-.27.22-.39.09-.13.19-.24.32-.33.13-.09.28-.17.45-.23s.37-.09.6-.09c.58,0,1.05.19,1.4.56.35.37.53.89.53,1.57v3.57h-.86v-3.42c0-.51-.11-.89-.33-1.14-.22-.25-.55-.37-.98-.37-.17,0-.34.02-.51.06-.17.04-.31.11-.44.19-.13.09-.23.2-.31.33s-.12.3-.12.48v3.87h-.86v-7.99Z"/><path d="M111.52,399.94c-.4,0-.76-.07-1.08-.21s-.59-.33-.82-.59c-.23-.26-.4-.56-.52-.92-.12-.36-.18-.75-.18-1.19s.06-.85.19-1.21.3-.67.52-.92c.22-.26.49-.45.8-.59.31-.14.66-.21,1.04-.21s.71.07,1.02.21c.31.14.57.33.78.57.22.24.38.53.5.86s.17.69.17,1.09v.41h-4.12v.26c0,.24.04.47.12.68.08.21.19.39.34.54.15.15.33.27.54.35.21.08.45.12.71.12.37,0,.7-.09.97-.26.27-.17.48-.41.63-.71l.64.43c-.17.37-.44.68-.83.92-.38.24-.85.36-1.41.36ZM111.47,394.82c-.24,0-.46.04-.66.13-.2.09-.38.21-.52.36s-.26.33-.35.53-.12.43-.12.67v.08h3.2v-.12c0-.24-.04-.47-.11-.67-.08-.2-.18-.38-.31-.52-.13-.15-.29-.26-.49-.34-.19-.08-.4-.12-.63-.12Z"/><path d="M115.8,391.82h.86v5.04h.04l.97-.92,1.86-1.71h1.06l-2.31,2.18,2.58,3.39h-1.07l-2.17-2.89-.96.87v2.02h-.86v-7.99Z"/><rect class="c" x="49.52" y="457.37" width="97.66" height="131.01"/><path d="M83.45,527.46v-7.54h.91v6.75h3.57v.79h-4.48Z"/><path d="M93.98,527.46c-.34,0-.58-.09-.72-.26-.14-.17-.23-.39-.27-.65h-.05c-.12.32-.32.58-.59.76-.27.18-.63.28-1.09.28-.58,0-1.05-.15-1.39-.45-.35-.3-.52-.72-.52-1.24s.19-.92.57-1.2c.38-.28.99-.42,1.83-.42h1.19v-.55c0-.41-.12-.71-.35-.92-.23-.2-.56-.31-.98-.31-.37,0-.68.07-.92.22s-.43.35-.57.6l-.58-.43c.07-.14.17-.28.29-.42.12-.14.27-.26.45-.37s.38-.19.62-.25.49-.09.77-.09c.66,0,1.18.17,1.56.5.39.33.58.79.58,1.39v3.07h.78v.75h-.59ZM91.41,526.87c.22,0,.43-.03.61-.08.18-.05.34-.13.48-.22.14-.09.24-.2.32-.32.08-.13.11-.26.11-.41v-.92h-1.19c-.52,0-.9.07-1.13.22-.24.14-.36.35-.36.63v.23c0,.29.1.51.31.65.21.15.49.22.85.22Z"/><path d="M101.17,528.1c0,.56-.23.97-.7,1.24s-1.17.4-2.11.4-1.55-.12-1.94-.36c-.39-.24-.59-.58-.59-1.03,0-.3.08-.54.24-.7s.38-.29.67-.37v-.13c-.16-.08-.28-.18-.37-.3-.09-.12-.13-.28-.13-.46,0-.29.1-.5.29-.65.19-.14.43-.25.72-.32v-.04c-.35-.15-.61-.37-.8-.67-.19-.29-.29-.64-.29-1.04,0-.28.05-.54.15-.78.1-.24.25-.44.44-.61.19-.17.42-.3.69-.39.27-.09.56-.14.88-.14.42,0,.79.08,1.1.23v-.1c0-.21.05-.39.15-.53s.27-.21.52-.21h1.03v.75h-1.25v.38c.2.17.36.38.46.62.11.24.16.5.16.8s-.05.54-.16.78c-.1.24-.25.44-.44.61-.19.17-.42.3-.69.39-.27.09-.57.14-.89.14-.09,0-.18,0-.27-.01-.09,0-.17-.02-.26-.03-.09.01-.18.04-.27.07s-.18.08-.26.13c-.08.05-.14.12-.19.19-.05.07-.08.16-.08.25,0,.17.08.28.25.33.17.05.38.08.65.08h1.23c.72,0,1.24.13,1.57.4.32.27.49.63.49,1.08ZM100.36,528.14c0-.22-.09-.4-.27-.53-.18-.13-.49-.2-.94-.2h-1.93c-.37.15-.56.4-.56.76,0,.24.1.46.29.63.19.18.52.26.97.26h.84c.5,0,.9-.08,1.18-.23.28-.15.42-.38.42-.69ZM98.32,524.93c.43,0,.75-.1.96-.3.21-.2.31-.47.31-.8v-.31c0-.33-.1-.6-.31-.79-.21-.2-.52-.3-.96-.3s-.75.1-.95.3c-.2.2-.3.46-.3.79v.31c0,.33.1.6.3.8.2.2.52.3.95.3Z"/><path d="M104.93,527.59c-.4,0-.76-.07-1.08-.21s-.59-.33-.82-.59c-.23-.26-.4-.56-.52-.92-.12-.36-.18-.75-.18-1.19s.06-.85.19-1.21.3-.67.52-.92c.22-.26.49-.45.8-.59.31-.14.66-.21,1.04-.21s.71.07,1.02.21c.31.14.57.33.78.57.22.24.38.53.5.86s.17.69.17,1.09v.41h-4.12v.26c0,.24.04.47.12.68.08.21.19.39.34.54.15.15.33.27.54.35.21.08.45.12.71.12.37,0,.7-.09.97-.26.27-.17.48-.41.63-.71l.64.43c-.17.37-.44.68-.83.92-.38.24-.85.36-1.41.36ZM104.88,522.47c-.24,0-.46.04-.66.13-.2.09-.38.21-.52.36s-.26.33-.35.53-.12.43-.12.67v.08h3.2v-.12c0-.24-.04-.47-.11-.67-.08-.2-.18-.38-.31-.52-.13-.15-.29-.26-.49-.34-.19-.08-.4-.12-.63-.12Z"/><path d="M108.9,526.71h1.63v-4.08h-1.63v-.75h2.49v1.4h.05c.12-.44.33-.78.65-1.03.32-.25.73-.37,1.23-.37h.78v.86h-1.05c-.5,0-.9.14-1.2.43s-.46.66-.46,1.13v2.4h2.16v.75h-4.65v-.75Z"/><path d="M126.71,302.31c0-.53-.12-.92-.35-1.18-.23-.26-.53-.39-.9-.39h-.08c-.4,0-.7.13-.9.38-.2.26-.3.59-.3,1s.09.73.26.98c.18.25.41.45.7.61l-.52.68c-.15-.09-.3-.21-.45-.35s-.28-.3-.39-.48c-.11-.18-.21-.4-.28-.64s-.11-.52-.11-.83.04-.63.12-.91c.08-.28.21-.53.37-.73.16-.21.36-.37.6-.49.24-.12.51-.18.81-.18.25,0,.46.04.66.11s.36.18.51.31c.14.13.27.29.37.47.1.18.18.37.23.57h.04c.04-.21.11-.41.21-.6.1-.19.22-.37.38-.52.16-.15.34-.27.56-.36.22-.09.47-.14.75-.14.32,0,.62.06.89.19s.5.3.69.53.34.5.45.82c.11.32.16.67.16,1.06,0,.33-.04.62-.11.88-.07.26-.17.48-.29.68-.12.2-.26.37-.41.52s-.31.28-.47.39l-.52-.68c.15-.1.29-.21.41-.31.12-.11.23-.23.32-.37.09-.14.16-.3.21-.48.05-.18.08-.39.08-.63,0-.53-.12-.94-.37-1.23-.24-.28-.59-.43-1.05-.43h-.09c-.45,0-.79.14-1.04.42-.25.28-.37.69-.37,1.25v.9h-.79v-.83Z"/><path d="M131.19,295.51c0,.46-.09.86-.26,1.19-.18.33-.43.6-.76.82-.33.22-.74.37-1.22.48-.48.1-1.03.15-1.65.15s-1.16-.05-1.65-.15c-.49-.1-.89-.26-1.23-.48-.33-.22-.58-.49-.76-.82-.18-.33-.26-.73-.26-1.19s.09-.86.26-1.19c.18-.33.43-.6.76-.82s.74-.37,1.23-.48c.49-.1,1.04-.15,1.65-.15s1.17.05,1.65.15c.48.1.89.26,1.22.48s.58.49.76.82c.18.33.26.73.26,1.19ZM130.4,295.51c0-.3-.06-.56-.18-.78-.12-.22-.29-.39-.5-.52s-.48-.23-.78-.3c-.31-.06-.65-.1-1.03-.1h-1.23c-.37,0-.72.03-1.03.1-.31.06-.57.16-.79.3s-.38.31-.5.52c-.12.22-.18.48-.18.78s.06.56.18.78c.12.22.29.39.5.52s.48.23.79.3.65.1,1.03.1h1.23c.38,0,.73-.03,1.03-.1s.57-.16.78-.3.38-.31.5-.52c.12-.22.18-.48.18-.78ZM127.93,295.51c0,.25-.05.43-.15.52-.1.1-.22.15-.37.15h-.24c-.14,0-.27-.05-.37-.15-.1-.1-.15-.27-.15-.52s.05-.43.15-.52.22-.15.37-.15h.24c.14,0,.27.05.37.15s.15.27.15.52Z"/><path d="M131.06,291.35h-.79v-2.16h-6.08v.08l1.77,1.9-.57.53-1.87-2v-1.41h6.75v-1.99h.79v5.05Z"/><path d="M124.31,275.61h6.75v.91h-6.75v2.52h-.79v-5.94h.79v2.52Z"/><path d="M131.19,269.49c0,.4-.07.77-.21,1.09s-.33.59-.59.82c-.26.23-.56.4-.92.52-.36.12-.75.18-1.19.18s-.85-.06-1.21-.19c-.36-.13-.67-.3-.92-.52-.26-.22-.45-.49-.59-.8-.14-.31-.21-.66-.21-1.04s.07-.71.21-1.02c.14-.31.33-.57.57-.78.24-.22.53-.38.86-.5.33-.11.69-.17,1.09-.17h.41v4.13h.26c.25,0,.47-.04.68-.12s.39-.19.54-.34c.15-.15.27-.33.35-.54.08-.21.12-.45.12-.71,0-.37-.09-.7-.26-.97-.17-.27-.41-.48-.71-.63l.43-.64c.37.17.68.44.92.83.24.39.36.85.36,1.41ZM126.07,269.54c0,.24.04.46.13.66.09.2.21.38.36.52.15.15.33.26.53.35.21.08.43.12.67.12h.08v-3.2h-.12c-.25,0-.47.04-.67.11-.2.08-.38.18-.52.31-.15.13-.26.3-.34.49-.08.19-.12.4-.12.63Z"/><path d="M130.32,265.52v-1.63h-4.08v1.63h-.75v-2.49h1.4v-.05c-.44-.11-.78-.33-1.03-.65-.25-.32-.37-.73-.37-1.23v-.78h.86v1.05c0,.5.14.9.43,1.2.29.31.66.46,1.13.46h2.4v-2.16h.75v4.65h-.75Z"/><path d="M130.32,259.04v-1.63h-4.08v1.63h-.75v-2.49h1.4v-.05c-.44-.11-.78-.33-1.03-.65-.25-.32-.37-.73-.37-1.23v-.78h.86v1.05c0,.5.14.9.43,1.2.29.31.66.46,1.13.46h2.4v-2.16h.75v4.65h-.75Z"/><path d="M131.06,248.04c0,.34-.09.58-.26.72s-.39.23-.65.27v.05c.32.12.58.32.76.59s.28.63.28,1.08c0,.58-.15,1.05-.45,1.39-.3.35-.72.52-1.24.52s-.92-.19-1.2-.57-.42-.99-.42-1.83v-1.19h-.55c-.41,0-.71.12-.92.35-.2.23-.31.56-.31.98,0,.37.07.68.22.92.15.24.35.43.6.57l-.43.58c-.14-.07-.28-.17-.42-.29-.14-.12-.26-.27-.37-.45-.11-.18-.19-.38-.25-.62-.06-.23-.09-.49-.09-.77,0-.65.17-1.18.5-1.56.33-.38.79-.58,1.38-.58h3.07v-.78h.75v.59ZM130.47,250.61c0-.22-.03-.43-.08-.61s-.13-.34-.22-.48-.2-.24-.32-.32c-.13-.08-.26-.11-.41-.11h-.92v1.19c0,.52.07.9.22,1.13.14.24.35.36.63.36h.23c.29,0,.51-.1.65-.31s.22-.49.22-.85Z"/><path d="M131.19,243.6c0,.58-.1,1.09-.3,1.51-.2.42-.46.78-.79,1.07l-.51-.58c.28-.27.5-.56.65-.88.15-.32.23-.7.23-1.14s-.08-.79-.23-1.06c-.15-.28-.4-.42-.73-.42-.14,0-.26.03-.36.08-.1.05-.17.13-.23.22-.06.09-.1.2-.13.31-.03.12-.06.24-.08.37l-.13.88c-.03.19-.07.4-.12.63-.05.23-.13.43-.24.62-.11.19-.26.34-.45.47s-.43.19-.73.19c-.28,0-.52-.06-.73-.17-.21-.11-.38-.27-.52-.47s-.25-.44-.31-.71c-.07-.27-.1-.57-.1-.9,0-.5.08-.94.24-1.31.16-.37.38-.69.66-.96l.53.56c-.08.06-.16.15-.24.24s-.16.22-.23.36c-.07.14-.12.3-.17.49-.04.19-.06.4-.06.65,0,.44.08.78.23,1.01s.37.35.66.35c.14,0,.26-.03.36-.08.1-.05.17-.13.23-.22.06-.09.1-.2.13-.32.03-.12.06-.24.08-.36l.13-.88c.03-.2.07-.41.12-.64.05-.22.13-.43.24-.62.11-.19.26-.34.45-.47.19-.13.43-.19.73-.19.55,0,.98.21,1.29.64.3.43.45,1,.45,1.71Z"/><path d="M131.19,237.12c0,.58-.1,1.09-.3,1.51-.2.42-.46.78-.79,1.07l-.51-.58c.28-.27.5-.56.65-.88.15-.32.23-.7.23-1.14s-.08-.79-.23-1.06c-.15-.28-.4-.42-.73-.42-.14,0-.26.03-.36.08-.1.05-.17.13-.23.22-.06.09-.1.2-.13.31-.03.12-.06.24-.08.37l-.13.88c-.03.19-.07.4-.12.63-.05.23-.13.43-.24.62-.11.19-.26.34-.45.47s-.43.19-.73.19c-.28,0-.52-.06-.73-.17-.21-.11-.38-.27-.52-.47s-.25-.44-.31-.71c-.07-.27-.1-.57-.1-.9,0-.5.08-.94.24-1.31.16-.37.38-.69.66-.96l.53.56c-.08.06-.16.15-.24.24s-.16.22-.23.36c-.07.14-.12.3-.17.49-.04.19-.06.4-.06.65,0,.44.08.78.23,1.01s.37.35.66.35c.14,0,.26-.03.36-.08.1-.05.17-.13.23-.22.06-.09.1-.2.13-.32.03-.12.06-.24.08-.36l.13-.88c.03-.2.07-.41.12-.64.05-.22.13-.43.24-.62.11-.19.26-.34.45-.47.19-.13.43-.19.73-.19.55,0,.98.21,1.29.64.3.43.45,1,.45,1.71Z"/><path d="M131.19,230.61c0,.4-.07.77-.21,1.09s-.33.59-.59.82c-.26.23-.56.4-.92.52-.36.12-.75.18-1.19.18s-.85-.06-1.21-.19c-.36-.13-.67-.3-.92-.52-.26-.22-.45-.49-.59-.8-.14-.31-.21-.66-.21-1.04s.07-.71.21-1.02c.14-.31.33-.57.57-.78.24-.22.53-.38.86-.5.33-.11.69-.17,1.09-.17h.41v4.13h.26c.25,0,.47-.04.68-.12s.39-.19.54-.34c.15-.15.27-.33.35-.54.08-.21.12-.45.12-.71,0-.37-.09-.7-.26-.97-.17-.27-.41-.48-.71-.63l.43-.64c.37.17.68.44.92.83.24.39.36.85.36,1.41ZM126.07,230.67c0,.24.04.46.13.66.09.2.21.38.36.52.15.15.33.26.53.35.21.08.43.12.67.12h.08v-3.2h-.12c-.25,0-.47.04-.67.11-.2.08-.38.18-.52.31-.15.13-.26.3-.34.49-.08.19-.12.4-.12.63Z"/></g></svg>