<svg xmlns="http://www.w3.org/2000/svg" fill="none" viewBox="0 0 360 400">
  <g id="Neubau_Erdgeschoss" class="Neubau_Erdgeschoss">
    <g id="rooms" class="rooms">
      <path id="Vector" fill="#000" d="m178.21 78.84.41-.41.73.73.36.43h.03l-.05-.83v-2.87h.58v2.87l-.05.82h.03l.36-.42.73-.73.41.41-1.77 1.77-1.77-1.77Zm6.16-1.25-.41.41-.73-.73-.36-.43h-.03l.05.83v2.87h-.58v-2.87l.05-.82h-.03l-.36.42-.73.73-.41-.41 1.77-1.77 1.77 1.77Z" class="Vector"/>
      <g id="room_N4" class="room_N4">
        <path id="area" fill="#D9D9D9" d="M340.49 10.12h-84.38V68.6h84.38V10.12Z" class="area"/>
        <g id="number" class="number">
          <path id="Vector_2" fill="#000" d="M293.49 37.57h-.08v6.47h-.84v-7.68h1.31l2.62 6.47h.08v-6.47h.84v7.68h-1.31l-2.62-6.47Z" class="Vector"/>
          <path id="Vector_3" fill="#000" d="M302.46 44.03v-1.51h-3.78v-.81l3.32-5.36h1.34v5.41h1.14v.76h-1.14v1.51h-.88Zm-2.96-2.26h2.96v-4.7h-.04l-2.91 4.7h-.01Z" class="Vector"/>
        </g>
      </g>
      <g id="room_N5" class="room_N5">
        <path id="area_2" fill="#D9D9D9" d="M340.49 102.36h-55.9v84.37h55.9v-84.37Z" class="area"/>
        <g id="number_2" class="number">
          <path id="Vector_4" fill="#000" d="M307.73 142.74h-.08v6.47h-.84v-7.68h1.31l2.62 6.47h.08v-6.47h.84v7.68h-1.31l-2.62-6.47Z" class="Vector"/>
          <path id="Vector_5" fill="#000" d="M318.05 142.34h-3.43l-.22 2.94h.08c.19-.26.4-.46.64-.61.23-.15.56-.23.97-.23.34 0 .65.05.93.16s.53.26.73.47c.21.21.37.45.48.74.11.29.18.62.18 1s-.06.72-.18 1.03c-.12.31-.29.58-.52.8-.23.22-.5.4-.82.52-.32.12-.69.19-1.1.19-.32 0-.61-.04-.86-.11s-.48-.17-.67-.3c-.19-.12-.36-.26-.51-.42-.15-.15-.28-.32-.4-.48l.69-.53c.1.15.21.29.31.42.11.12.23.23.37.33.14.09.3.16.47.21.18.05.38.08.62.08.53 0 .93-.14 1.22-.43.29-.29.42-.68.42-1.19v-.09c0-.51-.14-.9-.43-1.19-.29-.29-.7-.43-1.23-.43-.37 0-.65.06-.85.19-.2.13-.39.28-.56.46l-.78-.11.27-4.22h4.18v.8Z" class="Vector"/>
        </g>
      </g>
      <g id="room_Oberstufenraum" class="room_Oberstufenraum">
        <path id="area_3" fill="#D9D9D9" d="M340.49 68.6h-55.9v33.88h55.9V68.6Z" class="area"/>
        <g id="text" class="text">
          <path id="Vector_6" fill="#000" d="M291.09 87.95c-.23 0-.44-.04-.6-.13-.16-.09-.31-.22-.42-.39-.11-.17-.19-.38-.24-.62a4.28 4.28 0 0 1-.08-.84c0-.31.03-.59.08-.84s.13-.46.24-.62c.11-.16.25-.3.42-.39.17-.09.37-.13.6-.13.23 0 .44.04.6.13.17.09.31.22.42.39.11.17.19.38.24.62.05.25.08.53.08.84 0 .31-.03.6-.08.84-.05.25-.13.45-.24.62-.11.17-.25.3-.42.39-.17.09-.37.13-.6.13Zm0-.41c.15 0 .28-.03.39-.09a.72.72 0 0 0 .26-.26c.07-.11.12-.24.15-.4.03-.16.05-.33.05-.53v-.63c0-.19-.02-.36-.05-.52-.03-.16-.08-.29-.15-.4a.807.807 0 0 0-.26-.26.776.776 0 0 0-.39-.09c-.15 0-.28.03-.39.09a.72.72 0 0 0-.26.26c-.07.11-.12.24-.15.4-.03.16-.05.33-.05.52v.63c0 .19.02.37.05.53.03.16.08.29.15.4.07.11.16.2.26.26.11.06.24.09.39.09Z" class="Vector"/>
          <path id="Vector_7" fill="#000" d="M293.26 83.81h.44v1.69h.02c.18-.35.48-.53.87-.53.35 0 .62.13.82.39.2.26.29.62.29 1.09 0 .47-.1.83-.29 1.09-.2.26-.47.39-.82.39-.4 0-.69-.18-.87-.53h-.02v.46h-.44v-4.07.02Zm1.17 3.74c.26 0 .46-.08.6-.23.14-.16.21-.36.21-.62v-.48c0-.26-.07-.46-.21-.62-.14-.16-.34-.23-.6-.23-.1 0-.19.01-.28.04-.09.03-.17.06-.23.11-.07.05-.12.11-.16.18-.04.07-.06.15-.06.25v1.02c0 .1.02.18.06.25.04.07.09.13.16.18.07.05.14.09.23.11.09.03.18.04.28.04Z" class="Vector"/>
          <path id="Vector_8" fill="#000" d="M297.74 87.95c-.21 0-.39-.03-.55-.1-.16-.07-.3-.17-.42-.3-.12-.13-.2-.29-.27-.47s-.09-.38-.09-.61c0-.23.03-.43.1-.62.06-.18.15-.34.27-.47.12-.13.25-.23.41-.3.16-.07.34-.1.53-.1s.36.04.52.1a1.178 1.178 0 0 1 .65.73c.06.17.09.35.09.56v.21h-2.1v.13c0 .12.02.24.06.35.04.11.1.2.17.28.07.08.17.14.27.18.11.04.23.06.36.06a.854.854 0 0 0 .81-.49l.32.22c-.08.19-.22.35-.42.47-.2.12-.44.18-.72.18l.01-.01Zm-.03-2.61c-.12 0-.23.02-.34.07-.11.05-.19.1-.27.18a.98.98 0 0 0-.18.27c-.04.1-.06.22-.06.34v.04h1.63v-.06a.934.934 0 0 0-.22-.61.62.62 0 0 0-.25-.17.83.83 0 0 0-.32-.06h.01Z" class="Vector"/>
          <path id="Vector_9" fill="#000" d="M299.76 87.5h.83v-2.08h-.83v-.38h1.27v.71h.03c.06-.22.17-.4.33-.53s.37-.19.62-.19h.4v.44h-.53c-.25 0-.46.07-.61.22-.15.15-.23.34-.23.58v1.22h1.1v.38h-2.37v-.38l-.01.01Z" class="Vector"/>
          <path id="Vector_10" fill="#000" d="M304.32 87.95c-.3 0-.55-.05-.77-.15-.21-.1-.4-.24-.55-.4l.3-.26c.14.14.28.25.45.33.16.08.36.12.58.12.22 0 .4-.04.54-.12.14-.08.21-.2.21-.37a.342.342 0 0 0-.15-.3.774.774 0 0 0-.16-.07c-.06-.02-.12-.03-.19-.04l-.45-.07c-.1-.01-.21-.04-.32-.06-.12-.03-.22-.07-.32-.12a.751.751 0 0 1-.24-.23.675.675 0 0 1-.1-.37.724.724 0 0 1 .33-.63c.1-.07.22-.12.36-.16.14-.04.29-.05.46-.05.26 0 .48.04.67.12.19.08.35.19.49.34l-.29.27s-.07-.08-.12-.12c-.05-.04-.11-.08-.18-.12a1.47 1.47 0 0 0-.25-.08c-.1-.02-.21-.03-.33-.03-.22 0-.4.04-.51.12a.4.4 0 0 0-.18.33.342.342 0 0 0 .15.3c.05.03.1.05.16.07.06.02.12.03.18.04l.45.07c.1.01.21.04.32.06.11.02.22.07.31.12a.675.675 0 0 1 .34.6c0 .28-.11.5-.33.65-.22.15-.51.23-.87.23l.01-.02Z" class="Vector"/>
          <path id="Vector_11" fill="#000" d="M307.73 87.88c-.22 0-.38-.06-.48-.18a.716.716 0 0 1-.15-.47v-1.81h-.95v-.38h.7c.1 0 .16-.02.2-.06.04-.04.06-.11.06-.2v-.74h.42v1h1.29v.38h-1.29v2.08h1.29v.38h-1.11.02Z" class="Vector"/>
          <path id="Vector_12" fill="#000" d="M311.56 87.42h-.02c-.03.07-.07.14-.11.2-.04.06-.1.12-.16.17-.06.05-.14.09-.23.12s-.19.04-.31.04c-.3 0-.54-.09-.72-.28-.18-.19-.27-.46-.27-.8v-1.82h.44v1.74c0 .26.06.45.17.58.11.13.28.19.5.19.09 0 .17-.01.26-.03.08-.02.16-.06.23-.1a.487.487 0 0 0 .22-.42v-1.97h.44v2.84h-.44v-.46Z" class="Vector"/>
          <path id="Vector_13" fill="#000" d="M312.99 87.5h.96v-2.08h-1.01v-.38h1.01v-.58c0-.19.05-.35.15-.47.1-.12.26-.18.48-.18h.95v.38h-1.14v.85h1.14v.38h-1.14v2.08h1.01v.38h-2.41v-.38Z" class="Vector"/>
          <path id="Vector_14" fill="#000" d="M317.54 87.95c-.21 0-.39-.03-.55-.1-.16-.07-.3-.17-.42-.3-.12-.13-.2-.29-.27-.47s-.09-.38-.09-.61c0-.23.03-.43.1-.62.06-.18.15-.34.27-.47.12-.13.25-.23.41-.3.16-.07.34-.1.53-.1s.36.04.52.1a1.178 1.178 0 0 1 .65.73c.06.17.09.35.09.56v.21h-2.1v.13c0 .12.02.24.06.35.04.11.1.2.17.28.07.08.17.14.27.18.11.04.23.06.36.06a.854.854 0 0 0 .81-.49l.32.22c-.08.19-.22.35-.42.47-.2.12-.44.18-.72.18l.01-.01Zm-.03-2.61c-.12 0-.23.02-.34.07-.11.05-.19.1-.27.18a.98.98 0 0 0-.18.27c-.04.1-.06.22-.06.34v.04h1.63v-.06a.934.934 0 0 0-.22-.61.62.62 0 0 0-.25-.17.83.83 0 0 0-.32-.06h.01Z" class="Vector"/>
          <path id="Vector_15" fill="#000" d="M319.68 87.88v-2.84h.44v.46h.02c.03-.07.07-.14.11-.2.04-.06.1-.12.16-.17.06-.05.14-.09.23-.12s.19-.04.31-.04c.3 0 .54.09.71.28.18.19.27.46.27.8v1.82h-.44v-1.74c0-.26-.06-.45-.17-.58-.11-.13-.28-.19-.5-.19-.09 0-.17.01-.26.03-.08.02-.16.05-.23.1a.475.475 0 0 0-.22.41v1.97h-.44l.01.01Z" class="Vector"/>
          <path id="Vector_16" fill="#000" d="M322.86 87.5h.83v-2.08h-.83v-.38h1.27v.71h.03c.06-.22.17-.4.33-.53s.37-.19.62-.19h.4v.44h-.53c-.25 0-.46.07-.61.22-.15.15-.23.34-.23.58v1.22h1.1v.38h-2.37v-.38l-.01.01Z" class="Vector"/>
          <path id="Vector_17" fill="#000" d="M328.46 87.88c-.17 0-.3-.04-.37-.13a.705.705 0 0 1-.14-.33h-.03a.78.78 0 0 1-.3.39c-.14.09-.32.14-.55.14-.3 0-.53-.08-.71-.23-.18-.15-.26-.37-.26-.63s.1-.47.29-.61c.19-.14.5-.21.93-.21h.6v-.28c0-.21-.06-.36-.18-.47a.748.748 0 0 0-.5-.16c-.19 0-.35.04-.47.11a.79.79 0 0 0-.29.31l-.3-.22c.04-.07.09-.14.15-.21a1.11 1.11 0 0 1 .54-.32c.12-.03.25-.05.39-.05.33 0 .6.08.79.25.2.17.29.4.29.71v1.57h.4v.38h-.3l.02-.01Zm-1.31-.3c.11 0 .22-.01.31-.04s.18-.06.25-.11.12-.1.16-.17a.37.37 0 0 0 .06-.21v-.47h-.6c-.26 0-.46.04-.58.11a.35.35 0 0 0-.18.32v.12c0 .15.05.26.16.33s.25.11.43.11l-.01.01Z" class="Vector"/>
          <path id="Vector_18" fill="#000" d="M331.36 87.42h-.02c-.03.07-.07.14-.11.2-.04.06-.1.12-.16.17-.06.05-.14.09-.23.12s-.19.04-.31.04c-.3 0-.54-.09-.72-.28-.18-.19-.27-.46-.27-.8v-1.82h.44v1.74c0 .26.06.45.17.58.11.13.28.19.5.19.09 0 .17-.01.26-.03.08-.02.16-.06.23-.1a.487.487 0 0 0 .22-.42v-1.97h.44v2.84h-.44v-.46Z" class="Vector"/>
          <path id="Vector_19" fill="#000" d="M332.63 87.88v-2.84h.41v.33h.02c.04-.11.11-.2.19-.28.08-.08.2-.12.36-.12.16 0 .29.04.37.12.08.08.13.19.15.32h.02c.05-.13.12-.23.22-.32.1-.08.23-.13.4-.13.23 0 .39.08.46.24.08.16.12.39.12.69v1.97h-.41v-1.9c0-.24-.02-.41-.07-.5-.05-.09-.14-.14-.27-.14-.12 0-.21.04-.29.11-.08.07-.11.19-.11.34v2.08h-.41v-1.9c0-.24-.02-.41-.07-.5-.05-.09-.14-.14-.27-.14-.12 0-.21.04-.29.11-.08.07-.11.19-.11.34v2.08h-.41l-.01.04Z" class="Vector"/>
        </g>
      </g>
      <g id="room_N6" class="room_N6">
        <path id="area_4" fill="#D9D9D9" d="M340.48 261.49v-74.76H285V200h-10.15v61.49h65.63Z" class="area"/>
        <g id="number_3" class="number">
          <path id="Vector_20" fill="#000" d="M302.87 222.31h-.08v6.47h-.84v-7.68h1.31l2.62 6.47h.08v-6.47h.84v7.68h-1.31l-2.62-6.47Z" class="Vector"/>
          <path id="Vector_21" fill="#000" d="M310.98 228.91c-.4 0-.77-.07-1.09-.2-.32-.14-.6-.33-.82-.58-.22-.25-.4-.56-.52-.93s-.18-.78-.18-1.23c0-.57.09-1.11.26-1.61s.39-.96.66-1.38c.27-.41.57-.78.9-1.1.33-.32.65-.58.97-.78h1.19c-.42.3-.79.59-1.12.88-.33.29-.61.58-.86.9-.25.31-.46.64-.63 1-.17.36-.31.76-.42 1.2l.06.02c.18-.32.43-.58.73-.79.3-.21.69-.31 1.17-.31.34 0 .65.05.92.17.27.12.52.27.73.47.21.21.36.46.48.75.11.29.17.62.17.98s-.06.72-.19 1.03c-.12.31-.3.58-.52.8-.22.22-.5.4-.81.52-.32.12-.67.19-1.06.19h-.02Zm-.01-.78c.53 0 .94-.14 1.23-.43.29-.29.43-.69.43-1.21v-.09c0-.52-.15-.92-.43-1.21-.28-.29-.7-.43-1.23-.43s-.94.14-1.23.43c-.29.29-.43.69-.43 1.21v.09c0 .52.14.92.43 1.21.29.29.7.43 1.23.43Z" class="Vector"/>
        </g>
      </g>
      <g id="room_N3" class="room_N3">
        <path id="area_5" fill="#D9D9D9" d="M256.11 10.12h-84.38V68.6h84.38V10.12Z" class="area"/>
        <g id="number_4" class="number">
          <path id="Vector_22" fill="#000" d="M209.12 37.57h-.08v6.47h-.84v-7.68h1.31l2.62 6.47h.08v-6.47h.84v7.68h-1.31l-2.62-6.47Z" class="Vector"/>
          <path id="Vector_23" fill="#000" d="M216.89 39.6c.54 0 .94-.12 1.2-.36s.4-.54.4-.92v-.08c0-.41-.13-.72-.39-.92-.26-.21-.6-.31-1.02-.31-.42 0-.74.09-1 .27-.26.18-.46.42-.62.71l-.69-.53c.1-.15.21-.31.35-.46.14-.15.3-.28.49-.4s.4-.21.65-.29c.25-.07.53-.11.84-.11.31 0 .64.04.92.13.29.08.54.21.75.37.21.17.38.37.5.61s.18.52.18.82c0 .25-.04.47-.12.67-.08.2-.18.37-.32.52-.14.15-.29.27-.48.37-.18.1-.38.18-.58.23v.04c.21.04.42.12.62.21.2.1.37.23.53.38.15.16.28.35.37.57.09.22.14.48.14.77 0 .33-.06.63-.19.91s-.31.51-.54.71c-.23.19-.51.35-.84.46-.33.11-.69.17-1.08.17-.34 0-.64-.04-.9-.11a2.4 2.4 0 0 1-.69-.3c-.2-.12-.38-.26-.53-.42-.15-.15-.28-.32-.4-.48l.69-.53c.1.15.21.29.32.42.11.13.24.23.38.32s.31.16.49.21c.18.05.4.08.64.08.54 0 .96-.12 1.25-.37.29-.25.43-.61.43-1.07v-.09c0-.46-.14-.81-.42-1.06-.28-.25-.71-.37-1.27-.37h-.91v-.8h.85v.03Z" class="Vector"/>
        </g>
      </g>
      <g id="room_N2" class="room_N2">
        <path id="area_6" fill="#D9D9D9" d="M144.88 102.36H88.11v73.65h63.39l-6.62-73.65Z" class="area"/>
        <g id="number_5" class="number">
          <path id="Vector_24" fill="#000" d="M111.69 126.38h-.08v6.47h-.84v-7.68h1.31l2.62 6.47h.08v-6.47h.84v7.68h-1.31l-2.62-6.47Z" class="Vector"/>
          <path id="Vector_25" fill="#000" d="M122.4 132.85h-5.13v-.95l2.56-2.31c.37-.34.68-.68.92-1.04s.36-.73.36-1.13v-.13c0-.46-.12-.82-.36-1.07-.24-.25-.6-.38-1.08-.38-.48 0-.83.12-1.08.36-.25.24-.44.55-.57.95l-.83-.31c.07-.23.17-.45.3-.67.13-.22.29-.41.49-.58.2-.17.44-.3.72-.41.28-.11.61-.15.98-.15s.72.06 1.02.17c.3.11.55.26.75.46.2.2.36.43.46.7.11.27.16.57.16.89 0 .29-.04.57-.13.82-.08.26-.2.5-.35.74-.15.24-.33.46-.54.69-.21.23-.44.45-.7.67l-2.15 1.87h4.17v.8l.03.01Z" class="Vector"/>
        </g>
        <g id="text_2" class="text">
          <path id="Vector_26" fill="#000" d="M107.63 143.85v-1.33h2.07v-5.15h-.1l-1.56 2.05-1.06-.82 1.84-2.42h2.53v6.35h1.63v1.33h-5.35v-.01Z" class="Vector"/>
          <path id="Vector_27" fill="#000" d="M116.5 143.98c-1.03 0-1.78-.35-2.27-1.04-.49-.69-.73-1.67-.73-2.93 0-1.26.24-2.23.73-2.93.49-.7 1.25-1.04 2.27-1.04s1.78.35 2.27 1.04c.49.7.73 1.67.73 2.93 0 1.26-.24 2.23-.73 2.93-.49.7-1.24 1.04-2.27 1.04Zm0-1.3c.49 0 .83-.17 1.03-.52.2-.35.29-.82.29-1.44v-1.43c0-.62-.1-1.1-.29-1.44-.19-.34-.54-.52-1.03-.52s-.83.17-1.03.52c-.2.35-.29.83-.29 1.44v1.43c0 .62.1 1.1.29 1.44.19.34.54.52 1.03.52Zm0-2.02c-.26 0-.43-.05-.53-.15-.1-.1-.15-.23-.15-.37v-.24c0-.15.05-.27.15-.37.1-.1.28-.15.53-.15s.43.05.53.15c.1.1.15.23.15.37v.24c0 .15-.05.27-.15.37-.1.1-.28.15-.53.15Z" class="Vector"/>
          <path id="Vector_28" fill="#000" d="M120.45 135.71h1.63v3.51h.08c.14-.34.34-.62.6-.84.26-.22.62-.33 1.08-.33.31 0 .6.06.86.18s.48.3.67.54c.19.24.33.55.44.92.11.37.16.82.16 1.33 0 .51-.05.96-.16 1.33-.11.37-.25.68-.44.92s-.41.42-.67.54c-.26.12-.55.18-.86.18-.46 0-.81-.11-1.08-.33-.26-.22-.47-.5-.6-.85h-.08v1.04h-1.63v-8.14Zm2.68 7c.37 0 .65-.11.85-.33.2-.22.3-.53.3-.92v-.87c0-.39-.1-.7-.3-.92-.2-.22-.48-.33-.85-.33-.29 0-.53.07-.74.21-.21.14-.31.36-.31.66v1.66c0 .3.1.52.31.66s.46.21.74.21v-.03Z" class="Vector"/>
          <path id="Vector_29" fill="#000" d="M105.21 151.43c0-.54.06-1.05.18-1.55s.29-.96.49-1.38c.21-.42.45-.81.73-1.15.28-.34.57-.63.88-.86h1.63c-.34.24-.67.51-.98.82-.31.31-.58.65-.81 1.03-.23.38-.42.77-.56 1.2-.14.43-.21.87-.21 1.33v1.12c0 .46.07.91.21 1.33.14.43.32.83.56 1.2.24.37.5.72.81 1.03.31.31.63.58.98.82h-1.63c-.31-.23-.6-.51-.88-.86a5.86 5.86 0 0 1-.73-1.16c-.21-.43-.37-.89-.49-1.38-.12-.5-.18-1.01-.18-1.54Z" class="Vector"/>
          <path id="Vector_30" fill="#000" d="M114.42 153.76h-.1c-.07.16-.15.32-.24.46-.1.15-.21.28-.35.39-.14.11-.3.2-.49.27s-.4.1-.63.1c-.37 0-.71-.09-1-.26a2.17 2.17 0 0 1-.73-.77c-.2-.34-.35-.75-.45-1.23a8.11 8.11 0 0 1-.15-1.64c0-1.3.24-2.3.72-3 .48-.69 1.21-1.04 2.21-1.04.4 0 .74.05 1.04.16.3.11.56.26.78.45.22.2.39.43.53.7.14.27.25.57.33.9l-1.54.37c-.04-.16-.09-.32-.15-.47-.06-.15-.13-.28-.21-.4a.987.987 0 0 0-.33-.28c-.13-.07-.29-.1-.48-.1-.42 0-.71.17-.89.52-.18.35-.26.83-.26 1.45v1.25c0 .62.09 1.12.28 1.5.19.37.52.56 1 .56.37 0 .65-.11.84-.33.18-.22.27-.5.27-.85v-.56h-1.31v-1.17h2.78v4.1h-1.47v-1.09.01Z" class="Vector"/>
          <path id="Vector_31" fill="#000" d="M116.57 149.17h1.35l.41 4.6h.11l.67-4.6h1.43l.66 4.6h.11l.42-4.6h1.29l-.67 5.68h-1.94l-.56-3.92h-.11l-.56 3.92h-1.94l-.67-5.68Z" class="Vector"/>
          <path id="Vector_32" fill="#000" d="M127.78 151.43c0 .54-.06 1.05-.18 1.54a6.64 6.64 0 0 1-1.23 2.54c-.28.34-.57.63-.88.86h-1.63c.34-.23.66-.51.97-.82.31-.31.58-.65.81-1.03.23-.38.42-.77.56-1.2.14-.42.21-.87.21-1.33v-1.12c0-.46-.07-.91-.21-1.33-.14-.42-.32-.83-.56-1.2-.24-.37-.5-.72-.81-1.03-.31-.31-.64-.58-.97-.82h1.63c.31.24.6.52.88.86.28.34.52.72.73 1.15.21.43.37.89.5 1.38.13.49.18 1.01.18 1.55Z" class="Vector"/>
        </g>
      </g>
      <g id="room_N1" class="room_N1">
        <path id="area_7" fill="#D9D9D9" d="M156.78 231.11H87.17v81.99h77.33l-7.72-81.99Z" class="area"/>
        <g id="number_6" class="number">
          <path id="Vector_33" fill="#000" d="M117.17 259.3h-.08v6.47h-.84v-7.68h1.31l2.62 6.47h.08v-6.47h.84v7.68h-1.31l-2.62-6.47Z" class="Vector"/>
          <path id="Vector_34" fill="#000" d="M122.91 265.77v-.8h2.2v-6.19h-.08l-1.94 1.8-.54-.58 2.04-1.9h1.44v6.88h2.02v.8h-5.15l.01-.01Z" class="Vector"/>
        </g>
        <g id="text_3" class="text">
          <path id="Vector_35" fill="#000" d="M113.11 276.77v-1.33h2.07v-5.15h-.1l-1.56 2.05-1.06-.82 1.84-2.42h2.53v6.35h1.63v1.33h-5.35v-.01Z" class="Vector"/>
          <path id="Vector_36" fill="#000" d="M121.98 276.9c-1.03 0-1.78-.35-2.27-1.04-.49-.69-.73-1.67-.73-2.93 0-1.26.24-2.23.73-2.93.49-.7 1.25-1.04 2.27-1.04s1.78.35 2.27 1.04c.49.7.73 1.67.73 2.93 0 1.26-.24 2.23-.73 2.93-.49.7-1.24 1.04-2.27 1.04Zm0-1.29c.49 0 .83-.17 1.03-.52.2-.35.29-.82.29-1.44v-1.43c0-.62-.1-1.1-.29-1.44-.19-.34-.54-.52-1.03-.52s-.83.17-1.03.52c-.2.35-.29.83-.29 1.44v1.43c0 .62.1 1.1.29 1.44.19.34.54.52 1.03.52Zm0-2.03c-.26 0-.43-.05-.53-.15-.1-.1-.15-.23-.15-.37v-.24c0-.15.05-.27.15-.37.1-.1.28-.15.53-.15s.43.05.53.15c.1.1.15.23.15.37v.24c0 .15-.05.27-.15.37-.1.1-.28.15-.53.15Z" class="Vector"/>
          <path id="Vector_37" fill="#000" d="M130.63 276.77c-.34 0-.61-.09-.81-.26-.21-.17-.33-.42-.36-.74h-.06c-.1.37-.31.66-.61.85-.3.19-.68.29-1.12.29-.55 0-.99-.15-1.33-.45-.33-.3-.5-.71-.5-1.25 0-.59.22-1.03.65-1.32.43-.29 1.07-.43 1.9-.43h.91v-.29c0-.34-.08-.59-.24-.76-.16-.17-.42-.26-.8-.26-.34 0-.62.07-.84.2-.21.13-.4.3-.55.52l-.89-.79c.19-.32.49-.59.9-.8.41-.21.93-.31 1.57-.31.78 0 1.38.18 1.82.53.44.36.65.89.65 1.61v2.49h.63v1.18h-.94l.02-.01Zm-2.34-.93c.29 0 .53-.07.73-.21.2-.14.3-.34.3-.6v-.68h-.87c-.67 0-1 .22-1 .67v.22c0 .2.08.35.23.45.15.1.36.15.62.15h-.01Z" class="Vector"/>
          <path id="Vector_38" fill="#000" d="M110.69 284.35c0-.54.06-1.05.18-1.55s.29-.96.49-1.38c.21-.42.45-.81.73-1.15.28-.34.57-.63.88-.86h1.63c-.34.24-.67.51-.98.82-.31.31-.58.65-.81 1.03-.23.38-.42.77-.56 1.2-.14.43-.21.87-.21 1.33v1.12c0 .46.07.91.21 1.33.14.43.32.83.56 1.2.24.37.5.72.81 1.03.31.31.63.58.98.82h-1.63c-.31-.23-.6-.51-.88-.86a5.86 5.86 0 0 1-.73-1.16c-.21-.43-.37-.89-.49-1.38-.12-.5-.18-1.01-.18-1.54Z" class="Vector"/>
          <path id="Vector_39" fill="#000" d="M121 280.09v5.53c0 .34-.06.66-.18.94-.12.28-.29.52-.52.72-.23.2-.49.35-.81.46-.31.11-.67.16-1.06.16-.78 0-1.39-.19-1.82-.58-.43-.39-.7-.9-.82-1.54l1.56-.32c.06.33.17.6.34.8.17.21.41.31.74.31.28 0 .5-.09.65-.27.16-.18.24-.46.24-.83v-4.02h-2.53v-1.35h4.2l.01-.01Z" class="Vector"/>
          <path id="Vector_40" fill="#000" d="M125.28 287.9c-.44 0-.84-.07-1.19-.2-.35-.14-.65-.33-.9-.59-.25-.26-.43-.57-.57-.94-.13-.37-.2-.78-.2-1.24 0-.46.07-.88.2-1.24.13-.37.32-.68.57-.94.25-.26.54-.45.9-.59.36-.14.75-.2 1.19-.2.44 0 .84.07 1.19.2.35.14.65.33.9.59.25.26.43.57.57.94.13.37.2.78.2 1.24 0 .46-.07.88-.2 1.24-.13.37-.32.68-.57.94-.25.26-.54.45-.9.59-.35.13-.75.2-1.19.2Zm0-1.21c.37 0 .65-.11.86-.34.21-.23.31-.55.31-.97v-.9c0-.42-.1-.74-.31-.97-.21-.23-.49-.34-.86-.34s-.65.11-.86.34c-.21.23-.31.55-.31.97v.9c0 .42.1.74.31.97.21.23.49.34.86.34Z" class="Vector"/>
          <path id="Vector_41" fill="#000" d="M133.26 284.35c0 .54-.06 1.05-.18 1.54a6.64 6.64 0 0 1-1.23 2.54c-.28.34-.57.63-.88.86h-1.63c.34-.23.66-.51.97-.82.31-.31.58-.65.81-1.03.23-.38.42-.77.56-1.2.14-.42.21-.87.21-1.33v-1.12c0-.46-.07-.91-.21-1.33-.14-.42-.32-.83-.56-1.2-.24-.37-.5-.72-.81-1.03-.31-.31-.64-.58-.97-.82h1.63c.31.24.6.52.88.86.28.34.52.72.73 1.15.21.43.37.89.5 1.38.13.49.18 1.01.18 1.55Z" class="Vector"/>
        </g>
      </g>
      <g id="room_L1" class="room_L1">
        <path id="area_8" fill="#D9D9D9" d="M151.75 176H88.94v26.91H154L151.75 176Z" class="area"/>
        <g id="number_7" class="number">
          <path id="Vector_42" fill="#000" d="M115.06 194.13v-7.68h.92v6.88h3.64v.8h-4.56Z" class="Vector"/>
          <path id="Vector_43" fill="#000" d="M121.28 194.13v-.8h2.2v-6.19h-.08l-1.94 1.8-.54-.58 2.04-1.9h1.44v6.88h2.02v.8h-5.15l.01-.01Z" class="Vector"/>
        </g>
      </g>
      <g id="room_L2" class="room_L2">
        <path id="area_9" fill="#D9D9D9" d="M154.27 202.91H88.15v28.2H157l-2.73-28.2Z" class="area"/>
        <g id="number_8" class="number">
          <path id="Vector_44" fill="#000" d="M115.92 221.68V214h.92v6.88h3.64v.8h-4.56Z" class="Vector"/>
          <path id="Vector_45" fill="#000" d="M127.11 221.68h-5.13v-.95l2.56-2.31c.37-.34.68-.68.92-1.04s.36-.73.36-1.13v-.13c0-.46-.12-.82-.36-1.07-.24-.25-.6-.38-1.08-.38-.48 0-.83.12-1.08.36-.25.24-.44.55-.57.95l-.83-.31c.07-.23.17-.45.3-.67.13-.22.29-.41.49-.58.2-.17.44-.3.72-.41.28-.11.61-.15.98-.15s.72.06 1.02.17c.3.11.55.26.75.46.2.2.36.43.46.7.11.27.16.57.16.89 0 .29-.04.57-.13.82-.08.26-.2.5-.35.74-.15.24-.33.46-.54.69-.21.23-.44.45-.7.67l-2.15 1.87h4.17v.8l.03.01Z" class="Vector"/>
        </g>
      </g>
      <g id="room_WC_6" class="room_WC">
        <path id="area_10" fill="#D9D9D9" d="M164.4 313.1h-37.56v30.47h40.66l-3.1-30.47Z" class="area"/>
        <g id="text_4" class="text">
          <path id="Vector_46" fill="#000" d="M136.25 324.08h1.07c.47 0 .82.16 1.05.48.23.32.35.8.35 1.44 0 .64-.12 1.11-.35 1.44-.23.32-.58.48-1.05.48h-1.07v-3.84Zm1.05 3.43c.31 0 .54-.11.7-.32.16-.21.23-.51.23-.9v-.59c0-.39-.08-.69-.23-.9-.16-.21-.39-.32-.7-.32h-.59v3.04h.59v-.01Z" class="Vector"/>
          <path id="Vector_47" fill="#000" d="M141.75 327.91c-.17 0-.3-.04-.37-.13a.705.705 0 0 1-.14-.33h-.03a.78.78 0 0 1-.3.39c-.14.09-.32.14-.55.14-.3 0-.53-.08-.71-.23-.18-.15-.26-.37-.26-.63s.1-.47.29-.61c.19-.14.5-.21.93-.21h.6v-.28c0-.21-.06-.36-.18-.47a.748.748 0 0 0-.5-.16c-.19 0-.35.04-.47.11a.79.79 0 0 0-.29.31l-.3-.22c.04-.07.09-.14.15-.21a1.11 1.11 0 0 1 .54-.32c.12-.03.25-.05.39-.05.33 0 .6.08.79.25.2.17.29.4.29.71v1.57h.4v.38h-.3l.02-.01Zm-1.31-.3c.11 0 .22-.01.31-.04s.18-.06.25-.11.12-.1.16-.17a.37.37 0 0 0 .06-.21v-.47h-.6c-.26 0-.46.04-.58.11a.35.35 0 0 0-.18.32v.12c0 .15.05.26.16.33s.25.11.43.11l-.01.01Z" class="Vector"/>
          <path id="Vector_48" fill="#000" d="M142.62 327.91v-2.84h.41v.33h.02c.04-.11.11-.2.19-.28.08-.08.2-.12.36-.12.16 0 .29.04.37.12.08.08.13.19.15.32h.02c.05-.13.12-.23.22-.32.1-.08.23-.13.4-.13.23 0 .39.08.46.24.08.16.12.39.12.69v1.97h-.41v-1.9c0-.24-.02-.41-.07-.5-.05-.09-.14-.14-.27-.14-.12 0-.21.04-.29.11-.08.07-.11.19-.11.34v2.08h-.41v-1.9c0-.24-.02-.41-.07-.5-.05-.09-.14-.14-.27-.14-.12 0-.21.04-.29.11-.08.07-.11.19-.11.34v2.08h-.41l-.01.04Z" class="Vector"/>
          <path id="Vector_49" fill="#000" d="M147.32 327.98c-.21 0-.39-.03-.55-.1-.16-.07-.3-.17-.42-.3-.12-.13-.2-.29-.27-.47s-.09-.38-.09-.61c0-.23.03-.43.1-.62.06-.18.15-.34.27-.47.12-.13.25-.23.41-.3.16-.07.34-.1.53-.1s.36.04.52.1a1.178 1.178 0 0 1 .65.73c.06.17.09.35.09.56v.21h-2.1v.13c0 .12.02.24.06.35.04.11.1.2.17.28.07.08.17.14.27.18.11.04.23.06.36.06a.854.854 0 0 0 .81-.49l.32.22c-.08.19-.22.35-.42.47-.2.12-.44.18-.72.18l.01-.01Zm-.03-2.61c-.12 0-.23.02-.34.07-.11.05-.19.1-.27.18a.98.98 0 0 0-.18.27c-.04.1-.06.22-.06.34v.04h1.63v-.06a.934.934 0 0 0-.22-.61.62.62 0 0 0-.25-.17.83.83 0 0 0-.32-.06h.01Z" class="Vector"/>
          <path id="Vector_50" fill="#000" d="M149.46 327.91v-2.84h.44v.46h.02c.03-.07.07-.14.11-.2.04-.06.1-.12.16-.17.06-.05.14-.09.23-.12s.19-.04.31-.04c.3 0 .54.09.71.28.18.19.27.46.27.8v1.82h-.44v-1.74c0-.26-.06-.45-.17-.58-.11-.13-.28-.19-.5-.19-.09 0-.17.01-.26.03-.08.02-.16.05-.23.1a.475.475 0 0 0-.22.41v1.97h-.44l.01.01Z" class="Vector"/>
          <path id="Vector_51" fill="#000" d="M153.08 326.47v-.46h1.59v.46h-1.59Z" class="Vector"/>
          <path id="Vector_52" fill="#000" d="m142.82 333.41-.3-3.84h.41l.16 2.2.08 1.16h.04l.51-2.36h.52l.51 2.36h.04l.08-1.16.16-2.2h.4l-.3 3.84h-.67l-.47-2.29h-.04l-.47 2.29h-.67.01Z" class="Vector"/>
          <path id="Vector_53" fill="#000" d="M147.4 333.48c-.47 0-.82-.17-1.05-.51-.23-.34-.34-.83-.34-1.47s.11-1.13.34-1.47c.23-.34.58-.51 1.05-.51.18 0 .33.02.46.07a1.059 1.059 0 0 1 .56.46c.06.1.12.2.17.31l-.4.18c-.03-.08-.07-.16-.12-.24-.04-.08-.1-.14-.16-.2a.571.571 0 0 0-.21-.13.853.853 0 0 0-.3-.05c-.3 0-.53.12-.68.35-.15.23-.22.54-.22.92v.63c0 .38.07.69.22.92.15.23.38.35.68.35.12 0 .22-.02.3-.05.08-.03.15-.08.21-.13.06-.06.11-.12.16-.2l.12-.24.4.18c-.05.11-.1.21-.17.31s-.14.19-.23.27c-.09.08-.2.14-.33.19-.13.05-.28.07-.46.07v-.01Z" class="Vector"/>
        </g>
      </g>
      <g id="room_WC_5" class="room_WC">
        <path id="area_11" fill="#D9D9D9" d="M126.84 313.1h-23.21v30.47h23.21V313.1Z" class="area"/>
        <g id="text_5" class="text">
          <path id="Vector_54" fill="#000" d="M110.04 322.41c-.17 0-.3-.04-.37-.13a.705.705 0 0 1-.14-.33h-.03a.78.78 0 0 1-.3.39c-.14.09-.32.14-.55.14-.3 0-.53-.08-.71-.23-.18-.15-.26-.37-.26-.63s.1-.47.29-.61c.19-.14.5-.21.93-.21h.6v-.28c0-.21-.06-.36-.18-.47a.748.748 0 0 0-.5-.16c-.19 0-.35.04-.47.11a.79.79 0 0 0-.29.31l-.3-.22c.04-.07.09-.14.15-.21a1.11 1.11 0 0 1 .54-.32c.12-.03.25-.05.39-.05.33 0 .6.08.79.25.2.17.29.4.29.71v1.57h.4v.38h-.3l.02-.01Zm-1.31-.3c.11 0 .22-.01.31-.04s.18-.06.25-.11.12-.1.16-.17a.37.37 0 0 0 .06-.21v-.47h-.6c-.26 0-.46.04-.58.11a.35.35 0 0 0-.18.32v.12c0 .15.05.26.16.33s.25.11.43.11l-.01.01Z" class="Vector"/>
          <path id="Vector_55" fill="#000" d="M110.88 322.03h.83v-2.08h-.83v-.38h1.27v.71h.03c.06-.22.17-.4.33-.53s.37-.19.62-.19h.4v.44H113c-.25 0-.46.07-.61.22-.15.15-.23.34-.23.58v1.22h1.1v.38h-2.37v-.38l-.01.01Z" class="Vector"/>
          <path id="Vector_56" fill="#000" d="M114.01 322.03h.83v-2.08h-.83v-.38h1.27v.71h.03c.06-.22.17-.4.33-.53s.37-.19.62-.19h.4v.44h-.53c-.25 0-.46.07-.61.22-.15.15-.23.34-.23.58v1.22h1.1v.38h-2.37v-.38l-.01.01Z" class="Vector"/>
          <path id="Vector_57" fill="#000" d="M117.31 322.03h1.02v-2.08h-1.02v-.38h1.46v2.46h.96v.38h-2.42v-.38Zm1.24-3.08c-.13 0-.22-.03-.27-.08a.28.28 0 0 1-.08-.2v-.09c0-.08.03-.15.08-.2.05-.05.14-.08.27-.08s.22.03.27.08c.05.05.08.12.08.2v.09c0 .08-.03.15-.08.2-.05.05-.14.08-.27.08Z" class="Vector"/>
          <path id="Vector_58" fill="#000" d="M121.56 322.48c-.21 0-.39-.03-.55-.1-.16-.07-.3-.17-.42-.3-.12-.13-.2-.29-.27-.47s-.09-.38-.09-.61c0-.23.03-.43.1-.62.06-.18.15-.34.27-.47.12-.13.25-.23.41-.3.16-.07.34-.1.53-.1s.36.04.52.1a1.178 1.178 0 0 1 .65.73c.06.17.09.35.09.56v.21h-2.1v.13c0 .12.02.24.06.35.04.11.1.2.17.28.07.08.17.14.27.18.11.04.23.06.36.06a.854.854 0 0 0 .81-.49l.32.22c-.08.19-.22.35-.42.47-.2.12-.44.18-.72.18l.01-.01Zm-.03-2.61c-.12 0-.23.02-.34.07-.11.05-.19.1-.27.18a.98.98 0 0 0-.18.27c-.04.1-.06.22-.06.34v.04h1.63v-.06a.934.934 0 0 0-.22-.61.62.62 0 0 0-.25-.17.83.83 0 0 0-.32-.06h.01Z" class="Vector"/>
          <path id="Vector_59" fill="#000" d="M123.42 322.03h.83v-2.08h-.83v-.38h1.27v.71h.03c.06-.22.17-.4.33-.53s.37-.19.62-.19h.4v.44h-.53c-.25 0-.46.07-.61.22-.15.15-.23.34-.23.58v1.22h1.1v.38h-2.37v-.38l-.01.01Z" class="Vector"/>
          <path id="Vector_60" fill="#000" d="M113.72 327.98c-.21 0-.39-.03-.55-.1-.16-.07-.3-.17-.42-.3-.12-.13-.2-.29-.27-.47s-.09-.38-.09-.61c0-.23.03-.43.1-.62.06-.18.15-.34.27-.47.12-.13.25-.23.41-.3.16-.07.34-.1.53-.1s.36.04.52.1a1.178 1.178 0 0 1 .65.73c.06.17.09.35.09.56v.21h-2.1v.13c0 .12.02.24.06.35.04.11.1.2.17.28.07.08.17.14.27.18.11.04.23.06.36.06a.854.854 0 0 0 .81-.49l.32.22c-.08.19-.22.35-.42.47-.2.12-.44.18-.72.18l.01-.01Zm-.03-2.61c-.12 0-.23.02-.34.07-.11.05-.19.1-.27.18a.98.98 0 0 0-.18.27c-.04.1-.06.22-.06.34v.04h1.63v-.06a.934.934 0 0 0-.22-.61.62.62 0 0 0-.25-.17.83.83 0 0 0-.32-.06h.01Z" class="Vector"/>
          <path id="Vector_61" fill="#000" d="M116.01 326.47v-.46h1.59v.46h-1.59Z" class="Vector"/>
          <path id="Vector_62" fill="#000" d="M106.21 333.03h.96v-2.08h-1.01v-.38h1.01v-.58c0-.19.05-.35.15-.47.1-.12.26-.18.48-.18h.95v.38h-1.14v.85h1.14v.38h-1.14v2.08h1.01v.38h-2.41v-.38Z" class="Vector"/>
          <path id="Vector_63" fill="#000" d="M109.31 333.03h.83v-2.08h-.83v-.38h1.27v.71h.03c.06-.22.17-.4.33-.53s.37-.19.62-.19h.4v.44h-.53c-.25 0-.46.07-.61.22-.15.15-.23.34-.23.58v1.22h1.1v.38h-2.37v-.38l-.01.01Z" class="Vector"/>
          <path id="Vector_64" fill="#000" d="M113.72 333.48c-.21 0-.39-.03-.55-.1-.16-.07-.3-.17-.42-.3-.12-.13-.2-.29-.27-.47s-.09-.38-.09-.61c0-.23.03-.43.1-.62.06-.18.15-.34.27-.47.12-.13.25-.23.41-.3.16-.07.34-.1.53-.1s.36.04.52.1a1.178 1.178 0 0 1 .65.73c.06.17.09.35.09.56v.21h-2.1v.13c0 .12.02.24.06.35.04.11.1.2.17.28.07.08.17.14.27.18.11.04.23.06.36.06a.854.854 0 0 0 .81-.49l.32.22c-.08.19-.22.35-.42.47-.2.12-.44.18-.72.18l.01-.01Zm-.03-2.61c-.12 0-.23.02-.34.07-.11.05-.19.1-.27.18a.98.98 0 0 0-.18.27c-.04.1-.06.22-.06.34v.04h1.63v-.06a.934.934 0 0 0-.22-.61.62.62 0 0 0-.25-.17.83.83 0 0 0-.32-.06h.01Z" class="Vector"/>
          <path id="Vector_65" fill="#000" d="M115.74 333.03h1.02v-2.08h-1.02v-.38h1.46v2.46h.96v.38h-2.42v-.38Zm1.24-3.08c-.13 0-.22-.03-.27-.08a.28.28 0 0 1-.08-.2v-.09c0-.08.03-.15.08-.2.05-.05.14-.08.27-.08s.22.03.27.08c.05.05.08.12.08.2v.09c0 .08-.03.15-.08.2-.05.05-.14.08-.27.08Z" class="Vector"/>
          <path id="Vector_66" fill="#000" d="M119.99 333.48c-.21 0-.39-.03-.55-.1-.16-.07-.3-.17-.42-.3-.12-.13-.2-.29-.27-.47s-.09-.38-.09-.61c0-.23.03-.43.1-.62.06-.18.15-.34.27-.47.12-.13.25-.23.41-.3.16-.07.34-.1.53-.1s.36.04.52.1a1.178 1.178 0 0 1 .65.73c.06.17.09.35.09.56v.21h-2.1v.13c0 .12.02.24.06.35.04.11.1.2.17.28.07.08.17.14.27.18.11.04.23.06.36.06a.854.854 0 0 0 .81-.49l.32.22c-.08.19-.22.35-.42.47-.2.12-.44.18-.72.18l.01-.01Zm-.03-2.61c-.12 0-.23.02-.34.07-.11.05-.19.1-.27.18a.98.98 0 0 0-.18.27c-.04.1-.06.22-.06.34v.04h1.63v-.06a.934.934 0 0 0-.22-.61.62.62 0 0 0-.25-.17.83.83 0 0 0-.32-.06h.01Z" class="Vector"/>
          <path id="Vector_67" fill="#000" d="M123.11 333.48c-.3 0-.55-.05-.77-.15-.21-.1-.4-.24-.55-.4l.3-.26c.14.14.28.25.45.33.16.08.36.12.58.12.22 0 .4-.04.54-.12.14-.08.21-.2.21-.37a.342.342 0 0 0-.15-.3.774.774 0 0 0-.16-.07c-.06-.02-.12-.03-.19-.04l-.45-.07c-.1-.01-.21-.04-.32-.06-.12-.03-.22-.07-.32-.12a.751.751 0 0 1-.24-.23.675.675 0 0 1-.1-.37.724.724 0 0 1 .33-.63c.1-.07.22-.12.36-.16.14-.04.29-.05.46-.05.26 0 .48.04.67.12.19.08.35.19.49.34l-.29.27s-.07-.08-.12-.12c-.05-.04-.11-.08-.18-.12a1.47 1.47 0 0 0-.25-.08c-.1-.02-.21-.03-.33-.03-.22 0-.4.04-.51.12a.4.4 0 0 0-.18.33.342.342 0 0 0 .15.3c.05.03.1.05.16.07.06.02.12.03.18.04l.45.07c.1.01.21.04.32.06.11.02.22.07.31.12a.675.675 0 0 1 .34.6c0 .28-.11.5-.33.65-.22.15-.51.23-.87.23l.01-.02Z" class="Vector"/>
          <path id="Vector_68" fill="#000" d="m112.52 338.91-.3-3.84h.41l.16 2.2.08 1.16h.04l.51-2.36h.52l.51 2.36h.04l.08-1.16.16-2.2h.4l-.3 3.84h-.67l-.47-2.29h-.04l-.47 2.29h-.67.01Z" class="Vector"/>
          <path id="Vector_69" fill="#000" d="M116.93 338.98c-.47 0-.82-.17-1.05-.51-.23-.34-.34-.83-.34-1.47s.11-1.13.34-1.47c.23-.34.58-.51 1.05-.51.18 0 .33.02.46.07a1.059 1.059 0 0 1 .56.46c.06.1.12.2.17.31l-.4.18c-.03-.08-.07-.16-.12-.24-.04-.08-.1-.14-.16-.2a.571.571 0 0 0-.21-.13.853.853 0 0 0-.3-.05c-.3 0-.53.12-.68.35-.15.23-.22.54-.22.92v.63c0 .38.07.69.22.92.15.23.38.35.68.35.12 0 .22-.02.3-.05.08-.03.15-.08.21-.13.06-.06.11-.12.16-.2l.12-.24.4.18c-.05.11-.1.21-.17.31s-.14.19-.23.27c-.09.08-.2.14-.33.19-.13.05-.28.07-.46.07v-.01Z" class="Vector"/>
          <path id="Vector_70" fill="#000" d="M104.71 318.34h.44v1.69h.02c.18-.35.48-.53.87-.53.35 0 .62.13.82.39.2.26.29.62.29 1.09 0 .47-.1.83-.29 1.09-.2.26-.47.39-.82.39-.4 0-.69-.18-.87-.53h-.02v.46h-.44v-4.07.02Zm1.16 3.75c.26 0 .46-.08.6-.23.14-.16.21-.36.21-.62v-.48c0-.26-.07-.46-.21-.62-.14-.16-.34-.23-.6-.23-.1 0-.19.01-.28.04-.09.03-.17.06-.23.11-.07.05-.12.11-.16.18-.04.07-.06.15-.06.25v1.02c0 .1.02.18.06.25.04.07.09.13.16.18.07.05.14.09.23.11.09.03.18.04.28.04Z" class="Vector"/>
        </g>
      </g>
      <g id="room_Sonstiges_22" class="room_Sonstiges">
        <g id="text_6" class="text">
          <path id="Vector_71" fill="#000" d="M194.37 87.38h3.44v.46h-3.44v1.28h-.4V86.1h.4v1.28Z" class="Vector"/>
          <path id="Vector_72" fill="#000" d="M197.87 84.43c0 .21-.03.39-.1.55-.07.16-.17.3-.3.42-.13.12-.29.2-.47.27s-.38.09-.61.09c-.23 0-.43-.03-.62-.1-.18-.06-.34-.15-.47-.27-.13-.11-.23-.25-.3-.41-.07-.16-.1-.34-.1-.53s.03-.36.1-.52a1.178 1.178 0 0 1 .73-.65c.17-.06.35-.09.56-.09h.21v2.1h.13c.12 0 .24-.02.35-.06.11-.04.2-.1.27-.17.08-.07.14-.17.18-.27.04-.11.06-.23.06-.36a.91.91 0 0 0-.13-.5.856.856 0 0 0-.36-.32l.22-.32c.19.08.35.22.47.42.12.2.18.44.18.72Zm-2.6.03c0 .12.02.23.07.34.05.11.1.19.18.27.08.08.17.13.27.18.1.05.22.06.34.06h.04v-1.63h-.06a.934.934 0 0 0-.61.22.62.62 0 0 0-.17.25c-.04.1-.06.2-.06.32v-.01Z" class="Vector"/>
          <path id="Vector_73" fill="#000" d="M197.87 81.25c0 .21-.04.39-.11.55-.07.16-.17.29-.3.4-.13.11-.28.19-.47.25-.18.06-.39.09-.61.09-.22 0-.43-.03-.61-.09s-.34-.14-.47-.25c-.13-.11-.23-.24-.3-.4-.07-.16-.1-.34-.1-.54 0-.27.06-.5.18-.67.12-.17.28-.3.47-.38l.19.35a.64.64 0 0 0-.34.26c-.08.12-.12.27-.12.44 0 .13.02.24.06.34.04.1.1.19.18.26.08.07.17.12.28.16.11.04.22.05.35.05h.48c.12 0 .24-.02.35-.05.11-.03.2-.09.27-.16.08-.07.14-.16.18-.26.04-.1.06-.22.06-.35 0-.19-.04-.35-.13-.47a1.07 1.07 0 0 0-.36-.3l.21-.31c.19.08.35.21.47.39.12.18.19.41.19.7v-.01Z" class="Vector"/>
          <path id="Vector_74" fill="#000" d="M193.74 79.32v-.44h1.69v-.02c-.07-.03-.14-.07-.2-.11a.852.852 0 0 1-.17-.16.714.714 0 0 1-.12-.23.972.972 0 0 1-.04-.31c0-.3.09-.54.28-.71.19-.17.46-.27.8-.27h1.82v.44h-1.74c-.26 0-.45.06-.58.17-.13.11-.19.28-.19.5 0 .09.01.17.03.26a.8.8 0 0 0 .1.23.475.475 0 0 0 .41.22h1.97v.44h-4.07l.01-.01Z" class="Vector"/>
          <path id="Vector_75" fill="#000" d="M197.81 76.19h-2.84v-.44h.46v-.02c-.07-.03-.14-.07-.2-.11a.852.852 0 0 1-.17-.16.714.714 0 0 1-.12-.23.972.972 0 0 1-.04-.31c0-.3.09-.54.28-.71.19-.17.46-.27.8-.27h1.82v.44h-1.74c-.26 0-.45.06-.58.17-.13.11-.19.28-.19.5 0 .09.01.17.03.26a.8.8 0 0 0 .1.23.475.475 0 0 0 .41.22h1.97v.44l.01-.01Z" class="Vector"/>
          <path id="Vector_76" fill="#000" d="M194.34 71.76c0 .13-.03.22-.08.27a.28.28 0 0 1-.2.08h-.09a.28.28 0 0 1-.2-.08c-.05-.05-.08-.14-.08-.27s.03-.22.08-.27a.28.28 0 0 1 .2-.08h.09c.08 0 .15.03.2.08.05.05.08.14.08.27Zm3.09 1.25v-1.02h-2.08v1.02h-.38v-1.46h2.46v-.96h.38v2.42h-.38Z" class="Vector"/>
          <path id="Vector_77" fill="#000" d="M193.74 69.88v-.44h2.57v-.02l-.47-.5-.87-.95v-.54l1.11 1.18 1.73-1.32v.54l-1.47 1.11.45.49h1.03v.44h-4.07l-.01.01Z" class="Vector"/>
        </g>
      </g>
      <g id="room_Sonstiges_21" class="room_Sonstiges">
        <g id="text_7" class="text">
          <path id="Vector_78" fill="#000" d="M206.79 87.38h3.44v.46h-3.44v1.28h-.4V86.1h.4v1.28Z" class="Vector"/>
          <path id="Vector_79" fill="#000" d="M210.29 84.43c0 .21-.03.39-.1.55-.07.16-.17.3-.3.42-.13.12-.29.2-.47.27s-.38.09-.61.09c-.23 0-.43-.03-.62-.1-.18-.06-.34-.15-.47-.27-.13-.11-.23-.25-.3-.41-.07-.16-.1-.34-.1-.53s.03-.36.1-.52a1.178 1.178 0 0 1 .73-.65c.17-.06.35-.09.56-.09h.21v2.1h.13c.12 0 .24-.02.35-.06.11-.04.2-.1.27-.17.08-.07.14-.17.18-.27.04-.11.06-.23.06-.36a.91.91 0 0 0-.13-.5.856.856 0 0 0-.36-.32l.22-.32c.19.08.35.22.47.42.12.2.18.44.18.72Zm-2.6.03c0 .12.02.23.07.34.05.11.1.19.18.27.08.08.17.13.27.18.1.05.22.06.34.06h.04v-1.63h-.06a.934.934 0 0 0-.61.22.62.62 0 0 0-.17.25c-.04.1-.06.2-.06.32v-.01Z" class="Vector"/>
          <path id="Vector_80" fill="#000" d="M210.29 81.25c0 .21-.04.39-.11.55-.07.16-.17.29-.3.4-.13.11-.28.19-.47.25-.18.06-.39.09-.61.09-.22 0-.43-.03-.61-.09s-.34-.14-.47-.25c-.13-.11-.23-.24-.3-.4-.07-.16-.1-.34-.1-.54 0-.27.06-.5.18-.67.12-.17.28-.3.47-.38l.19.35a.64.64 0 0 0-.34.26c-.08.12-.12.27-.12.44 0 .13.02.24.06.34.04.1.1.19.18.26.08.07.17.12.28.16.11.04.22.05.35.05h.48c.12 0 .24-.02.35-.05.11-.03.2-.09.27-.16.08-.07.14-.16.18-.26.04-.1.06-.22.06-.35 0-.19-.04-.35-.13-.47a1.07 1.07 0 0 0-.36-.3l.21-.31c.19.08.35.21.47.39.12.18.19.41.19.7v-.01Z" class="Vector"/>
          <path id="Vector_81" fill="#000" d="M206.16 79.32v-.44h1.69v-.02c-.07-.03-.14-.07-.2-.11a.852.852 0 0 1-.17-.16.714.714 0 0 1-.12-.23.972.972 0 0 1-.04-.31c0-.3.09-.54.28-.71.19-.17.46-.27.8-.27h1.82v.44h-1.74c-.26 0-.45.06-.58.17-.13.11-.19.28-.19.5 0 .09.01.17.03.26a.8.8 0 0 0 .1.23.475.475 0 0 0 .41.22h1.97v.44h-4.07l.01-.01Z" class="Vector"/>
          <path id="Vector_82" fill="#000" d="M210.23 76.19h-2.84v-.44h.46v-.02c-.07-.03-.14-.07-.2-.11a.852.852 0 0 1-.17-.16.714.714 0 0 1-.12-.23.972.972 0 0 1-.04-.31c0-.3.09-.54.28-.71.19-.17.46-.27.8-.27h1.82v.44h-1.74c-.26 0-.45.06-.58.17-.13.11-.19.28-.19.5 0 .09.01.17.03.26a.8.8 0 0 0 .1.23.475.475 0 0 0 .41.22h1.97v.44l.01-.01Z" class="Vector"/>
          <path id="Vector_83" fill="#000" d="M206.76 71.76c0 .13-.03.22-.08.27a.28.28 0 0 1-.2.08h-.09a.28.28 0 0 1-.2-.08c-.05-.05-.08-.14-.08-.27s.03-.22.08-.27a.28.28 0 0 1 .2-.08h.09c.08 0 .15.03.2.08.05.05.08.14.08.27Zm3.09 1.25v-1.02h-2.08v1.02h-.38v-1.46h2.46v-.96h.38v2.42h-.38Z" class="Vector"/>
          <path id="Vector_84" fill="#000" d="M206.16 69.88v-.44h2.57v-.02l-.47-.5-.87-.95v-.54l1.11 1.18 1.73-1.32v.54l-1.47 1.11.45.49h1.03v.44h-4.07l-.01.01Z" class="Vector"/>
        </g>
      </g>
      <g id="room_Sonstiges_20" class="room_Sonstiges">
        <g id="text_8" class="text">
          <path id="Vector_85" fill="#000" d="M96.91 334.55c0 .21-.03.39-.1.55-.07.16-.17.3-.3.42-.13.12-.29.2-.47.27s-.38.09-.61.09c-.23 0-.43-.03-.62-.1-.18-.06-.34-.15-.47-.27-.13-.11-.23-.25-.3-.41-.07-.16-.1-.34-.1-.53s.03-.36.1-.52a1.178 1.178 0 0 1 .73-.65c.17-.06.35-.09.56-.09h.21v2.1h.13c.12 0 .24-.02.35-.06a.75.75 0 0 0 .45-.45c.04-.11.06-.23.06-.36a.854.854 0 0 0-.49-.81l.22-.32c.19.08.35.22.47.42.12.2.18.44.18.72Zm-2.61.03c0 .12.02.23.07.33s.1.19.18.27c.08.08.17.13.27.18.1.04.22.06.34.06h.04v-1.63h-.06a.934.934 0 0 0-.61.22.62.62 0 0 0-.17.25c-.04.1-.06.21-.06.32Z" class="Vector"/>
          <path id="Vector_86" fill="#000" d="M93.41 337.5h3.44v.46h-3.44v1.28h-.4v-3.03h.4v1.29Z" class="Vector"/>
          <path id="Vector_87" fill="#000" d="M96.91 331.36c0 .21-.04.39-.11.55-.07.16-.17.29-.3.4-.13.11-.28.19-.47.25-.18.06-.39.08-.61.08-.22 0-.43-.03-.61-.09s-.34-.14-.47-.25c-.13-.11-.23-.24-.3-.4-.07-.16-.1-.34-.1-.54 0-.28.06-.5.18-.67.12-.17.28-.3.47-.38l.19.35a.64.64 0 0 0-.34.26c-.08.12-.12.27-.12.44 0 .13.02.24.06.34.04.1.1.19.18.26.08.07.17.12.28.16.11.04.22.05.35.05h.48c.12 0 .24-.02.35-.05.11-.03.2-.09.27-.16.08-.07.14-.16.18-.26.04-.1.06-.22.06-.35 0-.19-.04-.35-.13-.47a1.07 1.07 0 0 0-.36-.3l.21-.31c.19.08.35.22.47.39s.19.41.19.7Z" class="Vector"/>
          <path id="Vector_88" fill="#000" d="M92.77 329.44V329h1.69v-.02c-.07-.03-.14-.07-.2-.11a.852.852 0 0 1-.17-.16.714.714 0 0 1-.12-.23.972.972 0 0 1-.04-.31c0-.3.09-.54.28-.71.19-.17.46-.27.8-.27h1.82v.44h-1.74c-.26 0-.45.06-.58.17-.13.11-.19.28-.19.5 0 .09.01.17.03.26.02.08.06.16.1.22a.475.475 0 0 0 .41.22h1.97v.44h-4.07.01Z" class="Vector"/>
          <path id="Vector_89" fill="#000" d="M96.84 326.3H94v-.44h.46v-.02c-.07-.03-.14-.07-.2-.11a.852.852 0 0 1-.17-.16.714.714 0 0 1-.12-.23.972.972 0 0 1-.04-.31c0-.3.09-.54.28-.71.19-.17.46-.27.8-.27h1.82v.44h-1.74c-.26 0-.45.06-.58.17-.13.11-.19.28-.19.5 0 .09.01.17.03.26.02.08.06.16.1.22a.475.475 0 0 0 .41.22h1.97v.44h.01Z" class="Vector"/>
          <path id="Vector_90" fill="#000" d="M93.38 321.88c0 .13-.03.22-.08.27a.28.28 0 0 1-.2.08h-.09a.28.28 0 0 1-.2-.08c-.05-.05-.08-.14-.08-.27s.03-.22.08-.27a.28.28 0 0 1 .2-.08h.09c.08 0 .15.03.2.08.05.05.08.14.08.27Zm3.08 1.24v-1.02h-2.08v1.02H94v-1.46h2.46v-.96h.38v2.42h-.38Z" class="Vector"/>
          <path id="Vector_91" fill="#000" d="M92.77 320v-.44h2.57v-.02l-.47-.5-.87-.95v-.54l1.11 1.18 1.73-1.31v.54l-1.47 1.11.45.49h1.03v.44h-4.08Z" class="Vector"/>
        </g>
      </g>
    </g>
    <g id="walls" class="walls">
      <path id="Vector_92" stroke="#000" stroke-miterlimit="10" d="m88.11 176 .04 167.56h79.09" class="Vector"/>
      <path id="Vector_93" stroke="#000" stroke-miterlimit="10" d="M72.53 68.6v33.76h.05v272.4h97.7l-25.4-272.4h111.23v76.5h18.74v20.9h9.74V68.6H72.53Z" class="Vector"/>
      <path id="Vector_94" stroke="#000" stroke-miterlimit="10" d="M340.49 10.12h-84.38V68.6h84.38V10.12Z" class="Vector"/>
      <path id="Vector_95" stroke="#000" stroke-miterlimit="10" d="M340.49 68.6h-55.9v33.75h55.9V68.6Z" class="Vector"/>
      <path id="Vector_96" stroke="#000" stroke-miterlimit="10" d="M340.49 102.36h-55.9v84.37h55.9v-84.37Z" class="Vector"/>
      <path id="Vector_97" stroke="#000" stroke-miterlimit="10" d="M274.85 178.86h-18.74v82.64h18.74v-82.64Z" class="Vector"/>
      <path id="Vector_98" stroke="#000" stroke-miterlimit="10" d="M256.11 10.12h-84.38V68.6h84.38V10.12Z" class="Vector"/>
      <path id="Vector_99" stroke="#000" stroke-miterlimit="10" d="M190.64 68.6h-18.91v18.91h18.91V68.6Z" class="Vector"/>
      <path id="Vector_100" stroke="#000" stroke-miterlimit="10" d="M203.06 68.6h-12.41v18.91h12.41V68.6Z" class="Vector"/>
      <path id="Vector_101" stroke="#000" stroke-miterlimit="10" d="M215.47 68.6h-12.41v18.91h12.41V68.6Z" class="Vector"/>
      <path id="Vector_102" stroke="#000" stroke-miterlimit="10" d="M242.5 102.36V87.52" class="Vector"/>
      <path id="Vector_103" stroke="#000" stroke-miterlimit="10" d="M256.11 102.36h14.84" class="Vector"/>
      <path id="Vector_104" stroke="#000" stroke-miterlimit="10" d="M256.11 116.52h14.84" class="Vector"/>
      <path id="Vector_105" stroke="#000" stroke-miterlimit="10" d="M256.11 140.61h14.84" class="Vector"/>
      <path id="Vector_106" stroke="#000" stroke-miterlimit="10" d="M256.11 154.31h14.84" class="Vector"/>
      <path id="Vector_107" stroke="#000" stroke-miterlimit="10" d="M85.53 87.51V68.6H72.54v18.91h12.99Z" class="Vector"/>
      <path id="Vector_108" stroke="#000" stroke-miterlimit="10" d="M92.02 87.51V68.6h-3.25v18.91h3.25Z" class="Vector"/>
      <path id="Vector_109" stroke="#000" stroke-miterlimit="10" d="M88.77 87.51V68.6h-3.25v18.91h3.25Z" class="Vector"/>
      <path id="Vector_110" stroke="#000" stroke-miterlimit="10" d="M95.27 87.51V68.6h-3.25v18.91h3.25Z" class="Vector"/>
      <path id="Vector_111" stroke="#000" stroke-miterlimit="10" d="M98.52 87.51V68.6h-3.25v18.91h3.25Z" class="Vector"/>
      <path id="Vector_112" stroke="#000" stroke-miterlimit="10" d="M101.77 87.51V68.6h-3.25v18.91h3.25Z" class="Vector"/>
      <path id="Vector_113" stroke="#000" stroke-miterlimit="10" d="M105.02 87.51V68.6h-3.25v18.91h3.25Z" class="Vector"/>
      <path id="Vector_114" stroke="#000" stroke-miterlimit="10" d="M108.27 87.51V68.6h-3.25v18.91h3.25Z" class="Vector"/>
      <path id="Vector_115" stroke="#000" stroke-miterlimit="10" d="M111.52 87.51V68.6h-3.25v18.91h3.25Z" class="Vector"/>
      <path id="Vector_116" stroke="#000" stroke-miterlimit="10" d="M114.77 87.51V68.6h-3.25v18.91h3.25Z" class="Vector"/>
      <path id="Vector_117" stroke="#000" stroke-miterlimit="10" d="M118.02 87.51V68.6h-3.25v18.91h3.25Z" class="Vector"/>
      <path id="Vector_118" stroke="#000" stroke-miterlimit="10" d="M121.27 87.51V68.6h-3.25v18.91h3.25Z" class="Vector"/>
      <path id="Vector_119" stroke="#000" stroke-miterlimit="10" d="M124.52 87.52V68.61h-3.25v18.91h3.25Z" class="Vector"/>
      <path id="Vector_120" stroke="#000" stroke-miterlimit="10" d="M127.77 87.52V68.61h-3.25v18.91h3.25Z" class="Vector"/>
      <path id="Vector_121" stroke="#000" stroke-miterlimit="10" d="M131.01 87.52V68.61h-3.25v18.91h3.25Z" class="Vector"/>
      <path id="Vector_122" stroke="#000" stroke-miterlimit="10" d="M134.26 87.52V68.61h-3.25v18.91h3.25Z" class="Vector"/>
      <path id="Vector_123" stroke="#000" stroke-miterlimit="10" d="M137.51 87.52V68.61h-3.25v18.91h3.25Z" class="Vector"/>
      <path id="Vector_124" stroke="#000" stroke-miterlimit="10" d="M140.76 87.52V68.61h-3.25v18.91h3.25Z" class="Vector"/>
      <path id="Vector_125" stroke="#000" stroke-miterlimit="10" d="M144.01 87.52V68.61h-3.25v18.91h3.25Z" class="Vector"/>
      <path id="Vector_126" stroke="#000" stroke-miterlimit="10" d="m77.45 77.9 3.22 1.61v-3.22l-3.22 1.61Z" class="Vector"/>
      <path id="Vector_127" stroke="#000" stroke-miterlimit="10" d="M80.67 77.75h67.81" class="Vector"/>
      <path id="Vector_128" stroke="#000" stroke-miterlimit="10" d="M88.11 176h63.64" class="Vector"/>
      <path id="Vector_129" stroke="#000" stroke-miterlimit="10" d="M88.15 231.11h68.63" class="Vector"/>
      <path id="Vector_130" stroke="#000" stroke-miterlimit="10" d="M88.15 313.1h76.25" class="Vector"/>
      <path id="Vector_131" stroke="#000" stroke-miterlimit="10" d="M126.84 313.1v30.46" class="Vector"/>
      <path id="Vector_132" stroke="#000" stroke-miterlimit="10" d="M103.63 313.1v30.46" class="Vector"/>
      <path id="Vector_133" stroke="#000" stroke-miterlimit="10" d="M88.15 202.91h66.11" class="Vector"/>
      <path id="Vector_134" stroke="#000" stroke-miterlimit="10" d="M274.85 238.75h-18.74v22.74h18.74v-22.74Z" class="Vector"/>
      <path id="Vector_135" stroke="#000" stroke-miterlimit="10" d="M274.85 245.25h-18.74v3.25h18.74v-3.25Z" class="Vector"/>
      <path id="Vector_136" stroke="#000" stroke-miterlimit="10" d="M274.85 242h-18.74v3.25h18.74V242Z" class="Vector"/>
      <path id="Vector_137" stroke="#000" stroke-miterlimit="10" d="M274.85 238.75h-18.74V242h18.74v-3.25Z" class="Vector"/>
      <path id="Vector_138" stroke="#000" stroke-miterlimit="10" d="M274.85 235.5h-18.74v3.25h18.74v-3.25Z" class="Vector"/>
      <path id="Vector_139" stroke="#000" stroke-miterlimit="10" d="M274.85 232.25h-18.74v3.25h18.74v-3.25Z" class="Vector"/>
      <path id="Vector_140" stroke="#000" stroke-miterlimit="10" d="M274.85 229h-18.74v3.25h18.74V229Z" class="Vector"/>
      <path id="Vector_141" stroke="#000" stroke-miterlimit="10" d="M274.85 225.75h-18.74V229h18.74v-3.25Z" class="Vector"/>
      <path id="Vector_142" stroke="#000" stroke-miterlimit="10" d="M274.85 222.5h-18.74v3.25h18.74v-3.25Z" class="Vector"/>
      <path id="Vector_143" stroke="#000" stroke-miterlimit="10" d="M274.85 219.25h-18.74v3.25h18.74v-3.25Z" class="Vector"/>
      <path id="Vector_144" stroke="#000" stroke-miterlimit="10" d="M274.85 216h-18.74v3.25h18.74V216Z" class="Vector"/>
      <path id="Vector_145" stroke="#000" stroke-miterlimit="10" d="M274.85 212.75h-18.74V216h18.74v-3.25Z" class="Vector"/>
      <path id="Vector_146" stroke="#000" stroke-miterlimit="10" d="M274.85 209.5h-18.74v3.25h18.74v-3.25Z" class="Vector"/>
      <path id="Vector_147" stroke="#000" stroke-miterlimit="10" d="M274.85 206.25h-18.74v3.25h18.74v-3.25Z" class="Vector"/>
      <path id="Vector_148" stroke="#000" stroke-miterlimit="10" d="M274.85 203.01h-18.74v3.25h18.74v-3.25Z" class="Vector"/>
      <path id="Vector_149" stroke="#000" stroke-miterlimit="10" d="M274.85 199.76h-18.74v3.25h18.74v-3.25Z" class="Vector"/>
      <path id="Vector_150" stroke="#000" stroke-miterlimit="10" d="m265.18 191.58-1.61 3.22h3.22l-1.61-3.22Z" class="Vector"/>
      <path id="Vector_151" stroke="#000" stroke-miterlimit="10" d="M265.18 194.8v59.24" class="Vector"/>
      <path id="Vector_152" stroke="#000" stroke-miterlimit="10" d="M88.11 176v-73.64h56.77" class="Vector"/>
      <path id="Vector_153" stroke="#000" stroke-miterlimit="10" d="M151.37 374.81V355.9H140.1v18.91h11.27Z" class="Vector"/>
      <path id="Vector_154" stroke="#000" stroke-miterlimit="10" d="M91.36 374.81V355.9h-3.25v18.91h3.25Z" class="Vector"/>
      <path id="Vector_155" stroke="#000" stroke-miterlimit="10" d="M94.61 374.82v-18.91h-3.25v18.91h3.25Z" class="Vector"/>
      <path id="Vector_156" stroke="#000" stroke-miterlimit="10" d="M97.86 374.82v-18.91h-3.25v18.91h3.25Z" class="Vector"/>
      <path id="Vector_157" stroke="#000" stroke-miterlimit="10" d="M101.11 374.82v-18.91h-3.25v18.91h3.25Z" class="Vector"/>
      <path id="Vector_158" stroke="#000" stroke-miterlimit="10" d="M104.36 374.82v-18.91h-3.25v18.91h3.25Z" class="Vector"/>
      <path id="Vector_159" stroke="#000" stroke-miterlimit="10" d="M107.61 374.82v-18.91h-3.25v18.91h3.25Z" class="Vector"/>
      <path id="Vector_160" stroke="#000" stroke-miterlimit="10" d="M110.86 374.82v-18.91h-3.25v18.91h3.25Z" class="Vector"/>
      <path id="Vector_161" stroke="#000" stroke-miterlimit="10" d="M114.11 374.82v-18.91h-3.25v18.91h3.25Z" class="Vector"/>
      <path id="Vector_162" stroke="#000" stroke-miterlimit="10" d="M117.36 374.82v-18.91h-3.25v18.91h3.25Z" class="Vector"/>
      <path id="Vector_163" stroke="#000" stroke-miterlimit="10" d="M120.61 374.82v-18.91h-3.25v18.91h3.25Z" class="Vector"/>
      <path id="Vector_164" stroke="#000" stroke-miterlimit="10" d="M123.86 374.82v-18.91h-3.25v18.91h3.25Z" class="Vector"/>
      <path id="Vector_165" stroke="#000" stroke-miterlimit="10" d="M127.11 374.82v-18.91h-3.25v18.91h3.25Z" class="Vector"/>
      <path id="Vector_166" stroke="#000" stroke-miterlimit="10" d="M130.35 374.82v-18.91h-3.25v18.91h3.25Z" class="Vector"/>
      <path id="Vector_167" stroke="#000" stroke-miterlimit="10" d="M133.6 374.81V355.9h-3.25v18.91h3.25Z" class="Vector"/>
      <path id="Vector_168" stroke="#000" stroke-miterlimit="10" d="M136.85 374.81V355.9h-3.25v18.91h3.25Z" class="Vector"/>
      <path id="Vector_169" stroke="#000" stroke-miterlimit="10" d="M140.1 374.81V355.9h-3.25v18.91h3.25Z" class="Vector"/>
      <path id="Vector_170" stroke="#000" stroke-miterlimit="10" d="m147.7 365.21-3.21-1.61v3.22l3.21-1.61Z" class="Vector"/>
      <path id="Vector_171" stroke="#000" stroke-miterlimit="10" d="M144.49 365.36h-61.4" class="Vector"/>
      <path id="Vector_172" stroke="#000" stroke-miterlimit="10" d="M284.59 186.73v13.03h-9.74v61.73h65.64v-74.76h-55.9Z" class="Vector"/>
    </g>
  </g>
</svg>
