<?xml version="1.0" encoding="UTF-8"?><svg xmlns="http://www.w3.org/2000/svg" viewBox="0 0 360 400"><defs><style>.c,.d{fill:none;}.d{stroke:#000;stroke-miterlimit:10;}</style></defs><g id="a"><polyline class="d" points="88.1 175.81 88.13 343.53 167.3 343.53"/><polygon class="d" points="72.5 68.3 72.5 102.08 72.55 102.08 72.55 374.76 170.35 374.76 144.92 102.08 256.26 102.08 256.26 178.66 275.03 178.66 275.03 199.58 284.77 199.58 284.77 68.3 72.5 68.3"/><rect class="d" x="256.26" y="9.76" width="84.46" height="58.54"/><rect class="d" x="284.77" y="68.3" width="55.96" height="33.79"/><rect class="d" x="284.77" y="102.08" width="55.96" height="84.46"/><rect class="d" x="256.26" y="178.66" width="18.76" height="82.72"/><rect class="d" x="171.8" y="9.76" width="84.46" height="58.54"/><rect class="d" x="171.8" y="68.3" width="18.93" height="18.93"/><rect class="d" x="190.74" y="68.3" width="12.43" height="18.93"/><line class="d" x1="242.64" y1="102.08" x2="242.64" y2="87.23"/><line class="d" x1="230.3" y1="102.08" x2="230.3" y2="87.23"/><line class="d" x1="217.95" y1="102.08" x2="217.95" y2="87.23"/><line class="d" x1="256.26" y1="102.08" x2="271.12" y2="102.08"/><line class="d" x1="256.26" y1="116.27" x2="271.12" y2="116.27"/><line class="d" x1="256.26" y1="140.38" x2="271.12" y2="140.38"/><line class="d" x1="256.26" y1="154.09" x2="271.12" y2="154.09"/><rect class="d" x="69.54" y="71.26" width="18.93" height="13.01" transform="translate(156.77 -1.24) rotate(90)"/><rect class="d" x="80.92" y="76.14" width="18.93" height="3.25" transform="translate(168.15 -12.62) rotate(90)"/><rect class="d" x="77.67" y="76.14" width="18.93" height="3.25" transform="translate(164.9 -9.37) rotate(90)"/><rect class="d" x="84.17" y="76.14" width="18.93" height="3.25" transform="translate(171.41 -15.88) rotate(90)"/><rect class="d" x="87.43" y="76.14" width="18.93" height="3.25" transform="translate(174.66 -19.13) rotate(90)"/><rect class="d" x="90.68" y="76.14" width="18.93" height="3.25" transform="translate(177.91 -22.38) rotate(90)"/><rect class="d" x="93.93" y="76.14" width="18.93" height="3.25" transform="translate(181.16 -25.63) rotate(90)"/><rect class="d" x="97.19" y="76.14" width="18.93" height="3.25" transform="translate(184.42 -28.89) rotate(90)"/><rect class="d" x="100.44" y="76.14" width="18.93" height="3.25" transform="translate(187.67 -32.14) rotate(90)"/><rect class="d" x="103.69" y="76.14" width="18.93" height="3.25" transform="translate(190.92 -35.39) rotate(90)"/><rect class="d" x="106.94" y="76.14" width="18.93" height="3.25" transform="translate(194.18 -38.64) rotate(90)"/><rect class="d" x="110.2" y="76.14" width="18.93" height="3.25" transform="translate(197.43 -41.9) rotate(90)"/><rect class="d" x="113.45" y="76.14" width="18.93" height="3.25" transform="translate(200.68 -45.15) rotate(90)"/><rect class="d" x="116.7" y="76.14" width="18.93" height="3.25" transform="translate(203.93 -48.4) rotate(90)"/><rect class="d" x="119.95" y="76.14" width="18.93" height="3.25" transform="translate(207.19 -51.66) rotate(90)"/><rect class="d" x="123.21" y="76.14" width="18.93" height="3.25" transform="translate(210.44 -54.91) rotate(90)"/><rect class="d" x="126.46" y="76.14" width="18.93" height="3.25" transform="translate(213.69 -58.16) rotate(90)"/><rect class="d" x="129.71" y="76.14" width="18.93" height="3.25" transform="translate(216.94 -61.41) rotate(90)"/><rect class="d" x="132.97" y="76.14" width="18.93" height="3.25" transform="translate(220.2 -64.67) rotate(90)"/><polygon class="d" points="151.35 77.61 148.13 76 148.13 79.22 151.35 77.61"/><line class="d" x1="148.13" y1="77.76" x2="80.25" y2="77.76"/><line class="d" x1="88.1" y1="175.81" x2="151.79" y2="175.81"/><line class="d" x1="88.13" y1="230.97" x2="156.83" y2="230.97"/><line class="d" x1="88.13" y1="313.04" x2="164.46" y2="313.04"/><line class="d" x1="126.87" y1="313.04" x2="126.87" y2="343.53"/><line class="d" x1="103.63" y1="313.04" x2="103.63" y2="343.53"/><line class="d" x1="88.13" y1="202.74" x2="154.32" y2="202.74"/><rect class="d" x="256.26" y="238.62" width="18.76" height="22.76"/><rect class="d" x="256.26" y="245.12" width="18.76" height="3.25"/><rect class="d" x="256.26" y="241.87" width="18.76" height="3.25"/><rect class="d" x="256.26" y="238.61" width="18.76" height="3.25"/><rect class="d" x="256.26" y="235.36" width="18.76" height="3.25"/><rect class="d" x="256.26" y="232.11" width="18.76" height="3.25"/><rect class="d" x="256.26" y="228.86" width="18.76" height="3.25"/><rect class="d" x="256.26" y="225.6" width="18.76" height="3.25"/><rect class="d" x="256.26" y="222.35" width="18.76" height="3.25"/><rect class="d" x="256.26" y="219.1" width="18.76" height="3.25"/><rect class="d" x="256.26" y="215.85" width="18.76" height="3.25"/><rect class="d" x="256.26" y="212.59" width="18.76" height="3.25"/><rect class="d" x="256.26" y="209.34" width="18.76" height="3.25"/><rect class="d" x="256.26" y="206.09" width="18.76" height="3.25"/><rect class="d" x="256.26" y="202.83" width="18.76" height="3.25"/><rect class="d" x="256.26" y="199.58" width="18.76" height="3.25"/><polygon class="d" points="265.35 256.34 266.96 253.11 263.73 253.11 265.35 256.34"/><line class="d" x1="265.35" y1="253.11" x2="265.35" y2="193.82"/><polyline class="d" points="88.1 175.81 88.1 102.08 144.92 102.08"/><rect class="d" x="136.32" y="359.72" width="18.93" height="11.28" transform="translate(511.14 219.57) rotate(90)"/><rect class="d" x="80.26" y="363.73" width="18.93" height="3.25" transform="translate(455.08 275.63) rotate(90)"/><rect class="d" x="83.51" y="363.73" width="18.93" height="3.25" transform="translate(458.33 272.38) rotate(90)"/><rect class="d" x="86.76" y="363.73" width="18.93" height="3.25" transform="translate(461.58 269.12) rotate(90)"/><rect class="d" x="90.02" y="363.73" width="18.93" height="3.25" transform="translate(464.84 265.87) rotate(90)"/><rect class="d" x="93.27" y="363.73" width="18.93" height="3.25" transform="translate(468.09 262.62) rotate(90)"/><rect class="d" x="96.52" y="363.73" width="18.93" height="3.25" transform="translate(471.34 259.36) rotate(90)"/><rect class="d" x="99.78" y="363.73" width="18.93" height="3.25" transform="translate(474.6 256.11) rotate(90)"/><rect class="d" x="103.03" y="363.73" width="18.93" height="3.25" transform="translate(477.85 252.86) rotate(90)"/><rect class="d" x="106.28" y="363.73" width="18.93" height="3.25" transform="translate(481.1 249.61) rotate(90)"/><rect class="d" x="109.53" y="363.73" width="18.93" height="3.25" transform="translate(484.35 246.35) rotate(90)"/><rect class="d" x="112.79" y="363.73" width="18.93" height="3.25" transform="translate(487.61 243.1) rotate(90)"/><rect class="d" x="116.04" y="363.73" width="18.93" height="3.25" transform="translate(490.86 239.85) rotate(90)"/><rect class="d" x="119.29" y="363.73" width="18.93" height="3.25" transform="translate(494.11 236.6) rotate(90)"/><rect class="d" x="122.54" y="363.73" width="18.93" height="3.25" transform="translate(497.36 233.34) rotate(90)"/><rect class="d" x="125.8" y="363.73" width="18.93" height="3.25" transform="translate(500.62 230.09) rotate(90)"/><rect class="d" x="129.05" y="363.73" width="18.93" height="3.25" transform="translate(503.87 226.84) rotate(90)"/><polygon class="d" points="81.01 365.2 84.23 366.82 84.23 363.59 81.01 365.2"/><line class="d" x1="84.23" y1="365.05" x2="145.69" y2="365.05"/><polygon class="d" points="284.77 186.54 284.77 199.58 275.03 199.58 275.03 261.38 340.73 261.38 340.73 186.54 284.77 186.54"/></g><g id="b"><path d="M178.29,78.55l.41-.41.73.73.36.43h.03s-.05-.83-.05-.83v-2.87h.58v2.87l-.05.82h.03s.36-.42.36-.42l.73-.73.41.41-1.77,1.77-1.77-1.77ZM184.45,77.29l-.41.41-.73-.73-.36-.43h-.03s.05.83.05.83v2.87h-.58v-2.87l.05-.82h-.03s-.36.42-.36.42l-.73.73-.41-.41,1.77-1.77,1.77,1.77Z"/><path d="M178.29,78.55l.41-.41.73.73.36.43h.03s-.05-.83-.05-.83v-2.87h.58v2.87l-.05.82h.03s.36-.42.36-.42l.73-.73.41.41-1.77,1.77-1.77-1.77ZM184.45,77.29l-.41.41-.73-.73-.36-.43h-.03s.05.83.05.83v2.87h-.58v-2.87l.05-.82h-.03s-.36.42-.36.42l-.73.73-.41-.41,1.77-1.77,1.77,1.77Z"/><rect class="c" x="256.26" y="9.76" width="84.46" height="58.54"/><path d="M286.54,37.12h-.08v6.88h-.89v-8.16h1.39l2.78,6.88h.08v-6.88h.89v8.16h-1.39l-2.78-6.88Z"/><path d="M292.53,44v-.85h2.34v-6.58h-.08l-2.06,1.92-.57-.62,2.16-2.02h1.53v7.31h2.15v.85h-5.47Z"/><path d="M301.95,44.1c-.32,0-.54-.07-.67-.2-.13-.13-.19-.3-.19-.5v-.21c0-.2.06-.37.19-.5.13-.13.35-.2.67-.2s.54.07.67.2c.13.13.19.3.19.5v.21c0,.2-.06.37-.19.5-.13.13-.35.2-.67.2Z"/><path d="M309.76,44v-1.6h-4.02v-.87l3.53-5.7h1.43v5.75h1.22v.81h-1.22v1.6h-.94ZM306.61,41.59h3.15v-4.99h-.05l-3.1,4.99Z"/><rect class="c" x="284.77" y="102.08" width="55.96" height="84.46"/><path d="M300.79,142.4h-.08v6.88h-.89v-8.16h1.39l2.78,6.88h.08v-6.88h.89v8.16h-1.39l-2.78-6.88Z"/><path d="M306.78,149.28v-.85h2.34v-6.58h-.08l-2.06,1.92-.57-.62,2.16-2.02h1.53v7.31h2.15v.85h-5.47Z"/><path d="M316.2,149.38c-.32,0-.54-.07-.67-.2-.13-.13-.19-.3-.19-.5v-.21c0-.2.06-.37.19-.5.13-.13.35-.2.67-.2s.54.07.67.2c.13.13.19.3.19.5v.21c0,.2-.06.37-.19.5-.13.13-.35.2-.67.2Z"/><path d="M325.45,141.97h-3.65l-.23,3.12h.08c.2-.27.43-.49.68-.65.25-.16.59-.24,1.03-.24.36,0,.69.06.99.17.3.11.56.28.78.5.22.22.39.48.51.79.12.31.19.66.19,1.06s-.06.76-.19,1.09c-.12.33-.31.62-.55.85-.24.24-.53.42-.88.56-.34.13-.73.2-1.17.2-.34,0-.65-.04-.92-.12s-.51-.18-.71-.32c-.21-.13-.39-.28-.54-.45-.16-.16-.3-.33-.42-.51l.74-.56c.11.16.22.31.33.44.11.13.24.25.39.34.15.1.32.17.5.23s.41.08.65.08c.56,0,.99-.15,1.29-.46.3-.3.45-.72.45-1.26v-.09c0-.54-.15-.96-.46-1.26-.3-.3-.74-.46-1.31-.46-.39,0-.69.07-.91.2s-.41.3-.59.49l-.83-.12.29-4.49h4.44v.85Z"/><rect class="c" x="284.77" y="186.54" width="55.96" height="74.78"/><path d="M300.79,222.02h-.08v6.88h-.89v-8.16h1.39l2.78,6.88h.08v-6.88h.89v8.16h-1.39l-2.78-6.88Z"/><path d="M306.78,228.9v-.85h2.34v-6.58h-.08l-2.06,1.92-.57-.62,2.16-2.02h1.53v7.31h2.15v.85h-5.47Z"/><path d="M316.2,229c-.32,0-.54-.07-.67-.2-.13-.13-.19-.3-.19-.5v-.21c0-.2.06-.37.19-.5.13-.13.35-.2.67-.2s.54.07.67.2c.13.13.19.3.19.5v.21c0,.2-.06.37-.19.5-.13.13-.35.2-.67.2Z"/><path d="M323.11,229.04c-.43,0-.81-.07-1.16-.22-.34-.14-.63-.35-.87-.62-.24-.27-.42-.6-.55-.99-.13-.39-.19-.83-.19-1.31,0-.61.09-1.18.27-1.71s.42-1.02.7-1.46.6-.83.95-1.17c.35-.34.69-.61,1.03-.82h1.26c-.44.32-.84.63-1.19.94-.35.3-.65.62-.92.95-.27.33-.49.69-.67,1.06-.18.38-.33.81-.44,1.28l.06.02c.19-.34.45-.61.77-.84.32-.22.73-.33,1.24-.33.36,0,.69.06.98.18.3.12.55.28.77.5.22.22.39.48.51.79.12.31.18.66.18,1.04s-.07.76-.2,1.09-.32.62-.56.85c-.24.24-.53.42-.87.56-.34.13-.72.2-1.13.2ZM323.1,228.21c.56,0,1-.15,1.3-.46.31-.3.46-.73.46-1.29v-.09c0-.55-.15-.98-.46-1.29-.31-.3-.74-.46-1.3-.46s-1,.15-1.3.46c-.31.3-.46.73-.46,1.29v.09c0,.55.15.98.46,1.29.31.3.74.46,1.3.46Z"/><rect class="c" x="284.77" y="68.3" width="55.96" height="33.92"/><path d="M301.73,84.82l-.35-1.16h-1.43l-.35,1.16h-.51l1.25-4.08h.65l1.25,4.08h-.52ZM300.69,81.25h-.05l-.57,1.97h1.2l-.57-1.97Z"/><path d="M302.82,84.41h.88v-2.21h-.88v-.4h1.35v.76h.03c.06-.24.18-.42.35-.56.17-.13.4-.2.66-.2h.42v.47h-.57c-.27,0-.49.08-.65.23-.17.16-.25.36-.25.61v1.3h1.17v.4h-2.52v-.4Z"/><path d="M306.37,80.49h.47v1.8h.02c.19-.37.5-.56.93-.56.37,0,.66.14.87.42.21.28.31.67.31,1.16s-.1.89-.31,1.16c-.21.28-.5.42-.87.42-.42,0-.73-.19-.93-.56h-.02v.49h-.47v-4.33ZM307.61,84.47c.27,0,.48-.08.63-.25.15-.17.23-.38.23-.66v-.51c0-.27-.08-.49-.23-.66-.15-.17-.36-.25-.63-.25-.11,0-.2.01-.3.04s-.18.07-.25.12-.13.12-.17.19c-.04.08-.06.16-.06.27v1.09c0,.1.02.19.06.27.04.08.1.14.17.19s.15.09.25.12.19.04.3.04Z"/><path d="M311.07,84.89c-.22,0-.41-.04-.59-.11s-.32-.18-.44-.32c-.12-.14-.22-.3-.28-.5-.07-.19-.1-.41-.1-.65s.03-.46.1-.66c.07-.19.16-.36.28-.5.12-.14.27-.24.44-.32.17-.07.36-.11.56-.11s.39.04.55.11c.17.07.31.18.42.31.12.13.21.29.27.46.06.18.09.38.09.59v.22h-2.23v.14c0,.13.02.26.06.37s.1.21.18.29c.08.08.18.15.29.19.12.04.24.07.38.07.2,0,.38-.05.53-.14.15-.09.26-.22.34-.39l.34.23c-.09.2-.24.37-.45.5-.21.13-.46.2-.76.2ZM311.05,82.11c-.13,0-.25.02-.36.07-.11.05-.2.11-.28.19-.08.08-.14.18-.19.29s-.07.23-.07.37v.04h1.73v-.06c0-.13-.02-.25-.06-.36-.04-.11-.1-.2-.17-.28-.07-.08-.16-.14-.26-.18-.1-.04-.22-.06-.34-.06Z"/><path d="M313.34,84.41h1.09v-2.21h-1.09v-.4h1.56v2.61h1.02v.4h-2.57v-.4ZM314.66,81.13c-.14,0-.23-.03-.29-.08-.05-.06-.08-.13-.08-.21v-.09c0-.09.03-.16.08-.21.05-.06.15-.08.29-.08s.23.03.29.08c.05.06.08.13.08.21v.09c0,.09-.03.16-.08.21-.05.06-.15.08-.29.08Z"/><path d="M318.07,84.82c-.23,0-.4-.06-.51-.19-.11-.13-.16-.29-.16-.5v-1.93h-1.01v-.4h.75c.1,0,.17-.02.21-.06s.06-.11.06-.21v-.79h.45v1.06h1.37v.4h-1.37v2.21h1.37v.4h-1.18Z"/><path d="M321.41,84.89c-.32,0-.59-.05-.82-.16s-.42-.25-.58-.43l.32-.27c.14.15.3.27.47.35.17.08.38.12.62.12s.43-.04.58-.13c.15-.08.23-.22.23-.39,0-.08-.01-.14-.04-.2s-.07-.09-.12-.13c-.05-.03-.11-.06-.17-.07s-.13-.03-.2-.04l-.47-.07c-.11-.02-.22-.04-.34-.06-.12-.03-.23-.07-.34-.13-.1-.06-.19-.14-.25-.24-.07-.1-.1-.23-.1-.4,0-.15.03-.28.09-.39.06-.11.15-.21.25-.28.11-.08.24-.13.39-.17.15-.04.31-.06.49-.06.27,0,.51.04.71.13s.37.2.52.36l-.3.29s-.08-.09-.13-.13-.12-.09-.19-.12c-.08-.04-.17-.07-.27-.09-.1-.02-.22-.04-.35-.04-.24,0-.42.04-.55.12-.13.08-.19.2-.19.36,0,.08.01.14.04.2s.07.09.12.13.11.06.17.07c.06.02.13.03.2.04l.47.07c.11.02.22.04.35.06.12.03.23.07.33.13.1.06.19.14.25.24.07.1.1.23.1.4,0,.3-.12.53-.35.7-.23.16-.54.25-.93.25Z"/><path d="M323.98,83.28v-.49h1.7v.49h-1.7Z"/><path d="M306.27,90.26h.88v-2.21h-.88v-.4h1.35v.76h.03c.06-.24.18-.42.35-.56.17-.13.4-.2.66-.2h.42v.47h-.57c-.27,0-.49.08-.65.23-.17.16-.25.36-.25.61v1.3h1.17v.4h-2.52v-.4Z"/><path d="M312.16,90.66c-.18,0-.31-.05-.39-.14s-.13-.21-.15-.35h-.03c-.07.18-.17.31-.32.41-.15.1-.34.15-.59.15-.32,0-.57-.08-.75-.25-.19-.16-.28-.39-.28-.67s.1-.5.31-.65.54-.23.99-.23h.64v-.3c0-.22-.06-.39-.19-.5-.12-.11-.3-.17-.53-.17-.2,0-.37.04-.5.12-.13.08-.23.19-.31.32l-.32-.23c.04-.08.09-.15.16-.23.07-.07.15-.14.25-.2.1-.06.21-.1.33-.14.12-.03.26-.05.42-.05.35,0,.64.09.84.27s.31.43.31.75v1.67h.42v.4h-.32ZM310.77,90.34c.12,0,.23-.01.33-.04.1-.03.19-.07.26-.12.07-.05.13-.11.17-.18s.06-.14.06-.22v-.5h-.64c-.28,0-.49.04-.61.12-.13.08-.19.19-.19.34v.12c0,.16.06.27.17.35.11.08.26.12.46.12Z"/><path d="M315.19,90.17h-.02c-.03.07-.07.15-.12.21-.05.07-.1.13-.17.18-.07.05-.15.09-.24.12-.09.03-.2.05-.33.05-.32,0-.57-.1-.76-.3-.19-.2-.29-.48-.29-.85v-1.94h.47v1.85c0,.28.06.48.18.62.12.13.3.2.53.2.09,0,.19-.01.27-.04s.17-.06.24-.11c.07-.05.13-.11.17-.18.04-.07.06-.16.06-.26v-2.09h.47v3.02h-.47v-.49Z"/><path d="M316.48,90.66v-3.02h.43v.35h.02c.05-.12.11-.22.2-.3s.21-.12.38-.12.31.04.39.13.14.2.16.34h.02c.05-.14.13-.25.23-.34.1-.09.24-.13.42-.13.25,0,.41.09.49.26.08.17.13.42.13.74v2.09h-.43v-2.02c0-.26-.03-.44-.08-.54-.05-.1-.15-.15-.29-.15-.12,0-.23.04-.3.12-.08.08-.12.2-.12.37v2.22h-.43v-2.02c0-.26-.03-.44-.08-.54s-.15-.15-.28-.15c-.12,0-.23.04-.31.12-.08.08-.12.2-.12.37v2.22h-.43Z"/><rect class="c" x="171.8" y="9.76" width="84.46" height="58.54"/><path d="M202.08,37.12h-.08v6.88h-.89v-8.16h1.39l2.78,6.88h.08v-6.88h.89v8.16h-1.39l-2.78-6.88Z"/><path d="M208.07,44v-.85h2.34v-6.58h-.08l-2.06,1.92-.57-.62,2.16-2.02h1.53v7.31h2.15v.85h-5.47Z"/><path d="M217.48,44.1c-.32,0-.54-.07-.67-.2-.13-.13-.19-.3-.19-.5v-.21c0-.2.06-.37.19-.5.13-.13.35-.2.67-.2s.54.07.67.2c.13.13.19.3.19.5v.21c0,.2-.06.37-.19.5-.13.13-.35.2-.67.2Z"/><path d="M224.03,39.28c.57,0,1-.13,1.28-.38.28-.25.43-.58.43-.97v-.08c0-.43-.14-.76-.42-.98-.28-.22-.64-.33-1.08-.33s-.79.09-1.06.29-.49.44-.66.75l-.74-.56c.1-.16.23-.33.37-.49.15-.16.32-.3.52-.43.2-.12.43-.23.69-.3s.56-.12.9-.12.68.04.98.13.57.22.8.4c.23.18.4.39.53.65.13.26.19.55.19.88,0,.26-.04.5-.12.71-.08.21-.19.39-.34.55-.14.16-.31.29-.51.4-.2.11-.4.19-.62.25v.05c.23.05.44.12.66.23.21.11.4.24.56.41.16.17.29.37.39.61.1.24.15.51.15.81,0,.35-.07.67-.2.97-.14.29-.33.54-.57.75s-.54.37-.89.49c-.35.12-.73.18-1.15.18-.36,0-.68-.04-.95-.12s-.52-.18-.74-.32c-.21-.13-.4-.28-.56-.45-.16-.16-.3-.33-.43-.51l.74-.56c.11.16.22.31.34.44.12.13.25.25.4.34s.33.17.52.23.42.08.68.08c.58,0,1.02-.13,1.33-.4.31-.26.46-.64.46-1.13v-.09c0-.48-.15-.86-.45-1.12-.3-.27-.75-.4-1.35-.4h-.97v-.85h.9Z"/><rect class="c" x="88.1" y="102.08" width="56.82" height="73.72"/><path d="M104.56,125.34h-.08v6.88h-.89v-8.16h1.39l2.78,6.88h.08v-6.88h.89v8.16h-1.39l-2.78-6.88Z"/><path d="M110.54,132.21v-.85h2.34v-6.58h-.08l-2.06,1.92-.57-.62,2.16-2.02h1.53v7.31h2.15v.85h-5.47Z"/><path d="M119.96,132.32c-.32,0-.54-.07-.67-.2-.13-.13-.19-.3-.19-.5v-.21c0-.2.06-.37.19-.5.13-.13.35-.2.67-.2s.54.07.67.2c.13.13.19.3.19.5v.21c0,.2-.06.37-.19.5-.13.13-.35.2-.67.2Z"/><path d="M129.63,132.21h-5.45v-1.01l2.73-2.46c.4-.36.73-.73.98-1.11s.39-.78.39-1.2v-.14c0-.49-.13-.87-.39-1.14-.26-.27-.64-.4-1.15-.4s-.88.13-1.15.38c-.27.25-.47.59-.6,1.01l-.88-.33c.08-.24.19-.48.32-.71.14-.23.31-.43.52-.61.21-.18.47-.32.77-.43.3-.11.65-.16,1.05-.16s.77.06,1.08.18c.32.12.58.28.8.49s.38.46.49.75c.11.29.17.6.17.95,0,.31-.04.6-.13.88-.09.27-.21.53-.37.78-.16.25-.35.49-.57.73s-.47.47-.74.71l-2.28,1.99h4.43v.85Z"/><path d="M107.2,143.91v-1.42h2.2v-5.47h-.11l-1.66,2.17-1.12-.88,1.95-2.57h2.69v6.75h1.73v1.42h-5.68Z"/><path d="M116.51,144.05c-1.09,0-1.9-.37-2.42-1.11-.52-.74-.78-1.78-.78-3.11s.26-2.37.78-3.11c.52-.74,1.32-1.11,2.42-1.11s1.9.37,2.42,1.11c.52.74.78,1.78.78,3.11s-.26,2.37-.78,3.11-1.32,1.11-2.42,1.11ZM116.51,142.67c.52,0,.89-.18,1.09-.55.21-.37.31-.88.31-1.53v-1.52c0-.65-.1-1.17-.31-1.53-.21-.37-.57-.55-1.09-.55s-.89.18-1.09.55c-.21.37-.31.88-.31,1.53v1.52c0,.65.1,1.17.31,1.53.21.37.57.55,1.09.55ZM116.51,140.52c-.27,0-.46-.05-.57-.16-.1-.11-.16-.24-.16-.4v-.26c0-.16.05-.29.16-.4.11-.11.29-.16.57-.16s.46.05.57.16.16.24.16.4v.26c0,.16-.05.29-.16.4s-.29.16-.57.16Z"/><path d="M124.5,142.8h-.08c-.16.37-.37.67-.65.9-.28.23-.66.35-1.14.35-.33,0-.64-.06-.92-.19s-.51-.32-.71-.57c-.2-.26-.35-.58-.47-.98-.11-.4-.17-.87-.17-1.42s.06-1.02.17-1.42c.11-.4.27-.73.47-.98.2-.26.44-.45.71-.57s.58-.19.92-.19c.24,0,.46.03.64.09.19.06.35.15.5.26.14.11.27.24.37.39.11.15.2.32.27.5h.08v-3.73h1.73v8.66h-1.73v-1.11ZM123.38,142.69c.3,0,.57-.07.79-.22.22-.15.33-.38.33-.7v-1.77c0-.32-.11-.55-.33-.7-.22-.15-.49-.22-.79-.22-.39,0-.69.12-.9.36-.21.24-.32.56-.32.98v.93c0,.42.11.75.32.98.21.24.51.35.9.35Z"/><path d="M104.69,151.97c0-.57.06-1.12.19-1.64.13-.53.3-1.02.53-1.47s.48-.86.78-1.22c.3-.36.61-.67.94-.92h1.73c-.37.25-.71.54-1.04.87-.33.33-.61.7-.86,1.09-.25.4-.44.82-.59,1.27-.15.45-.22.92-.22,1.42v1.19c0,.49.07.96.22,1.42.15.45.35.88.59,1.28.25.4.53.76.86,1.09.33.33.67.62,1.04.87h-1.73c-.33-.24-.64-.55-.94-.91-.3-.37-.56-.78-.78-1.23s-.4-.94-.53-1.47c-.13-.53-.19-1.07-.19-1.64Z"/><path d="M110.3,147.44h2.63c1.1,0,1.91.35,2.44,1.05s.8,1.71.8,3.03-.27,2.33-.8,3.03-1.35,1.05-2.44,1.05h-2.63v-8.16ZM112.81,154.23c.52,0,.9-.17,1.15-.5.24-.34.36-.82.36-1.46v-1.49c0-.63-.12-1.11-.36-1.45-.24-.33-.62-.5-1.15-.5h-.78v5.4h.78Z"/><path d="M117.08,155.61l-.5-8.16h1.51l.23,4.89.07,1.54h.11l.7-4.65h1.58l.7,4.65h.11l.07-1.5.23-4.94h1.45l-.5,8.16h-2.22l-.6-4.5h-.12l-.6,4.5h-2.22Z"/><path d="M128.33,151.97c0,.57-.06,1.12-.19,1.64-.13.53-.3,1.02-.53,1.47s-.48.86-.78,1.23c-.3.37-.61.67-.94.91h-1.73c.36-.25.7-.54,1.04-.87.33-.33.62-.7.87-1.09.25-.4.44-.82.59-1.28.15-.45.22-.92.22-1.42v-1.19c0-.49-.07-.96-.22-1.42-.15-.45-.35-.88-.59-1.27-.25-.4-.53-.76-.87-1.09-.33-.33-.68-.62-1.04-.87h1.73c.33.25.64.56.94.92.3.36.56.77.78,1.22s.4.94.53,1.47c.13.53.19,1.07.19,1.64Z"/><rect class="c" x="87.16" y="230.97" width="69.68" height="82.07"/><path d="M110.04,258.39h-.08v6.88h-.89v-8.16h1.39l2.78,6.88h.08v-6.88h.89v8.16h-1.39l-2.78-6.88Z"/><path d="M116.03,265.27v-.85h2.34v-6.58h-.08l-2.06,1.92-.57-.62,2.16-2.02h1.53v7.31h2.15v.85h-5.47Z"/><path d="M125.45,265.38c-.32,0-.54-.07-.67-.2-.13-.13-.19-.3-.19-.5v-.21c0-.2.06-.37.19-.5.13-.13.35-.2.67-.2s.54.07.67.2c.13.13.19.3.19.5v.21c0,.2-.06.37-.19.5-.13.13-.35.2-.67.2Z"/><path d="M129.83,265.27v-.85h2.34v-6.58h-.08l-2.06,1.92-.57-.62,2.16-2.02h1.53v7.31h2.15v.85h-5.47Z"/><path d="M112.69,276.97v-1.42h2.2v-5.47h-.11l-1.66,2.17-1.12-.88,1.95-2.57h2.69v6.75h1.73v1.42h-5.68Z"/><path d="M121.99,277.11c-1.09,0-1.9-.37-2.42-1.11-.52-.74-.78-1.78-.78-3.11s.26-2.37.78-3.11c.52-.74,1.32-1.11,2.42-1.11s1.9.37,2.42,1.11c.52.74.78,1.78.78,3.11s-.26,2.37-.78,3.11-1.32,1.11-2.42,1.11ZM121.99,275.73c.52,0,.89-.18,1.09-.55.21-.37.31-.88.31-1.53v-1.52c0-.65-.1-1.17-.31-1.53-.21-.37-.57-.55-1.09-.55s-.89.18-1.09.55c-.21.37-.31.88-.31,1.53v1.52c0,.65.1,1.17.31,1.53.21.37.57.55,1.09.55ZM121.99,273.58c-.27,0-.46-.05-.57-.16-.1-.11-.16-.24-.16-.4v-.26c0-.16.05-.29.16-.4.11-.11.29-.16.57-.16s.46.05.57.16.16.24.16.4v.26c0,.16-.05.29-.16.4s-.29.16-.57.16Z"/><path d="M129.14,277.11c-.48,0-.9-.07-1.28-.22-.38-.14-.7-.35-.96-.63-.26-.27-.46-.6-.6-.99-.14-.39-.21-.83-.21-1.32s.07-.93.21-1.32c.14-.39.34-.72.6-1,.26-.27.58-.48.96-.62.38-.14.8-.22,1.27-.22.66,0,1.19.13,1.6.4.4.27.71.63.92,1.07l-1.33.73c-.11-.23-.25-.43-.43-.58-.18-.16-.43-.23-.75-.23-.4,0-.7.12-.92.35-.21.23-.32.54-.32.94v.98c0,.4.11.71.32.94.21.23.53.34.94.34.34,0,.6-.08.79-.23s.35-.36.49-.61l1.31.75c-.22.44-.54.8-.95,1.07-.42.27-.96.4-1.64.4Z"/><path d="M110.17,285.03c0-.57.06-1.12.19-1.64.13-.53.3-1.02.53-1.47s.48-.86.78-1.22c.3-.36.61-.67.94-.92h1.73c-.37.25-.71.54-1.04.87-.33.33-.61.7-.86,1.09-.25.4-.44.82-.59,1.27-.15.45-.22.92-.22,1.42v1.19c0,.49.07.96.22,1.42.15.45.35.88.59,1.28.25.4.53.76.86,1.09.33.33.67.62,1.04.87h-1.73c-.33-.24-.64-.55-.94-.91-.3-.37-.56-.78-.78-1.23s-.4-.94-.53-1.47c-.13-.53-.19-1.07-.19-1.64Z"/><path d="M116.11,288.66v-8.16h1.77v6.73h3.51v1.44h-5.27Z"/><path d="M122.7,288.66v-6.04h1.73v1.1h.07c.07-.17.16-.33.26-.48.1-.15.22-.28.37-.39.14-.11.31-.2.5-.27.19-.07.41-.1.65-.1.29,0,.55.05.8.15s.45.24.62.44c.17.2.31.43.4.71.1.28.15.6.15.97v3.91h-1.73v-3.67c0-.78-.34-1.17-1.02-1.17-.13,0-.26.02-.39.05-.13.04-.24.09-.35.16-.1.07-.18.17-.24.28-.06.11-.09.24-.09.39v3.96h-1.73Z"/><path d="M133.82,285.03c0,.57-.06,1.12-.19,1.64-.13.53-.3,1.02-.53,1.47s-.48.86-.78,1.23c-.3.37-.61.67-.94.91h-1.73c.36-.25.7-.54,1.04-.87.33-.33.62-.7.87-1.09.25-.4.44-.82.59-1.28.15-.45.22-.92.22-1.42v-1.19c0-.49-.07-.96-.22-1.42-.15-.45-.35-.88-.59-1.27-.25-.4-.53-.76-.87-1.09-.33-.33-.68-.62-1.04-.87h1.73c.33.25.64.56.94.92.3.36.56.77.78,1.22s.4.94.53,1.47c.13.53.19,1.07.19,1.64Z"/><rect class="c" x="88.92" y="175.81" width="62.87" height="26.93"/><path d="M107.35,189.9h-1.59v1.85h-.49v-4.08h.49v1.8h1.59v-1.8h.49v4.08h-.49v-1.85Z"/><path d="M110.06,191.83c-.22,0-.41-.04-.59-.11s-.32-.18-.44-.32c-.12-.14-.22-.3-.28-.5-.07-.19-.1-.41-.1-.65s.03-.46.1-.66c.07-.19.16-.36.28-.5.12-.14.27-.24.44-.32.17-.07.36-.11.56-.11s.39.04.55.11c.17.07.31.18.42.31.12.13.21.29.27.46.06.18.09.38.09.59v.22h-2.23v.14c0,.13.02.26.06.37s.1.21.18.29c.08.08.18.15.29.19.12.04.24.07.38.07.2,0,.38-.05.53-.14.15-.09.26-.22.34-.39l.34.23c-.09.2-.24.37-.45.5-.21.13-.46.2-.76.2ZM110.03,189.05c-.13,0-.25.02-.36.07-.11.05-.2.11-.28.19-.08.08-.14.18-.19.29s-.07.23-.07.37v.04h1.73v-.06c0-.13-.02-.25-.06-.36-.04-.11-.1-.2-.17-.28-.07-.08-.16-.14-.26-.18-.1-.04-.22-.06-.34-.06Z"/><path d="M112.15,191.35h.88v-2.21h-.88v-.4h1.35v.76h.03c.06-.24.18-.42.35-.56.17-.13.4-.2.66-.2h.42v.47h-.57c-.27,0-.49.08-.65.23-.17.16-.25.36-.25.61v1.3h1.17v.4h-2.52v-.4Z"/><path d="M115.6,191.35h.88v-2.21h-.88v-.4h1.35v.76h.03c.06-.24.18-.42.35-.56.17-.13.4-.2.66-.2h.42v.47h-.57c-.27,0-.49.08-.65.23-.17.16-.25.36-.25.61v1.3h1.17v.4h-2.52v-.4Z"/><path d="M120.41,191.83c-.22,0-.41-.04-.59-.11s-.32-.18-.44-.32c-.12-.14-.22-.3-.28-.5-.07-.19-.1-.41-.1-.65s.03-.46.1-.66c.07-.19.16-.36.28-.5.12-.14.27-.24.44-.32.17-.07.36-.11.56-.11s.39.04.55.11c.17.07.31.18.42.31.12.13.21.29.27.46.06.18.09.38.09.59v.22h-2.23v.14c0,.13.02.26.06.37s.1.21.18.29c.08.08.18.15.29.19.12.04.24.07.38.07.2,0,.38-.05.53-.14.15-.09.26-.22.34-.39l.34.23c-.09.2-.24.37-.45.5-.21.13-.46.2-.76.2ZM120.38,189.05c-.13,0-.25.02-.36.07-.11.05-.2.11-.28.19-.08.08-.14.18-.19.29s-.07.23-.07.37v.04h1.73v-.06c0-.13-.02-.25-.06-.36-.04-.11-.1-.2-.17-.28-.07-.08-.16-.14-.26-.18-.1-.04-.22-.06-.34-.06Z"/><path d="M122.63,191.75v-3.02h.47v.49h.02c.03-.07.07-.15.12-.21.05-.07.1-.13.17-.18.07-.05.15-.09.24-.12.09-.03.2-.05.33-.05.32,0,.57.1.76.3.19.2.29.49.29.85v1.94h-.47v-1.85c0-.28-.06-.48-.18-.62-.12-.13-.3-.2-.53-.2-.09,0-.19.01-.27.04s-.17.06-.24.11-.13.11-.17.18c-.04.07-.06.16-.06.26v2.09h-.47Z"/><path d="M126.41,190.22v-.49h1.7v.49h-1.7Z"/><path d="M129.48,191.75l-.32-4.08h.44l.17,2.34.09,1.23h.05l.54-2.51h.55l.54,2.51h.05l.09-1.23.17-2.34h.43l-.32,4.08h-.71l-.5-2.44h-.05l-.5,2.44h-.71Z"/><path d="M134.29,191.83c-.5,0-.87-.18-1.11-.54s-.37-.88-.37-1.57.12-1.21.37-1.57.61-.54,1.11-.54c.19,0,.35.03.49.08.14.05.25.12.35.21.1.08.18.18.25.29s.12.22.18.32l-.42.19c-.04-.09-.08-.17-.12-.25-.05-.08-.1-.15-.17-.21-.06-.06-.14-.11-.23-.14-.09-.04-.19-.05-.32-.05-.32,0-.56.12-.72.37-.16.25-.24.57-.24.98v.67c0,.41.08.74.24.98.16.25.4.37.72.37.12,0,.23-.02.32-.05.09-.04.16-.08.23-.14.06-.06.12-.13.17-.21.05-.08.09-.16.12-.25l.42.19c-.05.11-.11.22-.18.33s-.15.2-.25.29c-.1.09-.21.15-.35.21-.14.05-.3.08-.49.08Z"/><rect class="c" x="88.13" y="202.74" width="66.18" height="28.23"/><path d="M107.95,215.25h1.14c.5,0,.87.17,1.12.51s.37.85.37,1.53-.12,1.18-.37,1.53-.62.51-1.12.51h-1.14v-4.08ZM109.06,218.91c.33,0,.57-.11.74-.34.17-.23.25-.55.25-.96v-.63c0-.41-.08-.73-.25-.96-.17-.23-.41-.34-.74-.34h-.63v3.23h.63Z"/><path d="M113.74,219.34c-.18,0-.31-.05-.39-.14s-.13-.21-.15-.35h-.03c-.07.18-.17.31-.32.41-.15.1-.34.15-.59.15-.32,0-.57-.08-.75-.25-.19-.16-.28-.39-.28-.67s.1-.5.31-.65.54-.23.99-.23h.64v-.3c0-.22-.06-.39-.19-.5-.12-.11-.3-.17-.53-.17-.2,0-.37.04-.5.12-.13.08-.23.19-.31.32l-.32-.23c.04-.08.09-.15.16-.23.07-.07.15-.14.25-.2.1-.06.21-.1.33-.14.12-.03.26-.05.42-.05.35,0,.64.09.84.27s.31.43.31.75v1.67h.42v.4h-.32ZM112.35,219.01c.12,0,.23-.01.33-.04.1-.03.19-.07.26-.12.07-.05.13-.11.17-.18s.06-.14.06-.22v-.5h-.64c-.28,0-.49.04-.61.12-.13.08-.19.19-.19.34v.12c0,.16.06.27.17.35.11.08.26.12.46.12Z"/><path d="M114.61,219.34v-3.02h.43v.35h.02c.05-.12.11-.22.2-.3s.21-.12.38-.12.31.04.39.13.14.2.16.34h.02c.05-.14.13-.25.23-.34.1-.09.24-.13.42-.13.25,0,.41.09.49.26.08.17.13.42.13.74v2.09h-.43v-2.02c0-.26-.03-.44-.08-.54-.05-.1-.15-.15-.29-.15-.12,0-.23.04-.3.12-.08.08-.12.2-.12.37v2.22h-.43v-2.02c0-.26-.03-.44-.08-.54s-.15-.15-.28-.15c-.12,0-.23.04-.31.12-.08.08-.12.2-.12.37v2.22h-.43Z"/><path d="M119.55,219.41c-.22,0-.41-.04-.59-.11s-.32-.18-.44-.32c-.12-.14-.22-.3-.28-.5-.07-.19-.1-.41-.1-.65s.03-.46.1-.66c.07-.19.16-.36.28-.5.12-.14.27-.24.44-.32.17-.07.36-.11.56-.11s.39.04.55.11c.17.07.31.18.42.31.12.13.21.29.27.46.06.18.09.38.09.59v.22h-2.23v.14c0,.13.02.26.06.37s.1.21.18.29c.08.08.18.15.29.19.12.04.24.07.38.07.2,0,.38-.05.53-.14.15-.09.26-.22.34-.39l.34.23c-.09.2-.24.37-.45.5-.21.13-.46.2-.76.2ZM119.52,216.63c-.13,0-.25.02-.36.07-.11.05-.2.11-.28.19-.08.08-.14.18-.19.29s-.07.23-.07.37v.04h1.73v-.06c0-.13-.02-.25-.06-.36-.04-.11-.1-.2-.17-.28-.07-.08-.16-.14-.26-.18-.1-.04-.22-.06-.34-.06Z"/><path d="M121.77,219.34v-3.02h.47v.49h.02c.03-.07.07-.15.12-.21.05-.07.1-.13.17-.18.07-.05.15-.09.24-.12.09-.03.2-.05.33-.05.32,0,.57.1.76.3.19.2.29.49.29.85v1.94h-.47v-1.85c0-.28-.06-.48-.18-.62-.12-.13-.3-.2-.53-.2-.09,0-.19.01-.27.04s-.17.06-.24.11-.13.11-.17.18c-.04.07-.06.16-.06.26v2.09h-.47Z"/><path d="M125.55,217.8v-.49h1.7v.49h-1.7Z"/><path d="M128.62,219.34l-.32-4.08h.44l.17,2.34.09,1.23h.05l.54-2.51h.55l.54,2.51h.05l.09-1.23.17-2.34h.43l-.32,4.08h-.71l-.5-2.44h-.05l-.5,2.44h-.71Z"/><path d="M133.43,219.41c-.5,0-.87-.18-1.11-.54s-.37-.88-.37-1.57.12-1.21.37-1.57.61-.54,1.11-.54c.19,0,.35.03.49.08.14.05.25.12.35.21.1.08.18.18.25.29s.12.22.18.32l-.42.19c-.04-.09-.08-.17-.12-.25-.05-.08-.1-.15-.17-.21-.06-.06-.14-.11-.23-.14-.09-.04-.19-.05-.32-.05-.32,0-.56.12-.72.37-.16.25-.24.57-.24.98v.67c0,.41.08.74.24.98.16.25.4.37.72.37.12,0,.23-.02.32-.05.09-.04.16-.08.23-.14.06-.06.12-.13.17-.21.05-.08.09-.16.12-.25l.42.19c-.05.11-.11.22-.18.33s-.15.2-.25.29c-.1.09-.21.15-.35.21-.14.05-.3.08-.49.08Z"/><rect class="c" x="126.87" y="313.04" width="37.6" height="30.5"/><path d="M136.11,325.99h-1.59v1.85h-.49v-4.08h.49v1.8h1.59v-1.8h.49v4.08h-.49v-1.85Z"/><path d="M138.82,327.91c-.22,0-.41-.04-.59-.11s-.32-.18-.44-.32c-.12-.14-.22-.3-.28-.5-.07-.19-.1-.41-.1-.65s.03-.46.1-.66c.07-.19.16-.36.28-.5.12-.14.27-.24.44-.32.17-.07.36-.11.56-.11s.39.04.55.11c.17.07.31.18.42.31.12.13.21.29.27.46.06.18.09.38.09.59v.22h-2.23v.14c0,.13.02.26.06.37s.1.21.18.29c.08.08.18.15.29.19.12.04.24.07.38.07.2,0,.38-.05.53-.14.15-.09.26-.22.34-.39l.34.23c-.09.2-.24.37-.45.5-.21.13-.46.2-.76.2ZM138.79,325.14c-.13,0-.25.02-.36.07-.11.05-.2.11-.28.19-.08.08-.14.18-.19.29s-.07.23-.07.37v.04h1.73v-.06c0-.13-.02-.25-.06-.36-.04-.11-.1-.2-.17-.28-.07-.08-.16-.14-.26-.18-.1-.04-.22-.06-.34-.06Z"/><path d="M140.91,327.44h.88v-2.21h-.88v-.4h1.35v.76h.03c.06-.24.18-.42.35-.56.17-.13.4-.2.66-.2h.42v.47h-.57c-.27,0-.49.08-.65.23-.17.16-.25.36-.25.61v1.3h1.17v.4h-2.52v-.4Z"/><path d="M144.36,327.44h.88v-2.21h-.88v-.4h1.35v.76h.03c.06-.24.18-.42.35-.56.17-.13.4-.2.66-.2h.42v.47h-.57c-.27,0-.49.08-.65.23-.17.16-.25.36-.25.61v1.3h1.17v.4h-2.52v-.4Z"/><path d="M149.17,327.91c-.22,0-.41-.04-.59-.11s-.32-.18-.44-.32c-.12-.14-.22-.3-.28-.5-.07-.19-.1-.41-.1-.65s.03-.46.1-.66c.07-.19.16-.36.28-.5.12-.14.27-.24.44-.32.17-.07.36-.11.56-.11s.39.04.55.11c.17.07.31.18.42.31.12.13.21.29.27.46.06.18.09.38.09.59v.22h-2.23v.14c0,.13.02.26.06.37s.1.21.18.29c.08.08.18.15.29.19.12.04.24.07.38.07.2,0,.38-.05.53-.14.15-.09.26-.22.34-.39l.34.23c-.09.2-.24.37-.45.5-.21.13-.46.2-.76.2ZM149.14,325.14c-.13,0-.25.02-.36.07-.11.05-.2.11-.28.19-.08.08-.14.18-.19.29s-.07.23-.07.37v.04h1.73v-.06c0-.13-.02-.25-.06-.36-.04-.11-.1-.2-.17-.28-.07-.08-.16-.14-.26-.18-.1-.04-.22-.06-.34-.06Z"/><path d="M151.38,327.84v-3.02h.47v.49h.02c.03-.07.07-.15.12-.21.05-.07.1-.13.17-.18.07-.05.15-.09.24-.12.09-.03.2-.05.33-.05.32,0,.57.1.76.3.19.2.29.49.29.85v1.94h-.47v-1.85c0-.28-.06-.48-.18-.62-.12-.13-.3-.2-.53-.2-.09,0-.19.01-.27.04s-.17.06-.24.11-.13.11-.17.18c-.04.07-.06.16-.06.26v2.09h-.47Z"/><path d="M155.17,326.31v-.49h1.7v.49h-1.7Z"/><path d="M142.71,333.69l-.32-4.08h.44l.17,2.34.09,1.23h.05l.54-2.51h.55l.54,2.51h.05l.09-1.23.17-2.34h.43l-.32,4.08h-.71l-.5-2.44h-.05l-.5,2.44h-.71Z"/><path d="M147.53,333.76c-.5,0-.87-.18-1.11-.54s-.37-.88-.37-1.57.12-1.21.37-1.57.61-.54,1.11-.54c.19,0,.35.03.49.08.14.05.25.12.35.21.1.08.18.18.25.29s.12.22.18.32l-.42.19c-.04-.09-.08-.17-.12-.25-.05-.08-.1-.15-.17-.21-.06-.06-.14-.11-.23-.14-.09-.04-.19-.05-.32-.05-.32,0-.56.12-.72.37-.16.25-.24.57-.24.98v.67c0,.41.08.74.24.98.16.25.4.37.72.37.12,0,.23-.02.32-.05.09-.04.16-.08.23-.14.06-.06.12-.13.17-.21.05-.08.09-.16.12-.25l.42.19c-.05.11-.11.22-.18.33s-.15.2-.25.29c-.1.09-.21.15-.35.21-.14.05-.3.08-.49.08Z"/><rect class="c" x="103.63" y="313.04" width="23.23" height="30.5"/><path d="M105.22,317.67h.87v1.87h.04c.07-.18.18-.33.32-.45.14-.12.33-.18.57-.18.17,0,.32.03.46.09.14.06.26.16.36.29.1.13.18.29.23.49.06.2.08.44.08.71s-.03.51-.08.71c-.06.2-.13.36-.23.49-.1.13-.22.22-.36.29-.14.06-.29.09-.46.09-.24,0-.43-.06-.57-.17-.14-.12-.25-.27-.32-.45h-.04v.55h-.87v-4.33ZM106.64,321.38c.19,0,.35-.06.45-.18.11-.12.16-.28.16-.49v-.46c0-.21-.05-.37-.16-.49-.1-.12-.26-.18-.45-.18-.15,0-.28.04-.39.11-.11.07-.17.19-.17.35v.88c0,.16.06.28.17.35.11.07.24.11.39.11Z"/><path d="M111.17,321.99c-.18,0-.32-.05-.43-.14-.11-.09-.17-.22-.19-.39h-.03c-.05.2-.16.35-.32.45-.16.1-.36.15-.59.15-.29,0-.53-.08-.7-.24-.18-.16-.27-.38-.27-.66,0-.32.11-.55.34-.7s.57-.23,1.01-.23h.49v-.15c0-.18-.04-.32-.13-.41-.08-.09-.23-.14-.42-.14-.18,0-.33.04-.44.11-.11.07-.21.16-.29.27l-.47-.42c.1-.17.26-.31.48-.42.22-.11.49-.17.83-.17.41,0,.74.09.97.28.23.19.35.48.35.86v1.32h.33v.63h-.5ZM109.92,321.5c.15,0,.28-.04.39-.11.11-.07.16-.18.16-.32v-.36h-.46c-.35,0-.53.12-.53.36v.12c0,.1.04.18.12.24s.19.08.33.08Z"/><path d="M112.2,321.31h.7v-1.66h-.7v-.68h1.56v.85h.04c.03-.11.07-.21.11-.32.05-.1.11-.2.19-.28.08-.08.17-.14.28-.19.11-.05.24-.07.39-.07h.29v.79h-.64c-.21,0-.38.06-.49.19-.11.13-.16.28-.16.46v.89h.99v.68h-2.56v-.68Z"/><path d="M115.65,321.31h.7v-1.66h-.7v-.68h1.56v.85h.04c.03-.11.07-.21.11-.32.05-.1.11-.2.19-.28.08-.08.17-.14.28-.19.11-.05.24-.07.39-.07h.29v.79h-.64c-.21,0-.38.06-.49.19-.11.13-.16.28-.16.46v.89h.99v.68h-2.56v-.68Z"/><path d="M119.22,321.31h.96v-1.66h-.96v-.68h1.82v2.34h.89v.68h-2.71v-.68ZM120.61,318.59c-.19,0-.33-.04-.41-.12s-.11-.18-.11-.29v-.17c0-.12.04-.21.11-.29.08-.08.21-.12.41-.12s.33.04.41.12c.08.08.11.18.11.29v.17c0,.11-.04.21-.11.29-.08.08-.21.12-.41.12Z"/><path d="M123.96,322.06c-.51,0-.89-.14-1.15-.42-.26-.28-.39-.66-.39-1.15,0-.25.03-.47.1-.66.07-.2.17-.36.29-.5.13-.14.28-.24.46-.32.18-.07.39-.11.61-.11s.43.04.61.11c.18.07.33.17.46.31.12.13.22.29.29.48.07.19.1.4.1.63v.26h-2.06v.05c0,.2.06.35.18.47.12.12.3.18.53.18.18,0,.33-.03.46-.1.13-.07.24-.16.33-.27l.47.51c-.12.14-.28.27-.49.37-.21.11-.48.16-.8.16ZM123.89,319.53c-.19,0-.34.06-.45.17-.11.12-.17.27-.17.47v.05h1.22v-.05c0-.2-.05-.36-.16-.47-.11-.11-.25-.17-.44-.17Z"/><path d="M110.48,327.16h.7v-1.66h-.7v-.68h1.56v.85h.04c.03-.11.07-.21.11-.32.05-.1.11-.2.19-.28.08-.08.17-.14.28-.19.11-.05.24-.07.39-.07h.29v.79h-.64c-.21,0-.38.06-.49.19-.11.13-.16.28-.16.46v.89h.99v.68h-2.56v-.68Z"/><path d="M115.33,327.91c-.51,0-.89-.14-1.15-.42-.26-.28-.39-.66-.39-1.15,0-.25.03-.47.1-.66.07-.2.17-.36.29-.5.13-.14.28-.24.46-.32.18-.07.39-.11.61-.11s.43.04.61.11c.18.07.33.17.46.31.12.13.22.29.29.48.07.19.1.4.1.63v.26h-2.06v.05c0,.2.06.35.18.47.12.12.3.18.53.18.18,0,.33-.03.46-.1.13-.07.24-.16.33-.27l.47.51c-.12.14-.28.27-.49.37-.21.11-.48.16-.8.16ZM115.26,325.37c-.19,0-.34.06-.45.17-.11.12-.17.27-.17.47v.05h1.22v-.05c0-.2-.05-.36-.16-.47-.11-.11-.25-.17-.44-.17Z"/><path d="M117.77,326.47v-.83h1.87v.83h-1.87Z"/><path d="M105.29,333.01h.89v-1.66h-.95v-.68h.95v-.44c0-.26.08-.47.23-.63s.38-.24.7-.24h1.02v.68h-1.08v.63h1.08v.68h-1.08v1.66h.95v.68h-2.7v-.68Z"/><path d="M108.75,333.01h.7v-1.66h-.7v-.68h1.56v.85h.04c.03-.11.07-.21.11-.32.05-.1.11-.2.19-.28.08-.08.17-.14.28-.19.11-.05.24-.07.39-.07h.29v.79h-.64c-.21,0-.38.06-.49.19-.11.13-.16.28-.16.46v.89h.99v.68h-2.56v-.68Z"/><path d="M113.61,333.76c-.51,0-.89-.14-1.15-.42-.26-.28-.39-.66-.39-1.15,0-.25.03-.47.1-.66.07-.2.17-.36.29-.5.13-.14.28-.24.46-.32.18-.07.39-.11.61-.11s.43.04.61.11c.18.07.33.17.46.31.12.13.22.29.29.48.07.19.1.4.1.63v.26h-2.06v.05c0,.2.06.35.18.47.12.12.3.18.53.18.18,0,.33-.03.46-.1.13-.07.24-.16.33-.27l.47.51c-.12.14-.28.27-.49.37-.21.11-.48.16-.8.16ZM113.54,331.22c-.19,0-.34.06-.45.17-.11.12-.17.27-.17.47v.05h1.22v-.05c0-.2-.05-.36-.16-.47-.11-.11-.25-.17-.44-.17Z"/><path d="M115.77,333.01h.96v-1.66h-.96v-.68h1.82v2.34h.89v.68h-2.71v-.68ZM117.16,330.29c-.19,0-.33-.04-.41-.12s-.11-.18-.11-.29v-.17c0-.12.04-.21.11-.29.08-.08.21-.12.41-.12s.33.04.41.12c.08.08.11.18.11.29v.17c0,.11-.04.21-.11.29-.08.08-.21.12-.41.12Z"/><path d="M120.51,333.76c-.51,0-.89-.14-1.15-.42-.26-.28-.39-.66-.39-1.15,0-.25.03-.47.1-.66.07-.2.17-.36.29-.5.13-.14.28-.24.46-.32.18-.07.39-.11.61-.11s.43.04.61.11c.18.07.33.17.46.31.12.13.22.29.29.48.07.19.1.4.1.63v.26h-2.06v.05c0,.2.06.35.18.47.12.12.3.18.53.18.18,0,.33-.03.46-.1.13-.07.24-.16.33-.27l.47.51c-.12.14-.28.27-.49.37-.21.11-.48.16-.8.16ZM120.44,331.22c-.19,0-.34.06-.45.17-.11.12-.17.27-.17.47v.05h1.22v-.05c0-.2-.05-.36-.16-.47-.11-.11-.25-.17-.44-.17Z"/><path d="M123.84,333.76c-.34,0-.63-.05-.87-.15s-.43-.24-.56-.42l.49-.45c.12.13.25.23.41.3.16.07.34.11.54.11.17,0,.31-.03.4-.08.1-.05.15-.13.15-.24,0-.09-.03-.15-.1-.18-.07-.03-.16-.06-.27-.08l-.49-.08c-.14-.02-.26-.05-.38-.09-.12-.04-.22-.1-.3-.17s-.15-.16-.2-.26c-.05-.1-.08-.22-.08-.37,0-.32.12-.56.36-.74.24-.18.58-.27,1.02-.27.3,0,.55.04.76.12s.38.19.5.34l-.43.49c-.09-.1-.21-.18-.35-.25-.14-.07-.31-.1-.51-.1-.34,0-.5.1-.5.3,0,.09.03.15.1.18.07.03.16.06.27.08l.48.08c.14.02.26.05.38.09.12.04.22.1.31.17s.16.16.21.26c.05.1.08.22.08.37,0,.32-.12.57-.37.75-.24.18-.59.28-1.04.28Z"/><path d="M112.09,339.54l-.25-4.08h.75l.12,2.44.04.77h.05l.35-2.33h.79l.35,2.33h.05l.04-.75.12-2.47h.73l-.25,4.08h-1.11l-.3-2.25h-.06l-.3,2.25h-1.11Z"/><path d="M117.07,339.61c-.55,0-.95-.18-1.21-.55-.26-.37-.4-.89-.4-1.56s.13-1.19.4-1.56c.26-.37.67-.55,1.21-.55.21,0,.4.03.56.08.16.06.3.14.42.24.12.1.21.22.29.37.08.14.14.31.18.49l-.82.2c-.02-.1-.05-.19-.08-.27-.03-.08-.07-.15-.12-.21s-.11-.1-.18-.14c-.07-.03-.16-.05-.26-.05-.24,0-.41.09-.51.28-.1.19-.15.44-.15.77v.71c0,.33.05.58.15.77.1.18.27.28.51.28.2,0,.35-.06.44-.19.09-.12.16-.29.2-.48l.82.2c-.04.18-.1.34-.18.49-.08.14-.17.27-.29.37-.12.1-.26.18-.42.24-.16.05-.35.08-.56.08Z"/><path d="M194.54,87.83h3.36v.88h-3.36v1.17h-.72v-3.23h.72v1.17Z"/><path d="M197.97,84.74c0,.51-.14.89-.42,1.15-.28.26-.66.39-1.15.39-.25,0-.47-.03-.66-.1-.2-.07-.36-.17-.5-.29-.14-.13-.24-.28-.32-.46-.07-.18-.11-.38-.11-.61s.04-.43.11-.61c.07-.18.17-.33.31-.46.13-.12.29-.22.48-.29.19-.07.4-.1.63-.1h.26v2.06h.05c.19,0,.35-.06.47-.18.12-.12.18-.3.18-.53,0-.18-.03-.33-.1-.46-.07-.13-.16-.24-.27-.33l.51-.47c.14.12.27.28.37.49s.16.48.16.8ZM195.43,84.81c0,.19.06.34.17.45.12.11.27.17.46.17h.05v-1.22h-.05c-.2,0-.35.05-.47.16-.11.11-.17.25-.17.44Z"/><path d="M197.97,81.25c0,.24-.04.45-.11.64-.07.19-.18.35-.31.48-.14.13-.3.23-.5.3-.19.07-.42.11-.66.11s-.47-.04-.66-.11c-.2-.07-.36-.17-.5-.3-.14-.13-.24-.29-.31-.48-.07-.19-.11-.4-.11-.63,0-.33.07-.6.2-.8.13-.2.31-.35.54-.46l.36.67c-.12.05-.21.13-.29.21-.08.09-.12.21-.12.38,0,.2.06.35.17.46.11.11.27.16.47.16h.49c.2,0,.36-.05.47-.16.12-.11.17-.26.17-.47,0-.17-.04-.3-.12-.4-.08-.09-.18-.18-.3-.24l.37-.66c.22.11.4.27.54.48.13.21.2.48.2.82Z"/><path d="M193.57,79.29v-.87h1.86v-.03c-.09-.04-.17-.08-.24-.13-.07-.05-.14-.11-.2-.18-.06-.07-.1-.16-.13-.25-.03-.1-.05-.2-.05-.33,0-.14.02-.28.07-.4s.12-.22.22-.31.22-.15.36-.2c.14-.05.3-.07.49-.07h1.95v.87h-1.84c-.39,0-.58.17-.58.51,0,.07,0,.13.03.2s.04.12.08.17.08.09.14.12c.05.03.12.04.19.04h1.98v.87h-4.33Z"/><path d="M197.9,75.84h-3.02v-.87h.55v-.03c-.09-.04-.17-.08-.24-.13-.07-.05-.14-.11-.2-.18-.06-.07-.1-.16-.13-.25-.03-.1-.05-.2-.05-.33,0-.14.02-.28.07-.4s.12-.22.22-.31.22-.15.36-.2c.14-.05.3-.07.49-.07h1.95v.87h-1.84c-.39,0-.58.17-.58.51,0,.07,0,.13.03.2s.04.12.08.17.08.09.14.12c.05.03.12.04.19.04h1.98v.87Z"/><path d="M194.5,70.83c0,.19-.04.33-.12.41s-.18.11-.29.11h-.17c-.12,0-.21-.04-.29-.11s-.12-.21-.12-.41.04-.33.12-.41c.08-.08.18-.11.29-.11h.17c.11,0,.21.04.29.11.08.08.12.21.12.41ZM197.22,72.22v-.96h-1.66v.96h-.68v-1.82h2.34v-.89h.68v2.71h-.68Z"/><path d="M193.57,68.94v-.87h2.46v-.04l-.47-.4-.67-.63v-1l1.19,1.17,1.82-1.29v1.03l-1.33.88.29.29h1.05v.87h-4.33Z"/><path d="M93.13,338.2h3.36v.88h-3.36v1.17h-.72v-3.23h.72v1.17Z"/><path d="M96.56,335.1c0,.51-.14.89-.42,1.15-.28.26-.66.39-1.15.39-.25,0-.47-.03-.66-.1-.2-.07-.36-.17-.5-.29-.14-.13-.24-.28-.32-.46-.07-.18-.11-.38-.11-.61s.04-.43.11-.61c.07-.18.17-.33.31-.46.13-.12.29-.22.48-.29.19-.07.4-.1.63-.1h.26v2.06h.05c.19,0,.35-.06.47-.18.12-.12.18-.3.18-.53,0-.18-.03-.33-.1-.46-.07-.13-.16-.24-.27-.33l.51-.47c.14.12.27.28.37.49s.16.48.16.8ZM94.02,335.17c0,.19.06.34.17.45.12.11.27.17.46.17h.05v-1.22h-.05c-.2,0-.35.05-.47.16-.11.11-.17.25-.17.44Z"/><path d="M96.56,331.61c0,.24-.04.45-.11.64-.07.19-.18.35-.31.48-.14.13-.3.23-.5.3-.19.07-.42.11-.66.11s-.47-.04-.66-.11c-.2-.07-.36-.17-.5-.3-.14-.13-.24-.29-.31-.48-.07-.19-.11-.4-.11-.63,0-.33.07-.6.2-.8.13-.2.31-.35.54-.46l.36.67c-.12.05-.21.13-.29.21-.08.09-.12.21-.12.38,0,.2.06.35.17.46.11.11.27.16.47.16h.49c.2,0,.36-.05.47-.16.12-.11.17-.26.17-.47,0-.17-.04-.3-.12-.4-.08-.09-.18-.18-.3-.24l.37-.66c.22.11.4.27.54.48.13.21.2.48.2.82Z"/><path d="M92.16,329.66v-.87h1.86v-.03c-.09-.04-.17-.08-.24-.13-.07-.05-.14-.11-.2-.18-.06-.07-.1-.16-.13-.25-.03-.1-.05-.2-.05-.33,0-.14.02-.28.07-.4s.12-.22.22-.31.22-.15.36-.2c.14-.05.3-.07.49-.07h1.95v.87h-1.84c-.39,0-.58.17-.58.51,0,.07,0,.13.03.2s.04.12.08.17.08.09.14.12c.05.03.12.04.19.04h1.98v.87h-4.33Z"/><path d="M96.49,326.21h-3.02v-.87h.55v-.03c-.09-.04-.17-.08-.24-.13-.07-.05-.14-.11-.2-.18-.06-.07-.1-.16-.13-.25-.03-.1-.05-.2-.05-.33,0-.14.02-.28.07-.4s.12-.22.22-.31.22-.15.36-.2c.14-.05.3-.07.49-.07h1.95v.87h-1.84c-.39,0-.58.17-.58.51,0,.07,0,.13.03.2s.04.12.08.17.08.09.14.12c.05.03.12.04.19.04h1.98v.87Z"/><path d="M93.09,321.2c0,.19-.04.33-.12.41s-.18.11-.29.11h-.17c-.12,0-.21-.04-.29-.11s-.12-.21-.12-.41.04-.33.12-.41c.08-.08.18-.11.29-.11h.17c.11,0,.21.04.29.11.08.08.12.21.12.41ZM95.81,322.59v-.96h-1.66v.96h-.68v-1.82h2.34v-.89h.68v2.71h-.68Z"/><path d="M92.16,319.31v-.87h2.46v-.04l-.47-.4-.67-.63v-1l1.19,1.17,1.82-1.29v1.03l-1.33.88.29.29h1.05v.87h-4.33Z"/></g></svg>