<?xml version="1.0" encoding="UTF-8"?><svg xmlns="http://www.w3.org/2000/svg" viewBox="0 0 360 400"><defs><style>.c,.d{fill:none;}.d{stroke:#000;stroke-miterlimit:10;}</style></defs><g id="a"><polyline class="d" points="88.11 176 88.15 343.56 167.24 343.56"/><polygon class="d" points="72.53 68.6 72.53 102.36 72.58 102.36 72.58 374.76 170.28 374.76 144.88 102.36 256.11 102.36 256.11 178.86 274.85 178.86 274.85 199.76 284.59 199.76 284.59 68.6 72.53 68.6"/><rect class="d" x="256.11" y="10.12" width="84.38" height="58.48"/><rect class="d" x="284.59" y="68.6" width="55.9" height="33.75"/><rect class="d" x="284.59" y="102.36" width="55.9" height="84.37"/><rect class="d" x="256.11" y="178.86" width="18.74" height="82.64"/><rect class="d" x="171.73" y="10.12" width="84.38" height="58.48"/><rect class="d" x="171.73" y="68.6" width="18.91" height="18.91"/><rect class="d" x="190.65" y="68.6" width="12.41" height="18.91"/><rect class="d" x="203.06" y="68.6" width="12.41" height="18.91"/><line class="d" x1="242.5" y1="102.36" x2="242.5" y2="87.52"/><line class="d" x1="256.11" y1="102.36" x2="270.95" y2="102.36"/><line class="d" x1="256.11" y1="116.52" x2="270.95" y2="116.52"/><line class="d" x1="256.11" y1="140.61" x2="270.95" y2="140.61"/><line class="d" x1="256.11" y1="154.31" x2="270.95" y2="154.31"/><rect class="d" x="69.57" y="71.56" width="18.91" height="12.99" transform="translate(157.09 -.97) rotate(90)"/><rect class="d" x="80.94" y="76.44" width="18.91" height="3.25" transform="translate(168.46 -12.34) rotate(90)"/><rect class="d" x="77.69" y="76.44" width="18.91" height="3.25" transform="translate(165.21 -9.09) rotate(90)"/><rect class="d" x="84.19" y="76.44" width="18.91" height="3.25" transform="translate(171.71 -15.59) rotate(90)"/><rect class="d" x="87.44" y="76.44" width="18.91" height="3.25" transform="translate(174.96 -18.84) rotate(90)"/><rect class="d" x="90.69" y="76.44" width="18.91" height="3.25" transform="translate(178.21 -22.09) rotate(90)"/><rect class="d" x="93.94" y="76.44" width="18.91" height="3.25" transform="translate(181.46 -25.34) rotate(90)"/><rect class="d" x="97.19" y="76.44" width="18.91" height="3.25" transform="translate(184.71 -28.59) rotate(90)"/><rect class="d" x="100.44" y="76.44" width="18.91" height="3.25" transform="translate(187.96 -31.84) rotate(90)"/><rect class="d" x="103.69" y="76.44" width="18.91" height="3.25" transform="translate(191.21 -35.09) rotate(90)"/><rect class="d" x="106.94" y="76.44" width="18.91" height="3.25" transform="translate(194.46 -38.34) rotate(90)"/><rect class="d" x="110.19" y="76.44" width="18.91" height="3.25" transform="translate(197.71 -41.59) rotate(90)"/><rect class="d" x="113.44" y="76.44" width="18.91" height="3.25" transform="translate(200.96 -44.83) rotate(90)"/><rect class="d" x="116.69" y="76.44" width="18.91" height="3.25" transform="translate(204.21 -48.08) rotate(90)"/><rect class="d" x="119.94" y="76.44" width="18.91" height="3.25" transform="translate(207.45 -51.33) rotate(90)"/><rect class="d" x="123.19" y="76.44" width="18.91" height="3.25" transform="translate(210.7 -54.58) rotate(90)"/><rect class="d" x="126.44" y="76.44" width="18.91" height="3.25" transform="translate(213.95 -57.83) rotate(90)"/><rect class="d" x="129.69" y="76.44" width="18.91" height="3.25" transform="translate(217.2 -61.08) rotate(90)"/><rect class="d" x="132.94" y="76.44" width="18.91" height="3.25" transform="translate(220.45 -64.33) rotate(90)"/><polygon class="d" points="77.45 77.9 80.67 79.51 80.67 76.29 77.45 77.9"/><line class="d" x1="80.67" y1="77.75" x2="148.48" y2="77.75"/><line class="d" x1="88.11" y1="176" x2="151.75" y2="176"/><line class="d" x1="88.15" y1="231.11" x2="156.78" y2="231.11"/><line class="d" x1="88.15" y1="313.1" x2="164.4" y2="313.1"/><line class="d" x1="126.84" y1="313.1" x2="126.84" y2="343.56"/><line class="d" x1="103.63" y1="313.1" x2="103.63" y2="343.56"/><line class="d" x1="88.15" y1="202.91" x2="154.26" y2="202.91"/><rect class="d" x="256.11" y="238.75" width="18.74" height="22.74"/><rect class="d" x="256.11" y="245.25" width="18.74" height="3.25"/><rect class="d" x="256.11" y="242" width="18.74" height="3.25"/><rect class="d" x="256.11" y="238.75" width="18.74" height="3.25"/><rect class="d" x="256.11" y="235.5" width="18.74" height="3.25"/><rect class="d" x="256.11" y="232.25" width="18.74" height="3.25"/><rect class="d" x="256.11" y="229" width="18.74" height="3.25"/><rect class="d" x="256.11" y="225.75" width="18.74" height="3.25"/><rect class="d" x="256.11" y="222.5" width="18.74" height="3.25"/><rect class="d" x="256.11" y="219.25" width="18.74" height="3.25"/><rect class="d" x="256.11" y="216" width="18.74" height="3.25"/><rect class="d" x="256.11" y="212.75" width="18.74" height="3.25"/><rect class="d" x="256.11" y="209.5" width="18.74" height="3.25"/><rect class="d" x="256.11" y="206.25" width="18.74" height="3.25"/><rect class="d" x="256.11" y="203.01" width="18.74" height="3.25"/><rect class="d" x="256.11" y="199.76" width="18.74" height="3.25"/><polygon class="d" points="265.18 191.58 263.57 194.8 266.79 194.8 265.18 191.58"/><line class="d" x1="265.18" y1="194.8" x2="265.18" y2="254.04"/><polyline class="d" points="88.11 176 88.11 102.36 144.88 102.36"/><rect class="d" x="136.28" y="359.73" width="18.91" height="11.27" transform="translate(511.1 219.62) rotate(90)"/><rect class="d" x="80.28" y="363.74" width="18.91" height="3.25" transform="translate(455.1 275.62) rotate(90)"/><rect class="d" x="83.53" y="363.74" width="18.91" height="3.25" transform="translate(458.35 272.38) rotate(90)"/><rect class="d" x="86.78" y="363.74" width="18.91" height="3.25" transform="translate(461.6 269.13) rotate(90)"/><rect class="d" x="90.03" y="363.74" width="18.91" height="3.25" transform="translate(464.85 265.88) rotate(90)"/><rect class="d" x="93.28" y="363.74" width="18.91" height="3.25" transform="translate(468.1 262.63) rotate(90)"/><rect class="d" x="96.53" y="363.74" width="18.91" height="3.25" transform="translate(471.35 259.38) rotate(90)"/><rect class="d" x="99.78" y="363.74" width="18.91" height="3.25" transform="translate(474.6 256.13) rotate(90)"/><rect class="d" x="103.03" y="363.74" width="18.91" height="3.25" transform="translate(477.85 252.88) rotate(90)"/><rect class="d" x="106.28" y="363.74" width="18.91" height="3.25" transform="translate(481.1 249.63) rotate(90)"/><rect class="d" x="109.53" y="363.74" width="18.91" height="3.25" transform="translate(484.35 246.38) rotate(90)"/><rect class="d" x="112.78" y="363.74" width="18.91" height="3.25" transform="translate(487.6 243.13) rotate(90)"/><rect class="d" x="116.03" y="363.74" width="18.91" height="3.25" transform="translate(490.85 239.88) rotate(90)"/><rect class="d" x="119.28" y="363.74" width="18.91" height="3.25" transform="translate(494.09 236.63) rotate(90)"/><rect class="d" x="122.52" y="363.74" width="18.91" height="3.25" transform="translate(497.34 233.38) rotate(90)"/><rect class="d" x="125.77" y="363.74" width="18.91" height="3.25" transform="translate(500.59 230.13) rotate(90)"/><rect class="d" x="129.02" y="363.74" width="18.91" height="3.25" transform="translate(503.84 226.88) rotate(90)"/><polygon class="d" points="147.7 365.21 144.49 363.6 144.49 366.82 147.7 365.21"/><line class="d" x1="144.49" y1="365.36" x2="83.09" y2="365.36"/><polygon class="d" points="284.59 186.73 284.59 199.76 274.85 199.76 274.85 261.49 340.49 261.49 340.49 186.73 284.59 186.73"/></g><g id="b"><path d="M178.21,78.84l.41-.41.73.73.36.43h.03s-.05-.83-.05-.83v-2.87h.58v2.87l-.05.82h.03s.36-.42.36-.42l.73-.73.41.41-1.77,1.77-1.77-1.77ZM184.37,77.59l-.41.41-.73-.73-.36-.43h-.03s.05.83.05.83v2.87h-.58v-2.87l.05-.82h-.03s-.36.42-.36.42l-.73.73-.41-.41,1.77-1.77,1.77,1.77Z"/><rect class="c" x="88.11" y="102.36" width="56.77" height="73.65"/><rect class="c" x="88.94" y="176" width="62.81" height="26.91"/><rect class="c" x="88.15" y="202.91" width="66.12" height="28.2"/><path d="M178.21,78.84l.41-.41.73.73.36.43h.03s-.05-.83-.05-.83v-2.87h.58v2.87l-.05.82h.03s.36-.42.36-.42l.73-.73.41.41-1.77,1.77-1.77-1.77ZM184.37,77.59l-.41.41-.73-.73-.36-.43h-.03s.05.83.05.83v2.87h-.58v-2.87l.05-.82h-.03s-.36.42-.36.42l-.73.73-.41-.41,1.77-1.77,1.77,1.77Z"/><rect class="c" x="256.11" y="10.12" width="84.38" height="58.48"/><path d="M293.49,37.57h-.08v6.47h-.84v-7.68h1.31l2.62,6.47h.08v-6.47h.84v7.68h-1.31l-2.62-6.47Z"/><path d="M302.46,44.03v-1.51h-3.78v-.81l3.32-5.36h1.34v5.41h1.14v.76h-1.14v1.51h-.88ZM299.5,41.77h2.96v-4.7h-.04l-2.91,4.7Z"/><rect class="c" x="284.59" y="102.36" width="55.9" height="84.37"/><path d="M307.73,142.74h-.08v6.47h-.84v-7.68h1.31l2.62,6.47h.08v-6.47h.84v7.68h-1.31l-2.62-6.47Z"/><path d="M318.05,142.34h-3.43l-.22,2.94h.08c.19-.26.4-.46.64-.61.23-.15.56-.23.97-.23.34,0,.65.05.93.16.28.11.53.26.73.47.21.21.37.45.48.74s.18.62.18,1-.06.72-.18,1.03-.29.58-.52.8-.5.4-.82.52c-.32.12-.69.19-1.1.19-.32,0-.61-.04-.86-.11s-.48-.17-.67-.3c-.19-.12-.36-.26-.51-.42-.15-.15-.28-.32-.4-.48l.69-.53c.1.15.21.29.31.42.11.12.23.23.37.33.14.09.3.16.47.21.18.05.38.08.62.08.53,0,.93-.14,1.22-.43s.42-.68.42-1.19v-.09c0-.51-.14-.9-.43-1.19s-.7-.43-1.23-.43c-.37,0-.65.06-.85.19s-.39.28-.56.46l-.78-.11.27-4.22h4.18v.8Z"/><rect class="c" x="284.59" y="68.6" width="55.9" height="33.88"/><path d="M291.09,87.95c-.23,0-.44-.04-.6-.13s-.31-.22-.42-.39c-.11-.17-.19-.38-.24-.62-.05-.25-.08-.53-.08-.84s.03-.59.08-.84c.05-.25.13-.46.24-.62s.25-.3.42-.39.37-.13.6-.13.44.04.6.13c.17.09.31.22.42.39.11.17.19.38.24.62.05.25.08.53.08.84s-.03.6-.08.84c-.05.25-.13.45-.24.62-.11.17-.25.3-.42.39-.17.09-.37.13-.6.13ZM291.09,87.54c.15,0,.28-.03.39-.09s.19-.15.26-.26c.07-.11.12-.24.15-.4.03-.16.05-.33.05-.53v-.63c0-.19-.02-.36-.05-.52-.03-.16-.08-.29-.15-.4-.07-.11-.16-.2-.26-.26s-.24-.09-.39-.09-.28.03-.39.09c-.11.06-.19.15-.26.26-.07.11-.12.24-.15.4-.03.16-.05.33-.05.52v.63c0,.19.02.37.05.53.03.16.08.29.15.4.07.11.16.2.26.26.11.06.24.09.39.09Z"/><path d="M293.26,83.81h.44v1.69h.02c.18-.35.48-.53.87-.53.35,0,.62.13.82.39s.29.62.29,1.09-.1.83-.29,1.09c-.2.26-.47.39-.82.39-.4,0-.69-.18-.87-.53h-.02v.46h-.44v-4.07ZM294.43,87.55c.26,0,.46-.08.6-.23.14-.16.21-.36.21-.62v-.48c0-.26-.07-.46-.21-.62-.14-.16-.34-.23-.6-.23-.1,0-.19.01-.28.04-.09.03-.17.06-.23.11-.07.05-.12.11-.16.18-.04.07-.06.15-.06.25v1.02c0,.1.02.18.06.25.04.07.09.13.16.18.07.05.14.09.23.11.09.03.18.04.28.04Z"/><path d="M297.74,87.95c-.21,0-.39-.03-.55-.1-.16-.07-.3-.17-.42-.3-.12-.13-.2-.29-.27-.47s-.09-.38-.09-.61.03-.43.1-.62c.06-.18.15-.34.27-.47s.25-.23.41-.3c.16-.07.34-.1.53-.1s.36.04.52.1c.16.07.29.17.4.29.11.12.19.27.25.44.06.17.09.35.09.56v.21h-2.1v.13c0,.12.02.24.06.35.04.11.1.2.17.28.07.08.17.14.27.18.11.04.23.06.36.06.19,0,.36-.04.49-.13.14-.09.25-.21.32-.36l.32.22c-.08.19-.22.35-.42.47-.2.12-.44.18-.72.18ZM297.71,85.34c-.12,0-.23.02-.34.07s-.19.1-.27.18-.13.17-.18.27c-.04.1-.06.22-.06.34v.04h1.63v-.06c0-.12-.02-.24-.06-.34s-.09-.19-.16-.27-.15-.13-.25-.17c-.1-.04-.2-.06-.32-.06Z"/><path d="M299.76,87.5h.83v-2.08h-.83v-.38h1.27v.71h.03c.06-.22.17-.4.33-.53.16-.13.37-.19.62-.19h.4v.44h-.53c-.25,0-.46.07-.61.22s-.23.34-.23.58v1.22h1.1v.38h-2.37v-.38Z"/><path d="M304.32,87.95c-.3,0-.55-.05-.77-.15-.21-.1-.4-.24-.55-.4l.3-.26c.14.14.28.25.45.33.16.08.36.12.58.12s.4-.04.54-.12.21-.2.21-.37c0-.07-.01-.13-.04-.18s-.06-.09-.11-.12-.1-.05-.16-.07c-.06-.02-.12-.03-.19-.04l-.45-.07c-.1-.01-.21-.04-.32-.06-.12-.03-.22-.07-.32-.12-.1-.06-.17-.13-.24-.23-.06-.09-.1-.22-.1-.37,0-.14.03-.27.09-.37.06-.1.14-.19.24-.26s.22-.12.36-.16c.14-.04.29-.05.46-.05.26,0,.48.04.67.12s.35.19.49.34l-.29.27s-.07-.08-.12-.12c-.05-.04-.11-.08-.18-.12-.07-.03-.16-.06-.25-.08-.1-.02-.21-.03-.33-.03-.22,0-.4.04-.51.12s-.18.19-.18.33c0,.07.01.13.04.18.03.05.06.09.11.12.05.03.1.05.16.07s.12.03.18.04l.45.07c.1.01.21.04.32.06s.22.07.31.12.18.13.24.23c.06.09.1.22.1.37,0,.28-.11.5-.33.65-.22.15-.51.23-.87.23Z"/><path d="M307.73,87.88c-.22,0-.38-.06-.48-.18-.1-.12-.15-.28-.15-.47v-1.81h-.95v-.38h.7c.1,0,.16-.02.2-.06.04-.04.06-.11.06-.2v-.74h.42v1h1.29v.38h-1.29v2.08h1.29v.38h-1.11Z"/><path d="M311.56,87.42h-.02c-.03.07-.07.14-.11.2-.04.06-.1.12-.16.17-.06.05-.14.09-.23.12-.09.03-.19.04-.31.04-.3,0-.54-.09-.72-.28-.18-.19-.27-.46-.27-.8v-1.82h.44v1.74c0,.26.06.45.17.58.11.13.28.19.5.19.09,0,.17-.01.26-.03.08-.02.16-.06.23-.1s.12-.1.16-.17c.04-.07.06-.15.06-.25v-1.97h.44v2.84h-.44v-.46Z"/><path d="M312.99,87.5h.96v-2.08h-1.01v-.38h1.01v-.58c0-.19.05-.35.15-.47.1-.12.26-.18.48-.18h.95v.38h-1.14v.85h1.14v.38h-1.14v2.08h1.01v.38h-2.41v-.38Z"/><path d="M317.54,87.95c-.21,0-.39-.03-.55-.1-.16-.07-.3-.17-.42-.3-.12-.13-.2-.29-.27-.47s-.09-.38-.09-.61.03-.43.1-.62c.06-.18.15-.34.27-.47s.25-.23.41-.3c.16-.07.34-.1.53-.1s.36.04.52.1c.16.07.29.17.4.29.11.12.19.27.25.44.06.17.09.35.09.56v.21h-2.1v.13c0,.12.02.24.06.35.04.11.1.2.17.28.07.08.17.14.27.18.11.04.23.06.36.06.19,0,.36-.04.49-.13.14-.09.25-.21.32-.36l.32.22c-.08.19-.22.35-.42.47-.2.12-.44.18-.72.18ZM317.51,85.34c-.12,0-.23.02-.34.07s-.19.1-.27.18-.13.17-.18.27c-.04.1-.06.22-.06.34v.04h1.63v-.06c0-.12-.02-.24-.06-.34s-.09-.19-.16-.27-.15-.13-.25-.17c-.1-.04-.2-.06-.32-.06Z"/><path d="M319.68,87.88v-2.84h.44v.46h.02c.03-.07.07-.14.11-.2.04-.06.1-.12.16-.17.06-.05.14-.09.23-.12s.19-.04.31-.04c.3,0,.54.09.71.28.18.19.27.46.27.8v1.82h-.44v-1.74c0-.26-.06-.45-.17-.58-.11-.13-.28-.19-.5-.19-.09,0-.17.01-.26.03-.08.02-.16.05-.23.1-.07.04-.12.1-.16.17-.04.07-.06.15-.06.24v1.97h-.44Z"/><path d="M322.86,87.5h.83v-2.08h-.83v-.38h1.27v.71h.03c.06-.22.17-.4.33-.53.16-.13.37-.19.62-.19h.4v.44h-.53c-.25,0-.46.07-.61.22s-.23.34-.23.58v1.22h1.1v.38h-2.37v-.38Z"/><path d="M328.46,87.88c-.17,0-.3-.04-.37-.13-.07-.09-.12-.2-.14-.33h-.03c-.06.17-.16.29-.3.39-.14.09-.32.14-.55.14-.3,0-.53-.08-.71-.23-.18-.15-.26-.37-.26-.63s.1-.47.29-.61.5-.21.93-.21h.6v-.28c0-.21-.06-.36-.18-.47-.12-.1-.28-.16-.5-.16-.19,0-.35.04-.47.11s-.22.18-.29.31l-.3-.22c.04-.07.09-.14.15-.21s.14-.13.23-.19.2-.1.31-.13c.12-.03.25-.05.39-.05.33,0,.6.08.79.25.2.17.29.4.29.71v1.57h.4v.38h-.3ZM327.15,87.58c.11,0,.22-.01.31-.04.09-.03.18-.06.25-.11.07-.05.12-.1.16-.17.04-.06.06-.13.06-.21v-.47h-.6c-.26,0-.46.04-.58.11-.12.07-.18.18-.18.32v.12c0,.15.05.26.16.33s.25.11.43.11Z"/><path d="M331.36,87.42h-.02c-.03.07-.07.14-.11.2-.04.06-.1.12-.16.17-.06.05-.14.09-.23.12-.09.03-.19.04-.31.04-.3,0-.54-.09-.72-.28-.18-.19-.27-.46-.27-.8v-1.82h.44v1.74c0,.26.06.45.17.58.11.13.28.19.5.19.09,0,.17-.01.26-.03.08-.02.16-.06.23-.1s.12-.1.16-.17c.04-.07.06-.15.06-.25v-1.97h.44v2.84h-.44v-.46Z"/><path d="M332.63,87.88v-2.84h.41v.33h.02c.04-.11.11-.2.19-.28s.2-.12.36-.12.29.04.37.12c.08.08.13.19.15.32h.02c.05-.13.12-.23.22-.32.1-.08.23-.13.4-.13.23,0,.39.08.46.24.08.16.12.39.12.69v1.97h-.41v-1.9c0-.24-.02-.41-.07-.5-.05-.09-.14-.14-.27-.14-.12,0-.21.04-.29.11s-.11.19-.11.34v2.08h-.41v-1.9c0-.24-.02-.41-.07-.5-.05-.09-.14-.14-.27-.14-.12,0-.21.04-.29.11s-.11.19-.11.34v2.08h-.41Z"/><rect class="c" x="274.85" y="186.73" width="65.63" height="74.76"/><path d="M302.87,222.31h-.08v6.47h-.84v-7.68h1.31l2.62,6.47h.08v-6.47h.84v7.68h-1.31l-2.62-6.47Z"/><path d="M310.98,228.91c-.4,0-.77-.07-1.09-.2-.32-.14-.6-.33-.82-.58-.22-.25-.4-.56-.52-.93-.12-.37-.18-.78-.18-1.23,0-.57.09-1.11.26-1.61s.39-.96.66-1.38c.27-.41.57-.78.9-1.1.33-.32.65-.58.97-.78h1.19c-.42.3-.79.59-1.12.88-.33.29-.61.58-.86.9-.25.31-.46.64-.63,1-.17.36-.31.76-.42,1.2l.06.02c.18-.32.43-.58.73-.79.3-.21.69-.31,1.17-.31.34,0,.65.05.92.17s.52.27.73.47c.21.21.36.46.48.75.11.29.17.62.17.98s-.06.72-.19,1.03c-.12.31-.3.58-.52.8-.22.22-.5.4-.81.52-.32.12-.67.19-1.06.19ZM310.97,228.13c.53,0,.94-.14,1.23-.43s.43-.69.43-1.21v-.09c0-.52-.15-.92-.43-1.21s-.7-.43-1.23-.43-.94.14-1.23.43c-.29.29-.43.69-.43,1.21v.09c0,.52.14.92.43,1.21.29.29.7.43,1.23.43Z"/><rect class="c" x="171.73" y="10.12" width="84.38" height="58.48"/><path d="M209.12,37.57h-.08v6.47h-.84v-7.68h1.31l2.62,6.47h.08v-6.47h.84v7.68h-1.31l-2.62-6.47Z"/><path d="M216.89,39.6c.54,0,.94-.12,1.2-.36s.4-.54.4-.92v-.08c0-.41-.13-.72-.39-.92-.26-.21-.6-.31-1.02-.31s-.74.09-1,.27-.46.42-.62.71l-.69-.53c.1-.15.21-.31.35-.46s.3-.28.49-.4.4-.21.65-.29c.25-.07.53-.11.84-.11s.64.04.92.13c.29.08.54.21.75.37.21.17.38.37.5.61s.18.52.18.82c0,.25-.04.47-.12.67-.08.2-.18.37-.32.52s-.29.27-.48.37c-.18.1-.38.18-.58.23v.04c.21.04.42.12.62.21.2.1.37.23.53.38.15.16.28.35.37.57s.14.48.14.77c0,.33-.06.63-.19.91s-.31.51-.54.71c-.23.19-.51.35-.84.46-.33.11-.69.17-1.08.17-.34,0-.64-.04-.9-.11s-.49-.17-.69-.3c-.2-.12-.38-.26-.53-.42-.15-.15-.28-.32-.4-.48l.69-.53c.1.15.21.29.32.42s.24.23.38.32.31.16.49.21c.18.05.4.08.64.08.54,0,.96-.12,1.25-.37.29-.25.43-.61.43-1.07v-.09c0-.46-.14-.81-.42-1.06-.28-.25-.71-.37-1.27-.37h-.91v-.8h.85Z"/><rect class="c" x="88.11" y="102.36" width="56.77" height="73.65"/><path d="M111.69,126.38h-.08v6.47h-.84v-7.68h1.31l2.62,6.47h.08v-6.47h.84v7.68h-1.31l-2.62-6.47Z"/><path d="M122.4,132.85h-5.13v-.95l2.56-2.31c.37-.34.68-.68.92-1.04.24-.36.36-.73.36-1.13v-.13c0-.46-.12-.82-.36-1.07-.24-.25-.6-.38-1.08-.38s-.83.12-1.08.36-.44.55-.57.95l-.83-.31c.07-.23.17-.45.3-.67.13-.22.29-.41.49-.58.2-.17.44-.3.72-.41s.61-.15.98-.15.72.06,1.02.17c.3.11.55.26.75.46.2.2.36.43.46.7.11.27.16.57.16.89,0,.29-.04.57-.13.82-.08.26-.2.5-.35.74-.15.24-.33.46-.54.69s-.44.45-.7.67l-2.15,1.87h4.17v.8Z"/><path d="M107.63,143.85v-1.33h2.07v-5.15h-.1l-1.56,2.05-1.06-.82,1.84-2.42h2.53v6.35h1.63v1.33h-5.35Z"/><path d="M116.5,143.98c-1.03,0-1.78-.35-2.27-1.04s-.73-1.67-.73-2.93.24-2.23.73-2.93c.49-.7,1.25-1.04,2.27-1.04s1.78.35,2.27,1.04c.49.7.73,1.67.73,2.93s-.24,2.23-.73,2.93-1.24,1.04-2.27,1.04ZM116.5,142.68c.49,0,.83-.17,1.03-.52s.29-.82.29-1.44v-1.43c0-.62-.1-1.1-.29-1.44s-.54-.52-1.03-.52-.83.17-1.03.52-.29.83-.29,1.44v1.43c0,.62.1,1.1.29,1.44s.54.52,1.03.52ZM116.5,140.66c-.26,0-.43-.05-.53-.15-.1-.1-.15-.23-.15-.37v-.24c0-.15.05-.27.15-.37s.28-.15.53-.15.43.05.53.15.15.23.15.37v.24c0,.15-.05.27-.15.37-.1.1-.28.15-.53.15Z"/><path d="M120.45,135.71h1.63v3.51h.08c.14-.34.34-.62.6-.84s.62-.33,1.08-.33c.31,0,.6.06.86.18s.48.3.67.54c.19.24.33.55.44.92.11.37.16.82.16,1.33s-.05.96-.16,1.33c-.11.37-.25.68-.44.92s-.41.42-.67.54-.55.18-.86.18c-.46,0-.81-.11-1.08-.33-.26-.22-.47-.5-.6-.85h-.08v1.04h-1.63v-8.14ZM123.13,142.71c.37,0,.65-.11.85-.33.2-.22.3-.53.3-.92v-.87c0-.39-.1-.7-.3-.92-.2-.22-.48-.33-.85-.33-.29,0-.53.07-.74.21-.21.14-.31.36-.31.66v1.66c0,.3.1.52.31.66s.46.21.74.21Z"/><path d="M105.21,151.43c0-.54.06-1.05.18-1.55.12-.5.29-.96.49-1.38.21-.42.45-.81.73-1.15.28-.34.57-.63.88-.86h1.63c-.34.24-.67.51-.98.82-.31.31-.58.65-.81,1.03s-.42.77-.56,1.2c-.14.43-.21.87-.21,1.33v1.12c0,.46.07.91.21,1.33.14.43.32.83.56,1.2s.5.72.81,1.03.63.58.98.82h-1.63c-.31-.23-.6-.51-.88-.86-.28-.34-.52-.73-.73-1.16-.21-.43-.37-.89-.49-1.38-.12-.5-.18-1.01-.18-1.54Z"/><path d="M114.42,153.76h-.1c-.07.16-.15.32-.24.46-.1.15-.21.28-.35.39-.14.11-.3.2-.49.27-.19.07-.4.1-.63.1-.37,0-.71-.09-1-.26-.29-.18-.53-.43-.73-.77-.2-.34-.35-.75-.45-1.23-.1-.48-.15-1.03-.15-1.64,0-1.3.24-2.3.72-3,.48-.69,1.21-1.04,2.21-1.04.4,0,.74.05,1.04.16s.56.26.78.45c.22.2.39.43.53.7.14.27.25.57.33.9l-1.54.37c-.04-.16-.09-.32-.15-.47-.06-.15-.13-.28-.21-.4-.09-.12-.2-.21-.33-.28-.13-.07-.29-.1-.48-.1-.42,0-.71.17-.89.52s-.26.83-.26,1.45v1.25c0,.62.09,1.12.28,1.5.19.37.52.56,1,.56.37,0,.65-.11.84-.33.18-.22.27-.5.27-.85v-.56h-1.31v-1.17h2.78v4.1h-1.47v-1.09Z"/><path d="M116.57,149.17h1.35l.41,4.6h.11l.67-4.6h1.43l.66,4.6h.11l.42-4.6h1.29l-.67,5.68h-1.94l-.56-3.92h-.11l-.56,3.92h-1.94l-.67-5.68Z"/><path d="M127.78,151.43c0,.54-.06,1.05-.18,1.54s-.29.96-.5,1.38c-.21.42-.45.81-.73,1.16-.28.34-.57.63-.88.86h-1.63c.34-.23.66-.51.97-.82.31-.31.58-.65.81-1.03s.42-.77.56-1.2c.14-.42.21-.87.21-1.33v-1.12c0-.46-.07-.91-.21-1.33-.14-.42-.32-.83-.56-1.2s-.5-.72-.81-1.03c-.31-.31-.64-.58-.97-.82h1.63c.31.24.6.52.88.86.28.34.52.72.73,1.15.21.43.37.89.5,1.38s.18,1.01.18,1.55Z"/><rect class="c" x="87.17" y="231.11" width="69.61" height="81.99"/><path d="M117.17,259.3h-.08v6.47h-.84v-7.68h1.31l2.62,6.47h.08v-6.47h.84v7.68h-1.31l-2.62-6.47Z"/><path d="M122.91,265.77v-.8h2.2v-6.19h-.08l-1.94,1.8-.54-.58,2.04-1.9h1.44v6.88h2.02v.8h-5.15Z"/><path d="M113.11,276.77v-1.33h2.07v-5.15h-.1l-1.56,2.05-1.06-.82,1.84-2.42h2.53v6.35h1.63v1.33h-5.35Z"/><path d="M121.98,276.9c-1.03,0-1.78-.35-2.27-1.04s-.73-1.67-.73-2.93.24-2.23.73-2.93c.49-.7,1.25-1.04,2.27-1.04s1.78.35,2.27,1.04c.49.7.73,1.67.73,2.93s-.24,2.23-.73,2.93-1.24,1.04-2.27,1.04ZM121.98,275.61c.49,0,.83-.17,1.03-.52s.29-.82.29-1.44v-1.43c0-.62-.1-1.1-.29-1.44s-.54-.52-1.03-.52-.83.17-1.03.52-.29.83-.29,1.44v1.43c0,.62.1,1.1.29,1.44s.54.52,1.03.52ZM121.98,273.58c-.26,0-.43-.05-.53-.15-.1-.1-.15-.23-.15-.37v-.24c0-.15.05-.27.15-.37s.28-.15.53-.15.43.05.53.15.15.23.15.37v.24c0,.15-.05.27-.15.37-.1.1-.28.15-.53.15Z"/><path d="M130.63,276.77c-.34,0-.61-.09-.81-.26-.21-.17-.33-.42-.36-.74h-.06c-.1.37-.31.66-.61.85-.3.19-.68.29-1.12.29-.55,0-.99-.15-1.33-.45-.33-.3-.5-.71-.5-1.25,0-.59.22-1.03.65-1.32.43-.29,1.07-.43,1.9-.43h.91v-.29c0-.34-.08-.59-.24-.76-.16-.17-.42-.26-.8-.26-.34,0-.62.07-.84.2-.21.13-.4.3-.55.52l-.89-.79c.19-.32.49-.59.9-.8.41-.21.93-.31,1.57-.31.78,0,1.38.18,1.82.53.44.36.65.89.65,1.61v2.49h.63v1.18h-.94ZM128.29,275.84c.29,0,.53-.07.73-.21.2-.14.3-.34.3-.6v-.68h-.87c-.67,0-1,.22-1,.67v.22c0,.2.08.35.23.45s.36.15.62.15Z"/><path d="M110.69,284.35c0-.54.06-1.05.18-1.55.12-.5.29-.96.49-1.38.21-.42.45-.81.73-1.15.28-.34.57-.63.88-.86h1.63c-.34.24-.67.51-.98.82-.31.31-.58.65-.81,1.03s-.42.77-.56,1.2c-.14.43-.21.87-.21,1.33v1.12c0,.46.07.91.21,1.33.14.43.32.83.56,1.2s.5.72.81,1.03.63.58.98.82h-1.63c-.31-.23-.6-.51-.88-.86-.28-.34-.52-.73-.73-1.16-.21-.43-.37-.89-.49-1.38-.12-.5-.18-1.01-.18-1.54Z"/><path d="M121,280.09v5.53c0,.34-.06.66-.18.94-.12.28-.29.52-.52.72s-.49.35-.81.46c-.31.11-.67.16-1.06.16-.78,0-1.39-.19-1.82-.58-.43-.39-.7-.9-.82-1.54l1.56-.32c.06.33.17.6.34.8.17.21.41.31.74.31.28,0,.5-.09.65-.27.16-.18.24-.46.24-.83v-4.02h-2.53v-1.35h4.2Z"/><path d="M125.28,287.9c-.44,0-.84-.07-1.19-.2-.35-.14-.65-.33-.9-.59s-.43-.57-.57-.94c-.13-.37-.2-.78-.2-1.24s.07-.88.2-1.24c.13-.37.32-.68.57-.94.25-.26.54-.45.9-.59s.75-.2,1.19-.2.84.07,1.19.2c.35.14.65.33.9.59.25.26.43.57.57.94.13.37.2.78.2,1.24s-.07.88-.2,1.24c-.13.37-.32.68-.57.94s-.54.45-.9.59c-.35.13-.75.2-1.19.2ZM125.28,286.69c.37,0,.65-.11.86-.34.21-.23.31-.55.31-.97v-.9c0-.42-.1-.74-.31-.97-.21-.23-.49-.34-.86-.34s-.65.11-.86.34c-.21.23-.31.55-.31.97v.9c0,.42.1.74.31.97.21.23.49.34.86.34Z"/><path d="M133.26,284.35c0,.54-.06,1.05-.18,1.54s-.29.96-.5,1.38c-.21.42-.45.81-.73,1.16-.28.34-.57.63-.88.86h-1.63c.34-.23.66-.51.97-.82.31-.31.58-.65.81-1.03s.42-.77.56-1.2c.14-.42.21-.87.21-1.33v-1.12c0-.46-.07-.91-.21-1.33-.14-.42-.32-.83-.56-1.2s-.5-.72-.81-1.03c-.31-.31-.64-.58-.97-.82h1.63c.31.24.6.52.88.86.28.34.52.72.73,1.15.21.43.37.89.5,1.38s.18,1.01.18,1.55Z"/><rect class="c" x="88.94" y="176" width="62.81" height="26.91"/><path d="M115.06,194.13v-7.68h.92v6.88h3.64v.8h-4.56Z"/><path d="M121.28,194.13v-.8h2.2v-6.19h-.08l-1.94,1.8-.54-.58,2.04-1.9h1.44v6.88h2.02v.8h-5.15Z"/><rect class="c" x="88.15" y="202.91" width="66.12" height="28.2"/><path d="M115.92,221.68v-7.68h.92v6.88h3.64v.8h-4.56Z"/><path d="M127.11,221.68h-5.13v-.95l2.56-2.31c.37-.34.68-.68.92-1.04.24-.36.36-.73.36-1.13v-.13c0-.46-.12-.82-.36-1.07-.24-.25-.6-.38-1.08-.38s-.83.12-1.08.36-.44.55-.57.95l-.83-.31c.07-.23.17-.45.3-.67.13-.22.29-.41.49-.58.2-.17.44-.3.72-.41s.61-.15.98-.15.72.06,1.02.17c.3.11.55.26.75.46.2.2.36.43.46.7.11.27.16.57.16.89,0,.29-.04.57-.13.82-.08.26-.2.5-.35.74-.15.24-.33.46-.54.69s-.44.45-.7.67l-2.15,1.87h4.17v.8Z"/><rect class="c" x="126.84" y="313.1" width="37.56" height="30.47"/><path d="M136.25,324.08h1.07c.47,0,.82.16,1.05.48.23.32.35.8.35,1.44s-.12,1.11-.35,1.44c-.23.32-.58.48-1.05.48h-1.07v-3.84ZM137.3,327.51c.31,0,.54-.11.7-.32s.23-.51.23-.9v-.59c0-.39-.08-.69-.23-.9-.16-.21-.39-.32-.7-.32h-.59v3.04h.59Z"/><path d="M141.75,327.91c-.17,0-.3-.04-.37-.13-.07-.09-.12-.2-.14-.33h-.03c-.06.17-.16.29-.3.39-.14.09-.32.14-.55.14-.3,0-.53-.08-.71-.23-.18-.15-.26-.37-.26-.63s.1-.47.29-.61.5-.21.93-.21h.6v-.28c0-.21-.06-.36-.18-.47-.12-.1-.28-.16-.5-.16-.19,0-.35.04-.47.11s-.22.18-.29.31l-.3-.22c.04-.07.09-.14.15-.21s.14-.13.23-.19.2-.1.31-.13c.12-.03.25-.05.39-.05.33,0,.6.08.79.25.2.17.29.4.29.71v1.57h.4v.38h-.3ZM140.44,327.61c.11,0,.22-.01.31-.04.09-.03.18-.06.25-.11.07-.05.12-.1.16-.17.04-.06.06-.13.06-.21v-.47h-.6c-.26,0-.46.04-.58.11-.12.07-.18.18-.18.32v.12c0,.15.05.26.16.33s.25.11.43.11Z"/><path d="M142.62,327.91v-2.84h.41v.33h.02c.04-.11.11-.2.19-.28s.2-.12.36-.12.29.04.37.12c.08.08.13.19.15.32h.02c.05-.13.12-.23.22-.32.1-.08.23-.13.4-.13.23,0,.39.08.46.24.08.16.12.39.12.69v1.97h-.41v-1.9c0-.24-.02-.41-.07-.5-.05-.09-.14-.14-.27-.14-.12,0-.21.04-.29.11s-.11.19-.11.34v2.08h-.41v-1.9c0-.24-.02-.41-.07-.5-.05-.09-.14-.14-.27-.14-.12,0-.21.04-.29.11s-.11.19-.11.34v2.08h-.41Z"/><path d="M147.32,327.98c-.21,0-.39-.03-.55-.1-.16-.07-.3-.17-.42-.3-.12-.13-.2-.29-.27-.47s-.09-.38-.09-.61.03-.43.1-.62c.06-.18.15-.34.27-.47s.25-.23.41-.3c.16-.07.34-.1.53-.1s.36.04.52.1c.16.07.29.17.4.29.11.12.19.27.25.44.06.17.09.35.09.56v.21h-2.1v.13c0,.12.02.24.06.35.04.11.1.2.17.28.07.08.17.14.27.18.11.04.23.06.36.06.19,0,.36-.04.49-.13.14-.09.25-.21.32-.36l.32.22c-.08.19-.22.35-.42.47-.2.12-.44.18-.72.18ZM147.29,325.37c-.12,0-.23.02-.34.07s-.19.1-.27.18-.13.17-.18.27c-.04.1-.06.22-.06.34v.04h1.63v-.06c0-.12-.02-.24-.06-.34s-.09-.19-.16-.27-.15-.13-.25-.17c-.1-.04-.2-.06-.32-.06Z"/><path d="M149.46,327.91v-2.84h.44v.46h.02c.03-.07.07-.14.11-.2.04-.06.1-.12.16-.17.06-.05.14-.09.23-.12s.19-.04.31-.04c.3,0,.54.09.71.28.18.19.27.46.27.8v1.82h-.44v-1.74c0-.26-.06-.45-.17-.58-.11-.13-.28-.19-.5-.19-.09,0-.17.01-.26.03-.08.02-.16.05-.23.1-.07.04-.12.1-.16.17-.04.07-.06.15-.06.24v1.97h-.44Z"/><path d="M153.08,326.47v-.46h1.59v.46h-1.59Z"/><path d="M142.82,333.41l-.3-3.84h.41l.16,2.2.08,1.16h.04l.51-2.36h.52l.51,2.36h.04l.08-1.16.16-2.2h.4l-.3,3.84h-.67l-.47-2.29h-.04l-.47,2.29h-.67Z"/><path d="M147.4,333.48c-.47,0-.82-.17-1.05-.51-.23-.34-.34-.83-.34-1.47s.11-1.13.34-1.47c.23-.34.58-.51,1.05-.51.18,0,.33.02.46.07s.24.11.33.19c.09.08.17.17.23.27s.12.2.17.31l-.4.18c-.03-.08-.07-.16-.12-.24-.04-.08-.1-.14-.16-.2-.06-.06-.13-.1-.21-.13s-.18-.05-.3-.05c-.3,0-.53.12-.68.35s-.22.54-.22.92v.63c0,.38.07.69.22.92.15.23.38.35.68.35.12,0,.22-.02.3-.05.08-.03.15-.08.21-.13.06-.06.11-.12.16-.2.04-.08.08-.16.12-.24l.4.18c-.05.11-.1.21-.17.31s-.14.19-.23.27-.2.14-.33.19-.28.07-.46.07Z"/><rect class="c" x="103.63" y="313.1" width="23.21" height="30.47"/><path d="M104.71,318.34h.44v1.69h.02c.18-.35.48-.53.87-.53.35,0,.62.13.82.39s.29.62.29,1.09-.1.83-.29,1.09c-.2.26-.47.39-.82.39-.4,0-.69-.18-.87-.53h-.02v.46h-.44v-4.07ZM105.87,322.09c.26,0,.46-.08.6-.23.14-.16.21-.36.21-.62v-.48c0-.26-.07-.46-.21-.62-.14-.16-.34-.23-.6-.23-.1,0-.19.01-.28.04-.09.03-.17.06-.23.11-.07.05-.12.11-.16.18-.04.07-.06.15-.06.25v1.02c0,.1.02.18.06.25.04.07.09.13.16.18.07.05.14.09.23.11.09.03.18.04.28.04Z"/><path d="M110.04,322.41c-.17,0-.3-.04-.37-.13-.07-.09-.12-.2-.14-.33h-.03c-.06.17-.16.29-.3.39-.14.09-.32.14-.55.14-.3,0-.53-.08-.71-.23-.18-.15-.26-.37-.26-.63s.1-.47.29-.61.5-.21.93-.21h.6v-.28c0-.21-.06-.36-.18-.47-.12-.1-.28-.16-.5-.16-.19,0-.35.04-.47.11s-.22.18-.29.31l-.3-.22c.04-.07.09-.14.15-.21s.14-.13.23-.19.2-.1.31-.13c.12-.03.25-.05.39-.05.33,0,.6.08.79.25.2.17.29.4.29.71v1.57h.4v.38h-.3ZM108.73,322.11c.11,0,.22-.01.31-.04.09-.03.18-.06.25-.11.07-.05.12-.1.16-.17.04-.06.06-.13.06-.21v-.47h-.6c-.26,0-.46.04-.58.11-.12.07-.18.18-.18.32v.12c0,.15.05.26.16.33s.25.11.43.11Z"/><path d="M110.88,322.03h.83v-2.08h-.83v-.38h1.27v.71h.03c.06-.22.17-.4.33-.53.16-.13.37-.19.62-.19h.4v.44h-.53c-.25,0-.46.07-.61.22s-.23.34-.23.58v1.22h1.1v.38h-2.37v-.38Z"/><path d="M114.01,322.03h.83v-2.08h-.83v-.38h1.27v.71h.03c.06-.22.17-.4.33-.53.16-.13.37-.19.62-.19h.4v.44h-.53c-.25,0-.46.07-.61.22s-.23.34-.23.58v1.22h1.1v.38h-2.37v-.38Z"/><path d="M117.31,322.03h1.02v-2.08h-1.02v-.38h1.46v2.46h.96v.38h-2.42v-.38ZM118.55,318.95c-.13,0-.22-.03-.27-.08-.05-.05-.08-.12-.08-.2v-.09c0-.08.03-.15.08-.2.05-.05.14-.08.27-.08s.22.03.27.08c.05.05.08.12.08.2v.09c0,.08-.03.15-.08.2-.05.05-.14.08-.27.08Z"/><path d="M121.56,322.48c-.21,0-.39-.03-.55-.1-.16-.07-.3-.17-.42-.3-.12-.13-.2-.29-.27-.47s-.09-.38-.09-.61.03-.43.1-.62c.06-.18.15-.34.27-.47s.25-.23.41-.3c.16-.07.34-.1.53-.1s.36.04.52.1c.16.07.29.17.4.29.11.12.19.27.25.44.06.17.09.35.09.56v.21h-2.1v.13c0,.12.02.24.06.35.04.11.1.2.17.28.07.08.17.14.27.18.11.04.23.06.36.06.19,0,.36-.04.49-.13.14-.09.25-.21.32-.36l.32.22c-.08.19-.22.35-.42.47-.2.12-.44.18-.72.18ZM121.53,319.87c-.12,0-.23.02-.34.07s-.19.1-.27.18-.13.17-.18.27c-.04.1-.06.22-.06.34v.04h1.63v-.06c0-.12-.02-.24-.06-.34s-.09-.19-.16-.27-.15-.13-.25-.17c-.1-.04-.2-.06-.32-.06Z"/><path d="M123.42,322.03h.83v-2.08h-.83v-.38h1.27v.71h.03c.06-.22.17-.4.33-.53.16-.13.37-.19.62-.19h.4v.44h-.53c-.25,0-.46.07-.61.22s-.23.34-.23.58v1.22h1.1v.38h-2.37v-.38Z"/><path d="M113.72,327.98c-.21,0-.39-.03-.55-.1-.16-.07-.3-.17-.42-.3-.12-.13-.2-.29-.27-.47s-.09-.38-.09-.61.03-.43.1-.62c.06-.18.15-.34.27-.47s.25-.23.41-.3c.16-.07.34-.1.53-.1s.36.04.52.1c.16.07.29.17.4.29.11.12.19.27.25.44.06.17.09.35.09.56v.21h-2.1v.13c0,.12.02.24.06.35.04.11.1.2.17.28.07.08.17.14.27.18.11.04.23.06.36.06.19,0,.36-.04.49-.13.14-.09.25-.21.32-.36l.32.22c-.08.19-.22.35-.42.47-.2.12-.44.18-.72.18ZM113.69,325.37c-.12,0-.23.02-.34.07s-.19.1-.27.18-.13.17-.18.27c-.04.1-.06.22-.06.34v.04h1.63v-.06c0-.12-.02-.24-.06-.34s-.09-.19-.16-.27-.15-.13-.25-.17c-.1-.04-.2-.06-.32-.06Z"/><path d="M116.01,326.47v-.46h1.59v.46h-1.59Z"/><path d="M106.21,333.03h.96v-2.08h-1.01v-.38h1.01v-.58c0-.19.05-.35.15-.47.1-.12.26-.18.48-.18h.95v.38h-1.14v.85h1.14v.38h-1.14v2.08h1.01v.38h-2.41v-.38Z"/><path d="M109.31,333.03h.83v-2.08h-.83v-.38h1.27v.71h.03c.06-.22.17-.4.33-.53.16-.13.37-.19.62-.19h.4v.44h-.53c-.25,0-.46.07-.61.22s-.23.34-.23.58v1.22h1.1v.38h-2.37v-.38Z"/><path d="M113.72,333.48c-.21,0-.39-.03-.55-.1-.16-.07-.3-.17-.42-.3-.12-.13-.2-.29-.27-.47s-.09-.38-.09-.61.03-.43.1-.62c.06-.18.15-.34.27-.47s.25-.23.41-.3c.16-.07.34-.1.53-.1s.36.04.52.1c.16.07.29.17.4.29.11.12.19.27.25.44.06.17.09.35.09.56v.21h-2.1v.13c0,.12.02.24.06.35.04.11.1.2.17.28.07.08.17.14.27.18.11.04.23.06.36.06.19,0,.36-.04.49-.13.14-.09.25-.21.32-.36l.32.22c-.08.19-.22.35-.42.47-.2.12-.44.18-.72.18ZM113.69,330.87c-.12,0-.23.02-.34.07s-.19.1-.27.18-.13.17-.18.27c-.04.1-.06.22-.06.34v.04h1.63v-.06c0-.12-.02-.24-.06-.34s-.09-.19-.16-.27-.15-.13-.25-.17c-.1-.04-.2-.06-.32-.06Z"/><path d="M115.74,333.03h1.02v-2.08h-1.02v-.38h1.46v2.46h.96v.38h-2.42v-.38ZM116.98,329.95c-.13,0-.22-.03-.27-.08-.05-.05-.08-.12-.08-.2v-.09c0-.08.03-.15.08-.2.05-.05.14-.08.27-.08s.22.03.27.08c.05.05.08.12.08.2v.09c0,.08-.03.15-.08.2-.05.05-.14.08-.27.08Z"/><path d="M119.99,333.48c-.21,0-.39-.03-.55-.1-.16-.07-.3-.17-.42-.3-.12-.13-.2-.29-.27-.47s-.09-.38-.09-.61.03-.43.1-.62c.06-.18.15-.34.27-.47s.25-.23.41-.3c.16-.07.34-.1.53-.1s.36.04.52.1c.16.07.29.17.4.29.11.12.19.27.25.44.06.17.09.35.09.56v.21h-2.1v.13c0,.12.02.24.06.35.04.11.1.2.17.28.07.08.17.14.27.18.11.04.23.06.36.06.19,0,.36-.04.49-.13.14-.09.25-.21.32-.36l.32.22c-.08.19-.22.35-.42.47-.2.12-.44.18-.72.18ZM119.96,330.87c-.12,0-.23.02-.34.07s-.19.1-.27.18-.13.17-.18.27c-.04.1-.06.22-.06.34v.04h1.63v-.06c0-.12-.02-.24-.06-.34s-.09-.19-.16-.27-.15-.13-.25-.17c-.1-.04-.2-.06-.32-.06Z"/><path d="M123.11,333.48c-.3,0-.55-.05-.77-.15-.21-.1-.4-.24-.55-.4l.3-.26c.14.14.28.25.45.33.16.08.36.12.58.12s.4-.04.54-.12.21-.2.21-.37c0-.07-.01-.13-.04-.18s-.06-.09-.11-.12-.1-.05-.16-.07c-.06-.02-.12-.03-.19-.04l-.45-.07c-.1-.01-.21-.04-.32-.06-.12-.03-.22-.07-.32-.12-.1-.06-.17-.13-.24-.23-.06-.09-.1-.22-.1-.37,0-.14.03-.27.09-.37.06-.1.14-.19.24-.26s.22-.12.36-.16c.14-.04.29-.05.46-.05.26,0,.48.04.67.12s.35.19.49.34l-.29.27s-.07-.08-.12-.12c-.05-.04-.11-.08-.18-.12-.07-.03-.16-.06-.25-.08-.1-.02-.21-.03-.33-.03-.22,0-.4.04-.51.12s-.18.19-.18.33c0,.07.01.13.04.18.03.05.06.09.11.12.05.03.1.05.16.07s.12.03.18.04l.45.07c.1.01.21.04.32.06s.22.07.31.12.18.13.24.23c.06.09.1.22.1.37,0,.28-.11.5-.33.65-.22.15-.51.23-.87.23Z"/><path d="M112.52,338.91l-.3-3.84h.41l.16,2.2.08,1.16h.04l.51-2.36h.52l.51,2.36h.04l.08-1.16.16-2.2h.4l-.3,3.84h-.67l-.47-2.29h-.04l-.47,2.29h-.67Z"/><path d="M116.93,338.98c-.47,0-.82-.17-1.05-.51-.23-.34-.34-.83-.34-1.47s.11-1.13.34-1.47c.23-.34.58-.51,1.05-.51.18,0,.33.02.46.07s.24.11.33.19c.09.08.17.17.23.27s.12.2.17.31l-.4.18c-.03-.08-.07-.16-.12-.24-.04-.08-.1-.14-.16-.2-.06-.06-.13-.1-.21-.13s-.18-.05-.3-.05c-.3,0-.53.12-.68.35s-.22.54-.22.92v.63c0,.38.07.69.22.92.15.23.38.35.68.35.12,0,.22-.02.3-.05.08-.03.15-.08.21-.13.06-.06.11-.12.16-.2.04-.08.08-.16.12-.24l.4.18c-.05.11-.1.21-.17.31s-.14.19-.23.27-.2.14-.33.19-.28.07-.46.07Z"/><path d="M194.37,87.38h3.44v.46h-3.44v1.28h-.4v-3.02h.4v1.28Z"/><path d="M197.87,84.43c0,.21-.03.39-.1.55-.07.16-.17.3-.3.42-.13.12-.29.2-.47.27s-.38.09-.61.09-.43-.03-.62-.1c-.18-.06-.34-.15-.47-.27-.13-.11-.23-.25-.3-.41-.07-.16-.1-.34-.1-.53s.03-.36.1-.52c.07-.16.17-.29.29-.4.12-.11.27-.19.44-.25.17-.06.35-.09.56-.09h.21v2.1h.13c.12,0,.24-.02.35-.06s.2-.1.27-.17c.08-.07.14-.17.18-.27.04-.11.06-.23.06-.36,0-.19-.04-.36-.13-.5-.09-.14-.21-.25-.36-.32l.22-.32c.19.08.35.22.47.42.12.2.18.44.18.72ZM195.27,84.46c0,.12.02.23.07.34s.1.19.18.27.17.13.27.18.22.06.34.06h.04v-1.63h-.06c-.12,0-.24.02-.34.06-.1.04-.19.09-.27.16-.08.07-.13.15-.17.25-.04.1-.06.2-.06.32Z"/><path d="M197.87,81.25c0,.21-.04.39-.11.55-.07.16-.17.29-.3.4s-.28.19-.47.25c-.18.06-.39.09-.61.09s-.43-.03-.61-.09c-.18-.06-.34-.14-.47-.25-.13-.11-.23-.24-.3-.4-.07-.16-.1-.34-.1-.54,0-.27.06-.5.18-.67.12-.17.28-.3.47-.38l.19.35c-.15.05-.26.14-.34.26s-.12.27-.12.44c0,.13.02.24.06.34.04.1.1.19.18.26.08.07.17.12.28.16s.22.05.35.05h.48c.12,0,.24-.02.35-.05s.2-.09.27-.16c.08-.07.14-.16.18-.26.04-.1.06-.22.06-.35,0-.19-.04-.35-.13-.47-.09-.12-.21-.22-.36-.3l.21-.31c.19.08.35.21.47.39s.19.41.19.7Z"/><path d="M193.74,79.32v-.44h1.69v-.02c-.07-.03-.14-.07-.2-.11s-.12-.1-.17-.16c-.05-.06-.09-.14-.12-.23s-.04-.19-.04-.31c0-.3.09-.54.28-.71s.46-.27.8-.27h1.82v.44h-1.74c-.26,0-.45.06-.58.17s-.19.28-.19.5c0,.09.01.17.03.26s.06.16.1.23.1.12.17.16c.07.04.15.06.24.06h1.97v.44h-4.07Z"/><path d="M197.81,76.19h-2.84v-.44h.46v-.02c-.07-.03-.14-.07-.2-.11s-.12-.1-.17-.16c-.05-.06-.09-.14-.12-.23s-.04-.19-.04-.31c0-.3.09-.54.28-.71s.46-.27.8-.27h1.82v.44h-1.74c-.26,0-.45.06-.58.17s-.19.28-.19.5c0,.09.01.17.03.26s.06.16.1.23.1.12.17.16c.07.04.15.06.24.06h1.97v.44Z"/><path d="M194.34,71.76c0,.13-.03.22-.08.27-.05.05-.12.08-.2.08h-.09c-.08,0-.15-.03-.2-.08-.05-.05-.08-.14-.08-.27s.03-.22.08-.27c.05-.05.12-.08.2-.08h.09c.08,0,.15.03.2.08.05.05.08.14.08.27ZM197.43,73.01v-1.02h-2.08v1.02h-.38v-1.46h2.46v-.96h.38v2.42h-.38Z"/><path d="M193.74,69.88v-.44h2.57v-.02l-.47-.5-.87-.95v-.54l1.11,1.18,1.73-1.32v.54l-1.47,1.11.45.49h1.03v.44h-4.07Z"/><path d="M206.79,87.38h3.44v.46h-3.44v1.28h-.4v-3.02h.4v1.28Z"/><path d="M210.29,84.43c0,.21-.03.39-.1.55-.07.16-.17.3-.3.42-.13.12-.29.2-.47.27s-.38.09-.61.09-.43-.03-.62-.1c-.18-.06-.34-.15-.47-.27-.13-.11-.23-.25-.3-.41-.07-.16-.1-.34-.1-.53s.03-.36.1-.52c.07-.16.17-.29.29-.4.12-.11.27-.19.44-.25.17-.06.35-.09.56-.09h.21v2.1h.13c.12,0,.24-.02.35-.06s.2-.1.27-.17c.08-.07.14-.17.18-.27.04-.11.06-.23.06-.36,0-.19-.04-.36-.13-.5-.09-.14-.21-.25-.36-.32l.22-.32c.19.08.35.22.47.42.12.2.18.44.18.72ZM207.69,84.46c0,.12.02.23.07.34s.1.19.18.27.17.13.27.18.22.06.34.06h.04v-1.63h-.06c-.12,0-.24.02-.34.06-.1.04-.19.09-.27.16-.08.07-.13.15-.17.25-.04.1-.06.2-.06.32Z"/><path d="M210.29,81.25c0,.21-.04.39-.11.55-.07.16-.17.29-.3.4s-.28.19-.47.25c-.18.06-.39.09-.61.09s-.43-.03-.61-.09c-.18-.06-.34-.14-.47-.25-.13-.11-.23-.24-.3-.4-.07-.16-.1-.34-.1-.54,0-.27.06-.5.18-.67.12-.17.28-.3.47-.38l.19.35c-.15.05-.26.14-.34.26s-.12.27-.12.44c0,.13.02.24.06.34.04.1.1.19.18.26.08.07.17.12.28.16s.22.05.35.05h.48c.12,0,.24-.02.35-.05s.2-.09.27-.16c.08-.07.14-.16.18-.26.04-.1.06-.22.06-.35,0-.19-.04-.35-.13-.47-.09-.12-.21-.22-.36-.3l.21-.31c.19.08.35.21.47.39s.19.41.19.7Z"/><path d="M206.16,79.32v-.44h1.69v-.02c-.07-.03-.14-.07-.2-.11s-.12-.1-.17-.16c-.05-.06-.09-.14-.12-.23s-.04-.19-.04-.31c0-.3.09-.54.28-.71s.46-.27.8-.27h1.82v.44h-1.74c-.26,0-.45.06-.58.17s-.19.28-.19.5c0,.09.01.17.03.26s.06.16.1.23.1.12.17.16c.07.04.15.06.24.06h1.97v.44h-4.07Z"/><path d="M210.23,76.19h-2.84v-.44h.46v-.02c-.07-.03-.14-.07-.2-.11s-.12-.1-.17-.16c-.05-.06-.09-.14-.12-.23s-.04-.19-.04-.31c0-.3.09-.54.28-.71s.46-.27.8-.27h1.82v.44h-1.74c-.26,0-.45.06-.58.17s-.19.28-.19.5c0,.09.01.17.03.26s.06.16.1.23.1.12.17.16c.07.04.15.06.24.06h1.97v.44Z"/><path d="M206.76,71.76c0,.13-.03.22-.08.27-.05.05-.12.08-.2.08h-.09c-.08,0-.15-.03-.2-.08-.05-.05-.08-.14-.08-.27s.03-.22.08-.27c.05-.05.12-.08.2-.08h.09c.08,0,.15.03.2.08.05.05.08.14.08.27ZM209.85,73.01v-1.02h-2.08v1.02h-.38v-1.46h2.46v-.96h.38v2.42h-.38Z"/><path d="M206.16,69.88v-.44h2.57v-.02l-.47-.5-.87-.95v-.54l1.11,1.18,1.73-1.32v.54l-1.47,1.11.45.49h1.03v.44h-4.07Z"/><path d="M93.41,337.5h3.44v.46h-3.44v1.28h-.4v-3.03h.4v1.28Z"/><path d="M96.91,334.55c0,.21-.03.39-.1.55-.07.16-.17.3-.3.42-.13.12-.29.2-.47.27s-.38.09-.61.09-.43-.03-.62-.1c-.18-.06-.34-.15-.47-.27-.13-.11-.23-.25-.3-.41-.07-.16-.1-.34-.1-.53s.03-.36.1-.52c.07-.16.17-.29.29-.4s.27-.19.44-.25c.17-.06.35-.09.56-.09h.21v2.1h.13c.12,0,.24-.02.35-.06.11-.04.2-.1.27-.17.08-.08.14-.17.18-.28.04-.11.06-.23.06-.36,0-.19-.04-.36-.13-.49-.09-.14-.21-.25-.36-.32l.22-.32c.19.08.35.22.47.42.12.2.18.44.18.72ZM94.3,334.58c0,.12.02.23.07.33s.1.19.18.27.17.13.27.18c.1.04.22.06.34.06h.04v-1.63h-.06c-.12,0-.24.02-.34.06-.1.04-.19.09-.27.16-.08.07-.13.15-.17.25-.04.1-.06.21-.06.32Z"/><path d="M96.91,331.36c0,.21-.04.39-.11.55-.07.16-.17.29-.3.4-.13.11-.28.19-.47.25-.18.06-.39.08-.61.08s-.43-.03-.61-.09c-.18-.06-.34-.14-.47-.25-.13-.11-.23-.24-.3-.4-.07-.16-.1-.34-.1-.54,0-.28.06-.5.18-.67.12-.17.28-.3.47-.38l.19.35c-.15.05-.26.14-.34.26s-.12.27-.12.44c0,.13.02.24.06.34.04.1.1.19.18.26.08.07.17.12.28.16.11.04.22.05.35.05h.48c.12,0,.24-.02.35-.05.11-.03.2-.09.27-.16.08-.07.14-.16.18-.26.04-.1.06-.22.06-.35,0-.19-.04-.35-.13-.47-.09-.12-.21-.22-.36-.3l.21-.31c.19.08.35.22.47.39s.19.41.19.7Z"/><path d="M92.77,329.44v-.44h1.69v-.02c-.07-.03-.14-.07-.2-.11s-.12-.1-.17-.16c-.05-.06-.09-.14-.12-.23s-.04-.19-.04-.31c0-.3.09-.54.28-.71s.46-.27.8-.27h1.82v.44h-1.74c-.26,0-.45.06-.58.17-.13.11-.19.28-.19.5,0,.09.01.17.03.26.02.08.06.16.1.22.04.07.1.12.17.16s.15.06.24.06h1.97v.44h-4.07Z"/><path d="M96.84,326.3h-2.84v-.44h.46v-.02c-.07-.03-.14-.07-.2-.11s-.12-.1-.17-.16c-.05-.06-.09-.14-.12-.23s-.04-.19-.04-.31c0-.3.09-.54.28-.71s.46-.27.8-.27h1.82v.44h-1.74c-.26,0-.45.06-.58.17-.13.11-.19.28-.19.5,0,.09.01.17.03.26.02.08.06.16.1.22.04.07.1.12.17.16s.15.06.24.06h1.97v.44Z"/><path d="M93.38,321.88c0,.13-.03.22-.08.27-.05.05-.12.08-.2.08h-.09c-.08,0-.15-.03-.2-.08s-.08-.14-.08-.27.03-.22.08-.27.12-.08.2-.08h.09c.08,0,.15.03.2.08.05.05.08.14.08.27ZM96.46,323.12v-1.02h-2.08v1.02h-.38v-1.46h2.46v-.96h.38v2.42h-.38Z"/><path d="M92.77,320v-.44h2.57v-.02l-.47-.5-.87-.95v-.54l1.11,1.18,1.73-1.31v.54l-1.47,1.11.45.49h1.03v.44h-4.07Z"/></g></svg>