<svg xmlns="http://www.w3.org/2000/svg" fill="none" viewBox="0 0 271 367">
  <g id="Neubau_Erdgeschoss" class="Neubau_Erdgeschoss">
    <g id="rooms" class="rooms">
      <path id="Vector" fill="#000" d="m106.68 69.72.41-.41.73.73.36.43h.03l-.05-.83v-2.87h.58v2.87l-.05.82h.03l.36-.42.73-.73.41.41-1.77 1.77-1.77-1.77Zm6.16-1.25-.41.41-.73-.73-.36-.43h-.03l.05.83v2.87h-.58v-2.87l.05-.82h-.03l-.36.42-.73.73-.41-.41 1.77-1.77 1.77 1.77Z" class="Vector"/>
      <g id="room_N4" class="room_N4">
        <path id="area" fill="#D9D9D9" d="M268.96 1h-84.38v58.48h84.38V1Z" class="area"/>
        <g id="number" class="number">
          <path id="Vector_2" fill="#000" d="M221.96 28.45h-.08v6.47h-.84v-7.68h1.31l2.62 6.47h.08v-6.47h.84v7.68h-1.31l-2.62-6.47Z" class="Vector"/>
          <path id="Vector_3" fill="#000" d="M230.93 34.91V33.4h-3.78v-.81l3.32-5.36h1.34v5.41h1.14v.76h-1.14v1.51h-.88Zm-2.96-2.26h2.96v-4.7h-.04l-2.91 4.7h-.01Z" class="Vector"/>
        </g>
      </g>
      <g id="room_N5" class="room_N5">
        <path id="area_2" fill="#D9D9D9" d="M268.96 93.24h-55.9v84.37h55.9V93.24Z" class="area"/>
        <g id="number_2" class="number">
          <path id="Vector_4" fill="#000" d="M236.2 133.62h-.08v6.47h-.84v-7.68h1.31l2.62 6.47h.08v-6.47h.84v7.68h-1.31l-2.62-6.47Z" class="Vector"/>
          <path id="Vector_5" fill="#000" d="M246.52 133.22h-3.43l-.22 2.94h.08c.19-.26.4-.46.64-.61.23-.15.56-.23.97-.23.34 0 .65.05.93.16s.53.26.73.47c.21.21.37.45.48.74.11.29.18.62.18 1s-.06.72-.18 1.03c-.12.31-.29.58-.52.8-.23.22-.5.4-.82.52-.32.12-.69.19-1.1.19-.32 0-.61-.04-.86-.11s-.48-.17-.67-.3c-.19-.12-.36-.26-.51-.42-.15-.15-.28-.32-.4-.48l.69-.53c.1.15.21.29.31.42.11.12.23.23.37.33.14.09.3.16.47.21.18.05.38.08.62.08.53 0 .93-.14 1.22-.43.29-.29.42-.68.42-1.19v-.09c0-.51-.14-.9-.43-1.19-.29-.29-.7-.43-1.23-.43-.37 0-.65.06-.85.19-.2.13-.39.28-.56.46l-.78-.11.27-4.22h4.18v.8Z" class="Vector"/>
        </g>
      </g>
      <g id="room_Oberstufenraum" class="room_Oberstufenraum">
        <path id="area_3" fill="#D9D9D9" d="M268.96 59.48h-55.9v33.88h55.9V59.48Z" class="area"/>
        <g id="text" class="text">
          <path id="Vector_6" fill="#000" d="M219.56 78.83c-.23 0-.44-.04-.6-.13-.16-.09-.31-.22-.42-.39-.11-.17-.19-.38-.24-.62a4.28 4.28 0 0 1-.08-.84c0-.31.03-.59.08-.84s.13-.46.24-.62c.11-.16.25-.3.42-.39.17-.09.37-.13.6-.13.23 0 .44.04.6.13.17.09.31.22.42.39.11.17.19.38.24.62.05.25.08.53.08.84 0 .31-.03.6-.08.84-.05.25-.13.45-.24.62-.11.17-.25.3-.42.39-.17.09-.37.13-.6.13Zm0-.41c.15 0 .28-.03.39-.09a.72.72 0 0 0 .26-.26c.07-.11.12-.24.15-.4.03-.16.05-.33.05-.53v-.63c0-.19-.02-.36-.05-.52-.03-.16-.08-.29-.15-.4a.807.807 0 0 0-.26-.26.776.776 0 0 0-.39-.09c-.15 0-.28.03-.39.09a.72.72 0 0 0-.26.26c-.07.11-.12.24-.15.4-.03.16-.05.33-.05.52v.63c0 .19.02.37.05.53.03.16.08.29.15.4.07.11.16.2.26.26.11.06.24.09.39.09Z" class="Vector"/>
          <path id="Vector_7" fill="#000" d="M221.73 74.69h.44v1.69h.02c.18-.35.48-.53.87-.53.35 0 .62.13.82.39.2.26.29.62.29 1.09 0 .47-.1.83-.29 1.09-.2.26-.47.39-.82.39-.4 0-.69-.18-.87-.53h-.02v.46h-.44v-4.07.02Zm1.17 3.74c.26 0 .46-.08.6-.23.14-.16.21-.36.21-.62v-.48c0-.26-.07-.46-.21-.62-.14-.16-.34-.23-.6-.23-.1 0-.19.01-.28.04-.09.03-.17.06-.23.11-.07.05-.12.11-.16.18-.04.07-.06.15-.06.25v1.02c0 .1.02.18.06.25.04.07.09.13.16.18.07.05.14.09.23.11.09.03.18.04.28.04Z" class="Vector"/>
          <path id="Vector_8" fill="#000" d="M226.21 78.83c-.21 0-.39-.03-.55-.1-.16-.07-.3-.17-.42-.3-.12-.13-.2-.29-.27-.47s-.09-.38-.09-.61c0-.23.03-.43.1-.62.06-.18.15-.34.27-.47.12-.13.25-.23.41-.3.16-.07.34-.1.53-.1s.36.04.52.1a1.178 1.178 0 0 1 .65.73c.06.17.09.35.09.56v.21h-2.1v.13c0 .12.02.24.06.35.04.11.1.2.17.28.07.08.17.14.27.18.11.04.23.06.36.06a.854.854 0 0 0 .81-.49l.32.22c-.08.19-.22.35-.42.47-.2.12-.44.18-.72.18l.01-.01Zm-.03-2.61c-.12 0-.23.02-.34.07-.11.05-.19.1-.27.18a.98.98 0 0 0-.18.27c-.04.1-.06.22-.06.34v.04h1.63v-.06a.934.934 0 0 0-.22-.61.62.62 0 0 0-.25-.17.83.83 0 0 0-.32-.06h.01Z" class="Vector"/>
          <path id="Vector_9" fill="#000" d="M228.23 78.38h.83V76.3h-.83v-.38h1.27v.71h.03c.06-.22.17-.4.33-.53s.37-.19.62-.19h.4v.44h-.53c-.25 0-.46.07-.61.22-.15.15-.23.34-.23.58v1.22h1.1v.38h-2.37v-.38l-.01.01Z" class="Vector"/>
          <path id="Vector_10" fill="#000" d="M232.79 78.83c-.3 0-.55-.05-.77-.15-.21-.1-.4-.24-.55-.4l.3-.26c.14.14.28.25.45.33.16.08.36.12.58.12.22 0 .4-.04.54-.12.14-.08.21-.2.21-.37a.342.342 0 0 0-.15-.3.774.774 0 0 0-.16-.07c-.06-.02-.12-.03-.19-.04l-.45-.07c-.1-.01-.21-.04-.32-.06-.12-.03-.22-.07-.32-.12a.751.751 0 0 1-.24-.23.675.675 0 0 1-.1-.37.724.724 0 0 1 .33-.63c.1-.07.22-.12.36-.16.14-.04.29-.05.46-.05.26 0 .48.04.67.12.19.08.35.19.49.34l-.29.27s-.07-.08-.12-.12c-.05-.04-.11-.08-.18-.12a1.47 1.47 0 0 0-.25-.08c-.1-.02-.21-.03-.33-.03-.22 0-.4.04-.51.12a.4.4 0 0 0-.18.33.342.342 0 0 0 .15.3c.05.03.1.05.16.07.06.02.12.03.18.04l.45.07c.1.01.21.04.32.06.11.02.22.07.31.12a.675.675 0 0 1 .34.6c0 .28-.11.5-.33.65-.22.15-.51.23-.87.23l.01-.02Z" class="Vector"/>
          <path id="Vector_11" fill="#000" d="M236.2 78.76c-.22 0-.38-.06-.48-.18a.716.716 0 0 1-.15-.47V76.3h-.95v-.38h.7c.1 0 .16-.02.2-.06.04-.04.06-.11.06-.2v-.74h.42v1h1.29v.38H236v2.08h1.29v.38h-1.11.02Z" class="Vector"/>
          <path id="Vector_12" fill="#000" d="M240.03 78.3h-.02c-.03.07-.07.14-.11.2-.04.06-.1.12-.16.17-.06.05-.14.09-.23.12s-.19.04-.31.04c-.3 0-.54-.09-.72-.28-.18-.19-.27-.46-.27-.8v-1.82h.44v1.74c0 .26.06.45.17.58.11.13.28.19.5.19.09 0 .17-.01.26-.03.08-.02.16-.06.23-.1a.487.487 0 0 0 .22-.42v-1.97h.44v2.84h-.44v-.46Z" class="Vector"/>
          <path id="Vector_13" fill="#000" d="M241.46 78.38h.96V76.3h-1.01v-.38h1.01v-.58c0-.19.05-.35.15-.47.1-.12.26-.18.48-.18h.95v.38h-1.14v.85H244v.38h-1.14v2.08h1.01v.38h-2.41v-.38Z" class="Vector"/>
          <path id="Vector_14" fill="#000" d="M246.01 78.83c-.21 0-.39-.03-.55-.1-.16-.07-.3-.17-.42-.3-.12-.13-.2-.29-.27-.47s-.09-.38-.09-.61c0-.23.03-.43.1-.62.06-.18.15-.34.27-.47.12-.13.25-.23.41-.3.16-.07.34-.1.53-.1s.36.04.52.1a1.178 1.178 0 0 1 .65.73c.06.17.09.35.09.56v.21h-2.1v.13c0 .12.02.24.06.35.04.11.1.2.17.28.07.08.17.14.27.18.11.04.23.06.36.06a.854.854 0 0 0 .81-.49l.32.22c-.08.19-.22.35-.42.47-.2.12-.44.18-.72.18l.01-.01Zm-.03-2.61c-.12 0-.23.02-.34.07-.11.05-.19.1-.27.18a.98.98 0 0 0-.18.27c-.04.1-.06.22-.06.34v.04h1.63v-.06a.934.934 0 0 0-.22-.61.62.62 0 0 0-.25-.17.83.83 0 0 0-.32-.06h.01Z" class="Vector"/>
          <path id="Vector_15" fill="#000" d="M248.15 78.76v-2.84h.44v.46h.02c.03-.07.07-.14.11-.2.04-.06.1-.12.16-.17.06-.05.14-.09.23-.12s.19-.04.31-.04c.3 0 .54.09.71.28.18.19.27.46.27.8v1.82h-.44v-1.74c0-.26-.06-.45-.17-.58-.11-.13-.28-.19-.5-.19-.09 0-.17.01-.26.03-.08.02-.16.05-.23.1a.475.475 0 0 0-.22.41v1.97h-.44l.01.01Z" class="Vector"/>
          <path id="Vector_16" fill="#000" d="M251.33 78.38h.83V76.3h-.83v-.38h1.27v.71h.03c.06-.22.17-.4.33-.53s.37-.19.62-.19h.4v.44h-.53c-.25 0-.46.07-.61.22-.15.15-.23.34-.23.58v1.22h1.1v.38h-2.37v-.38l-.01.01Z" class="Vector"/>
          <path id="Vector_17" fill="#000" d="M256.93 78.76c-.17 0-.3-.04-.37-.13a.705.705 0 0 1-.14-.33h-.03a.78.78 0 0 1-.3.39c-.14.09-.32.14-.55.14-.3 0-.53-.08-.71-.23-.18-.15-.26-.37-.26-.63s.1-.47.29-.61c.19-.14.5-.21.93-.21h.6v-.28c0-.21-.06-.36-.18-.47a.748.748 0 0 0-.5-.16c-.19 0-.35.04-.47.11a.79.79 0 0 0-.29.31l-.3-.22c.04-.07.09-.14.15-.21a1.11 1.11 0 0 1 .54-.32c.12-.03.25-.05.39-.05.33 0 .6.08.79.25.2.17.29.4.29.71v1.57h.4v.38h-.3l.02-.01Zm-1.31-.3c.11 0 .22-.01.31-.04s.18-.06.25-.11.12-.1.16-.17a.37.37 0 0 0 .06-.21v-.47h-.6c-.26 0-.46.04-.58.11a.35.35 0 0 0-.18.32v.12c0 .15.05.26.16.33s.25.11.43.11l-.01.01Z" class="Vector"/>
          <path id="Vector_18" fill="#000" d="M259.83 78.3h-.02c-.03.07-.07.14-.11.2-.04.06-.1.12-.16.17-.06.05-.14.09-.23.12s-.19.04-.31.04c-.3 0-.54-.09-.72-.28-.18-.19-.27-.46-.27-.8v-1.82h.44v1.74c0 .26.06.45.17.58.11.13.28.19.5.19.09 0 .17-.01.26-.03.08-.02.16-.06.23-.1a.487.487 0 0 0 .22-.42v-1.97h.44v2.84h-.44v-.46Z" class="Vector"/>
          <path id="Vector_19" fill="#000" d="M261.1 78.76v-2.84h.41v.33h.02c.04-.11.11-.2.19-.28.08-.08.2-.12.36-.12.16 0 .29.04.37.12.08.08.13.19.15.32h.02c.05-.13.12-.23.22-.32.1-.08.23-.13.4-.13.23 0 .39.08.46.24.08.16.12.39.12.69v1.97h-.41v-1.9c0-.24-.02-.41-.07-.5-.05-.09-.14-.14-.27-.14-.12 0-.21.04-.29.11-.08.07-.11.19-.11.34v2.08h-.41v-1.9c0-.24-.02-.41-.07-.5-.05-.09-.14-.14-.27-.14-.12 0-.21.04-.29.11-.08.07-.11.19-.11.34v2.08h-.41l-.01.04Z" class="Vector"/>
        </g>
      </g>
      <g id="room_N6" class="room_N6">
        <path id="area_4" fill="#D9D9D9" d="M268.95 252.37v-74.76h-55.48v13.27h-10.15v61.49h65.63Z" class="area"/>
        <g id="number_3" class="number">
          <path id="Vector_20" fill="#000" d="M231.34 213.19h-.08v6.47h-.84v-7.68h1.31l2.62 6.47h.08v-6.47h.84v7.68h-1.31l-2.62-6.47Z" class="Vector"/>
          <path id="Vector_21" fill="#000" d="M239.45 219.79c-.4 0-.77-.07-1.09-.2-.32-.14-.6-.33-.82-.58-.22-.25-.4-.56-.52-.93s-.18-.78-.18-1.23c0-.57.09-1.11.26-1.61s.39-.96.66-1.38c.27-.41.57-.78.9-1.1.33-.32.65-.58.97-.78h1.19c-.42.3-.79.59-1.12.88-.33.29-.61.58-.86.9-.25.31-.46.64-.63 1-.17.36-.31.76-.42 1.2l.06.02c.18-.32.43-.58.73-.79.3-.21.69-.31 1.17-.31.34 0 .65.05.92.17.27.12.52.27.73.47.21.21.36.46.48.75.11.29.17.62.17.98s-.06.72-.19 1.03c-.12.31-.3.58-.52.8-.22.22-.5.4-.81.52-.32.12-.67.19-1.06.19h-.02Zm-.01-.78c.53 0 .94-.14 1.23-.43.29-.29.43-.69.43-1.21v-.09c0-.52-.15-.92-.43-1.21-.28-.29-.7-.43-1.23-.43s-.94.14-1.23.43c-.29.29-.43.69-.43 1.21v.09c0 .52.14.92.43 1.21.29.29.7.43 1.23.43Z" class="Vector"/>
        </g>
      </g>
      <g id="room_N3" class="room_N3">
        <path id="area_5" fill="#D9D9D9" d="M184.58 1H100.2v58.48h84.38V1Z" class="area"/>
        <g id="number_4" class="number">
          <path id="Vector_22" fill="#000" d="M137.59 28.45h-.08v6.47h-.84v-7.68h1.31l2.62 6.47h.08v-6.47h.84v7.68h-1.31l-2.62-6.47Z" class="Vector"/>
          <path id="Vector_23" fill="#000" d="M145.36 30.48c.54 0 .94-.12 1.2-.36s.4-.54.4-.92v-.08c0-.41-.13-.72-.39-.92-.26-.21-.6-.31-1.02-.31-.42 0-.74.09-1 .27-.26.18-.46.42-.62.71l-.69-.53c.1-.15.21-.31.35-.46.14-.15.3-.28.49-.4s.4-.21.65-.29c.25-.07.53-.11.84-.11.31 0 .64.04.92.13.29.08.54.21.75.37.21.17.38.37.5.61s.18.52.18.82c0 .25-.04.47-.12.67-.08.2-.18.37-.32.52-.14.15-.29.27-.48.37-.18.1-.38.18-.58.23v.04c.21.04.42.12.62.21.2.1.37.23.53.38.15.16.28.35.37.57.09.22.14.48.14.77 0 .33-.06.63-.19.91s-.31.51-.54.71c-.23.19-.51.35-.84.46-.33.11-.69.17-1.08.17-.34 0-.64-.04-.9-.11s-.49-.17-.69-.3c-.2-.12-.38-.26-.53-.42-.15-.15-.28-.32-.4-.48l.69-.53c.1.15.21.29.32.42.11.13.24.23.38.32s.31.16.49.21c.18.05.4.08.64.08.54 0 .96-.12 1.25-.37.29-.25.43-.61.43-1.07v-.09c0-.46-.14-.81-.42-1.06-.28-.25-.71-.37-1.27-.37h-.91v-.8h.85v.03Z" class="Vector"/>
        </g>
      </g>
      <g id="room_N2" class="room_N2">
        <path id="area_6" fill="#D9D9D9" d="M73.35 93.24H16.58v73.65h63.39l-6.62-73.65Z" class="area"/>
        <g id="number_5" class="number">
          <path id="Vector_24" fill="#000" d="M40.16 128.26h-.08v6.47h-.84v-7.68h1.31l2.62 6.47h.08v-6.47h.84v7.68h-1.31l-2.62-6.47Z" class="Vector"/>
          <path id="Vector_25" fill="#000" d="M50.87 134.73h-5.13v-.95l2.56-2.31c.37-.34.68-.68.92-1.04s.36-.73.36-1.13v-.13c0-.46-.12-.82-.36-1.07-.24-.25-.6-.38-1.08-.38-.48 0-.83.12-1.08.36-.25.24-.44.55-.57.95l-.83-.31c.07-.23.17-.45.3-.67.13-.22.29-.41.49-.58.2-.17.44-.3.72-.41.28-.11.61-.15.98-.15s.72.06 1.02.17c.3.11.55.26.75.46.2.2.36.43.46.7.11.27.16.57.16.89 0 .29-.04.57-.13.82-.08.26-.2.5-.35.74-.15.24-.33.46-.54.69-.21.23-.44.45-.7.67l-2.15 1.87h4.17v.8l.03.01Z" class="Vector"/>
        </g>
      </g>
      <g id="room_N1" class="room_N1">
        <path id="area_7" fill="#D9D9D9" d="M85.386 221.99H17v81.99h75.97l-7.584-81.99Z" class="area"/>
        <g id="number_6" class="number">
          <path id="Vector_26" fill="#000" d="M47.455 262.18h-.079v6.47h-.825v-7.68h1.287l2.574 6.47h.078v-6.47h.826v7.68h-1.287l-2.574-6.47Z" class="Vector"/>
          <path id="Vector_27" fill="#000" d="M53.094 268.65v-.8h2.161v-6.19h-.079l-1.906 1.8-.53-.58 2.004-1.9h1.415v6.88h1.984v.8h-5.06l.01-.01Z" class="Vector"/>
        </g>
      </g>
      <g id="room_L1" class="room_L1">
        <path id="area_8" fill="#D9D9D9" d="M80.22 166.88H17.41v26.91h65.06l-2.25-26.91Z" class="area"/>
        <g id="number_7" class="number">
          <path id="Vector_28" fill="#000" d="M43.53 185.01v-7.68h.92v6.88h3.64v.8h-4.56Z" class="Vector"/>
          <path id="Vector_29" fill="#000" d="M49.75 185.01v-.8h2.2v-6.19h-.08l-1.94 1.8-.54-.58 2.04-1.9h1.44v6.88h2.02v.8h-5.15l.01-.01Z" class="Vector"/>
        </g>
      </g>
      <g id="room_L2" class="room_L2">
        <path id="area_9" fill="#D9D9D9" d="M82.74 193.79H16.62v28.2h68.85l-2.73-28.2Z" class="area"/>
        <g id="number_8" class="number">
          <path id="Vector_30" fill="#000" d="M44.39 212.56v-7.68h.92v6.88h3.64v.8h-4.56Z" class="Vector"/>
          <path id="Vector_31" fill="#000" d="M55.58 212.56h-5.13v-.95l2.56-2.31c.37-.34.68-.68.92-1.04s.36-.73.36-1.13V207c0-.46-.12-.82-.36-1.07-.24-.25-.6-.38-1.08-.38-.48 0-.83.12-1.08.36-.25.24-.44.55-.57.95l-.83-.31c.07-.23.17-.45.3-.67.13-.22.29-.41.49-.58.2-.17.44-.3.72-.41.28-.11.61-.15.98-.15s.72.06 1.02.17c.3.11.55.26.75.46.2.2.36.43.46.7.11.27.16.57.16.89 0 .29-.04.57-.13.82-.08.26-.2.5-.35.74-.15.24-.33.46-.54.69-.21.23-.44.45-.7.67l-2.15 1.87h4.17v.8l.03.01Z" class="Vector"/>
        </g>
      </g>
      <g id="room_WC_6" class="room_WC">
        <path id="area_10" fill="#D9D9D9" d="M92.87 303.98H55.31v30.47h40.66l-3.1-30.47Z" class="area"/>
        <g id="text_2" class="text">
          <path id="Vector_32" fill="#000" d="M64.72 314.96h1.07c.47 0 .82.16 1.05.48.23.32.35.8.35 1.44 0 .64-.12 1.11-.35 1.44-.23.32-.58.48-1.05.48h-1.07v-3.84Zm1.05 3.43c.31 0 .54-.11.7-.32.16-.21.23-.51.23-.9v-.59c0-.39-.08-.69-.23-.9-.16-.21-.39-.32-.7-.32h-.59v3.04h.59v-.01Z" class="Vector"/>
          <path id="Vector_33" fill="#000" d="M70.22 318.79c-.17 0-.3-.04-.37-.13a.705.705 0 0 1-.14-.33h-.03a.78.78 0 0 1-.3.39c-.14.09-.32.14-.55.14-.3 0-.53-.08-.71-.23-.18-.15-.26-.37-.26-.63s.1-.47.29-.61c.19-.14.5-.21.93-.21h.6v-.28c0-.21-.06-.36-.18-.47a.748.748 0 0 0-.5-.16c-.19 0-.35.04-.47.11a.79.79 0 0 0-.29.31l-.3-.22c.04-.07.09-.14.15-.21a1.11 1.11 0 0 1 .54-.32c.12-.03.25-.05.39-.05.33 0 .6.08.79.25.2.17.29.4.29.71v1.57h.4v.38h-.3l.02-.01Zm-1.31-.3c.11 0 .22-.01.31-.04s.18-.06.25-.11.12-.1.16-.17a.37.37 0 0 0 .06-.21v-.47h-.6c-.26 0-.46.04-.58.11a.35.35 0 0 0-.18.32v.12c0 .15.05.26.16.33s.25.11.43.11l-.01.01Z" class="Vector"/>
          <path id="Vector_34" fill="#000" d="M71.09 318.79v-2.84h.41v.33h.02c.04-.11.11-.2.19-.28.08-.08.2-.12.36-.12.16 0 .29.04.37.12.08.08.13.19.15.32h.02c.05-.13.12-.23.22-.32.1-.08.23-.13.4-.13.23 0 .39.08.46.24.08.16.12.39.12.69v1.97h-.41v-1.9c0-.24-.02-.41-.07-.5-.05-.09-.14-.14-.27-.14-.12 0-.21.04-.29.11-.08.07-.11.19-.11.34v2.08h-.41v-1.9c0-.24-.02-.41-.07-.5-.05-.09-.14-.14-.27-.14-.12 0-.21.04-.29.11-.08.07-.11.19-.11.34v2.08h-.41l-.01.04Z" class="Vector"/>
          <path id="Vector_35" fill="#000" d="M75.79 318.86c-.21 0-.39-.03-.55-.1-.16-.07-.3-.17-.42-.3-.12-.13-.2-.29-.27-.47s-.09-.38-.09-.61c0-.23.03-.43.1-.62.06-.18.15-.34.27-.47.12-.13.25-.23.41-.3.16-.07.34-.1.53-.1s.36.04.52.1a1.178 1.178 0 0 1 .65.73c.06.17.09.35.09.56v.21h-2.1v.13c0 .12.02.24.06.35.04.11.1.2.17.28.07.08.17.14.27.18.11.04.23.06.36.06a.854.854 0 0 0 .81-.49l.32.22c-.08.19-.22.35-.42.47-.2.12-.44.18-.72.18l.01-.01Zm-.03-2.61c-.12 0-.23.02-.34.07-.11.05-.19.1-.27.18a.98.98 0 0 0-.18.27c-.04.1-.06.22-.06.34v.04h1.63v-.06a.934.934 0 0 0-.22-.61.62.62 0 0 0-.25-.17.83.83 0 0 0-.32-.06h.01Z" class="Vector"/>
          <path id="Vector_36" fill="#000" d="M77.93 318.79v-2.84h.44v.46h.02c.03-.07.07-.14.11-.2.04-.06.1-.12.16-.17.06-.05.14-.09.23-.12s.19-.04.31-.04c.3 0 .54.09.71.28.18.19.27.46.27.8v1.82h-.44v-1.74c0-.26-.06-.45-.17-.58-.11-.13-.28-.19-.5-.19-.09 0-.17.01-.26.03-.08.02-.16.05-.23.1a.475.475 0 0 0-.22.41v1.97h-.44l.01.01Z" class="Vector"/>
          <path id="Vector_37" fill="#000" d="M81.55 317.35v-.46h1.59v.46h-1.59Z" class="Vector"/>
          <path id="Vector_38" fill="#000" d="m71.29 324.29-.3-3.84h.41l.16 2.2.08 1.16h.04l.51-2.36h.52l.51 2.36h.04l.08-1.16.16-2.2h.4l-.3 3.84h-.67l-.47-2.29h-.04l-.47 2.29h-.67.01Z" class="Vector"/>
          <path id="Vector_39" fill="#000" d="M75.87 324.36c-.47 0-.82-.17-1.05-.51-.23-.34-.34-.83-.34-1.47s.11-1.13.34-1.47c.23-.34.58-.51 1.05-.51.18 0 .33.02.46.07a1.059 1.059 0 0 1 .56.46c.06.1.12.2.17.31l-.4.18c-.03-.08-.07-.16-.12-.24-.04-.08-.1-.14-.16-.2a.571.571 0 0 0-.21-.13.853.853 0 0 0-.3-.05c-.3 0-.53.12-.68.35-.15.23-.22.54-.22.92v.63c0 .38.07.69.22.92.15.23.38.35.68.35.12 0 .22-.02.3-.05.08-.03.15-.08.21-.13.06-.06.11-.12.16-.2l.12-.24.4.18c-.05.11-.1.21-.17.31s-.14.19-.23.27c-.09.08-.2.14-.33.19-.13.05-.28.07-.46.07v-.01Z" class="Vector"/>
        </g>
      </g>
      <g id="room_WC_5" class="room_WC">
        <path id="area_11" fill="#D9D9D9" d="M55.31 303.98H32.1v30.47h23.21v-30.47Z" class="area"/>
        <g id="text_3" class="text">
          <path id="Vector_40" fill="#000" d="M38.51 313.29c-.17 0-.3-.04-.37-.13a.705.705 0 0 1-.14-.33h-.03a.78.78 0 0 1-.3.39c-.14.09-.32.14-.55.14-.3 0-.53-.08-.71-.23-.18-.15-.26-.37-.26-.63s.1-.47.29-.61c.19-.14.5-.21.93-.21h.6v-.28c0-.21-.06-.36-.18-.47a.748.748 0 0 0-.5-.16c-.19 0-.35.04-.47.11a.79.79 0 0 0-.29.31l-.3-.22c.04-.07.09-.14.15-.21a1.11 1.11 0 0 1 .54-.32c.12-.03.25-.05.39-.05.33 0 .6.08.79.25.2.17.29.4.29.71v1.57h.4v.38h-.3l.02-.01Zm-1.31-.3c.11 0 .22-.01.31-.04s.18-.06.25-.11.12-.1.16-.17a.37.37 0 0 0 .06-.21v-.47h-.6c-.26 0-.46.04-.58.11a.35.35 0 0 0-.18.32v.12c0 .15.05.26.16.33s.25.11.43.11l-.01.01Z" class="Vector"/>
          <path id="Vector_41" fill="#000" d="M39.35 312.91h.83v-2.08h-.83v-.38h1.27v.71h.03c.06-.22.17-.4.33-.53s.37-.19.62-.19h.4v.44h-.53c-.25 0-.46.07-.61.22-.15.15-.23.34-.23.58v1.22h1.1v.38h-2.37v-.38l-.01.01Z" class="Vector"/>
          <path id="Vector_42" fill="#000" d="M42.48 312.91h.83v-2.08h-.83v-.38h1.27v.71h.03c.06-.22.17-.4.33-.53s.37-.19.62-.19h.4v.44h-.53c-.25 0-.46.07-.61.22-.15.15-.23.34-.23.58v1.22h1.1v.38h-2.37v-.38l-.01.01Z" class="Vector"/>
          <path id="Vector_43" fill="#000" d="M45.78 312.91h1.02v-2.08h-1.02v-.38h1.46v2.46h.96v.38h-2.42v-.38Zm1.24-3.08c-.13 0-.22-.03-.27-.08a.28.28 0 0 1-.08-.2v-.09c0-.08.03-.15.08-.2.05-.05.14-.08.27-.08s.22.03.27.08c.05.05.08.12.08.2v.09c0 .08-.03.15-.08.2-.05.05-.14.08-.27.08Z" class="Vector"/>
          <path id="Vector_44" fill="#000" d="M50.03 313.36c-.21 0-.39-.03-.55-.1-.16-.07-.3-.17-.42-.3-.12-.13-.2-.29-.27-.47s-.09-.38-.09-.61c0-.23.03-.43.1-.62.06-.18.15-.34.27-.47.12-.13.25-.23.41-.3.16-.07.34-.1.53-.1s.36.04.52.1a1.178 1.178 0 0 1 .65.73c.06.17.09.35.09.56v.21h-2.1v.13c0 .12.02.24.06.35.04.11.1.2.17.28.07.08.17.14.27.18.11.04.23.06.36.06a.854.854 0 0 0 .81-.49l.32.22c-.08.19-.22.35-.42.47-.2.12-.44.18-.72.18l.01-.01Zm-.03-2.61c-.12 0-.23.02-.34.07-.11.05-.19.1-.27.18a.98.98 0 0 0-.18.27c-.04.1-.06.22-.06.34v.04h1.63v-.06a.934.934 0 0 0-.22-.61.62.62 0 0 0-.25-.17.83.83 0 0 0-.32-.06H50Z" class="Vector"/>
          <path id="Vector_45" fill="#000" d="M51.89 312.91h.83v-2.08h-.83v-.38h1.27v.71h.03c.06-.22.17-.4.33-.53s.37-.19.62-.19h.4v.44h-.53c-.25 0-.46.07-.61.22-.15.15-.23.34-.23.58v1.22h1.1v.38H51.9v-.38l-.01.01Z" class="Vector"/>
          <path id="Vector_46" fill="#000" d="M42.19 318.86c-.21 0-.39-.03-.55-.1-.16-.07-.3-.17-.42-.3-.12-.13-.2-.29-.27-.47s-.09-.38-.09-.61c0-.23.03-.43.1-.62.06-.18.15-.34.27-.47.12-.13.25-.23.41-.3.16-.07.34-.1.53-.1s.36.04.52.1a1.178 1.178 0 0 1 .65.73c.06.17.09.35.09.56v.21h-2.1v.13c0 .12.02.24.06.35.04.11.1.2.17.28.07.08.17.14.27.18.11.04.23.06.36.06A.854.854 0 0 0 43 318l.32.22c-.08.19-.22.35-.42.47-.2.12-.44.18-.72.18l.01-.01Zm-.03-2.61c-.12 0-.23.02-.34.07-.11.05-.19.1-.27.18a.98.98 0 0 0-.18.27c-.04.1-.06.22-.06.34v.04h1.63v-.06a.934.934 0 0 0-.22-.61.62.62 0 0 0-.25-.17.83.83 0 0 0-.32-.06h.01Z" class="Vector"/>
          <path id="Vector_47" fill="#000" d="M44.48 317.35v-.46h1.59v.46h-1.59Z" class="Vector"/>
          <path id="Vector_48" fill="#000" d="M34.68 323.91h.96v-2.08h-1.01v-.38h1.01v-.58c0-.19.05-.35.15-.47.1-.12.26-.18.48-.18h.95v.38h-1.14v.85h1.14v.38h-1.14v2.08h1.01v.38h-2.41v-.38Z" class="Vector"/>
          <path id="Vector_49" fill="#000" d="M37.78 323.91h.83v-2.08h-.83v-.38h1.27v.71h.03c.06-.22.17-.4.33-.53s.37-.19.62-.19h.4v.44h-.53c-.25 0-.46.07-.61.22-.15.15-.23.34-.23.58v1.22h1.1v.38h-2.37v-.38l-.01.01Z" class="Vector"/>
          <path id="Vector_50" fill="#000" d="M42.19 324.36c-.21 0-.39-.03-.55-.1-.16-.07-.3-.17-.42-.3-.12-.13-.2-.29-.27-.47s-.09-.38-.09-.61c0-.23.03-.43.1-.62.06-.18.15-.34.27-.47.12-.13.25-.23.41-.3.16-.07.34-.1.53-.1s.36.04.52.1a1.178 1.178 0 0 1 .65.73c.06.17.09.35.09.56v.21h-2.1v.13c0 .12.02.24.06.35.04.11.1.2.17.28.07.08.17.14.27.18.11.04.23.06.36.06a.854.854 0 0 0 .81-.49l.32.22c-.08.19-.22.35-.42.47-.2.12-.44.18-.72.18l.01-.01Zm-.03-2.61c-.12 0-.23.02-.34.07-.11.05-.19.1-.27.18a.98.98 0 0 0-.18.27c-.04.1-.06.22-.06.34v.04h1.63v-.06a.934.934 0 0 0-.22-.61.62.62 0 0 0-.25-.17.83.83 0 0 0-.32-.06h.01Z" class="Vector"/>
          <path id="Vector_51" fill="#000" d="M44.21 323.91h1.02v-2.08h-1.02v-.38h1.46v2.46h.96v.38h-2.42v-.38Zm1.24-3.08c-.13 0-.22-.03-.27-.08a.28.28 0 0 1-.08-.2v-.09c0-.08.03-.15.08-.2.05-.05.14-.08.27-.08s.22.03.27.08c.05.05.08.12.08.2v.09c0 .08-.03.15-.08.2-.05.05-.14.08-.27.08Z" class="Vector"/>
          <path id="Vector_52" fill="#000" d="M48.46 324.36c-.21 0-.39-.03-.55-.1-.16-.07-.3-.17-.42-.3-.12-.13-.2-.29-.27-.47s-.09-.38-.09-.61c0-.23.03-.43.1-.62.06-.18.15-.34.27-.47.12-.13.25-.23.41-.3.16-.07.34-.1.53-.1s.36.04.52.1a1.178 1.178 0 0 1 .65.73c.06.17.09.35.09.56v.21h-2.1v.13c0 .12.02.24.06.35.04.11.1.2.17.28.07.08.17.14.27.18.11.04.23.06.36.06a.854.854 0 0 0 .81-.49l.32.22c-.08.19-.22.35-.42.47-.2.12-.44.18-.72.18l.01-.01Zm-.03-2.61c-.12 0-.23.02-.34.07-.11.05-.19.1-.27.18a.98.98 0 0 0-.18.27c-.04.1-.06.22-.06.34v.04h1.63v-.06a.934.934 0 0 0-.22-.61.62.62 0 0 0-.25-.17.83.83 0 0 0-.32-.06h.01Z" class="Vector"/>
          <path id="Vector_53" fill="#000" d="M51.58 324.36c-.3 0-.55-.05-.77-.15-.21-.1-.4-.24-.55-.4l.3-.26c.14.14.28.25.45.33.16.08.36.12.58.12.22 0 .4-.04.54-.12.14-.08.21-.2.21-.37a.342.342 0 0 0-.15-.3.774.774 0 0 0-.16-.07c-.06-.02-.12-.03-.19-.04l-.45-.07c-.1-.01-.21-.04-.32-.06-.12-.03-.22-.07-.32-.12a.751.751 0 0 1-.24-.23.675.675 0 0 1-.1-.37.724.724 0 0 1 .33-.63c.1-.07.22-.12.36-.16.14-.04.29-.05.46-.05.26 0 .48.04.67.12.19.08.35.19.49.34l-.29.27s-.07-.08-.12-.12c-.05-.04-.11-.08-.18-.12a1.47 1.47 0 0 0-.25-.08c-.1-.02-.21-.03-.33-.03-.22 0-.4.04-.51.12a.4.4 0 0 0-.18.33.342.342 0 0 0 .15.3c.05.03.1.05.16.07.06.02.12.03.18.04l.45.07c.1.01.21.04.32.06.11.02.22.07.31.12a.675.675 0 0 1 .34.6c0 .28-.11.5-.33.65-.22.15-.51.23-.87.23l.01-.02Z" class="Vector"/>
          <path id="Vector_54" fill="#000" d="m40.99 329.79-.3-3.84h.41l.16 2.2.08 1.16h.04l.51-2.36h.52l.51 2.36h.04l.08-1.16.16-2.2h.4l-.3 3.84h-.67l-.47-2.29h-.04l-.47 2.29h-.67.01Z" class="Vector"/>
          <path id="Vector_55" fill="#000" d="M45.4 329.86c-.47 0-.82-.17-1.05-.51-.23-.34-.34-.83-.34-1.47s.11-1.13.34-1.47c.23-.34.58-.51 1.05-.51.18 0 .33.02.46.07a1.059 1.059 0 0 1 .56.46c.06.1.12.2.17.31l-.4.18c-.03-.08-.07-.16-.12-.24-.04-.08-.1-.14-.16-.2a.571.571 0 0 0-.21-.13.853.853 0 0 0-.3-.05c-.3 0-.53.12-.68.35-.15.23-.22.54-.22.92v.63c0 .38.07.69.22.92.15.23.38.35.68.35.12 0 .22-.02.3-.05.08-.03.15-.08.21-.13.06-.06.11-.12.16-.2l.12-.24.4.18c-.05.11-.1.21-.17.31s-.14.19-.23.27c-.09.08-.2.14-.33.19-.13.05-.28.07-.46.07v-.01Z" class="Vector"/>
          <path id="Vector_56" fill="#000" d="M33.18 309.22h.44v1.69h.02c.18-.35.48-.53.87-.53.35 0 .62.13.82.39.2.26.29.62.29 1.09 0 .47-.1.83-.29 1.09-.2.26-.47.39-.82.39-.4 0-.69-.18-.87-.53h-.02v.46h-.44v-4.07.02Zm1.16 3.75c.26 0 .46-.08.6-.23.14-.16.21-.36.21-.62v-.48c0-.26-.07-.46-.21-.62-.14-.16-.34-.23-.6-.23-.1 0-.19.01-.28.04-.09.03-.17.06-.23.11-.07.05-.12.11-.16.18-.04.07-.06.15-.06.25v1.02c0 .1.02.18.06.25.04.07.09.13.16.18.07.05.14.09.23.11.09.03.18.04.28.04Z" class="Vector"/>
        </g>
      </g>
      <g id="room_Sonstiges_22" class="room_Sonstiges">
        <g id="text_4" class="text">
          <path id="Vector_57" fill="#000" d="M122.84 78.26h3.44v.46h-3.44V80h-.4v-3.02h.4v1.28Z" class="Vector"/>
          <path id="Vector_58" fill="#000" d="M126.34 75.31c0 .21-.03.39-.1.55-.07.16-.17.3-.3.42-.13.12-.29.2-.47.27s-.38.09-.61.09c-.23 0-.43-.03-.62-.1-.18-.06-.34-.15-.47-.27-.13-.11-.23-.25-.3-.41-.07-.16-.1-.34-.1-.53s.03-.36.1-.52a1.178 1.178 0 0 1 .73-.65c.17-.06.35-.09.56-.09h.21v2.1h.13c.12 0 .24-.02.35-.06.11-.04.2-.1.27-.17.08-.07.14-.17.18-.27.04-.11.06-.23.06-.36a.91.91 0 0 0-.13-.5.856.856 0 0 0-.36-.32l.22-.32c.19.08.35.22.47.42.12.2.18.44.18.72Zm-2.6.03c0 .12.02.23.07.34.05.11.1.19.18.27.08.08.17.13.27.18.1.05.22.06.34.06h.04v-1.63h-.06a.934.934 0 0 0-.61.22.62.62 0 0 0-.17.25c-.04.1-.06.2-.06.32v-.01Z" class="Vector"/>
          <path id="Vector_59" fill="#000" d="M126.34 72.13c0 .21-.04.39-.11.55-.07.16-.17.29-.3.4-.13.11-.28.19-.47.25-.18.06-.39.09-.61.09-.22 0-.43-.03-.61-.09s-.34-.14-.47-.25c-.13-.11-.23-.24-.3-.4-.07-.16-.1-.34-.1-.54 0-.27.06-.5.18-.67.12-.17.28-.3.47-.38l.19.35a.64.64 0 0 0-.34.26c-.08.12-.12.27-.12.44 0 .13.02.24.06.34.04.1.1.19.18.26.08.07.17.12.28.16.11.04.22.05.35.05h.48c.12 0 .24-.02.35-.05.11-.03.2-.09.27-.16.08-.07.14-.16.18-.26.04-.1.06-.22.06-.35 0-.19-.04-.35-.13-.47a1.07 1.07 0 0 0-.36-.3l.21-.31c.19.08.35.21.47.39.12.18.19.41.19.7v-.01Z" class="Vector"/>
          <path id="Vector_60" fill="#000" d="M122.21 70.2v-.44h1.69v-.02c-.07-.03-.14-.07-.2-.11a.852.852 0 0 1-.17-.16.713.713 0 0 1-.12-.23.972.972 0 0 1-.04-.31c0-.3.09-.54.28-.71.19-.17.46-.27.8-.27h1.82v.44h-1.74c-.26 0-.45.06-.58.17-.13.11-.19.28-.19.5 0 .09.01.17.03.26a.8.8 0 0 0 .1.23.475.475 0 0 0 .41.22h1.97v.44h-4.07l.01-.01Z" class="Vector"/>
          <path id="Vector_61" fill="#000" d="M126.28 67.07h-2.84v-.44h.46v-.02c-.07-.03-.14-.07-.2-.11a.852.852 0 0 1-.17-.16.714.714 0 0 1-.12-.23.972.972 0 0 1-.04-.31c0-.3.09-.54.28-.71.19-.17.46-.27.8-.27h1.82v.44h-1.74c-.26 0-.45.06-.58.17-.13.11-.19.28-.19.5 0 .09.01.17.03.26a.8.8 0 0 0 .1.23.475.475 0 0 0 .41.22h1.97v.44l.01-.01Z" class="Vector"/>
          <path id="Vector_62" fill="#000" d="M122.81 62.64c0 .13-.03.22-.08.27a.28.28 0 0 1-.2.08h-.09a.28.28 0 0 1-.2-.08c-.05-.05-.08-.14-.08-.27s.03-.22.08-.27a.28.28 0 0 1 .2-.08h.09c.08 0 .15.03.2.08.05.05.08.14.08.27Zm3.09 1.25v-1.02h-2.08v1.02h-.38v-1.46h2.46v-.96h.38v2.42h-.38Z" class="Vector"/>
          <path id="Vector_63" fill="#000" d="M122.21 60.76v-.44h2.57v-.02l-.47-.5-.87-.95v-.54l1.11 1.18 1.73-1.32v.54l-1.47 1.11.45.49h1.03v.44h-4.07l-.01.01Z" class="Vector"/>
        </g>
      </g>
      <g id="room_Sonstiges_21" class="room_Sonstiges">
        <g id="text_5" class="text">
          <path id="Vector_64" fill="#000" d="M135.26 78.26h3.44v.46h-3.44V80h-.4v-3.02h.4v1.28Z" class="Vector"/>
          <path id="Vector_65" fill="#000" d="M138.76 75.31c0 .21-.03.39-.1.55-.07.16-.17.3-.3.42-.13.12-.29.2-.47.27s-.38.09-.61.09c-.23 0-.43-.03-.62-.1-.18-.06-.34-.15-.47-.27-.13-.11-.23-.25-.3-.41-.07-.16-.1-.34-.1-.53s.03-.36.1-.52a1.178 1.178 0 0 1 .73-.65c.17-.06.35-.09.56-.09h.21v2.1h.13c.12 0 .24-.02.35-.06.11-.04.2-.1.27-.17.08-.07.14-.17.18-.27.04-.11.06-.23.06-.36a.91.91 0 0 0-.13-.5.856.856 0 0 0-.36-.32l.22-.32c.19.08.35.22.47.42.12.2.18.44.18.72Zm-2.6.03c0 .12.02.23.07.34.05.11.1.19.18.27.08.08.17.13.27.18.1.05.22.06.34.06h.04v-1.63H137a.934.934 0 0 0-.61.22.62.62 0 0 0-.17.25c-.04.1-.06.2-.06.32v-.01Z" class="Vector"/>
          <path id="Vector_66" fill="#000" d="M138.76 72.13c0 .21-.04.39-.11.55-.07.16-.17.29-.3.4-.13.11-.28.19-.47.25-.18.06-.39.09-.61.09-.22 0-.43-.03-.61-.09s-.34-.14-.47-.25c-.13-.11-.23-.24-.3-.4-.07-.16-.1-.34-.1-.54 0-.27.06-.5.18-.67.12-.17.28-.3.47-.38l.19.35a.64.64 0 0 0-.34.26c-.08.12-.12.27-.12.44 0 .13.02.24.06.34.04.1.1.19.18.26.08.07.17.12.28.16.11.04.22.05.35.05h.48c.12 0 .24-.02.35-.05.11-.03.2-.09.27-.16.08-.07.14-.16.18-.26.04-.1.06-.22.06-.35 0-.19-.04-.35-.13-.47a1.07 1.07 0 0 0-.36-.3l.21-.31c.19.08.35.21.47.39.12.18.19.41.19.7v-.01Z" class="Vector"/>
          <path id="Vector_67" fill="#000" d="M134.63 70.2v-.44h1.69v-.02c-.07-.03-.14-.07-.2-.11a.852.852 0 0 1-.17-.16.713.713 0 0 1-.12-.23.972.972 0 0 1-.04-.31c0-.3.09-.54.28-.71.19-.17.46-.27.8-.27h1.82v.44h-1.74c-.26 0-.45.06-.58.17-.13.11-.19.28-.19.5 0 .09.01.17.03.26a.8.8 0 0 0 .1.23.475.475 0 0 0 .41.22h1.97v.44h-4.07l.01-.01Z" class="Vector"/>
          <path id="Vector_68" fill="#000" d="M138.7 67.07h-2.84v-.44h.46v-.02c-.07-.03-.14-.07-.2-.11a.852.852 0 0 1-.17-.16.714.714 0 0 1-.12-.23.972.972 0 0 1-.04-.31c0-.3.09-.54.28-.71.19-.17.46-.27.8-.27h1.82v.44h-1.74c-.26 0-.45.06-.58.17-.13.11-.19.28-.19.5 0 .09.01.17.03.26a.8.8 0 0 0 .1.23.475.475 0 0 0 .41.22h1.97v.44l.01-.01Z" class="Vector"/>
          <path id="Vector_69" fill="#000" d="M135.23 62.64c0 .13-.03.22-.08.27a.28.28 0 0 1-.2.08h-.09a.28.28 0 0 1-.2-.08c-.05-.05-.08-.14-.08-.27s.03-.22.08-.27a.28.28 0 0 1 .2-.08h.09c.08 0 .15.03.2.08.05.05.08.14.08.27Zm3.09 1.25v-1.02h-2.08v1.02h-.38v-1.46h2.46v-.96h.38v2.42h-.38Z" class="Vector"/>
          <path id="Vector_70" fill="#000" d="M134.63 60.76v-.44h2.57v-.02l-.47-.5-.87-.95v-.54l1.11 1.18 1.73-1.32v.54l-1.47 1.11.45.49h1.03v.44h-4.07l-.01.01Z" class="Vector"/>
        </g>
      </g>
      <g id="room_Sonstiges_20" class="room_Sonstiges">
        <g id="text_6" class="text">
          <path id="Vector_71" fill="#000" d="M25.38 325.43c0 .21-.03.39-.1.55-.07.16-.17.3-.3.42-.13.12-.29.2-.47.27s-.38.09-.61.09c-.23 0-.43-.03-.62-.1-.18-.06-.34-.15-.47-.27-.13-.11-.23-.25-.3-.41-.07-.16-.1-.34-.1-.53s.03-.36.1-.52a1.178 1.178 0 0 1 .73-.65c.17-.06.35-.09.56-.09h.21v2.1h.13c.12 0 .24-.02.35-.06a.75.75 0 0 0 .45-.45c.04-.11.06-.23.06-.36a.854.854 0 0 0-.49-.81l.22-.32c.19.08.35.22.47.42.12.2.18.44.18.72Zm-2.61.03c0 .12.02.23.07.33s.1.19.18.27c.08.08.17.13.27.18.1.04.22.06.34.06h.04v-1.63h-.06a.934.934 0 0 0-.61.22.62.62 0 0 0-.17.25c-.04.1-.06.21-.06.32Z" class="Vector"/>
          <path id="Vector_72" fill="#000" d="M21.88 328.38h3.44v.46h-3.44v1.28h-.4v-3.03h.4v1.29Z" class="Vector"/>
          <path id="Vector_73" fill="#000" d="M25.38 322.24c0 .21-.04.39-.11.55-.07.16-.17.29-.3.4-.13.11-.28.19-.47.25-.18.06-.39.08-.61.08-.22 0-.43-.03-.61-.09s-.34-.14-.47-.25c-.13-.11-.23-.24-.3-.4-.07-.16-.1-.34-.1-.54 0-.28.06-.5.18-.67.12-.17.28-.3.47-.38l.19.35a.64.64 0 0 0-.34.26c-.08.12-.12.27-.12.44 0 .13.02.24.06.34.04.1.1.19.18.26.08.07.17.12.28.16.11.04.22.05.35.05h.48c.12 0 .24-.02.35-.05.11-.03.2-.09.27-.16.08-.07.14-.16.18-.26.04-.1.06-.22.06-.35 0-.19-.04-.35-.13-.47a1.07 1.07 0 0 0-.36-.3l.21-.31c.19.08.35.22.47.39s.19.41.19.7Z" class="Vector"/>
          <path id="Vector_74" fill="#000" d="M21.24 320.32v-.44h1.69v-.02c-.07-.03-.14-.07-.2-.11a.852.852 0 0 1-.17-.16.714.714 0 0 1-.12-.23.972.972 0 0 1-.04-.31c0-.3.09-.54.28-.71.19-.17.46-.27.8-.27h1.82v.44h-1.74c-.26 0-.45.06-.58.17-.13.11-.19.28-.19.5 0 .09.01.17.03.26.02.08.06.16.1.22a.475.475 0 0 0 .41.22h1.97v.44h-4.07.01Z" class="Vector"/>
          <path id="Vector_75" fill="#000" d="M25.31 317.18h-2.84v-.44h.46v-.02c-.07-.03-.14-.07-.2-.11a.852.852 0 0 1-.17-.16.714.714 0 0 1-.12-.23.972.972 0 0 1-.04-.31c0-.3.09-.54.28-.71.19-.17.46-.27.8-.27h1.82v.44h-1.74c-.26 0-.45.06-.58.17-.13.11-.19.28-.19.5 0 .09.01.17.03.26.02.08.06.16.1.22a.475.475 0 0 0 .41.22h1.97v.44h.01Z" class="Vector"/>
          <path id="Vector_76" fill="#000" d="M21.85 312.76c0 .13-.03.22-.08.27a.28.28 0 0 1-.2.08h-.09a.28.28 0 0 1-.2-.08c-.05-.05-.08-.14-.08-.27s.03-.22.08-.27a.28.28 0 0 1 .2-.08h.09c.08 0 .15.03.2.08.05.05.08.14.08.27Zm3.08 1.24v-1.02h-2.08V314h-.38v-1.46h2.46v-.96h.38V314h-.38Z" class="Vector"/>
          <path id="Vector_77" fill="#000" d="M21.24 310.88v-.44h2.57v-.02l-.47-.5-.87-.95v-.54l1.11 1.18 1.73-1.31v.54l-1.47 1.11.45.49h1.03v.44h-4.08Z" class="Vector"/>
        </g>
      </g>
      <g id="room_gesamtergang" class="room_gesamtergang">
        <path id="area_12" fill="#fff" d="M167 81H4v263h10V90h153v-9Z" class="area"/>
      </g>
    </g>
    <g id="walls" class="walls">
      <path id="Vector_78" stroke="#000" stroke-miterlimit="10" d="m16.58 166.88.04 167.56h79.09" class="Vector"/>
      <path id="Vector_79" stroke="#000" stroke-miterlimit="10" d="M1 59.48v33.76h.05v272.4h97.7l-25.4-272.4h111.23v76.5h18.74v20.9h9.74V59.48H1Z" class="Vector"/>
      <path id="Vector_80" stroke="#000" stroke-miterlimit="10" d="M268.96 1h-84.38v58.48h84.38V1Z" class="Vector"/>
      <path id="Vector_81" stroke="#000" stroke-miterlimit="10" d="M268.96 59.48h-55.9v33.75h55.9V59.48Z" class="Vector"/>
      <path id="Vector_82" stroke="#000" stroke-miterlimit="10" d="M268.96 93.24h-55.9v84.37h55.9V93.24Z" class="Vector"/>
      <path id="Vector_83" stroke="#000" stroke-miterlimit="10" d="M203.32 169.74h-18.74v82.64h18.74v-82.64Z" class="Vector"/>
      <path id="Vector_84" stroke="#000" stroke-miterlimit="10" d="M184.58 1H100.2v58.48h84.38V1Z" class="Vector"/>
      <path id="Vector_85" stroke="#000" stroke-miterlimit="10" d="M119.11 59.48H100.2v18.91h18.91V59.48Z" class="Vector"/>
      <path id="Vector_86" stroke="#000" stroke-miterlimit="10" d="M131.53 59.48h-12.41v18.91h12.41V59.48Z" class="Vector"/>
      <path id="Vector_87" stroke="#000" stroke-miterlimit="10" d="M143.94 59.48h-12.41v18.91h12.41V59.48Z" class="Vector"/>
      <path id="Vector_88" stroke="#000" stroke-miterlimit="10" d="M170.97 93.24V78.4" class="Vector"/>
      <path id="Vector_89" stroke="#000" stroke-miterlimit="10" d="M184.58 93.24h14.84" class="Vector"/>
      <path id="Vector_90" stroke="#000" stroke-miterlimit="10" d="M184.58 107.4h14.84" class="Vector"/>
      <path id="Vector_91" stroke="#000" stroke-miterlimit="10" d="M184.58 131.49h14.84" class="Vector"/>
      <path id="Vector_92" stroke="#000" stroke-miterlimit="10" d="M184.58 145.19h14.84" class="Vector"/>
      <path id="Vector_93" stroke="#000" stroke-miterlimit="10" d="M14 78.39V59.48H1.01v18.91H14Z" class="Vector"/>
      <path id="Vector_94" stroke="#000" stroke-miterlimit="10" d="M20.49 78.39V59.48h-3.25v18.91h3.25Z" class="Vector"/>
      <path id="Vector_95" stroke="#000" stroke-miterlimit="10" d="M17.24 78.39V59.48h-3.25v18.91h3.25Z" class="Vector"/>
      <path id="Vector_96" stroke="#000" stroke-miterlimit="10" d="M23.74 78.39V59.48h-3.25v18.91h3.25Z" class="Vector"/>
      <path id="Vector_97" stroke="#000" stroke-miterlimit="10" d="M26.99 78.39V59.48h-3.25v18.91h3.25Z" class="Vector"/>
      <path id="Vector_98" stroke="#000" stroke-miterlimit="10" d="M30.24 78.39V59.48h-3.25v18.91h3.25Z" class="Vector"/>
      <path id="Vector_99" stroke="#000" stroke-miterlimit="10" d="M33.49 78.39V59.48h-3.25v18.91h3.25Z" class="Vector"/>
      <path id="Vector_100" stroke="#000" stroke-miterlimit="10" d="M36.74 78.39V59.48h-3.25v18.91h3.25Z" class="Vector"/>
      <path id="Vector_101" stroke="#000" stroke-miterlimit="10" d="M39.99 78.39V59.48h-3.25v18.91h3.25Z" class="Vector"/>
      <path id="Vector_102" stroke="#000" stroke-miterlimit="10" d="M43.24 78.39V59.48h-3.25v18.91h3.25Z" class="Vector"/>
      <path id="Vector_103" stroke="#000" stroke-miterlimit="10" d="M46.49 78.39V59.48h-3.25v18.91h3.25Z" class="Vector"/>
      <path id="Vector_104" stroke="#000" stroke-miterlimit="10" d="M49.74 78.39V59.48h-3.25v18.91h3.25Z" class="Vector"/>
      <path id="Vector_105" stroke="#000" stroke-miterlimit="10" d="M52.99 78.4V59.49h-3.25V78.4h3.25Z" class="Vector"/>
      <path id="Vector_106" stroke="#000" stroke-miterlimit="10" d="M56.24 78.4V59.49h-3.25V78.4h3.25Z" class="Vector"/>
      <path id="Vector_107" stroke="#000" stroke-miterlimit="10" d="M59.48 78.4V59.49h-3.25V78.4h3.25Z" class="Vector"/>
      <path id="Vector_108" stroke="#000" stroke-miterlimit="10" d="M62.73 78.4V59.49h-3.25V78.4h3.25Z" class="Vector"/>
      <path id="Vector_109" stroke="#000" stroke-miterlimit="10" d="M65.98 78.4V59.49h-3.25V78.4h3.25Z" class="Vector"/>
      <path id="Vector_110" stroke="#000" stroke-miterlimit="10" d="M69.23 78.4V59.49h-3.25V78.4h3.25Z" class="Vector"/>
      <path id="Vector_111" stroke="#000" stroke-miterlimit="10" d="M72.48 78.4V59.49h-3.25V78.4h3.25Z" class="Vector"/>
      <path id="Vector_112" stroke="#000" stroke-miterlimit="10" d="m5.92 68.78 3.22 1.61v-3.22l-3.22 1.61Z" class="Vector"/>
      <path id="Vector_113" stroke="#000" stroke-miterlimit="10" d="M9.14 68.63h67.81" class="Vector"/>
      <path id="Vector_114" stroke="#000" stroke-miterlimit="10" d="M16.58 166.88h63.64" class="Vector"/>
      <path id="Vector_115" stroke="#000" stroke-miterlimit="10" d="M16.62 221.99h68.63" class="Vector"/>
      <path id="Vector_116" stroke="#000" stroke-miterlimit="10" d="M16.62 303.98h76.25" class="Vector"/>
      <path id="Vector_117" stroke="#000" stroke-miterlimit="10" d="M55.31 303.98v30.46" class="Vector"/>
      <path id="Vector_118" stroke="#000" stroke-miterlimit="10" d="M32.1 303.98v30.46" class="Vector"/>
      <path id="Vector_119" stroke="#000" stroke-miterlimit="10" d="M16.62 193.79h66.11" class="Vector"/>
      <path id="Vector_120" stroke="#000" stroke-miterlimit="10" d="M203.32 229.63h-18.74v22.74h18.74v-22.74Z" class="Vector"/>
      <path id="Vector_121" stroke="#000" stroke-miterlimit="10" d="M203.32 236.13h-18.74v3.25h18.74v-3.25Z" class="Vector"/>
      <path id="Vector_122" stroke="#000" stroke-miterlimit="10" d="M203.32 232.88h-18.74v3.25h18.74v-3.25Z" class="Vector"/>
      <path id="Vector_123" stroke="#000" stroke-miterlimit="10" d="M203.32 229.63h-18.74v3.25h18.74v-3.25Z" class="Vector"/>
      <path id="Vector_124" stroke="#000" stroke-miterlimit="10" d="M203.32 226.38h-18.74v3.25h18.74v-3.25Z" class="Vector"/>
      <path id="Vector_125" stroke="#000" stroke-miterlimit="10" d="M203.32 223.13h-18.74v3.25h18.74v-3.25Z" class="Vector"/>
      <path id="Vector_126" stroke="#000" stroke-miterlimit="10" d="M203.32 219.88h-18.74v3.25h18.74v-3.25Z" class="Vector"/>
      <path id="Vector_127" stroke="#000" stroke-miterlimit="10" d="M203.32 216.63h-18.74v3.25h18.74v-3.25Z" class="Vector"/>
      <path id="Vector_128" stroke="#000" stroke-miterlimit="10" d="M203.32 213.38h-18.74v3.25h18.74v-3.25Z" class="Vector"/>
      <path id="Vector_129" stroke="#000" stroke-miterlimit="10" d="M203.32 210.13h-18.74v3.25h18.74v-3.25Z" class="Vector"/>
      <path id="Vector_130" stroke="#000" stroke-miterlimit="10" d="M203.32 206.88h-18.74v3.25h18.74v-3.25Z" class="Vector"/>
      <path id="Vector_131" stroke="#000" stroke-miterlimit="10" d="M203.32 203.63h-18.74v3.25h18.74v-3.25Z" class="Vector"/>
      <path id="Vector_132" stroke="#000" stroke-miterlimit="10" d="M203.32 200.38h-18.74v3.25h18.74v-3.25Z" class="Vector"/>
      <path id="Vector_133" stroke="#000" stroke-miterlimit="10" d="M203.32 197.13h-18.74v3.25h18.74v-3.25Z" class="Vector"/>
      <path id="Vector_134" stroke="#000" stroke-miterlimit="10" d="M203.32 193.89h-18.74v3.25h18.74v-3.25Z" class="Vector"/>
      <path id="Vector_135" stroke="#000" stroke-miterlimit="10" d="M203.32 190.64h-18.74v3.25h18.74v-3.25Z" class="Vector"/>
      <path id="Vector_136" stroke="#000" stroke-miterlimit="10" d="m193.65 182.46-1.61 3.22h3.22l-1.61-3.22Z" class="Vector"/>
      <path id="Vector_137" stroke="#000" stroke-miterlimit="10" d="M193.65 185.68v59.24" class="Vector"/>
      <path id="Vector_138" stroke="#000" stroke-miterlimit="10" d="M16.58 166.88V93.24h56.77" class="Vector"/>
      <path id="Vector_139" stroke="#000" stroke-miterlimit="10" d="M79.84 365.69v-18.91H68.57v18.91h11.27Z" class="Vector"/>
      <path id="Vector_140" stroke="#000" stroke-miterlimit="10" d="M19.83 365.69v-18.91h-3.25v18.91h3.25Z" class="Vector"/>
      <path id="Vector_141" stroke="#000" stroke-miterlimit="10" d="M23.08 365.7v-18.91h-3.25v18.91h3.25Z" class="Vector"/>
      <path id="Vector_142" stroke="#000" stroke-miterlimit="10" d="M26.33 365.7v-18.91h-3.25v18.91h3.25Z" class="Vector"/>
      <path id="Vector_143" stroke="#000" stroke-miterlimit="10" d="M29.58 365.7v-18.91h-3.25v18.91h3.25Z" class="Vector"/>
      <path id="Vector_144" stroke="#000" stroke-miterlimit="10" d="M32.83 365.7v-18.91h-3.25v18.91h3.25Z" class="Vector"/>
      <path id="Vector_145" stroke="#000" stroke-miterlimit="10" d="M36.08 365.7v-18.91h-3.25v18.91h3.25Z" class="Vector"/>
      <path id="Vector_146" stroke="#000" stroke-miterlimit="10" d="M39.33 365.7v-18.91h-3.25v18.91h3.25Z" class="Vector"/>
      <path id="Vector_147" stroke="#000" stroke-miterlimit="10" d="M42.58 365.7v-18.91h-3.25v18.91h3.25Z" class="Vector"/>
      <path id="Vector_148" stroke="#000" stroke-miterlimit="10" d="M45.83 365.7v-18.91h-3.25v18.91h3.25Z" class="Vector"/>
      <path id="Vector_149" stroke="#000" stroke-miterlimit="10" d="M49.08 365.7v-18.91h-3.25v18.91h3.25Z" class="Vector"/>
      <path id="Vector_150" stroke="#000" stroke-miterlimit="10" d="M52.33 365.7v-18.91h-3.25v18.91h3.25Z" class="Vector"/>
      <path id="Vector_151" stroke="#000" stroke-miterlimit="10" d="M55.58 365.7v-18.91h-3.25v18.91h3.25Z" class="Vector"/>
      <path id="Vector_152" stroke="#000" stroke-miterlimit="10" d="M58.82 365.7v-18.91h-3.25v18.91h3.25Z" class="Vector"/>
      <path id="Vector_153" stroke="#000" stroke-miterlimit="10" d="M62.07 365.69v-18.91h-3.25v18.91h3.25Z" class="Vector"/>
      <path id="Vector_154" stroke="#000" stroke-miterlimit="10" d="M65.32 365.69v-18.91h-3.25v18.91h3.25Z" class="Vector"/>
      <path id="Vector_155" stroke="#000" stroke-miterlimit="10" d="M68.57 365.69v-18.91h-3.25v18.91h3.25Z" class="Vector"/>
      <path id="Vector_156" stroke="#000" stroke-miterlimit="10" d="m76.17 356.09-3.21-1.61v3.22l3.21-1.61Z" class="Vector"/>
      <path id="Vector_157" stroke="#000" stroke-miterlimit="10" d="M72.96 356.24h-61.4" class="Vector"/>
      <path id="Vector_158" stroke="#000" stroke-miterlimit="10" d="M213.06 177.61v13.03h-9.74v61.73h65.64v-74.76h-55.9Z" class="Vector"/>
    </g>
  </g>
</svg>
