<svg xmlns="http://www.w3.org/2000/svg" fill="none" viewBox="0 0 360 400">
  <g id="Neubau_Obergeschoss" class="Neubau_Obergeschoss">
    <g id="rooms" class="rooms">
      <path id="Vector" fill="#000" d="m178.29 78.55.41-.41.73.73.36.43h.03l-.05-.83V75.6h.58v2.87l-.05.82h.03l.36-.42.73-.73.41.41-1.77 1.77-1.77-1.77Zm6.16-1.26-.41.41-.73-.73-.36-.43h-.03l.05.83v2.87h-.58v-2.87l.05-.82h-.03l-.36.42-.73.73-.41-.41 1.77-1.77 1.77 1.77Z" class="Vector"/>
      <g id="room_N1.4" class="room_N1.4">
        <path id="area" fill="#D9D9D9" d="M340.72 9.76h-84.46V68.3h84.46V9.76Z" class="area"/>
        <g id="number" class="number">
          <path id="Vector_2" fill="#000" d="M286.54 37.12h-.08V44h-.89v-8.16h1.39l2.78 6.88h.08v-6.88h.89V44h-1.39l-2.78-6.88Z" class="Vector"/>
          <path id="Vector_3" fill="#000" d="M292.53 44v-.85h2.34v-6.58h-.08l-2.06 1.92-.57-.62 2.16-2.02h1.53v7.31H298v.85h-5.47V44Z" class="Vector"/>
          <path id="Vector_4" fill="#000" d="M301.95 44.1c-.32 0-.54-.07-.67-.2a.678.678 0 0 1-.19-.5v-.21c0-.2.06-.37.19-.5s.35-.2.67-.2c.32 0 .54.07.67.2s.19.3.19.5v.21c0 .2-.06.37-.19.5s-.35.2-.67.2Z" class="Vector"/>
          <path id="Vector_5" fill="#000" d="M309.76 44v-1.6h-4.02v-.87l3.53-5.7h1.43v5.75h1.22v.81h-1.22v1.6h-.94V44Zm-3.15-2.41h3.15V36.6h-.05l-3.1 4.99Z" class="Vector"/>
        </g>
      </g>
      <g id="room_N1.5" class="room_N1.5">
        <path id="area_2" fill="#D9D9D9" d="M340.73 102.08h-55.96v84.46h55.96v-84.46Z" class="area"/>
        <g id="number_2" class="number">
          <path id="Vector_6" fill="#000" d="M300.79 142.4h-.08v6.88h-.89v-8.16h1.39l2.78 6.88h.08v-6.88h.89v8.16h-1.39l-2.78-6.88Z" class="Vector"/>
          <path id="Vector_7" fill="#000" d="M306.78 149.28v-.85h2.34v-6.58h-.08l-2.06 1.92-.57-.62 2.16-2.02h1.53v7.31h2.15v.85h-5.47v-.01Z" class="Vector"/>
          <path id="Vector_8" fill="#000" d="M316.2 149.38c-.32 0-.54-.07-.67-.2a.678.678 0 0 1-.19-.5v-.21c0-.2.06-.37.19-.5s.35-.2.67-.2c.32 0 .54.07.67.2s.19.3.19.5v.21c0 .2-.06.37-.19.5s-.35.2-.67.2Z" class="Vector"/>
          <path id="Vector_9" fill="#000" d="M325.45 141.97h-3.65l-.23 3.12h.08c.2-.27.43-.49.68-.65.25-.16.59-.24 1.03-.24.36 0 .69.06.99.17.3.11.56.28.78.5.22.22.39.48.51.79.12.31.19.66.19 1.06s-.06.76-.19 1.09c-.12.33-.31.62-.55.85-.24.24-.53.42-.88.56-.34.13-.73.2-1.17.2-.34 0-.65-.04-.92-.12-.27-.08-.51-.18-.71-.32-.21-.13-.39-.28-.54-.45-.16-.16-.3-.33-.42-.51l.74-.56c.11.16.22.31.33.44.11.13.24.25.39.34.15.1.32.17.5.23s.41.08.65.08c.56 0 .99-.15 1.29-.46.3-.3.45-.72.45-1.26v-.09c0-.54-.15-.96-.46-1.26-.3-.3-.74-.46-1.31-.46-.39 0-.69.07-.91.2-.22.13-.41.3-.59.49l-.83-.12.29-4.49h4.44v.85l.02.02Z" class="Vector"/>
        </g>
      </g>
      <g id="room_N1.6" class="room_N1.6">
        <path id="area_3" fill="#D9D9D9" d="M340.73 261.32v-74.78h-55.96v12.96H275v61.82h65.73Z" class="area"/>
        <g id="text" class="text">
          <path id="Vector_10" fill="#000" d="M300.79 222.02h-.08v6.88h-.89v-8.16h1.39l2.78 6.88h.08v-6.88h.89v8.16h-1.39l-2.78-6.88Z" class="Vector"/>
          <path id="Vector_11" fill="#000" d="M306.78 228.9v-.85h2.34v-6.58h-.08l-2.06 1.92-.57-.62 2.16-2.02h1.53v7.31h2.15v.85h-5.47v-.01Z" class="Vector"/>
          <path id="Vector_12" fill="#000" d="M316.2 229c-.32 0-.54-.07-.67-.2a.678.678 0 0 1-.19-.5v-.21c0-.2.06-.37.19-.5s.35-.2.67-.2c.32 0 .54.07.67.2s.19.3.19.5v.21c0 .2-.06.37-.19.5s-.35.2-.67.2Z" class="Vector"/>
          <path id="Vector_13" fill="#000" d="M323.11 229.04c-.43 0-.81-.07-1.16-.22-.34-.14-.63-.35-.87-.62s-.42-.6-.55-.99c-.13-.39-.19-.83-.19-1.31 0-.61.09-1.18.27-1.71.18-.53.42-1.02.7-1.46.28-.44.6-.83.95-1.17.35-.34.69-.61 1.03-.82h1.26c-.44.32-.84.63-1.19.94-.35.3-.65.62-.92.95-.27.33-.49.69-.67 1.06-.18.38-.33.81-.44 1.28l.06.02c.19-.34.45-.61.77-.84.32-.22.73-.33 1.24-.33.36 0 .69.06.98.18a2.228 2.228 0 0 1 1.28 1.29c.12.31.18.66.18 1.04s-.07.76-.2 1.09c-.13.33-.32.62-.56.85-.24.24-.53.42-.87.56-.34.13-.72.2-1.13.2l.03.01Zm-.01-.83c.56 0 1-.15 1.3-.46.31-.3.46-.73.46-1.29v-.09c0-.55-.15-.98-.46-1.29-.31-.3-.74-.46-1.3-.46s-1 .15-1.3.46c-.31.3-.46.73-.46 1.29v.09c0 .55.15.98.46 1.29.31.3.74.46 1.3.46Z" class="Vector"/>
        </g>
      </g>
      <g id="room_N1Arbeitsraum" class="room_N1Arbeitsraum">
        <path id="area_4" fill="#D9D9D9" d="M340.73 68.3h-55.96v33.92h55.96V68.3Z" class="area"/>
        <g id="text_2" class="text">
          <path id="Vector_14" fill="#000" d="m301.73 84.82-.35-1.16h-1.43l-.35 1.16h-.51l1.25-4.08h.65l1.25 4.08h-.52.01Zm-1.04-3.57h-.05l-.57 1.97h1.2l-.57-1.97h-.01Z" class="Vector"/>
          <path id="Vector_15" fill="#000" d="M302.82 84.41h.88V82.2h-.88v-.4h1.35v.76h.03c.06-.24.18-.42.35-.56.17-.13.4-.2.66-.2h.42v.47h-.57c-.27 0-.49.08-.65.23-.17.16-.25.36-.25.61v1.3h1.17v.4h-2.52v-.4h.01Z" class="Vector"/>
          <path id="Vector_16" fill="#000" d="M306.37 80.49h.47v1.8h.02c.19-.37.5-.56.93-.56.37 0 .66.14.87.42.21.28.31.67.31 1.16 0 .49-.1.89-.31 1.16-.21.28-.5.42-.87.42-.42 0-.73-.19-.93-.56h-.02v.49h-.47v-4.33Zm1.24 3.98c.27 0 .48-.08.63-.25.15-.17.23-.38.23-.66v-.51c0-.27-.08-.49-.23-.66-.15-.17-.36-.25-.63-.25-.11 0-.2.01-.3.04a.83.83 0 0 0-.25.12c-.07.05-.13.12-.17.19-.04.08-.06.16-.06.27v1.09a.52.52 0 0 0 .23.46c.07.05.15.09.25.12s.19.04.3.04Z" class="Vector"/>
          <path id="Vector_17" fill="#000" d="M311.07 84.89c-.22 0-.41-.04-.59-.11a1.09 1.09 0 0 1-.44-.32c-.12-.14-.22-.3-.28-.5-.07-.19-.1-.41-.1-.65 0-.24.03-.46.1-.66.07-.19.16-.36.28-.5.12-.14.27-.24.44-.32a1.471 1.471 0 0 1 1.11 0c.17.07.31.18.42.31.12.13.21.29.27.46.06.18.09.38.09.59v.22h-2.23v.14c0 .13.02.26.06.37a.789.789 0 0 0 .47.48c.12.04.24.07.38.07.2 0 .38-.05.53-.14.15-.09.26-.22.34-.39l.34.23c-.09.2-.24.37-.45.5-.21.13-.46.2-.76.2l.02.02Zm-.02-2.78c-.13 0-.25.02-.36.07-.11.05-.2.11-.28.19-.08.08-.14.18-.19.29-.05.11-.07.23-.07.37v.04h1.73v-.06c0-.13-.02-.25-.06-.36-.04-.11-.1-.2-.17-.28a.677.677 0 0 0-.26-.18.934.934 0 0 0-.34-.06v-.02Z" class="Vector"/>
          <path id="Vector_18" fill="#000" d="M313.34 84.41h1.09V82.2h-1.09v-.4h1.56v2.61h1.02v.4h-2.57v-.4h-.01Zm1.32-3.28c-.14 0-.23-.03-.29-.08a.323.323 0 0 1-.08-.21v-.09c0-.09.03-.16.08-.21.05-.06.15-.08.29-.08.14 0 .23.03.29.08.05.06.08.13.08.21v.09c0 .09-.03.16-.08.21-.05.06-.15.08-.29.08Z" class="Vector"/>
          <path id="Vector_19" fill="#000" d="M318.07 84.82c-.23 0-.4-.06-.51-.19-.11-.13-.16-.29-.16-.5V82.2h-1.01v-.4h.75c.1 0 .17-.02.21-.06.04-.04.06-.11.06-.21v-.79h.45v1.06h1.37v.4h-1.37v2.21h1.37v.4h-1.18l.02.01Z" class="Vector"/>
          <path id="Vector_20" fill="#000" d="M321.41 84.89c-.32 0-.59-.05-.82-.16-.23-.11-.42-.25-.58-.43l.32-.27c.14.15.3.27.47.35.17.08.38.12.62.12s.43-.04.58-.13c.15-.08.23-.22.23-.39 0-.08-.01-.14-.04-.2s-.07-.09-.12-.13a.51.51 0 0 0-.17-.07c-.06-.01-.13-.03-.2-.04l-.47-.07c-.11-.02-.22-.04-.34-.06-.12-.03-.23-.07-.34-.13a.718.718 0 0 1-.25-.24c-.07-.1-.1-.23-.1-.4 0-.15.03-.28.09-.39.06-.11.15-.21.25-.28.11-.08.24-.13.39-.17.15-.04.31-.06.49-.06.27 0 .51.04.71.13.2.09.37.2.52.36l-.3.29s-.08-.09-.13-.13a1.07 1.07 0 0 0-.46-.21c-.1-.02-.22-.04-.35-.04-.24 0-.42.04-.55.12-.13.08-.19.2-.19.36 0 .08.01.14.04.2s.07.09.12.13c.05.04.11.06.17.07.06.02.13.03.2.04l.47.07c.11.02.22.04.35.06.12.03.23.07.33.13s.19.14.25.24c.07.1.1.23.1.4 0 .3-.12.53-.35.7-.23.16-.54.25-.93.25l-.01-.02Z" class="Vector"/>
          <path id="Vector_21" fill="#000" d="M323.98 83.28v-.49h1.7v.49h-1.7Z" class="Vector"/>
          <path id="Vector_22" fill="#000" d="M306.27 90.26h.88v-2.21h-.88v-.4h1.35v.76h.03c.06-.24.18-.42.35-.56.17-.13.4-.2.66-.2h.42v.47h-.57c-.27 0-.49.08-.65.23-.17.16-.25.36-.25.61v1.3h1.17v.4h-2.52v-.4h.01Z" class="Vector"/>
          <path id="Vector_23" fill="#000" d="M312.16 90.66c-.18 0-.31-.05-.39-.14a.659.659 0 0 1-.15-.35h-.03c-.07.18-.17.31-.32.41-.15.1-.34.15-.59.15-.32 0-.57-.08-.75-.25-.19-.16-.28-.39-.28-.67s.1-.5.31-.65c.21-.15.54-.23.99-.23h.64v-.3c0-.22-.06-.39-.19-.5-.12-.11-.3-.17-.53-.17-.2 0-.37.04-.5.12a.95.95 0 0 0-.31.32l-.32-.23c.04-.08.09-.15.16-.23.07-.07.15-.14.25-.2s.21-.1.33-.14c.12-.03.26-.05.42-.05.35 0 .64.09.84.27.2.18.31.43.31.75v1.67h.42v.4h-.32l.01.02Zm-1.39-.32c.12 0 .23-.01.33-.04s.19-.07.26-.12c.07-.05.13-.11.17-.18.04-.07.06-.14.06-.22v-.5h-.64c-.28 0-.49.04-.61.12a.37.37 0 0 0-.19.34v.12c0 .16.06.27.17.35.11.08.26.12.46.12l-.01.01Z" class="Vector"/>
          <path id="Vector_24" fill="#000" d="M315.19 90.17h-.02c-.03.07-.07.15-.12.21a.728.728 0 0 1-.41.3c-.09.03-.2.05-.33.05-.32 0-.57-.1-.76-.3-.19-.2-.29-.48-.29-.85v-1.94h.47v1.85c0 .28.06.48.18.62.12.13.3.2.53.2.09 0 .19-.01.27-.04.08-.03.17-.06.24-.11.07-.05.13-.11.17-.18.04-.07.06-.16.06-.26v-2.09h.47v3.02h-.47v-.49l.01.01Z" class="Vector"/>
          <path id="Vector_25" fill="#000" d="M316.48 90.66v-3.02h.43v.35h.02c.05-.12.11-.22.2-.3.09-.08.21-.12.38-.12s.31.04.39.13c.08.09.14.2.16.34h.02c.05-.14.13-.25.23-.34.1-.09.24-.13.42-.13.25 0 .41.09.49.26.08.17.13.42.13.74v2.09h-.43v-2.02c0-.26-.03-.44-.08-.54-.05-.1-.15-.15-.29-.15-.12 0-.23.04-.3.12-.08.08-.12.2-.12.37v2.22h-.43v-2.02c0-.26-.03-.44-.08-.54-.05-.1-.15-.15-.28-.15a.43.43 0 0 0-.31.12c-.08.08-.12.2-.12.37v2.22h-.43Z" class="Vector"/>
        </g>
      </g>
      <g id="room_N1.3" class="room_N1.3">
        <path id="area_5" fill="#D9D9D9" d="M256.26 9.76H171.8V68.3h84.46V9.76Z" class="area"/>
        <g id="number_3" class="number">
          <path id="Vector_26" fill="#000" d="M202.08 37.12H202V44h-.89v-8.16h1.39l2.78 6.88h.08v-6.88h.89V44h-1.39l-2.78-6.88Z" class="Vector"/>
          <path id="Vector_27" fill="#000" d="M208.07 44v-.85h2.34v-6.58h-.08l-2.06 1.92-.57-.62 2.16-2.02h1.53v7.31h2.15v.85h-5.47V44Z" class="Vector"/>
          <path id="Vector_28" fill="#000" d="M217.48 44.1c-.32 0-.54-.07-.67-.2a.678.678 0 0 1-.19-.5v-.21c0-.2.06-.37.19-.5s.35-.2.67-.2c.32 0 .54.07.67.2s.19.3.19.5v.21c0 .2-.06.37-.19.5s-.35.2-.67.2Z" class="Vector"/>
          <path id="Vector_29" fill="#000" d="M224.03 39.28c.57 0 1-.13 1.28-.38s.43-.58.43-.97v-.08c0-.43-.14-.76-.42-.98-.28-.22-.64-.33-1.08-.33-.44 0-.79.09-1.06.29-.27.2-.49.44-.66.75l-.74-.56c.1-.16.23-.33.37-.49.15-.16.32-.3.52-.43.2-.12.43-.23.69-.3.26-.07.56-.12.9-.12.34 0 .68.04.98.13.3.09.57.22.8.4a1.855 1.855 0 0 1 .72 1.53c0 .26-.04.5-.12.71-.08.21-.19.39-.34.55-.14.16-.31.29-.51.4-.2.11-.4.19-.62.25v.05c.23.05.44.12.66.23.21.11.4.24.56.41.16.17.29.37.39.61.1.24.15.51.15.81 0 .35-.07.67-.2.97-.14.29-.33.54-.57.75-.24.21-.54.37-.89.49s-.73.18-1.15.18c-.36 0-.68-.04-.95-.12-.27-.08-.52-.18-.74-.32-.21-.13-.4-.28-.56-.45-.16-.16-.3-.33-.43-.51l.74-.56c.11.16.22.31.34.44.12.13.25.25.4.34.15.09.33.17.52.23s.42.08.68.08c.58 0 1.02-.13 1.33-.4.31-.26.46-.64.46-1.13v-.09c0-.48-.15-.86-.45-1.12-.3-.27-.75-.4-1.35-.4h-.97v-.85h.9l-.01-.01Z" class="Vector"/>
        </g>
      </g>
      <g id="room_N1.2" class="room_N1.2">
        <path id="area_6" fill="#D9D9D9" d="M144.92 102.08H88.1v73.72h63.4l-6.58-73.72Z" class="area"/>
        <g id="number_4" class="number">
          <path id="Vector_30" fill="#000" d="M104.56 125.34h-.08v6.88h-.89v-8.16h1.39l2.78 6.88h.08v-6.88h.89v8.16h-1.39l-2.78-6.88Z" class="Vector"/>
          <path id="Vector_31" fill="#000" d="M110.54 132.21v-.85h2.34v-6.58h-.08l-2.06 1.92-.57-.62 2.16-2.02h1.53v7.31h2.15v.85h-5.47v-.01Z" class="Vector"/>
          <path id="Vector_32" fill="#000" d="M119.96 132.32c-.32 0-.54-.07-.67-.2a.678.678 0 0 1-.19-.5v-.21c0-.2.06-.37.19-.5s.35-.2.67-.2c.32 0 .54.07.67.2s.19.3.19.5v.21c0 .2-.06.37-.19.5s-.35.2-.67.2Z" class="Vector"/>
          <path id="Vector_33" fill="#000" d="M129.63 132.21h-5.45v-1.01l2.73-2.46c.4-.36.73-.73.98-1.11.25-.38.39-.78.39-1.2v-.14c0-.49-.13-.87-.39-1.14-.26-.27-.64-.4-1.15-.4-.51 0-.88.13-1.15.38-.27.25-.47.59-.6 1.01l-.88-.33c.08-.24.19-.48.32-.71.14-.23.31-.43.52-.61.21-.18.47-.32.77-.43.3-.11.65-.16 1.05-.16s.77.06 1.08.18c.32.12.58.28.8.49.22.21.38.46.49.75.11.29.17.6.17.95 0 .31-.04.6-.13.88-.09.27-.21.53-.37.78s-.35.49-.57.73c-.22.24-.47.47-.74.71l-2.28 1.99h4.43v.85h-.02Z" class="Vector"/>
        </g>
        <g id="text_3" class="text">
          <path id="Vector_34" fill="#000" d="M107.2 143.91v-1.42h2.2v-5.47h-.11l-1.66 2.17-1.12-.88 1.95-2.57h2.69v6.75h1.73v1.42h-5.68Z" class="Vector"/>
          <path id="Vector_35" fill="#000" d="M116.51 144.05c-1.09 0-1.9-.37-2.42-1.11-.52-.74-.78-1.78-.78-3.11 0-1.33.26-2.37.78-3.11.52-.74 1.32-1.11 2.42-1.11 1.1 0 1.9.37 2.42 1.11.52.74.78 1.78.78 3.11 0 1.33-.26 2.37-.78 3.11-.52.74-1.32 1.11-2.42 1.11Zm0-1.38c.52 0 .89-.18 1.09-.55.21-.37.31-.88.31-1.53v-1.52c0-.65-.1-1.17-.31-1.53-.21-.37-.57-.55-1.09-.55-.52 0-.89.18-1.09.55-.21.37-.31.88-.31 1.53v1.52c0 .65.1 1.17.31 1.53.21.37.57.55 1.09.55Zm0-2.15c-.27 0-.46-.05-.57-.16a.576.576 0 0 1-.16-.4v-.26c0-.16.05-.29.16-.4.11-.11.29-.16.57-.16.28 0 .46.05.57.16.11.11.16.24.16.4v.26c0 .16-.05.29-.16.4-.11.11-.29.16-.57.16Z" class="Vector"/>
          <path id="Vector_36" fill="#000" d="M124.5 142.8h-.08c-.16.37-.37.67-.65.9-.28.23-.66.35-1.14.35-.33 0-.64-.06-.92-.19a1.95 1.95 0 0 1-.71-.57c-.2-.26-.35-.58-.47-.98-.11-.4-.17-.87-.17-1.42 0-.55.06-1.02.17-1.42.11-.4.27-.73.47-.98.2-.26.44-.45.71-.57.27-.12.58-.19.92-.19.24 0 .46.03.64.09.19.06.35.15.5.26.14.11.27.24.37.39.11.15.2.32.27.5h.08v-3.73h1.73v8.66h-1.73v-1.11l.01.01Zm-1.12-.11c.3 0 .57-.07.79-.22.22-.15.33-.38.33-.7V140c0-.32-.11-.55-.33-.7a1.38 1.38 0 0 0-.79-.22c-.39 0-.69.12-.9.36-.21.24-.32.56-.32.98v.93c0 .42.11.75.32.98.21.24.51.35.9.35v.01Z" class="Vector"/>
          <path id="Vector_37" fill="#000" d="M104.69 151.97c0-.57.06-1.12.19-1.64.13-.53.3-1.02.53-1.47.23-.45.48-.86.78-1.22.3-.36.61-.67.94-.92h1.73c-.37.25-.71.54-1.04.87-.33.33-.61.7-.86 1.09-.25.4-.44.82-.59 1.27-.15.45-.22.92-.22 1.42v1.19c0 .49.07.96.22 1.42.15.45.35.88.59 1.28.25.4.53.76.86 1.09.33.33.67.62 1.04.87h-1.73c-.33-.24-.64-.55-.94-.91-.3-.37-.56-.78-.78-1.23-.22-.45-.4-.94-.53-1.47s-.19-1.07-.19-1.64Z" class="Vector"/>
          <path id="Vector_38" fill="#000" d="M110.3 147.44h2.63c1.1 0 1.91.35 2.44 1.05.53.7.8 1.71.8 3.03 0 1.32-.27 2.33-.8 3.03-.53.7-1.35 1.05-2.44 1.05h-2.63v-8.16Zm2.51 6.79c.52 0 .9-.17 1.15-.5.24-.34.36-.82.36-1.46v-1.49c0-.63-.12-1.11-.36-1.45-.24-.33-.62-.5-1.15-.5h-.78v5.4h.78Z" class="Vector"/>
          <path id="Vector_39" fill="#000" d="m117.08 155.61-.5-8.16h1.51l.23 4.89.07 1.54h.11l.7-4.65h1.58l.7 4.65h.11l.07-1.5.23-4.94h1.45l-.5 8.16h-2.22l-.6-4.5h-.12l-.6 4.5h-2.22v.01Z" class="Vector"/>
          <path id="Vector_40" fill="#000" d="M128.33 151.97c0 .57-.06 1.12-.19 1.64a6.953 6.953 0 0 1-1.31 2.7c-.3.37-.61.67-.94.91h-1.73c.36-.25.7-.54 1.04-.87.33-.33.62-.7.87-1.09.25-.4.44-.82.59-1.28.15-.45.22-.92.22-1.42v-1.19c0-.49-.07-.96-.22-1.42-.15-.45-.35-.88-.59-1.27-.25-.4-.53-.76-.87-1.09-.33-.33-.68-.62-1.04-.87h1.73c.33.25.64.56.94.92.3.36.56.77.78 1.22.22.45.4.94.53 1.47s.19 1.07.19 1.64Z" class="Vector"/>
        </g>
      </g>
      <g id="room_N1.1" class="room_N1.1">
        <path id="area_7" fill="#D9D9D9" d="M157 230.97H88.16v82.07h76.34l-7.5-82.07Z" class="area"/>
        <g id="number_5" class="number">
          <path id="Vector_41" fill="#000" d="M110.04 258.39h-.08v6.88h-.89v-8.16h1.39l2.78 6.88h.08v-6.88h.89v8.16h-1.39l-2.78-6.88Z" class="Vector"/>
          <path id="Vector_42" fill="#000" d="M116.03 265.27v-.85h2.34v-6.58h-.08l-2.06 1.92-.57-.62 2.16-2.02h1.53v7.31h2.15v.85h-5.47v-.01Z" class="Vector"/>
          <path id="Vector_43" fill="#000" d="M125.45 265.38c-.32 0-.54-.07-.67-.2a.678.678 0 0 1-.19-.5v-.21c0-.2.06-.37.19-.5s.35-.2.67-.2c.32 0 .54.07.67.2s.19.3.19.5v.21c0 .2-.06.37-.19.5s-.35.2-.67.2Z" class="Vector"/>
          <path id="Vector_44" fill="#000" d="M129.83 265.27v-.85h2.34v-6.58h-.08l-2.06 1.92-.57-.62 2.16-2.02h1.53v7.31h2.15v.85h-5.47v-.01Z" class="Vector"/>
        </g>
        <g id="text_4" class="text">
          <path id="Vector_45" fill="#000" d="M112.69 276.97v-1.42h2.2v-5.47h-.11l-1.66 2.17-1.12-.88 1.95-2.57h2.69v6.75h1.73v1.42h-5.68Z" class="Vector"/>
          <path id="Vector_46" fill="#000" d="M121.99 277.11c-1.09 0-1.9-.37-2.42-1.11-.52-.74-.78-1.78-.78-3.11 0-1.33.26-2.37.78-3.11.52-.74 1.32-1.11 2.42-1.11 1.1 0 1.9.37 2.42 1.11.52.74.78 1.78.78 3.11 0 1.33-.26 2.37-.78 3.11-.52.74-1.32 1.11-2.42 1.11Zm0-1.38c.52 0 .89-.18 1.09-.55.21-.37.31-.88.31-1.53v-1.52c0-.65-.1-1.17-.31-1.53-.21-.37-.57-.55-1.09-.55-.52 0-.89.18-1.09.55-.21.37-.31.88-.31 1.53v1.52c0 .65.1 1.17.31 1.53.21.37.57.55 1.09.55Zm0-2.15c-.27 0-.46-.05-.57-.16a.576.576 0 0 1-.16-.4v-.26c0-.16.05-.29.16-.4.11-.11.29-.16.57-.16.28 0 .46.05.57.16.11.11.16.24.16.4v.26c0 .16-.05.29-.16.4-.11.11-.29.16-.57.16Z" class="Vector"/>
          <path id="Vector_47" fill="#000" d="M129.14 277.11c-.48 0-.9-.07-1.28-.22-.38-.14-.7-.35-.96-.63-.26-.27-.46-.6-.6-.99a3.89 3.89 0 0 1-.21-1.32c0-.49.07-.93.21-1.32.14-.39.34-.72.6-1 .26-.27.58-.48.96-.62s.8-.22 1.27-.22c.66 0 1.19.13 1.6.4.4.27.71.63.92 1.07l-1.33.73c-.11-.23-.25-.43-.43-.58-.18-.16-.43-.23-.75-.23-.4 0-.7.12-.92.35-.21.23-.32.54-.32.94v.98c0 .4.11.71.32.94.21.23.53.34.94.34.34 0 .6-.08.79-.23.19-.15.35-.36.49-.61l1.31.75c-.22.44-.54.8-.95 1.07-.42.27-.96.4-1.64.4h-.02Z" class="Vector"/>
          <path id="Vector_48" fill="#000" d="M110.17 285.03c0-.57.06-1.12.19-1.64.13-.53.3-1.02.53-1.47.23-.45.48-.86.78-1.22.3-.36.61-.67.94-.92h1.73c-.37.25-.71.54-1.04.87-.33.33-.61.7-.86 1.09-.25.4-.44.82-.59 1.27-.15.45-.22.92-.22 1.42v1.19c0 .49.07.96.22 1.42.15.45.35.88.59 1.28.25.4.53.76.86 1.09.33.33.67.62 1.04.87h-1.73c-.33-.24-.64-.55-.94-.91-.3-.37-.56-.78-.78-1.23-.22-.45-.4-.94-.53-1.47s-.19-1.07-.19-1.64Z" class="Vector"/>
          <path id="Vector_49" fill="#000" d="M116.11 288.66v-8.16h1.77v6.73h3.51v1.44h-5.27l-.01-.01Z" class="Vector"/>
          <path id="Vector_50" fill="#000" d="M122.7 288.66v-6.04h1.73v1.1h.07c.07-.17.16-.33.26-.48.1-.15.22-.28.37-.39.14-.11.31-.2.5-.27s.41-.1.65-.1c.29 0 .55.05.8.15.25.1.45.24.62.44.17.2.31.43.4.71.1.28.15.6.15.97v3.91h-1.73v-3.67c0-.78-.34-1.17-1.02-1.17-.13 0-.26.02-.39.05-.13.04-.24.09-.35.16a.814.814 0 0 0-.33.67v3.96h-1.73Z" class="Vector"/>
          <path id="Vector_51" fill="#000" d="M133.82 285.03c0 .57-.06 1.12-.19 1.64a6.953 6.953 0 0 1-1.31 2.7c-.3.37-.61.67-.94.91h-1.73c.36-.25.7-.54 1.04-.87.33-.33.62-.7.87-1.09.25-.4.44-.82.59-1.28.15-.45.22-.92.22-1.42v-1.19c0-.49-.07-.96-.22-1.42-.15-.45-.35-.88-.59-1.27-.25-.4-.53-.76-.87-1.09-.33-.33-.68-.62-1.04-.87h1.73c.33.25.64.56.94.92.3.36.56.77.78 1.22.22.45.4.94.53 1.47s.19 1.07.19 1.64Z" class="Vector"/>
        </g>
      </g>
      <g id="room_WC_7" class="room_WC">
        <path id="area_8" fill="#D9D9D9" d="M151.79 175.81H88.92v26.93H154l-2.21-26.93Z" class="area"/>
        <g id="text_5" class="text">
          <path id="Vector_52" fill="#000" d="M107.35 189.9h-1.59v1.85h-.49v-4.08h.49v1.8h1.59v-1.8h.49v4.08h-.49v-1.85Z" class="Vector"/>
          <path id="Vector_53" fill="#000" d="M110.06 191.83c-.22 0-.41-.04-.59-.11a1.09 1.09 0 0 1-.44-.32c-.12-.14-.22-.3-.28-.5-.07-.19-.1-.41-.1-.65 0-.24.03-.46.1-.66.07-.19.16-.36.28-.5.12-.14.27-.24.44-.32a1.471 1.471 0 0 1 1.11 0c.17.07.31.18.42.31.12.13.21.29.27.46.06.18.09.38.09.59v.22h-2.23v.14c0 .13.02.26.06.37a.789.789 0 0 0 .47.48c.12.04.24.07.38.07.2 0 .38-.05.53-.14.15-.09.26-.22.34-.39l.34.23c-.09.2-.24.37-.45.5-.21.13-.46.2-.76.2l.02.02Zm-.03-2.78c-.13 0-.25.02-.36.07-.11.05-.2.11-.28.19-.08.08-.14.18-.19.29-.05.11-.07.23-.07.37v.04h1.73v-.06c0-.13-.02-.25-.06-.36-.04-.11-.1-.2-.17-.28a.677.677 0 0 0-.26-.18.934.934 0 0 0-.34-.06v-.02Z" class="Vector"/>
          <path id="Vector_54" fill="#000" d="M112.15 191.35h.88v-2.21h-.88v-.4h1.35v.76h.03c.06-.24.18-.42.35-.56.17-.13.4-.2.66-.2h.42v.47h-.57c-.27 0-.49.08-.65.23-.17.16-.25.36-.25.61v1.3h1.17v.4h-2.52v-.4h.01Z" class="Vector"/>
          <path id="Vector_55" fill="#000" d="M115.6 191.35h.88v-2.21h-.88v-.4h1.35v.76h.03c.06-.24.18-.42.35-.56.17-.13.4-.2.66-.2h.42v.47h-.57c-.27 0-.49.08-.65.23-.17.16-.25.36-.25.61v1.3h1.17v.4h-2.52v-.4h.01Z" class="Vector"/>
          <path id="Vector_56" fill="#000" d="M120.41 191.83c-.22 0-.41-.04-.59-.11a1.09 1.09 0 0 1-.44-.32c-.12-.14-.22-.3-.28-.5-.07-.19-.1-.41-.1-.65 0-.24.03-.46.1-.66.07-.19.16-.36.28-.5.12-.14.27-.24.44-.32a1.471 1.471 0 0 1 1.11 0c.17.07.31.18.42.31.12.13.21.29.27.46.06.18.09.38.09.59v.22h-2.23v.14c0 .13.02.26.06.37a.789.789 0 0 0 .47.48c.12.04.24.07.38.07.2 0 .38-.05.53-.14.15-.09.26-.22.34-.39l.34.23c-.09.2-.24.37-.45.5-.21.13-.46.2-.76.2l.02.02Zm-.03-2.78c-.13 0-.25.02-.36.07-.11.05-.2.11-.28.19-.08.08-.14.18-.19.29-.05.11-.07.23-.07.37v.04h1.73v-.06c0-.13-.02-.25-.06-.36-.04-.11-.1-.2-.17-.28a.677.677 0 0 0-.26-.18.934.934 0 0 0-.34-.06v-.02Z" class="Vector"/>
          <path id="Vector_57" fill="#000" d="M122.63 191.75v-3.02h.47v.49h.02c.03-.07.07-.15.12-.21a.728.728 0 0 1 .41-.3c.09-.03.2-.05.33-.05.32 0 .57.1.76.3.19.2.29.49.29.85v1.94h-.47v-1.85c0-.28-.06-.48-.18-.62-.12-.13-.3-.2-.53-.2-.09 0-.19.01-.27.04-.08.03-.17.06-.24.11-.07.05-.13.11-.17.18-.04.07-.06.16-.06.26v2.09h-.47l-.01-.01Z" class="Vector"/>
          <path id="Vector_58" fill="#000" d="M126.41 190.22v-.49h1.7v.49h-1.7Z" class="Vector"/>
          <path id="Vector_59" fill="#000" d="m129.48 191.75-.32-4.08h.44l.17 2.34.09 1.23h.05l.54-2.51h.55l.54 2.51h.05l.09-1.23.17-2.34h.43l-.32 4.08h-.71l-.5-2.44h-.05l-.5 2.44h-.72Z" class="Vector"/>
          <path id="Vector_60" fill="#000" d="M134.29 191.83c-.5 0-.87-.18-1.11-.54-.24-.36-.37-.88-.37-1.57 0-.69.12-1.21.37-1.57.25-.36.61-.54 1.11-.54.19 0 .35.03.49.08s.25.12.35.21c.1.08.18.18.25.29.07.11.12.22.18.32l-.42.19c-.04-.09-.08-.17-.12-.25a.87.87 0 0 0-.17-.21.594.594 0 0 0-.23-.14.77.77 0 0 0-.32-.05c-.32 0-.56.12-.72.37-.16.25-.24.57-.24.98v.67c0 .41.08.74.24.98.16.25.4.37.72.37.12 0 .23-.02.32-.05.09-.04.16-.08.23-.14a1.198 1.198 0 0 0 .29-.46l.42.19c-.05.11-.11.22-.18.33-.07.11-.15.2-.25.29-.1.09-.21.15-.35.21-.14.05-.3.08-.49.08v-.04Z" class="Vector"/>
        </g>
      </g>
      <g id="room_WC_1" class="room_WC">
        <path id="area_9" fill="#D9D9D9" d="M154.31 202.74H88.13v28.23H157l-2.69-28.23Z" class="area"/>
        <g id="text_6" class="text">
          <path id="Vector_61" fill="#000" d="M107.95 215.25h1.14c.5 0 .87.17 1.12.51.25.34.37.85.37 1.53s-.12 1.18-.37 1.53c-.25.35-.62.51-1.12.51h-1.14v-4.08Zm1.11 3.66c.33 0 .57-.11.74-.34.17-.23.25-.55.25-.96v-.63c0-.41-.08-.73-.25-.96-.17-.23-.41-.34-.74-.34h-.63v3.23h.63Z" class="Vector"/>
          <path id="Vector_62" fill="#000" d="M113.74 219.34c-.18 0-.31-.05-.39-.14a.659.659 0 0 1-.15-.35h-.03c-.07.18-.17.31-.32.41-.15.1-.34.15-.59.15-.32 0-.57-.08-.75-.25-.19-.16-.28-.39-.28-.67s.1-.5.31-.65c.21-.15.54-.23.99-.23h.64v-.3c0-.22-.06-.39-.19-.5-.12-.11-.3-.17-.53-.17-.2 0-.37.04-.5.12a.95.95 0 0 0-.31.32l-.32-.23c.04-.08.09-.15.16-.23.07-.07.15-.14.25-.2s.21-.1.33-.14c.12-.03.26-.05.42-.05.35 0 .64.09.84.27.2.18.31.43.31.75v1.67h.42v.4h-.32l.01.02Zm-1.39-.33c.12 0 .23-.01.33-.04s.19-.07.26-.12c.07-.05.13-.11.17-.18.04-.07.06-.14.06-.22v-.5h-.64c-.28 0-.49.04-.61.12a.37.37 0 0 0-.19.34v.12c0 .16.06.27.17.35.11.08.26.12.46.12l-.01.01Z" class="Vector"/>
          <path id="Vector_63" fill="#000" d="M114.61 219.34v-3.02h.43v.35h.02c.05-.12.11-.22.2-.3.09-.08.21-.12.38-.12s.31.04.39.13c.08.09.14.2.16.34h.02c.05-.14.13-.25.23-.34.1-.09.24-.13.42-.13.25 0 .41.09.49.26.08.17.13.42.13.74v2.09h-.43v-2.02c0-.26-.03-.44-.08-.54-.05-.1-.15-.15-.29-.15-.12 0-.23.04-.3.12-.08.08-.12.2-.12.37v2.22h-.43v-2.02c0-.26-.03-.44-.08-.54-.05-.1-.15-.15-.28-.15a.43.43 0 0 0-.31.12c-.08.08-.12.2-.12.37v2.22h-.43Z" class="Vector"/>
          <path id="Vector_64" fill="#000" d="M119.55 219.41c-.22 0-.41-.04-.59-.11a1.09 1.09 0 0 1-.44-.32c-.12-.14-.22-.3-.28-.5-.07-.19-.1-.41-.1-.65 0-.24.03-.46.1-.66.07-.19.16-.36.28-.5.12-.14.27-.24.44-.32a1.471 1.471 0 0 1 1.11 0c.17.07.31.18.42.31.12.13.21.29.27.46.06.18.09.38.09.59v.22h-2.23v.14c0 .13.02.26.06.37a.789.789 0 0 0 .47.48c.12.04.24.07.38.07.2 0 .38-.05.53-.14.15-.09.26-.22.34-.39l.34.23c-.09.2-.24.37-.45.5-.21.13-.46.2-.76.2l.02.02Zm-.03-2.78c-.13 0-.25.02-.36.07-.11.05-.2.11-.28.19-.08.08-.14.18-.19.29-.05.11-.07.23-.07.37v.04h1.73v-.06c0-.13-.02-.25-.06-.36-.04-.11-.1-.2-.17-.28a.677.677 0 0 0-.26-.18.934.934 0 0 0-.34-.06v-.02Z" class="Vector"/>
          <path id="Vector_65" fill="#000" d="M121.77 219.34v-3.02h.47v.49h.02c.03-.07.07-.15.12-.21a.728.728 0 0 1 .41-.3c.09-.03.2-.05.33-.05.32 0 .57.1.76.3.19.2.29.49.29.85v1.94h-.47v-1.85c0-.28-.06-.48-.18-.62-.12-.13-.3-.2-.53-.2-.09 0-.19.01-.27.04-.08.03-.17.06-.24.11-.07.05-.13.11-.17.18-.04.07-.06.16-.06.26v2.09h-.47l-.01-.01Z" class="Vector"/>
          <path id="Vector_66" fill="#000" d="M125.55 217.8v-.49h1.7v.49h-1.7Z" class="Vector"/>
          <path id="Vector_67" fill="#000" d="m128.62 219.34-.32-4.08h.44l.17 2.34.09 1.23h.05l.54-2.51h.55l.54 2.51h.05l.09-1.23.17-2.34h.43l-.32 4.08h-.71l-.5-2.44h-.05l-.5 2.44h-.72Z" class="Vector"/>
          <path id="Vector_68" fill="#000" d="M133.43 219.41c-.5 0-.87-.18-1.11-.54-.24-.36-.37-.88-.37-1.57 0-.69.12-1.21.37-1.57.25-.36.61-.54 1.11-.54.19 0 .35.03.49.08s.25.12.35.21c.1.08.18.18.25.29.07.11.12.22.18.32l-.42.19c-.04-.09-.08-.17-.12-.25a.87.87 0 0 0-.17-.21.594.594 0 0 0-.23-.14.77.77 0 0 0-.32-.05c-.32 0-.56.12-.72.37-.16.25-.24.57-.24.98v.67c0 .41.08.74.24.98.16.25.4.37.72.37.12 0 .23-.02.32-.05.09-.04.16-.08.23-.14a1.198 1.198 0 0 0 .29-.46l.42.19c-.05.11-.11.22-.18.33-.07.11-.15.2-.25.29-.1.09-.21.15-.35.21-.14.05-.3.08-.49.08v-.04Z" class="Vector"/>
        </g>
      </g>
      <g id="room_WC_2" class="room_WC">
        <path id="area_10" fill="#D9D9D9" d="M164.47 313.04h-37.6v30.5h40.63l-3.03-30.5Z" class="area"/>
        <g id="text_7" class="text">
          <path id="Vector_69" fill="#000" d="M136.11 325.99h-1.59v1.85h-.49v-4.08h.49v1.8h1.59v-1.8h.49v4.08h-.49v-1.85Z" class="Vector"/>
          <path id="Vector_70" fill="#000" d="M138.82 327.91c-.22 0-.41-.04-.59-.11a1.09 1.09 0 0 1-.44-.32c-.12-.14-.22-.3-.28-.5-.07-.19-.1-.41-.1-.65 0-.24.03-.46.1-.66.07-.19.16-.36.28-.5.12-.14.27-.24.44-.32a1.471 1.471 0 0 1 1.11 0c.17.07.31.18.42.31.12.13.21.29.27.46.06.18.09.38.09.59v.22h-2.23v.14c0 .13.02.26.06.37a.789.789 0 0 0 .47.48c.12.04.24.07.38.07.2 0 .38-.05.53-.14.15-.09.26-.22.34-.39l.34.23c-.09.2-.24.37-.45.5-.21.13-.46.2-.76.2l.02.02Zm-.03-2.77c-.13 0-.25.02-.36.07-.11.05-.2.11-.28.19-.08.08-.14.18-.19.29-.05.11-.07.23-.07.37v.04h1.73v-.06c0-.13-.02-.25-.06-.36-.04-.11-.1-.2-.17-.28a.677.677 0 0 0-.26-.18.934.934 0 0 0-.34-.06v-.02Z" class="Vector"/>
          <path id="Vector_71" fill="#000" d="M140.91 327.44h.88v-2.21h-.88v-.4h1.35v.76h.03c.06-.24.18-.42.35-.56.17-.13.4-.2.66-.2h.42v.47h-.57c-.27 0-.49.08-.65.23-.17.16-.25.36-.25.61v1.3h1.17v.4h-2.52v-.4h.01Z" class="Vector"/>
          <path id="Vector_72" fill="#000" d="M144.36 327.44h.88v-2.21h-.88v-.4h1.35v.76h.03c.06-.24.18-.42.35-.56.17-.13.4-.2.66-.2h.42v.47h-.57c-.27 0-.49.08-.65.23-.17.16-.25.36-.25.61v1.3h1.17v.4h-2.52v-.4h.01Z" class="Vector"/>
          <path id="Vector_73" fill="#000" d="M149.17 327.91c-.22 0-.41-.04-.59-.11a1.09 1.09 0 0 1-.44-.32c-.12-.14-.22-.3-.28-.5-.07-.19-.1-.41-.1-.65 0-.24.03-.46.1-.66.07-.19.16-.36.28-.5.12-.14.27-.24.44-.32a1.471 1.471 0 0 1 1.11 0c.17.07.31.18.42.31.12.13.21.29.27.46.06.18.09.38.09.59v.22h-2.23v.14c0 .13.02.26.06.37a.789.789 0 0 0 .47.48c.12.04.24.07.38.07.2 0 .38-.05.53-.14.15-.09.26-.22.34-.39l.34.23c-.09.2-.24.37-.45.5-.21.13-.46.2-.76.2l.02.02Zm-.03-2.77c-.13 0-.25.02-.36.07-.11.05-.2.11-.28.19-.08.08-.14.18-.19.29-.05.11-.07.23-.07.37v.04h1.73v-.06c0-.13-.02-.25-.06-.36-.04-.11-.1-.2-.17-.28a.677.677 0 0 0-.26-.18.934.934 0 0 0-.34-.06v-.02Z" class="Vector"/>
          <path id="Vector_74" fill="#000" d="M151.38 327.84v-3.02h.47v.49h.02c.03-.07.07-.15.12-.21a.728.728 0 0 1 .41-.3c.09-.03.2-.05.33-.05.32 0 .57.1.76.3.19.2.29.49.29.85v1.94h-.47v-1.85c0-.28-.06-.48-.18-.62-.12-.13-.3-.2-.53-.2-.09 0-.19.01-.27.04-.08.03-.17.06-.24.11-.07.05-.13.11-.17.18-.04.07-.06.16-.06.26v2.09h-.47l-.01-.01Z" class="Vector"/>
          <path id="Vector_75" fill="#000" d="M155.17 326.31v-.49h1.7v.49h-1.7Z" class="Vector"/>
          <path id="Vector_76" fill="#000" d="m142.71 333.69-.32-4.08h.44l.17 2.34.09 1.23h.05l.54-2.51h.55l.54 2.51h.05l.09-1.23.17-2.34h.43l-.32 4.08h-.71l-.5-2.44h-.05l-.5 2.44h-.72Z" class="Vector"/>
          <path id="Vector_77" fill="#000" d="M147.53 333.76c-.5 0-.87-.18-1.11-.54-.24-.36-.37-.88-.37-1.57 0-.69.12-1.21.37-1.57.25-.36.61-.54 1.11-.54.19 0 .35.03.49.08s.25.12.35.21c.1.08.18.18.25.29.07.11.12.22.18.32l-.42.19a5.92 5.92 0 0 0-.12-.25.87.87 0 0 0-.17-.21.594.594 0 0 0-.23-.14.77.77 0 0 0-.32-.05c-.32 0-.56.12-.72.37-.16.25-.24.57-.24.98v.67c0 .41.08.74.24.98.16.25.4.37.72.37.12 0 .23-.02.32-.05.09-.04.16-.08.23-.14a1.198 1.198 0 0 0 .29-.46l.42.19c-.05.11-.11.22-.18.33-.07.11-.15.2-.25.29-.1.09-.21.15-.35.21-.14.05-.3.08-.49.08v-.04Z" class="Vector"/>
        </g>
      </g>
      <g id="room_WC_3" class="room_WC">
        <path id="area_11" fill="#D9D9D9" d="M126.86 313.04h-23.23v30.5h23.23v-30.5Z" class="area"/>
        <g id="text_8" class="text">
          <path id="Vector_78" fill="#000" d="M105.22 317.67h.87v1.87h.04c.07-.18.18-.33.32-.45s.33-.18.57-.18c.17 0 .32.03.46.09s.26.16.36.29c.1.13.18.29.23.49.06.2.08.44.08.71 0 .27-.03.51-.08.71-.06.2-.13.36-.23.49s-.22.22-.36.29c-.14.06-.29.09-.46.09-.24 0-.43-.06-.57-.17-.14-.12-.25-.27-.32-.45h-.04v.55h-.87v-4.33Zm1.42 3.71c.19 0 .35-.06.45-.18.11-.12.16-.28.16-.49v-.46c0-.21-.05-.37-.16-.49-.1-.12-.26-.18-.45-.18-.15 0-.28.04-.39.11-.11.07-.17.19-.17.35v.88c0 .16.06.28.17.35.11.07.24.11.39.11Z" class="Vector"/>
          <path id="Vector_79" fill="#000" d="M111.17 321.99c-.18 0-.32-.05-.43-.14-.11-.09-.17-.22-.19-.39h-.03c-.05.2-.16.35-.32.45-.16.1-.36.15-.59.15-.29 0-.53-.08-.7-.24-.18-.16-.27-.38-.27-.66 0-.32.11-.55.34-.7.23-.15.57-.23 1.01-.23h.49v-.15c0-.18-.04-.32-.13-.41-.08-.09-.23-.14-.42-.14-.18 0-.33.04-.44.11-.11.07-.21.16-.29.27l-.47-.42c.1-.17.26-.31.48-.42.22-.11.49-.17.83-.17.41 0 .74.09.97.28.23.19.35.48.35.86v1.32h.33v.63h-.52Zm-1.25-.49c.15 0 .28-.04.39-.11.11-.07.16-.18.16-.32v-.36h-.46c-.35 0-.53.12-.53.36v.12c0 .1.04.18.12.24.08.06.19.08.33.08l-.01-.01Z" class="Vector"/>
          <path id="Vector_80" fill="#000" d="M112.2 321.31h.7v-1.66h-.7v-.68h1.56v.85h.04c.03-.11.07-.21.11-.32.05-.1.11-.2.19-.28.08-.08.17-.14.28-.19.11-.05.24-.07.39-.07h.29v.79h-.64c-.21 0-.38.06-.49.19a.68.68 0 0 0-.16.46v.89h.99v.68h-2.56v-.68.02Z" class="Vector"/>
          <path id="Vector_81" fill="#000" d="M115.65 321.31h.7v-1.66h-.7v-.68h1.56v.85h.04c.03-.11.07-.21.11-.32.05-.1.11-.2.19-.28.08-.08.17-.14.28-.19.11-.05.24-.07.39-.07h.29v.79h-.64c-.21 0-.38.06-.49.19a.68.68 0 0 0-.16.46v.89h.99v.68h-2.56v-.68.02Z" class="Vector"/>
          <path id="Vector_82" fill="#000" d="M119.22 321.31h.96v-1.66h-.96v-.68h1.82v2.34h.89v.68h-2.71v-.68Zm1.39-2.72c-.19 0-.33-.04-.41-.12a.391.391 0 0 1-.11-.29v-.17c0-.12.04-.21.11-.29.08-.08.21-.12.41-.12.2 0 .33.04.41.12.08.08.11.18.11.29v.17c0 .11-.04.21-.11.29-.08.08-.21.12-.41.12Z" class="Vector"/>
          <path id="Vector_83" fill="#000" d="M123.96 322.06c-.51 0-.89-.14-1.15-.42-.26-.28-.39-.66-.39-1.15 0-.25.03-.47.1-.66.07-.2.17-.36.29-.5.13-.14.28-.24.46-.32.18-.07.39-.11.61-.11.22 0 .43.04.61.11s.33.17.46.31c.12.13.22.29.29.48.07.19.1.4.1.63v.26h-2.06v.05c0 .2.06.35.18.47s.3.18.53.18c.18 0 .33-.03.46-.1s.24-.16.33-.27l.47.51c-.12.14-.28.27-.49.37-.21.11-.48.16-.8.16Zm-.07-2.53a.61.61 0 0 0-.45.17.66.66 0 0 0-.17.47v.05h1.22v-.05c0-.2-.05-.36-.16-.47a.587.587 0 0 0-.44-.17Z" class="Vector"/>
          <path id="Vector_84" fill="#000" d="M110.48 327.16h.7v-1.66h-.7v-.68h1.56v.85h.04c.03-.11.07-.21.11-.32.05-.1.11-.2.19-.28.08-.08.17-.14.28-.19.11-.05.24-.07.39-.07h.29v.79h-.64c-.21 0-.38.06-.49.19a.68.68 0 0 0-.16.46v.89h.99v.68h-2.56v-.68.02Z" class="Vector"/>
          <path id="Vector_85" fill="#000" d="M115.33 327.91c-.51 0-.89-.14-1.15-.42-.26-.28-.39-.66-.39-1.15 0-.25.03-.47.1-.66.07-.2.17-.36.29-.5.13-.14.28-.24.46-.32.18-.07.39-.11.61-.11.22 0 .43.04.61.11s.33.17.46.31c.12.13.22.29.29.48.07.19.1.4.1.63v.26h-2.06v.05c0 .2.06.35.18.47s.3.18.53.18c.18 0 .33-.03.46-.1s.24-.16.33-.27l.47.51c-.12.14-.28.27-.49.37-.21.11-.48.16-.8.16Zm-.07-2.54a.61.61 0 0 0-.45.17.66.66 0 0 0-.17.47v.05h1.22v-.05c0-.2-.05-.36-.16-.47a.587.587 0 0 0-.44-.17Z" class="Vector"/>
          <path id="Vector_86" fill="#000" d="M117.77 326.47v-.83h1.87v.83h-1.87Z" class="Vector"/>
          <path id="Vector_87" fill="#000" d="M105.29 333.01h.89v-1.66h-.95v-.68h.95v-.44c0-.26.08-.47.23-.63.15-.16.38-.24.7-.24h1.02v.68h-1.08v.63h1.08v.68h-1.08v1.66h.95v.68h-2.7v-.68h-.01Z" class="Vector"/>
          <path id="Vector_88" fill="#000" d="M108.75 333.01h.7v-1.66h-.7v-.68h1.56v.85h.04c.03-.11.07-.21.11-.32.05-.1.11-.2.19-.28.08-.08.17-.14.28-.19.11-.05.24-.07.39-.07h.29v.79h-.64c-.21 0-.38.06-.49.19a.68.68 0 0 0-.16.46v.89h.99v.68h-2.56v-.68.02Z" class="Vector"/>
          <path id="Vector_89" fill="#000" d="M113.61 333.76c-.51 0-.89-.14-1.15-.42-.26-.28-.39-.66-.39-1.15 0-.25.03-.47.1-.66.07-.2.17-.36.29-.5.13-.14.28-.24.46-.32.18-.07.39-.11.61-.11.22 0 .43.04.61.11s.33.17.46.31c.12.13.22.29.29.48.07.19.1.4.1.63v.26h-2.06v.05c0 .2.06.35.18.47s.3.18.53.18c.18 0 .33-.03.46-.1s.24-.16.33-.27l.47.51c-.12.14-.28.27-.49.37-.21.11-.48.16-.8.16Zm-.07-2.54a.61.61 0 0 0-.45.17.66.66 0 0 0-.17.47v.05h1.22v-.05c0-.2-.05-.36-.16-.47a.587.587 0 0 0-.44-.17Z" class="Vector"/>
          <path id="Vector_90" fill="#000" d="M115.77 333.01h.96v-1.66h-.96v-.68h1.82v2.34h.89v.68h-2.71v-.68Zm1.39-2.72c-.19 0-.33-.04-.41-.12a.391.391 0 0 1-.11-.29v-.17c0-.12.04-.21.11-.29.08-.08.21-.12.41-.12.2 0 .33.04.41.12.08.08.11.18.11.29v.17c0 .11-.04.21-.11.29-.08.08-.21.12-.41.12Z" class="Vector"/>
          <path id="Vector_91" fill="#000" d="M120.51 333.76c-.51 0-.89-.14-1.15-.42-.26-.28-.39-.66-.39-1.15 0-.25.03-.47.1-.66.07-.2.17-.36.29-.5.13-.14.28-.24.46-.32.18-.07.39-.11.61-.11.22 0 .43.04.61.11s.33.17.46.31c.12.13.22.29.29.48.07.19.1.4.1.63v.26h-2.06v.05c0 .2.06.35.18.47s.3.18.53.18c.18 0 .33-.03.46-.1s.24-.16.33-.27l.47.51c-.12.14-.28.27-.49.37-.21.11-.48.16-.8.16Zm-.07-2.54a.61.61 0 0 0-.45.17.66.66 0 0 0-.17.47v.05h1.22v-.05c0-.2-.05-.36-.16-.47a.587.587 0 0 0-.44-.17Z" class="Vector"/>
          <path id="Vector_92" fill="#000" d="M123.84 333.76c-.34 0-.63-.05-.87-.15-.24-.1-.43-.24-.56-.42l.49-.45c.12.13.25.23.41.3.16.07.34.11.54.11.17 0 .31-.03.4-.08.1-.05.15-.13.15-.24 0-.09-.03-.15-.1-.18s-.16-.06-.27-.08l-.49-.08c-.14-.02-.26-.05-.38-.09a.86.86 0 0 1-.5-.43.81.81 0 0 1-.08-.37c0-.32.12-.56.36-.74.24-.18.58-.27 1.02-.27.3 0 .55.04.76.12.21.08.38.19.5.34l-.43.49a1.132 1.132 0 0 0-.86-.35c-.34 0-.5.1-.5.3 0 .09.03.15.1.18s.16.06.27.08l.48.08c.14.02.26.05.38.09.12.04.22.1.31.17s.16.16.21.26c.05.1.08.22.08.37 0 .32-.12.57-.37.75-.24.18-.59.28-1.04.28l-.01.01Z" class="Vector"/>
          <path id="Vector_93" fill="#000" d="m112.09 339.54-.25-4.08h.75l.12 2.44.04.77h.05l.35-2.33h.79l.35 2.33h.05l.04-.75.12-2.47h.73l-.25 4.08h-1.11l-.3-2.25h-.06l-.3 2.25h-1.11l-.01.01Z" class="Vector"/>
          <path id="Vector_94" fill="#000" d="M117.07 339.61c-.55 0-.95-.18-1.21-.55-.26-.37-.4-.89-.4-1.56s.13-1.19.4-1.56c.26-.37.67-.55 1.21-.55.21 0 .4.03.56.08.16.06.3.14.42.24.12.1.21.22.29.37.08.14.14.31.18.49l-.82.2c-.02-.1-.05-.19-.08-.27a.72.72 0 0 0-.12-.21.623.623 0 0 0-.18-.14.669.669 0 0 0-.26-.05c-.24 0-.41.09-.51.28-.1.19-.15.44-.15.77v.71c0 .33.05.58.15.77.1.18.27.28.51.28.2 0 .35-.06.44-.19.09-.12.16-.29.2-.48l.82.2c-.04.18-.1.34-.18.49-.08.14-.17.27-.29.37-.12.1-.26.18-.42.24-.16.05-.35.08-.56.08v-.01Z" class="Vector"/>
        </g>
      </g>
      <g id="room_Sonstiges_23" class="room_Sonstiges">
        <g id="text_9" class="text">
          <path id="Vector_95" fill="#000" d="M194.54 87.83h3.36v.88h-3.36v1.17h-.72v-3.23h.72v1.18Z" class="Vector"/>
          <path id="Vector_96" fill="#000" d="M197.97 84.74c0 .51-.14.89-.42 1.15-.28.26-.66.39-1.15.39-.25 0-.47-.03-.66-.1-.2-.07-.36-.17-.5-.29a1.36 1.36 0 0 1-.32-.46c-.07-.18-.11-.38-.11-.61 0-.23.04-.43.11-.61s.17-.33.31-.46c.13-.12.29-.22.48-.29.19-.07.4-.1.63-.1h.26v2.06h.05c.19 0 .35-.06.47-.18s.18-.3.18-.53c0-.18-.03-.33-.1-.46s-.16-.24-.27-.33l.51-.47c.14.12.27.28.37.49.1.21.16.48.16.8Zm-2.54.07c0 .19.06.34.17.45.12.11.27.17.46.17h.05v-1.22h-.05c-.2 0-.35.05-.47.16-.11.11-.17.25-.17.44h.01Z" class="Vector"/>
          <path id="Vector_97" fill="#000" d="M197.97 81.25c0 .24-.04.45-.11.64s-.18.35-.31.48c-.14.13-.3.23-.5.3-.19.07-.42.11-.66.11-.24 0-.47-.04-.66-.11-.2-.07-.36-.17-.5-.3-.14-.13-.24-.29-.31-.48s-.11-.4-.11-.63c0-.33.07-.6.2-.8.13-.2.31-.35.54-.46l.36.67c-.12.05-.21.13-.29.21-.08.09-.12.21-.12.38 0 .2.06.35.17.46.11.11.27.16.47.16h.49c.2 0 .36-.05.47-.16.12-.11.17-.26.17-.47 0-.17-.04-.3-.12-.4-.08-.09-.18-.18-.3-.24l.37-.66c.22.11.4.27.54.48.13.21.2.48.2.82h.01Z" class="Vector"/>
          <path id="Vector_98" fill="#000" d="M193.57 79.29v-.87h1.86v-.03a1.123 1.123 0 0 1-.44-.31.745.745 0 0 1-.13-.25c-.03-.1-.05-.2-.05-.33 0-.14.02-.28.07-.4a.84.84 0 0 1 .22-.31c.1-.09.22-.15.36-.2.14-.05.3-.07.49-.07h1.95v.87h-1.84c-.39 0-.58.17-.58.51 0 .07 0 .13.03.2s.04.12.08.17a.38.38 0 0 0 .33.16h1.98v.87h-4.33v-.01Z" class="Vector"/>
          <path id="Vector_99" fill="#000" d="M197.9 75.84h-3.02v-.87h.55v-.03a1.123 1.123 0 0 1-.44-.31.745.745 0 0 1-.13-.25c-.03-.1-.05-.2-.05-.33 0-.14.02-.28.07-.4a.84.84 0 0 1 .22-.31c.1-.09.22-.15.36-.2.14-.05.3-.07.49-.07h1.95v.87h-1.84c-.39 0-.58.17-.58.51 0 .07 0 .13.03.2s.04.12.08.17a.38.38 0 0 0 .33.16h1.98v.87-.01Z" class="Vector"/>
          <path id="Vector_100" fill="#000" d="M194.5 70.83c0 .19-.04.33-.12.41-.08.08-.18.11-.29.11h-.17c-.12 0-.21-.04-.29-.11-.08-.07-.12-.21-.12-.41 0-.2.04-.33.12-.41.08-.08.18-.11.29-.11h.17c.11 0 .21.04.29.11.08.08.12.21.12.41Zm2.72 1.39v-.96h-1.66v.96h-.68V70.4h2.34v-.89h.68v2.71h-.68Z" class="Vector"/>
          <path id="Vector_101" fill="#000" d="M193.57 68.94v-.87h2.46v-.04l-.47-.4-.67-.63v-1l1.19 1.17 1.82-1.29v1.03l-1.33.88.29.29h1.05v.87h-4.33l-.01-.01Z" class="Vector"/>
        </g>
      </g>
      <g id="room_Sonstiges_24" class="room_Sonstiges">
        <g id="text_10" class="text">
          <path id="Vector_102" fill="#000" d="M93.13 338.2h3.36v.88h-3.36v1.17h-.72v-3.23h.72v1.18Z" class="Vector"/>
          <path id="Vector_103" fill="#000" d="M96.56 335.1c0 .51-.14.89-.42 1.15-.28.26-.66.39-1.15.39-.25 0-.47-.03-.66-.1-.2-.07-.36-.17-.5-.29a1.36 1.36 0 0 1-.32-.46c-.07-.18-.11-.38-.11-.61 0-.23.04-.43.11-.61s.17-.33.31-.46c.13-.12.29-.22.48-.29.19-.07.4-.1.63-.1h.26v2.06h.05c.19 0 .35-.06.47-.18s.18-.3.18-.53c0-.18-.03-.33-.1-.46s-.16-.24-.27-.33l.51-.47c.14.12.27.28.37.49.1.21.16.48.16.8Zm-2.54.07c0 .19.06.34.17.45.12.11.27.17.46.17h.05v-1.22h-.05c-.2 0-.35.05-.47.16-.11.11-.17.25-.17.44h.01Z" class="Vector"/>
          <path id="Vector_104" fill="#000" d="M96.56 331.61c0 .24-.04.45-.11.64s-.18.35-.31.48c-.14.13-.3.23-.5.3-.19.07-.42.11-.66.11-.24 0-.47-.04-.66-.11-.2-.07-.36-.17-.5-.3-.14-.13-.24-.29-.31-.48s-.11-.4-.11-.63c0-.33.07-.6.2-.8.13-.2.31-.35.54-.46l.36.67c-.12.05-.21.13-.29.21-.08.09-.12.21-.12.38 0 .2.06.35.17.46.11.11.27.16.47.16h.49c.2 0 .36-.05.47-.16.12-.11.17-.26.17-.47 0-.17-.04-.3-.12-.4-.08-.09-.18-.18-.3-.24l.37-.66c.22.11.4.27.54.48.13.21.2.48.2.82h.01Z" class="Vector"/>
          <path id="Vector_105" fill="#000" d="M92.16 329.66v-.87h1.86v-.03a1.123 1.123 0 0 1-.44-.31.745.745 0 0 1-.13-.25c-.03-.1-.05-.2-.05-.33 0-.14.02-.28.07-.4a.84.84 0 0 1 .22-.31c.1-.09.22-.15.36-.2.14-.05.3-.07.49-.07h1.95v.87h-1.84c-.39 0-.58.17-.58.51 0 .07 0 .13.03.2s.04.12.08.17a.38.38 0 0 0 .33.16h1.98v.87h-4.33v-.01Z" class="Vector"/>
          <path id="Vector_106" fill="#000" d="M96.49 326.21h-3.02v-.87h.55v-.03a1.123 1.123 0 0 1-.44-.31.745.745 0 0 1-.13-.25c-.03-.1-.05-.2-.05-.33 0-.14.02-.28.07-.4a.84.84 0 0 1 .22-.31c.1-.09.22-.15.36-.2.14-.05.3-.07.49-.07h1.95v.87h-1.84c-.39 0-.58.17-.58.51 0 .07 0 .13.03.2s.04.12.08.17a.38.38 0 0 0 .33.16h1.98v.87-.01Z" class="Vector"/>
          <path id="Vector_107" fill="#000" d="M93.09 321.2c0 .19-.04.33-.12.41-.08.08-.18.11-.29.11h-.17c-.12 0-.21-.04-.29-.11-.08-.07-.12-.21-.12-.41 0-.2.04-.33.12-.41.08-.08.18-.11.29-.11h.17c.11 0 .21.04.29.11.08.08.12.21.12.41Zm2.72 1.39v-.96h-1.66v.96h-.68v-1.82h2.34v-.89h.68v2.71h-.68Z" class="Vector"/>
          <path id="Vector_108" fill="#000" d="M92.16 319.31v-.87h2.46v-.04l-.47-.4-.67-.63v-1l1.19 1.17 1.82-1.29v1.03l-1.33.88.29.29h1.05v.87h-4.33l-.01-.01Z" class="Vector"/>
        </g>
      </g>
    </g>
    <g id="walls" class="walls">
      <path id="Vector_109" stroke="#000" stroke-miterlimit="10" d="m88.1 175.81.03 167.72h79.17" class="Vector"/>
      <path id="Vector_110" stroke="#000" stroke-miterlimit="10" d="M72.5 68.3v33.78h.05v272.68h97.8l-25.43-272.68h111.34v76.58h18.77v20.92h9.74V68.3H72.5Z" class="Vector"/>
      <path id="Vector_111" stroke="#000" stroke-miterlimit="10" d="M340.72 9.76h-84.46V68.3h84.46V9.76Z" class="Vector"/>
      <path id="Vector_112" stroke="#000" stroke-miterlimit="10" d="M340.73 68.3h-55.96v33.79h55.96V68.3Z" class="Vector"/>
      <path id="Vector_113" stroke="#000" stroke-miterlimit="10" d="M340.73 102.08h-55.96v84.46h55.96v-84.46Z" class="Vector"/>
      <path id="Vector_114" stroke="#000" stroke-miterlimit="10" d="M275.02 178.66h-18.76v82.72h18.76v-82.72Z" class="Vector"/>
      <path id="Vector_115" stroke="#000" stroke-miterlimit="10" d="M256.26 9.76H171.8V68.3h84.46V9.76Z" class="Vector"/>
      <path id="Vector_116" stroke="#000" stroke-miterlimit="10" d="M190.73 68.3H171.8v18.93h18.93V68.3Z" class="Vector"/>
      <path id="Vector_117" stroke="#000" stroke-miterlimit="10" d="M203.17 68.3h-12.43v18.93h12.43V68.3Z" class="Vector"/>
      <path id="Vector_118" stroke="#000" stroke-miterlimit="10" d="M242.64 102.08V87.23" class="Vector"/>
      <path id="Vector_119" stroke="#000" stroke-miterlimit="10" d="M230.3 102.08V87.23" class="Vector"/>
      <path id="Vector_120" stroke="#000" stroke-miterlimit="10" d="M217.95 102.08V87.23" class="Vector"/>
      <path id="Vector_121" stroke="#000" stroke-miterlimit="10" d="M256.26 102.08h14.86" class="Vector"/>
      <path id="Vector_122" stroke="#000" stroke-miterlimit="10" d="M256.26 116.27h14.86" class="Vector"/>
      <path id="Vector_123" stroke="#000" stroke-miterlimit="10" d="M256.26 140.38h14.86" class="Vector"/>
      <path id="Vector_124" stroke="#000" stroke-miterlimit="10" d="M256.26 154.09h14.86" class="Vector"/>
      <path id="Vector_125" stroke="#000" stroke-miterlimit="10" d="M85.51 87.23V68.3H72.5v18.93h13.01Z" class="Vector"/>
      <path id="Vector_126" stroke="#000" stroke-miterlimit="10" d="M92.01 87.23V68.3h-3.25v18.93h3.25Z" class="Vector"/>
      <path id="Vector_127" stroke="#000" stroke-miterlimit="10" d="M88.76 87.23V68.3h-3.25v18.93h3.25Z" class="Vector"/>
      <path id="Vector_128" stroke="#000" stroke-miterlimit="10" d="M95.27 87.22V68.29h-3.25v18.93h3.25Z" class="Vector"/>
      <path id="Vector_129" stroke="#000" stroke-miterlimit="10" d="M98.52 87.23V68.3h-3.25v18.93h3.25Z" class="Vector"/>
      <path id="Vector_130" stroke="#000" stroke-miterlimit="10" d="M101.77 87.23V68.3h-3.25v18.93h3.25Z" class="Vector"/>
      <path id="Vector_131" stroke="#000" stroke-miterlimit="10" d="M105.02 87.23V68.3h-3.25v18.93h3.25Z" class="Vector"/>
      <path id="Vector_132" stroke="#000" stroke-miterlimit="10" d="M108.28 87.23V68.3h-3.25v18.93h3.25Z" class="Vector"/>
      <path id="Vector_133" stroke="#000" stroke-miterlimit="10" d="M111.53 87.23V68.3h-3.25v18.93h3.25Z" class="Vector"/>
      <path id="Vector_134" stroke="#000" stroke-miterlimit="10" d="M114.78 87.23V68.3h-3.25v18.93h3.25Z" class="Vector"/>
      <path id="Vector_135" stroke="#000" stroke-miterlimit="10" d="M118.04 87.23V68.3h-3.25v18.93h3.25Z" class="Vector"/>
      <path id="Vector_136" stroke="#000" stroke-miterlimit="10" d="M121.29 87.23V68.3h-3.25v18.93h3.25Z" class="Vector"/>
      <path id="Vector_137" stroke="#000" stroke-miterlimit="10" d="M124.54 87.23V68.3h-3.25v18.93h3.25Z" class="Vector"/>
      <path id="Vector_138" stroke="#000" stroke-miterlimit="10" d="M127.79 87.23V68.3h-3.25v18.93h3.25Z" class="Vector"/>
      <path id="Vector_139" stroke="#000" stroke-miterlimit="10" d="M131.05 87.22V68.29h-3.25v18.93h3.25Z" class="Vector"/>
      <path id="Vector_140" stroke="#000" stroke-miterlimit="10" d="M134.3 87.23V68.3h-3.25v18.93h3.25Z" class="Vector"/>
      <path id="Vector_141" stroke="#000" stroke-miterlimit="10" d="M137.55 87.23V68.3h-3.25v18.93h3.25Z" class="Vector"/>
      <path id="Vector_142" stroke="#000" stroke-miterlimit="10" d="M140.8 87.23V68.3h-3.25v18.93h3.25Z" class="Vector"/>
      <path id="Vector_143" stroke="#000" stroke-miterlimit="10" d="M144.06 87.23V68.3h-3.25v18.93h3.25Z" class="Vector"/>
      <path id="Vector_144" stroke="#000" stroke-miterlimit="10" d="M151.35 77.61 148.13 76v3.22l3.22-1.61Z" class="Vector"/>
      <path id="Vector_145" stroke="#000" stroke-miterlimit="10" d="M148.13 77.76H80.25" class="Vector"/>
      <path id="Vector_146" stroke="#000" stroke-miterlimit="10" d="M88.1 175.81h63.69" class="Vector"/>
      <path id="Vector_147" stroke="#000" stroke-miterlimit="10" d="M88.13 230.97h68.7" class="Vector"/>
      <path id="Vector_148" stroke="#000" stroke-miterlimit="10" d="M88.13 313.04h76.33" class="Vector"/>
      <path id="Vector_149" stroke="#000" stroke-miterlimit="10" d="M126.87 313.04v30.49" class="Vector"/>
      <path id="Vector_150" stroke="#000" stroke-miterlimit="10" d="M103.63 313.04v30.49" class="Vector"/>
      <path id="Vector_151" stroke="#000" stroke-miterlimit="10" d="M88.13 202.74h66.19" class="Vector"/>
      <path id="Vector_152" stroke="#000" stroke-miterlimit="10" d="M275.02 238.62h-18.76v22.76h18.76v-22.76Z" class="Vector"/>
      <path id="Vector_153" stroke="#000" stroke-miterlimit="10" d="M275.02 245.12h-18.76v3.25h18.76v-3.25Z" class="Vector"/>
      <path id="Vector_154" stroke="#000" stroke-miterlimit="10" d="M275.02 241.87h-18.76v3.25h18.76v-3.25Z" class="Vector"/>
      <path id="Vector_155" stroke="#000" stroke-miterlimit="10" d="M275.02 238.61h-18.76v3.25h18.76v-3.25Z" class="Vector"/>
      <path id="Vector_156" stroke="#000" stroke-miterlimit="10" d="M275.02 235.36h-18.76v3.25h18.76v-3.25Z" class="Vector"/>
      <path id="Vector_157" stroke="#000" stroke-miterlimit="10" d="M275.02 232.11h-18.76v3.25h18.76v-3.25Z" class="Vector"/>
      <path id="Vector_158" stroke="#000" stroke-miterlimit="10" d="M275.02 228.86h-18.76v3.25h18.76v-3.25Z" class="Vector"/>
      <path id="Vector_159" stroke="#000" stroke-miterlimit="10" d="M275.02 225.6h-18.76v3.25h18.76v-3.25Z" class="Vector"/>
      <path id="Vector_160" stroke="#000" stroke-miterlimit="10" d="M275.02 222.35h-18.76v3.25h18.76v-3.25Z" class="Vector"/>
      <path id="Vector_161" stroke="#000" stroke-miterlimit="10" d="M275.02 219.1h-18.76v3.25h18.76v-3.25Z" class="Vector"/>
      <path id="Vector_162" stroke="#000" stroke-miterlimit="10" d="M275.02 215.85h-18.76v3.25h18.76v-3.25Z" class="Vector"/>
      <path id="Vector_163" stroke="#000" stroke-miterlimit="10" d="M275.02 212.59h-18.76v3.25h18.76v-3.25Z" class="Vector"/>
      <path id="Vector_164" stroke="#000" stroke-miterlimit="10" d="M275.02 209.34h-18.76v3.25h18.76v-3.25Z" class="Vector"/>
      <path id="Vector_165" stroke="#000" stroke-miterlimit="10" d="M275.02 206.09h-18.76v3.25h18.76v-3.25Z" class="Vector"/>
      <path id="Vector_166" stroke="#000" stroke-miterlimit="10" d="M275.02 202.83h-18.76v3.25h18.76v-3.25Z" class="Vector"/>
      <path id="Vector_167" stroke="#000" stroke-miterlimit="10" d="M275.02 199.58h-18.76v3.25h18.76v-3.25Z" class="Vector"/>
      <path id="Vector_168" stroke="#000" stroke-miterlimit="10" d="m265.35 256.34 1.61-3.23h-3.23l1.62 3.23Z" class="Vector"/>
      <path id="Vector_169" stroke="#000" stroke-miterlimit="10" d="M265.35 253.11v-59.29" class="Vector"/>
      <path id="Vector_170" stroke="#000" stroke-miterlimit="10" d="M88.1 175.81v-73.73h56.82" class="Vector"/>
      <path id="Vector_171" stroke="#000" stroke-miterlimit="10" d="M151.42 374.82v-18.93h-11.28v18.93h11.28Z" class="Vector"/>
      <path id="Vector_172" stroke="#000" stroke-miterlimit="10" d="M91.35 374.82v-18.93H88.1v18.93h3.25Z" class="Vector"/>
      <path id="Vector_173" stroke="#000" stroke-miterlimit="10" d="M94.6 374.82v-18.93h-3.25v18.93h3.25Z" class="Vector"/>
      <path id="Vector_174" stroke="#000" stroke-miterlimit="10" d="M97.85 374.81v-18.93H94.6v18.93h3.25Z" class="Vector"/>
      <path id="Vector_175" stroke="#000" stroke-miterlimit="10" d="M101.11 374.82v-18.93h-3.25v18.93h3.25Z" class="Vector"/>
      <path id="Vector_176" stroke="#000" stroke-miterlimit="10" d="M104.36 374.82v-18.93h-3.25v18.93h3.25Z" class="Vector"/>
      <path id="Vector_177" stroke="#000" stroke-miterlimit="10" d="M107.61 374.81v-18.93h-3.25v18.93h3.25Z" class="Vector"/>
      <path id="Vector_178" stroke="#000" stroke-miterlimit="10" d="M110.87 374.82v-18.93h-3.25v18.93h3.25Z" class="Vector"/>
      <path id="Vector_179" stroke="#000" stroke-miterlimit="10" d="M114.12 374.82v-18.93h-3.25v18.93h3.25Z" class="Vector"/>
      <path id="Vector_180" stroke="#000" stroke-miterlimit="10" d="M117.37 374.82v-18.93h-3.25v18.93h3.25Z" class="Vector"/>
      <path id="Vector_181" stroke="#000" stroke-miterlimit="10" d="M120.62 374.81v-18.93h-3.25v18.93h3.25Z" class="Vector"/>
      <path id="Vector_182" stroke="#000" stroke-miterlimit="10" d="M123.88 374.82v-18.93h-3.25v18.93h3.25Z" class="Vector"/>
      <path id="Vector_183" stroke="#000" stroke-miterlimit="10" d="M127.13 374.82v-18.93h-3.25v18.93h3.25Z" class="Vector"/>
      <path id="Vector_184" stroke="#000" stroke-miterlimit="10" d="M130.38 374.82v-18.93h-3.25v18.93h3.25Z" class="Vector"/>
      <path id="Vector_185" stroke="#000" stroke-miterlimit="10" d="M133.63 374.81v-18.93h-3.25v18.93h3.25Z" class="Vector"/>
      <path id="Vector_186" stroke="#000" stroke-miterlimit="10" d="M136.89 374.82v-18.93h-3.25v18.93h3.25Z" class="Vector"/>
      <path id="Vector_187" stroke="#000" stroke-miterlimit="10" d="M140.14 374.82v-18.93h-3.25v18.93h3.25Z" class="Vector"/>
      <path id="Vector_188" stroke="#000" stroke-miterlimit="10" d="m81.01 365.2 3.22 1.62v-3.23l-3.22 1.61Z" class="Vector"/>
      <path id="Vector_189" stroke="#000" stroke-miterlimit="10" d="M84.23 365.05h61.46" class="Vector"/>
      <path id="Vector_190" stroke="#000" stroke-miterlimit="10" d="M284.77 186.54v13.04h-9.74v61.8h65.7v-74.84h-55.96Z" class="Vector"/>
    </g>
  </g>
</svg>
